<?xml version="1.0" encoding="utf-8"?>
<!-- Generator: Adobe Illustrator 23.0.3, SVG Export Plug-In . SVG Version: 6.00 Build 0)  -->
<svg version="1.1" id="Camada_1" xmlns="http://www.w3.org/2000/svg" xmlns:xlink="http://www.w3.org/1999/xlink" x="0px" y="0px"
	 viewBox="0 0 500 87.02" style="enable-background:new 0 0 500 87.02;" xml:space="preserve">
<style type="text/css">
	.st0{fill-rule:evenodd;clip-rule:evenodd;fill:#002663;}
	.st1{fill-rule:evenodd;clip-rule:evenodd;fill:#A3BD34;}
	.st2{fill-rule:evenodd;clip-rule:evenodd;fill:url(#SVGID_1_);}
	.st3{fill:#FFFFFF;}
	.st4{fill:#A3BD34;}
</style>
<g>
	<g>
		<path class="st0" d="M279.64,47.69c-7.74-11.97-15.48-23.94-23.22-35.9c-0.29-0.45-0.75-0.7-1.28-0.7h-18.29
			c-0.57,0-1.06,0.29-1.34,0.79c-0.28,0.5-0.26,1.07,0.05,1.55l21.52,33.84c0.32,0.51,0.32,1.13,0,1.64l-22.96,36.12
			c-0.31,0.48-0.32,1.05-0.05,1.55c0.28,0.5,0.77,0.79,1.34,0.79h18.3c0.53,0,0.98-0.24,1.27-0.68
			c8.57-12.97,16.32-24.71,24.66-37.33C279.98,48.85,279.98,48.21,279.64,47.69z"/>
		<path class="st1" d="M272.78,64.56l14.31,22.12c0.29,0.45,0.75,0.7,1.28,0.7h19.33c0.57,0,1.07-0.29,1.34-0.8
			c0.27-0.5,0.25-1.08-0.06-1.56l-23.21-35.83c-0.33-0.51-0.34-1.14,0-1.66l28.88-44.83c0.31-0.48,0.33-1.05,0.06-1.56
			c-0.27-0.5-0.77-0.79-1.34-0.79h-14.42c-4,0-6.85,1.7-8.57,5.12c-0.02,0.03-0.03,0.06-0.05,0.1l-1.31,2.2
			c-0.01,0.02-0.02,0.04-0.04,0.06c-4.87,7.37-10.54,16.12-16.04,24.6l9.34,14.44l0.01,0.01c0.32,0.5,0.49,1.08,0.49,1.66
			c0,0.58-0.17,1.16-0.51,1.66L272.78,64.56z"/>
		
			<radialGradient id="SVGID_1_" cx="-1300.6233" cy="68.5524" r="176.1965" gradientTransform="matrix(0.3123 0 0 0.3123 649.1102 28.1153)" gradientUnits="userSpaceOnUse">
			<stop  offset="0.145" style="stop-color:#3B683D"/>
			<stop  offset="0.2832" style="stop-color:#436E3C"/>
			<stop  offset="0.4939" style="stop-color:#58803A"/>
			<stop  offset="0.7494" style="stop-color:#7A9C37"/>
			<stop  offset="1" style="stop-color:#A3BD34"/>
		</radialGradient>
		<path class="st2" d="M272.78,64.56l14.31,22.12c0.29,0.45,0.75,0.7,1.28,0.7h19.33c0.57,0,1.07-0.29,1.34-0.8
			c0.27-0.5,0.25-1.08-0.06-1.56l-23.21-35.83c-0.33-0.51-0.34-1.14,0-1.66l28.88-44.83c0.31-0.48,0.33-1.05,0.06-1.56
			c-0.27-0.5-0.77-0.79-1.34-0.79h-14.42c-4,0-6.85,1.7-8.57,5.12c-0.02,0.03-0.03,0.06-0.05,0.1l-1.31,2.2
			c-0.01,0.02-0.02,0.04-0.04,0.06c-4.87,7.37-10.54,16.12-16.04,24.6l9.34,14.44l0.01,0.01c0.32,0.5,0.49,1.08,0.49,1.66
			c0,0.58-0.17,1.16-0.51,1.66L272.78,64.56z"/>
	</g>
	<path class="st3" d="M180.53,78.46c0,1.53,0.99,2.35,3.07,2.35c2.07,0,3.07-0.81,3.07-2.35V36.31c0-6.32-1.9-11.37-5.69-15.16
		c-3.7-3.79-8.57-5.68-14.44-5.68c-5.86,0-10.74,1.89-14.53,5.68c-3.7,3.79-5.6,8.84-5.6,15.16v42.15c0,1.53,0.99,2.35,3.07,2.35
		c2.07,0,3.07-0.81,3.07-2.35V36.23c0-9.48,5.69-15.34,13.99-15.34c8.3,0,13.99,5.87,13.99,15.34V78.46z M130.59,78.46
		c0,1.53,0.99,2.35,3.07,2.35c2.07,0,3.07-0.81,3.07-2.35V36.31c0-6.32-1.9-11.37-5.69-15.16c-3.7-3.79-8.57-5.68-14.44-5.68
		c-5.86,0-10.74,1.89-14.53,5.68c-3.7,3.79-5.6,8.84-5.6,15.16v42.15c0,1.53,0.99,2.35,3.07,2.35c2.07,0,3.07-0.81,3.07-2.35V36.23
		c0-9.48,5.68-15.34,13.99-15.34c8.3,0,13.99,5.87,13.99,15.34V78.46z M87.69,36.31c0-6.32-1.9-11.37-5.69-15.16
		c-3.7-3.79-8.57-5.68-14.44-5.68c-5.87,0-10.74,1.89-14.53,5.68c-3.7,3.79-5.6,8.84-5.6,15.16v24.01c0,6.32,1.89,11.37,5.6,15.16
		c3.79,3.79,8.66,5.69,14.53,5.69c5.87,0,10.74-1.9,14.44-5.69c3.79-3.79,5.69-8.84,5.69-15.16V36.31z M81.56,60.41
		c0,9.47-5.69,15.34-13.99,15.34c-8.3,0-13.99-5.87-13.99-15.34V36.23c0-9.48,5.68-15.34,13.99-15.34c8.3,0,13.99,5.87,13.99,15.34
		V60.41z M201.63,44.77v-8.35c0-9.48,5.68-15.34,13.99-15.34c0.65,0,1.29,0.03,1.9,0.09l0.05,0.01c7.06,0.83,11.82,6.25,12.04,14.61
		l0,0.07l0,0.07l0,0.04l0,0.44v8.35h-21.57v0H201.63z M208.36,50.18h21.26v0h6.14V36.51c0-0.26,0-0.52-0.01-0.78v-0.3
		c0-6.04-1.89-10.92-5.6-14.44c-2.98-2.83-6.72-4.56-11.18-5.12l-0.12-0.01l-0.05-0.01c-1.02-0.13-2.08-0.2-3.18-0.2
		c-7.59,0-13.42,3.24-16.81,8.55c-1.67,2.56-2.72,5.56-3.12,8.98l-0.02,0.19l-0.01,0.12c-0.11,0.98-0.17,1.98-0.17,3.02v24.02
		c0,1.04,0.06,2.05,0.17,3.04l0.01,0.1l0.02,0.19c0.4,3.42,1.45,6.42,3.12,8.98c3.39,5.31,9.23,8.55,16.82,8.55
		c0.97,0,1.91-0.06,2.83-0.16c4.69-0.49,8.61-2.24,11.7-5.18c3.7-3.52,5.6-8.39,5.6-14.44v-0.36c0-1.53-0.99-2.35-3.07-2.35
		c-2.08,0-3.07,0.81-3.07,2.35v0.36c0,0.37-0.02,0.73-0.04,1.08h-0.05c-0.71,7.57-5.33,12.42-12.01,13.18
		c-0.61,0.06-1.24,0.09-1.89,0.09c-8.3,0-13.99-5.87-13.99-15.34V50.13h6.73V50.18z M19.88,75.75c-8.3,0-13.99-5.87-13.99-15.34
		V36.23c0-9.48,5.68-15.34,13.99-15.34c8.57,0,13.9,5.23,13.99,14.35v0.36c0,1.54,0.99,2.35,3.07,2.35c2.07,0,3.07-0.81,3.07-2.35
		v-0.36c0-6.05-1.9-10.92-5.59-14.44c-3.7-3.52-8.57-5.32-14.53-5.32c-5.87,0-10.74,1.89-14.53,5.68c-3.7,3.79-5.6,8.84-5.6,15.16
		v24.01c0,6.32,1.89,11.37,5.6,15.16c3.79,3.79,8.66,5.69,14.53,5.69c5.96,0,10.83-1.81,14.53-5.33c3.7-3.52,5.59-8.39,5.59-14.44
		v-0.36c0-1.53-0.99-2.35-3.07-2.35c-2.08,0-3.07,0.81-3.07,2.35v0.36C33.78,70.52,28.46,75.75,19.88,75.75z"/>
	<g>
		<path class="st4" d="M379.23,25.69h-14.39l-0.2,0.22c-2.88,0.45-5.36,1.65-7.38,3.67c-2.53,2.59-3.82,6.04-3.82,10.36v1.62v14.77
			v12.6c0,1.07,0.69,1.64,2.15,1.64c1.45,0,2.14-0.57,2.14-1.64V58.65v-8.98h18.5c0.83,0,1.27-0.63,1.27-1.89
			c0-1.26-0.44-1.89-1.27-1.89h-18.5v-0.05v-4.28h-0.1v-1.69c0-6.09,3.47-9.96,8.6-10.39h12.99c0.95,0,1.45-0.63,1.45-1.89
			C380.68,26.33,380.18,25.69,379.23,25.69z"/>
		<path class="st4" d="M414.73,25.69h-14.39l-0.2,0.22c-2.88,0.45-5.36,1.65-7.38,3.67c-2.53,2.59-3.82,6.04-3.82,10.36v1.62v14.77
			v12.6c0,1.07,0.69,1.64,2.15,1.64c1.45,0,2.14-0.57,2.14-1.64V58.65v-8.98h18.5c0.83,0,1.27-0.63,1.27-1.89
			c0-1.26-0.44-1.89-1.27-1.89h-18.5v-0.05v-4.28h-0.1v-1.69c0-6.09,3.47-9.96,8.6-10.39h12.99c0.95,0,1.45-0.63,1.45-1.89
			C416.18,26.33,415.67,25.69,414.73,25.69z"/>
		<path class="st4" d="M426.58,25.69c-1.45,0-2.15,0.57-2.15,1.64v12.6v1.62v13.15v1.62v12.6c0,1.07,0.69,1.64,2.15,1.64
			c1.45,0,2.14-0.57,2.14-1.64V58.65v-3.94V41.56v-3.94V27.33C428.73,26.26,428.04,25.69,426.58,25.69z"/>
		<g>
			<path class="st4" d="M481.22,49.07h14.39l0,0h4.16v-9.26c0-0.18,0-0.35-0.01-0.53v-0.2c0-4.09-1.28-7.39-3.79-9.77
				c-2.02-1.92-4.55-3.08-7.57-3.46l-0.08-0.01l-0.18-0.02c-0.65-0.08-1.32-0.12-2.01-0.12c-5.08,0-9,2.15-11.3,5.67l-0.05,0.08
				l0,0.01c-1.14,1.74-1.86,3.78-2.13,6.11l-0.02,0.13l-0.01,0.08c-0.07,0.66-0.11,1.34-0.11,2.04v16.26c0,0.7,0.04,1.38,0.11,2.05
				l0.01,0.08l0.02,0.13c0.27,2.32,0.98,4.35,2.11,6.08c2.29,3.59,6.25,5.79,11.38,5.79c0.66,0,1.29-0.04,1.91-0.11
				c3.17-0.33,5.82-1.51,7.92-3.51c2.5-2.38,3.79-5.68,3.79-9.77v-0.25c0-1.04-0.67-1.59-2.08-1.59c-1.41,0-2.08,0.55-2.08,1.59
				v0.25c0,0.25-0.01,0.49-0.03,0.73h-0.03c-0.48,5.12-3.61,8.4-8.13,8.92c-0.41,0.04-0.84,0.06-1.28,0.06
				c-5.62,0-9.47-3.97-9.47-10.39v-7.1h4.56V49.07L481.22,49.07z M476.66,45.41v-5.65c0-6.41,3.85-10.39,9.47-10.39
				c0.44,0,0.86,0.02,1.28,0.06c4.8,0.55,8.04,4.22,8.19,9.89v0.05l0,0.05v0.03l0,0.3v5.65h-14.6v0H476.66L476.66,45.41z"/>
		</g>
		<path class="st4" d="M341.3,29.58c-2.53-2.59-5.86-3.88-9.86-3.88c-4.01,0-7.34,1.29-9.93,3.88c-2.53,2.59-3.82,6.04-3.82,10.36
			v16.4c0,4.32,1.29,7.77,3.82,10.36c2.59,2.59,5.92,3.89,9.93,3.89c4.01,0,7.34-1.3,9.86-3.89c2.59-2.59,3.89-6.04,3.89-10.36
			v-16.4C345.19,35.62,343.89,32.17,341.3,29.58z M340.99,56.4c0,6.47-3.88,10.48-9.56,10.48c-5.67,0-9.56-4.01-9.56-10.48V39.88
			c0-6.47,3.88-10.48,9.56-10.48c5.67,0,9.56,4.01,9.56,10.48V56.4z"/>
		<path class="st4" d="M462.16,40.92c1.4,0,2.08-0.55,2.08-1.59v-0.25c0-1.05-0.09-2.05-0.26-3c-0.07-0.38-0.15-0.75-0.25-1.11
			c-0.04-0.16-0.09-0.31-0.13-0.46c-0.07-0.24-0.15-0.47-0.23-0.7c-0.05-0.15-0.11-0.29-0.16-0.44c-0.11-0.28-0.24-0.56-0.37-0.83
			c-0.04-0.07-0.07-0.15-0.1-0.22c-0.17-0.33-0.36-0.65-0.57-0.96c-0.07-0.1-0.14-0.2-0.21-0.3c-0.16-0.23-0.32-0.45-0.5-0.66
			c-0.07-0.09-0.15-0.18-0.22-0.27c-0.25-0.29-0.51-0.57-0.79-0.84c0,0,0,0,0,0c0,0-0.01-0.01-0.02-0.01
			c-0.25-0.24-0.51-0.47-0.78-0.68c-0.1-0.08-0.2-0.15-0.3-0.22c-0.18-0.13-0.36-0.27-0.54-0.4c-0.13-0.09-0.26-0.16-0.39-0.24
			c-0.17-0.1-0.33-0.21-0.5-0.31c-0.15-0.08-0.3-0.15-0.45-0.23c-0.16-0.08-0.33-0.17-0.49-0.24c-0.16-0.07-0.33-0.14-0.49-0.2
			c-0.16-0.07-0.33-0.14-0.5-0.2c-0.18-0.06-0.36-0.12-0.54-0.17c-0.17-0.05-0.33-0.11-0.5-0.15c-0.19-0.05-0.38-0.09-0.58-0.14
			c-0.17-0.04-0.34-0.08-0.51-0.11c-0.2-0.04-0.41-0.07-0.61-0.1c-0.12-0.02-0.24-0.04-0.37-0.06l-0.08-0.01l-0.18-0.02
			c-0.02,0-0.04,0-0.06-0.01c-0.01,0-0.03,0-0.04-0.01c-0.16-0.02-0.32-0.03-0.48-0.04c-0.15-0.01-0.29-0.03-0.44-0.04
			c-0.33-0.02-0.66-0.03-0.99-0.03c-0.32,0-0.63,0.01-0.94,0.03c-0.11,0.01-0.21,0.02-0.31,0.03c-0.2,0.01-0.4,0.03-0.6,0.05
			c-0.13,0.01-0.25,0.03-0.37,0.05c-0.17,0.02-0.35,0.04-0.51,0.07c-0.13,0.02-0.26,0.05-0.39,0.08c-0.16,0.03-0.31,0.06-0.46,0.09
			c-0.14,0.03-0.27,0.07-0.4,0.1c-0.14,0.04-0.29,0.07-0.43,0.11c-0.14,0.04-0.28,0.09-0.41,0.14c-0.13,0.04-0.26,0.08-0.38,0.13
			c-0.14,0.05-0.28,0.11-0.42,0.17c-0.12,0.05-0.23,0.09-0.35,0.14c-0.14,0.06-0.27,0.13-0.41,0.19c-0.11,0.05-0.22,0.1-0.32,0.15
			c-0.14,0.07-0.27,0.15-0.4,0.22c-0.1,0.06-0.2,0.11-0.3,0.17c-0.13,0.08-0.26,0.16-0.39,0.25c-0.09,0.06-0.19,0.12-0.28,0.18
			c-0.13,0.09-0.25,0.18-0.37,0.27c-0.09,0.07-0.18,0.13-0.26,0.2c-0.12,0.1-0.24,0.2-0.35,0.3c-0.08,0.07-0.16,0.14-0.24,0.21
			c-0.11,0.1-0.22,0.21-0.33,0.32c-0.08,0.07-0.15,0.15-0.23,0.22c-0.11,0.11-0.21,0.23-0.31,0.34c-0.07,0.08-0.14,0.16-0.21,0.24
			c-0.1,0.12-0.19,0.24-0.28,0.36c-0.07,0.09-0.14,0.17-0.2,0.26c-0.09,0.12-0.17,0.24-0.26,0.37c-0.05,0.08-0.11,0.15-0.16,0.23
			l-0.05,0.08l0,0.01c0,0.01-0.01,0.01-0.01,0.02c0,0,0,0.01-0.01,0.01c-0.04,0.06-0.07,0.12-0.11,0.19
			c-0.1,0.16-0.2,0.31-0.29,0.47c-0.03,0.05-0.05,0.1-0.08,0.14c-0.1,0.18-0.2,0.36-0.29,0.55c0,0.01-0.01,0.01-0.01,0.02
			c-0.68,1.41-1.13,2.97-1.34,4.71l-0.02,0.13l-0.01,0.08c-0.03,0.24-0.04,0.48-0.06,0.72c-0.01,0.1-0.02,0.19-0.02,0.29
			c-0.02,0.33-0.03,0.67-0.03,1.01c0,0.01,0,0.02,0,0.02v0v16.26v0c0,0.01,0,0.02,0,0.02c0,0.34,0.01,0.68,0.03,1.01
			c0.01,0.1,0.02,0.19,0.02,0.28c0.02,0.24,0.03,0.48,0.06,0.72l0.01,0.08l0.02,0.13c0.2,1.73,0.65,3.3,1.34,4.71
			c0,0.01,0.01,0.01,0.01,0.02c0.09,0.19,0.19,0.37,0.29,0.55c0.03,0.05,0.05,0.1,0.08,0.14c0.09,0.16,0.19,0.32,0.29,0.47
			c0.04,0.06,0.07,0.13,0.11,0.19c0,0,0,0.01,0.01,0.01c0,0.01,0.01,0.01,0.01,0.02l0,0.01l0.05,0.08c0.05,0.08,0.11,0.15,0.16,0.23
			c0.08,0.12,0.17,0.25,0.26,0.37c0.07,0.09,0.14,0.17,0.2,0.26c0.09,0.12,0.19,0.24,0.28,0.36c0.07,0.08,0.14,0.16,0.21,0.24
			c0.1,0.11,0.2,0.23,0.31,0.34c0.07,0.08,0.15,0.15,0.23,0.22c0.11,0.11,0.22,0.22,0.33,0.32c0.08,0.07,0.16,0.14,0.24,0.21
			c0.12,0.1,0.23,0.2,0.35,0.3c0.09,0.07,0.17,0.13,0.26,0.2c0.12,0.09,0.24,0.19,0.37,0.27c0.09,0.06,0.19,0.12,0.28,0.18
			c0.13,0.08,0.25,0.17,0.39,0.25c0.1,0.06,0.2,0.11,0.3,0.17c0.13,0.07,0.26,0.15,0.4,0.22c0.1,0.05,0.21,0.1,0.32,0.15
			c0.14,0.07,0.27,0.13,0.41,0.19c0.11,0.05,0.23,0.09,0.35,0.14c0.14,0.06,0.27,0.11,0.42,0.17c0.12,0.05,0.25,0.08,0.38,0.13
			c0.14,0.05,0.27,0.09,0.41,0.14c0.14,0.04,0.28,0.08,0.43,0.11c0.13,0.03,0.26,0.07,0.4,0.1c0.15,0.04,0.31,0.06,0.46,0.09
			c0.13,0.03,0.26,0.06,0.39,0.08c0.17,0.03,0.34,0.05,0.51,0.07c0.12,0.02,0.25,0.04,0.37,0.05c0.2,0.02,0.4,0.03,0.6,0.05
			c0.1,0.01,0.21,0.02,0.31,0.03c0.31,0.02,0.62,0.03,0.94,0.03c0.34,0,0.67-0.01,0.99-0.03c0.15-0.01,0.29-0.03,0.44-0.04
			c0.16-0.01,0.32-0.02,0.48-0.04c0.01,0,0.03,0,0.04-0.01c0.02,0,0.04,0,0.06-0.01l0.18-0.02l0.08-0.01
			c0.12-0.02,0.24-0.04,0.37-0.06c0.2-0.03,0.41-0.06,0.61-0.1c0.17-0.03,0.34-0.07,0.51-0.11c0.19-0.04,0.39-0.09,0.58-0.14
			c0.17-0.05,0.34-0.1,0.5-0.15c0.18-0.06,0.36-0.11,0.54-0.17c0.17-0.06,0.33-0.13,0.5-0.2c0.16-0.07,0.33-0.13,0.49-0.2
			c0.17-0.08,0.33-0.16,0.5-0.25c0.15-0.08,0.3-0.15,0.45-0.23c0.17-0.1,0.34-0.2,0.51-0.31c0.13-0.08,0.26-0.15,0.39-0.24
			c0.19-0.13,0.36-0.26,0.54-0.4c0.1-0.08,0.2-0.14,0.3-0.22c0.27-0.22,0.53-0.44,0.78-0.68c0,0,0.01-0.01,0.02-0.01c0,0,0,0,0,0
			c0.28-0.27,0.54-0.55,0.79-0.84c0.08-0.09,0.15-0.18,0.22-0.27c0.17-0.21,0.34-0.44,0.5-0.66c0.07-0.1,0.14-0.2,0.21-0.3
			c0.2-0.31,0.39-0.63,0.57-0.96c0.04-0.07,0.07-0.15,0.1-0.22c0.13-0.27,0.26-0.54,0.37-0.83c0.06-0.14,0.11-0.29,0.16-0.44
			c0.08-0.23,0.16-0.46,0.23-0.7c0.05-0.15,0.09-0.3,0.13-0.46c0.09-0.36,0.18-0.73,0.25-1.11c0.17-0.95,0.26-1.94,0.26-3v-0.25
			c0-1.04-0.67-1.59-2.08-1.59c-1.41,0-2.08,0.55-2.08,1.59v0.25c0,0.25-0.01,0.49-0.03,0.73h-0.03c-0.08,0.81-0.23,1.57-0.43,2.29
			c-0.34,1.18-0.84,2.22-1.49,3.11c0,0,0,0.01-0.01,0.01c-0.12,0.16-0.24,0.31-0.36,0.46c-0.03,0.03-0.06,0.07-0.08,0.1
			c-0.12,0.14-0.24,0.27-0.36,0.39c-0.04,0.04-0.08,0.08-0.12,0.12c-0.12,0.12-0.25,0.24-0.38,0.35c-0.04,0.04-0.08,0.07-0.13,0.1
			c-0.4,0.34-0.84,0.63-1.31,0.89c-0.09,0.05-0.17,0.1-0.26,0.14c-0.11,0.06-0.23,0.11-0.35,0.16c-0.1,0.05-0.21,0.09-0.32,0.14
			c-0.12,0.05-0.23,0.09-0.35,0.13c-0.12,0.04-0.23,0.08-0.35,0.12c-0.12,0.04-0.23,0.07-0.35,0.11c-0.13,0.03-0.26,0.06-0.39,0.09
			c-0.12,0.03-0.23,0.06-0.35,0.08c-0.15,0.03-0.3,0.05-0.45,0.07c-0.1,0.01-0.2,0.03-0.3,0.04c-0.41,0.04-0.84,0.06-1.28,0.06
			c-0.35,0-0.7-0.02-1.03-0.05c-5.05-0.46-8.44-4.33-8.44-10.34v-3.84v-0.1v-1.72v-1.44v-2.18v-1.44v-1.72v-0.1v-3.84
			c0-6.01,3.38-9.88,8.44-10.34c0.34-0.03,0.68-0.05,1.03-0.05c0.44,0,0.86,0.02,1.28,0.06c0.1,0.01,0.2,0.03,0.3,0.04
			c0.15,0.02,0.3,0.04,0.45,0.07c0.12,0.02,0.24,0.05,0.35,0.08c0.13,0.03,0.26,0.06,0.39,0.09c0.12,0.03,0.24,0.07,0.35,0.11
			c0.12,0.04,0.24,0.08,0.35,0.12c0.12,0.04,0.24,0.09,0.35,0.13c0.11,0.04,0.21,0.09,0.32,0.14c0.12,0.05,0.24,0.11,0.35,0.16
			c0.09,0.04,0.17,0.09,0.26,0.14c0.46,0.26,0.9,0.55,1.31,0.89c0.04,0.03,0.08,0.07,0.13,0.1c0.13,0.11,0.25,0.23,0.38,0.35
			c0.04,0.04,0.08,0.08,0.12,0.12c0.12,0.13,0.25,0.26,0.36,0.39c0.03,0.03,0.06,0.07,0.08,0.1c0.12,0.15,0.25,0.3,0.36,0.46
			c0,0,0,0.01,0.01,0.01c0.65,0.89,1.15,1.94,1.49,3.11c0.2,0.72,0.35,1.48,0.43,2.29h0.03c0.02,0.24,0.02,0.48,0.03,0.73v0.25
			C460.09,40.37,460.76,40.92,462.16,40.92z"/>
	</g>
</g>
</svg>
