<svg id="Layer_5" enable-background="new 0 0 64 64" height="512" viewBox="0 0 64 64" width="512" xmlns="http://www.w3.org/2000/svg"><g><g><g><path d="m53 44.31v13.69c0 2.21-1.79 4-4 4h-38c-2.21 0-4-1.79-4-4v-22.92l4 1.67v11.25l10 10h27c.55 0 1-.45 1-1v-9l.81-2.54c1.06-.3 2.07-.72 3.02-1.24z" fill="#b4dd7f"/></g><g><path d="m19 8v4h-7c-.55 0-1 .45-1 1v14.25l-4 1.67v-16.92c0-2.21 1.79-4 4-4z" fill="#b4dd7f"/></g><g><path d="m53 12v7.69l-.17.09c-.95-.52-1.96-.94-3.02-1.24l-.81-2.54v-3c0-.55-.45-1-1-1h-7v-4h8c2.21 0 4 1.79 4 4z" fill="#b4dd7f"/></g><g><path d="m41 8v4c0 1.1-.9 2-2 2h-18c-1.1 0-2-.9-2-2v-4c0-1.1.9-2 2-2h4l.03-.12c.29-1.14.94-2.11 1.82-2.8.87-.68 1.97-1.08 3.15-1.08 2.35 0 4.4 1.6 4.97 3.88l.03.12h4c1.1 0 2 .9 2 2z" fill="#ff826e"/></g><g><path d="m32.56 22.81 1.22 2.36c-.52.95-.94 1.96-1.24 3.02l-2.54.81h-16v-3l-3 1.25v-14.25c0-.55.45-1 1-1h7c0 1.1.9 2 2 2h18c1.1 0 2-.9 2-2h7c.55 0 1 .45 1 1v3h-6l-.81 2.54c-1.06.3-2.07.72-3.02 1.24l-2.36-1.22z" fill="#e6e9ed"/></g><g><path d="m49 48v9c0 .55-.45 1-1 1h-27v-10h-10v-11.25l3 1.25v-3h16l2.54.81c.3 1.06.72 2.07 1.24 3.02l-1.22 2.36 4.25 4.24 2.36-1.21c.95.52 1.96.94 3.02 1.24l.81 2.54z" fill="#e6e9ed"/></g><g><path d="m21 48v10l-10-10z" fill="#ff826e"/></g><g><path d="m30 29v6h-16v3l-3-1.25-4-1.67-4.08-1.7c-.56-.23-.92-.77-.92-1.38s.36-1.15.92-1.38l4.08-1.7 4-1.67 3-1.25v3z" fill="#ffeaa7"/></g><g><path d="m49.81 18.54c1.06.3 2.07.72 3.02 1.24l.17-.09 2.19-1.13 4.25 4.25-1.22 2.36c.52.95.94 1.96 1.24 3.02l2.54.81v6l-2.54.81c-.3 1.06-.72 2.07-1.24 3.02l1.22 2.36-4.25 4.24-2.19-1.12-.17-.09c-.95.52-1.96.94-3.02 1.24l-.81 2.54h-6l-.81-2.54c-1.06-.3-2.07-.72-3.02-1.24l-2.36 1.21-4.25-4.24 1.22-2.36c-.52-.95-.94-1.96-1.24-3.02l-2.54-.81v-6l2.54-.81c.3-1.06.72-2.07 1.24-3.02l-1.22-2.36 4.25-4.25 2.36 1.22c.95-.52 1.96-.94 3.02-1.24l.81-2.54h6z" fill="#ffc729"/></g><g><circle cx="46" cy="32" fill="#fcd770" r="10"/></g></g><g><path d="m47 29c.552 0 1 .448 1 1h2c0-1.654-1.346-3-3-3v-2h-2v2h-3v3c0 1.654 1.346 3 3 3h2c.552 0 1 .448 1 1v1h-3c-.552 0-1-.448-1-1h-2c0 1.654 1.346 3 3 3v2h2v-2h3v-3c0-1.654-1.346-3-3-3h-2c-.552 0-1-.448-1-1v-1z"/><path d="m46 21c-6.065 0-11 4.935-11 11s4.935 11 11 11 11-4.935 11-11-4.935-11-11-11zm0 20c-4.963 0-9-4.037-9-9s4.037-9 9-9 9 4.037 9 9-4.037 9-9 9z"/><path d="m63 35.729v-7.459l-2.734-.876c-.249-.773-.557-1.52-.919-2.229l1.312-2.549-5.274-5.274-1.385.712v-6.054c0-2.757-2.243-5-5-5h-7.184c-.414-1.161-1.514-2-2.816-2h-3.257c-.878-2.386-3.152-4-5.743-4-2.592 0-4.867 1.616-5.744 4h-3.256c-1.302 0-2.402.839-2.816 2h-7.184c-2.757 0-5 2.243-5 5v16.25l-3.463 1.443c-.933.39-1.537 1.295-1.537 2.307s.604 1.917 1.538 2.308l3.462 1.442v22.25c0 2.757 2.243 5 5 5h38c2.757 0 5-2.243 5-5v-12.054l1.384.711 5.274-5.273-1.312-2.549c.362-.709.67-1.455.919-2.229zm-11-23.729v6.269c-.455-.197-.917-.381-1.395-.535l-.605-1.89v-2.844c0-1.103-.897-2-2-2h-6v-2h7c1.654 0 3 1.346 3 3zm-19.347 13.165c-.362.709-.67 1.456-.919 2.229l-1.89.606h-14.844v-3.5l-3 1.25v-12.75h6.184c.414 1.161 1.514 2 2.816 2h18c1.302 0 2.402-.839 2.816-2h6.184v2h-5.729l-.876 2.734c-.773.249-1.52.557-2.229.919l-2.549-1.312-5.273 5.274zm3.963 21.492 2.549-1.311c.709.362 1.456.67 2.229.919l.877 2.735h5.729v8h-26v-10h-10v-8.75l3 1.25v-3.5h14.844l1.89.605c.249.774.557 1.521.919 2.229l-1.311 2.549zm-16.616 8.929-6.586-6.586h6.586zm0-47.586c0-.552.448-1 1-1h4.777l.224-.877c.458-1.839 2.103-3.123 3.999-3.123s3.541 1.284 4.001 3.127l.222.873h4.777c.552 0 1 .448 1 1v4c0 .552-.448 1-1 1h-18c-.552 0-1-.448-1-1zm-12 4c0-1.654 1.346-3 3-3h7v2h-6c-1.103 0-2 .897-2 2v13.583l-2 .833zm-5 20c0-.202.121-.384.308-.462l9.692-4.038v2.5h16v4h-16v2.5l-9.691-4.038c-.188-.078-.309-.26-.309-.462zm46 29h-38c-1.654 0-3-1.346-3-3v-21.417l2 .833v10.997l10.586 10.587h27.414c1.103 0 2-.897 2-2v-8.844l.605-1.89c.478-.154.94-.337 1.395-.534v12.268c0 1.654-1.346 3-3 3zm9.644-25.976-.146.517c-.28.99-.668 1.931-1.152 2.797l-.263.468 1.13 2.195-3.212 3.211-2.195-1.129-.468.263c-.866.484-1.807.872-2.797 1.152l-.517.146-.753 2.356h-4.541l-.754-2.356-.517-.146c-.988-.279-1.93-.667-2.797-1.153l-.469-.262-2.194 1.129-3.211-3.211 1.129-2.195-.263-.468c-.484-.866-.872-1.807-1.152-2.797l-.146-.517-2.356-.753v-4.541l2.356-.754.146-.517c.279-.988.667-1.93 1.153-2.797l.262-.469-1.129-2.194 3.211-3.212 2.194 1.13.469-.262c.867-.486 1.809-.874 2.797-1.153l.517-.146.753-2.356h4.541l.754 2.356.517.146c.988.279 1.93.667 2.797 1.153l.469.262 2.194-1.13 3.212 3.212-1.13 2.194.262.469c.486.867.874 1.809 1.153 2.797l.146.517 2.356.753v4.541z"/><path d="m14 17h2v2h-2z"/><path d="m18 17h12v2h-12z"/><path d="m14 21h16v2h-16z"/><path d="m24 53h22v2h-22z"/><path d="m24 49h16v2h-16z"/><path d="m14 43h15v2h-15z"/><path d="m17 39h12v2h-12z"/></g></g></svg>