<svg id="Layer_5" enable-background="new 0 0 64 64" height="512" viewBox="0 0 64 64" width="512" xmlns="http://www.w3.org/2000/svg"><g><g><g><path d="m14 14v-12h34v33.2l-6.35 10.15c-1.08 1.73-1.65 3.73-1.65 5.77 0 3 1.22 5.72 3.19 7.69s4.69 3.19 7.69 3.19h-48.88v-48z" fill="#e6e9ed"/></g><g><path d="m6 34h30v24h-30z" fill="#ffeaa7"/></g><g><path d="m6 28h30v6h-30z" fill="#fcd770"/></g><g><path d="m14 2v12h-12z" fill="#b4dd7f"/></g><g><path d="m35 15 6.36 6.36c-1.62 1.63-3.88 2.64-6.36 2.64s-4.74-1.01-6.36-2.64z" fill="#ff826e"/></g><g><path d="m35 6v9l-6.36 6.36c-1.63-1.62-2.64-3.88-2.64-6.36 0-4.97 4.03-9 9-9z" fill="#4fc1e9"/></g><g><path d="m35 6c4.97 0 9 4.03 9 9 0 2.48-1.01 4.74-2.64 6.36l-6.36-6.36z" fill="#fcd770"/></g><g><path d="m60.35 45.35c1.08 1.73 1.65 3.73 1.65 5.77 0 6.01-4.87 10.88-10.88 10.88h-.12-.12c-3 0-5.72-1.22-7.69-3.19s-3.19-4.69-3.19-7.69c0-2.04.57-4.04 1.65-5.77l6.35-10.15 1.47-2.35c.33-.53.91-.85 1.53-.85s1.2.32 1.53.85z" fill="#ff826e"/></g><g><path d="m56 49v4h-3v3h-4v-3h-3v-4h3v-3h4v3z" fill="#e6e9ed"/></g></g><g><path d="m54 45h-6v3h-3v6h3v3h6v-3h3v-6h-3zm1 5v2h-3v3h-2v-3h-3v-2h3v-3h2v3z"/><path d="m61.194 44.824-7.816-12.506c-.516-.825-1.404-1.318-2.378-1.318-.77 0-1.479.318-2 .855v-30.855h-35.414l-12.586 12.586v49.414h49.88.12.12c6.551 0 11.88-5.329 11.88-11.88 0-2.228-.625-4.406-1.806-6.296zm-48.194-40.41v8.586h-8.586zm-10 56.586v-46h12v-12h32v31.914l-6.194 9.911c-1.181 1.889-1.806 4.067-1.806 6.295 0 4.116 2.105 7.747 5.294 9.88zm48.12 0h-.12-.12c-5.448 0-9.88-4.432-9.88-9.88 0-1.854.52-3.664 1.502-5.236l7.816-12.506c.148-.237.403-.378.682-.378s.534.141.682.378l7.816 12.506c.982 1.572 1.502 3.383 1.502 5.236 0 5.448-4.432 9.88-9.88 9.88z"/><path d="m5 59h32v-32h-32zm2-6h6v4h-6zm12-8h-4v-4h4zm2-4h4v4h-4zm-2 6v4h-4v-4zm0 6v4h-4v-4zm2 0h4v4h-4zm0-2v-4h4v4zm6-4h8v4h-8zm0-2v-4h8v4zm0-6v-4h8v4zm-2 0h-4v-4h4zm-10-6v-4h10v4zm4 2v4h-4v-4zm-6 4h-6v-4h6zm0 2v4h-6v-4zm0 6v4h-6v-4zm14 10v-4h8v4zm8-24h-8v-4h8zm-22-4v4h-6v-4z"/><path d="m35 25c5.514 0 10-4.486 10-10s-4.486-10-10-10-10 4.486-10 10 4.486 10 10 10zm-4.898-3.688 4.898-4.898 4.898 4.898c-1.356 1.054-3.052 1.688-4.898 1.688s-3.542-.634-4.898-1.688zm12.898-6.312c0 1.846-.634 3.542-1.688 4.898l-5.312-5.312v-7.517c3.94.495 7 3.859 7 7.931zm-9-7.931v7.516l-5.312 5.312c-1.054-1.355-1.688-3.051-1.688-4.897 0-4.072 3.06-7.436 7-7.931z"/><path d="m17 5h6v2h-6z"/><path d="m17 9h6v2h-6z"/><path d="m17 13h6v2h-6z"/><path d="m5 17h2v2h-2z"/><path d="m9 17h14v2h-14z"/><path d="m5 21h18v2h-18z"/></g></g></svg>