<svg id="Capa_1" enable-background="new 0 0 512 512" height="512" viewBox="0 0 512 512" width="512" xmlns="http://www.w3.org/2000/svg"><g><g><g><g><g><path d="m7.5 67.5v-29.303c0-16.953 13.744-30.697 30.697-30.697h179.438l41.29 15 35.439-15h179.438c16.954 0 30.697 13.744 30.697 30.697v29.303z" fill="#655e68"/><path d="m473.803 7.5h-30c16.954 0 30.697 13.744 30.697 30.697v29.303h30v-29.303c0-16.953-13.744-30.697-30.697-30.697z" fill="#544f57"/><path d="m314.364 45.5v-18c0-11.046-8.954-20-20-20h-76.729c-11.046 0-20 8.954-20 20v18c0 12.15-9.85 22-22 22h-168.135v407c0 16.569 13.431 30 30 30h437c16.569 0 30-13.431 30-30v-407h-168.136c-12.15 0-22-9.85-22-22z" fill="#f7f6f7"/><g><path d="m474.5 67.5v407c0 16.569-13.431 30-30 30h30c16.569 0 30-13.431 30-30v-407z" fill="#edebed"/></g></g></g><path d="m311.511 137.048h-111.028c-3.617 0-6.649 2.757-6.964 6.36-2.664 30.524-28.795 54.429-59.435 54.332-3.895-.012-7.075 3.099-7.075 6.994v36.307c0 86.229 51.931 160.322 126.222 192.728 1.761.768 3.775.768 5.536 0 74.292-32.407 126.223-106.5 126.223-192.729v-36.312c0-3.894-3.178-7.008-7.072-6.993-30.855.116-56.813-23.636-59.442-54.318-.309-3.608-3.344-6.369-6.965-6.369z" fill="#ffc269"/><path d="m377.918 197.734c-30.855.116-56.813-23.636-59.442-54.317-.309-3.607-3.344-6.369-6.965-6.369h-45c3.621 0 6.656 2.762 6.965 6.369 2.629 30.682 28.587 54.434 59.442 54.317 3.894-.015 7.072 3.1 7.072 6.993v36.312c0 78.37-42.899 146.711-106.49 182.847 6.377 3.624 12.961 6.928 19.732 9.882 1.761.768 3.775.768 5.536 0 74.291-32.406 126.222-106.498 126.222-192.728v-36.312c0-3.894-3.178-7.008-7.072-6.994z" fill="#ffa95f"/><g><path d="m295.789 347.387h-79.578c-9.802 0-17.749-7.946-17.749-17.749v-46.146c0-9.802 7.946-17.749 17.749-17.749h79.578c9.802 0 17.749 7.946 17.749 17.749v46.146c0 9.802-7.947 17.749-17.749 17.749z" fill="#b3e59f"/><path d="m295.789 265.742h-30c9.802 0 17.749 7.947 17.749 17.749v46.146c0 9.803-7.946 17.749-17.749 17.749h30c9.802 0 17.749-7.946 17.749-17.749v-46.146c0-9.802-7.947-17.749-17.749-17.749z" fill="#95d6a4"/></g></g></g><path d="m67.5 45c4.142 0 7.5-3.357 7.5-7.5s-3.358-7.5-7.5-7.5-7.5 3.357-7.5 7.5 3.358 7.5 7.5 7.5zm30 0c4.142 0 7.5-3.357 7.5-7.5s-3.358-7.5-7.5-7.5-7.5 3.357-7.5 7.5 3.358 7.5 7.5 7.5zm-67.5-7.5c0 4.143 3.358 7.5 7.5 7.5s7.5-3.357 7.5-7.5-3.358-7.5-7.5-7.5-7.5 3.357-7.5 7.5zm149.426 342.61c-3.007 2.849-3.135 7.596-.286 10.603 20.27 21.396 44.189 38.194 71.095 49.931 1.832.799 3.797 1.197 5.764 1.197s3.934-.399 5.767-1.198c79.412-34.64 130.724-112.988 130.724-199.603v-36.312c0-3.875-1.512-7.516-4.257-10.25-2.748-2.737-6.399-4.243-10.287-4.243h-.057c-26.819.144-49.651-20.744-51.941-47.458-.636-7.418-6.977-13.229-14.438-13.229h-111.027c-7.572 0-13.778 5.679-14.436 13.208-2.327 26.657-25.054 47.484-51.776 47.484-.07.001-.143.001-.211 0-3.892 0-7.547 1.508-10.297 4.248-2.743 2.733-4.253 6.372-4.253 10.245v36.307c0 43.088 12.57 84.745 36.35 120.466 2.295 3.448 6.951 4.382 10.399 2.087 3.448-2.296 4.382-6.951 2.087-10.399-22.136-33.251-33.836-72.032-33.836-112.153v-35.8c34.168-.127 63.215-26.66 66.437-60.692h110.101c3.173 34.05 32.215 60.584 66.443 60.687v35.806c0 80.563-47.681 153.449-121.49 185.753-24.956-10.922-47.15-26.53-65.971-46.396-2.849-3.009-7.596-3.137-10.604-.289zm325.074-183.6c4.142 0 7.5-3.357 7.5-7.5v-150.813c0-21.062-17.135-38.197-38.197-38.197h-435.606c-21.062 0-38.197 17.135-38.197 38.197v435.605c0 21.063 17.135 38.198 38.197 38.198h435.605c21.063 0 38.198-17.135 38.198-38.197v-249.793c0-4.143-3.358-7.5-7.5-7.5s-7.5 3.357-7.5 7.5v249.793c0 12.791-10.406 23.197-23.197 23.197h-435.606c-12.791 0-23.197-10.406-23.197-23.197v-398.803h160.636c16.266 0 29.5-13.233 29.5-29.5v-18c0-6.893 5.607-12.5 12.5-12.5h76.729c6.893 0 12.5 5.607 12.5 12.5v18c0 16.267 13.234 29.5 29.5 29.5h160.635v114.01c0 4.142 3.358 7.5 7.5 7.5zm-314.364-169.01v18c0 7.995-6.505 14.5-14.5 14.5h-160.636v-21.803c0-12.791 10.406-23.197 23.197-23.197h154.956c-1.924 3.753-3.017 8-3.017 12.5zm146.228 32.5c-7.995 0-14.5-6.505-14.5-14.5v-18c0-4.5-1.093-8.747-3.017-12.5h154.956c12.791 0 23.197 10.406 23.197 23.197v21.803zm-46.194 140.653c-9.133-9.121-21.268-14.144-34.17-14.144-26.644 0-48.32 21.677-48.32 48.32v24.898c-9.737 3.507-16.718 12.834-16.718 23.763v46.146c0 13.922 11.327 25.249 25.249 25.249h79.578c13.922 0 25.249-11.327 25.249-25.249v-46.146c0-10.929-6.982-20.256-16.718-23.763v-24.897c0-12.902-5.023-25.038-14.15-34.177zm-67.49 34.177c0-18.373 14.947-33.32 33.32-33.32 8.899 0 17.27 3.465 23.563 9.75 6.292 6.3 9.756 14.671 9.756 23.57v23.412h-66.64v-23.412zm83.358 48.661v46.146c0 5.651-4.598 10.249-10.249 10.249h-79.578c-5.651 0-10.249-4.598-10.249-10.249v-46.146c0-5.651 4.598-10.249 10.249-10.249h79.578c5.651 0 10.249 4.598 10.249 10.249z"/></g></svg>