<svg viewBox="0 -1 512 512" xmlns="http://www.w3.org/2000/svg"><path d="m499.375 57.054688h-356.480469l-6.796875-45.1875c-.371094-2.46875-2.492187-4.292969-4.988281-4.292969h-111.753906c-2.492188 0-4.613281 1.824219-4.984375 4.292969l-6.796875 45.191406v441.300781c0 2.800781 2.265625 5.050781 5.050781 5.050781h486.75c2.785156 0 5.050781-2.25 5.050781-5.050781v-436.253906c0-2.789063-2.265625-5.050781-5.050781-5.050781zm0 0" fill="#4172cc"/><path d="m504.425781 62.105469v436.257812c0 2.796875-2.265625 5.046875-5.050781 5.046875h-486.75c-2.785156 0-5.050781-2.25-5.050781-5.046875v-441.308593h491.800781c2.785156 0 5.050781 2.261718 5.050781 5.050781zm0 0" fill="#bebebe"/><path d="m142.894531 57.054688h-135.320312l6.796875-45.191407c.375-2.460937 2.496094-4.289062 4.988281-4.289062h111.753906c2.492188 0 4.613281 1.828125 4.988281 4.289062zm0 0" fill="#94be36"/><path d="m504.425781 62.105469v436.257812c0 2.796875-2.265625 5.046875-5.050781 5.046875h-458.726562c-2.785157 0-5.050782-2.25-5.050782-5.046875v-441.308593h463.777344c2.785156 0 5.050781 2.261718 5.050781 5.050781zm0 0" fill="#ebebf0"/><path d="m142.894531 57.054688h-107.296875l6.796875-45.191407c.375-2.460937 2.496094-4.289062 4.988281-4.289062h83.730469c2.492188 0 4.613281 1.828125 4.988281 4.289062zm0 0" fill="#afd262"/><path d="m291.226562 57.054688h-135.324218l6.796875-45.191407c.375-2.460937 2.496093-4.289062 4.988281-4.289062h111.753906c2.492188 0 4.613282 1.828125 4.988282 4.289062zm0 0" fill="#94be36"/><path d="m291.226562 57.054688h-107.300781l6.796875-45.191407c.375-2.460937 2.496094-4.289062 4.988282-4.289062h83.730468c2.492188 0 4.613282 1.828125 4.988282 4.289062zm0 0" fill="#afd262"/><path d="m128.058594 250.757812c85.632812-25.871093 116.597656-86.890624 125.179687-108.785156.988281-2.519531 4.535157-2.519531 5.523438 0 8.582031 21.894532 39.546875 82.914063 125.179687 108.785156 6.492188 1.960938 10.195313 10.355469 7.972656 18.085938l-36.515624 126.984375c-14.863282 51.6875-54.699219 86.257813-99.398438 86.257813s-84.535156-34.570313-99.398438-86.257813l-36.515624-126.984375c-2.222657-7.730469 1.480468-16.125 7.972656-18.085938zm0 0" fill="#84b017"/><path d="m355.097656 279.960938-30.75 106.933593c-8.128906 28.265625-25.660156 49.554688-46.636718 58.390625-6.9375 2.917969-14.25 4.484375-21.710938 4.484375-30.0625 0-57.53125-25.269531-68.347656-62.875l-30.75-106.933593c-.714844-2.515626.578125-5.179688 3-6.160157 43.382812-17.441406 72.6875-42.96875 92.140625-66.984375 2.027343-2.503906 5.886719-2.503906 7.914062 0 5.191407 6.402344 11.078125 12.925782 17.753907 19.359375 18.339843 17.703125 42.578124 34.839844 74.386718 47.625 2.421875.980469 3.714844 3.644531 3 6.160157zm0 0" fill="#94be36"/><path d="m355.097656 279.960938-30.75 106.933593c-8.128906 28.265625-25.660156 49.554688-46.636718 58.390625-20.972657-8.835937-38.503907-30.125-46.632813-58.390625l-30.75-106.933593c-.71875-2.515626.574219-5.179688 2.996094-6.160157 31.8125-12.785156 56.046875-29.921875 74.386719-47.625 18.339843 17.703125 42.578124 34.839844 74.386718 47.625 2.421875.980469 3.714844 3.644531 3 6.160157zm0 0" fill="#afd262"/><path d="m504.425781 62.105469v56.5625h-496.851562v-61.613281h491.800781c2.785156 0 5.050781 2.261718 5.050781 5.050781zm0 0" fill="#6e9213"/><path d="m504.425781 62.105469v56.5625h-468.828125v-61.613281h463.777344c2.785156 0 5.050781 2.261718 5.050781 5.050781zm0 0" fill="#84b017"/><path d="m499.375 49.484375h-201.628906l-5.828125-38.742187c-.9375-6.222657-6.183594-10.742188-12.476563-10.742188h-111.753906c-6.289062 0-11.539062 4.515625-12.476562 10.742188l-5.8125 38.636718-5.8125-38.636718c-.933594-6.222657-6.183594-10.742188-12.476563-10.742188h-111.753906c-6.292969 0-11.539063 4.519531-12.476563 10.742188-6.769531 45.164062-6.878906 45.429687-6.878906 46.316406v441.308594c0 6.960937 5.664062 12.621093 12.625 12.621093h486.75c6.960938 0 12.625-5.660156 12.625-12.621093v-436.261719c0-6.960938-5.664062-12.621094-12.625-12.621094zm-329.507812-34.335937h107.394531l5.164062 34.335937h-117.722656zm-148.332032 0h107.394532l5.164062 34.335937h-117.722656zm475.316406 480.691406h-481.703124v-369.601563h481.703124zm0-384.75h-481.703124v-46.460938h481.703124zm0 0"/><path d="m134.816406 94.925781h301.949219c4.183594 0 7.570313-3.390625 7.570313-7.574219 0-4.183593-3.386719-7.574218-7.570313-7.574218h-301.949219c-4.183594 0-7.574218 3.390625-7.574218 7.574218 0 4.183594 3.390624 7.574219 7.574218 7.574219zm0 0"/><path d="m33.496094 94.925781h71.027344c4.183593 0 7.574218-3.390625 7.574218-7.574219 0-4.183593-3.390625-7.574218-7.574218-7.574218h-71.027344c-4.183594 0-7.574219 3.390625-7.574219 7.574218 0 4.183594 3.390625 7.574219 7.574219 7.574219zm0 0"/><path d="m478.503906 87.351562c0 5.578126-4.519531 10.097657-10.097656 10.097657s-10.097656-4.519531-10.097656-10.097657c0-5.578124 4.519531-10.097656 10.097656-10.097656s10.097656 4.519532 10.097656 10.097656zm0 0"/><path d="m129.109375 300.226562c4.019531-1.15625 6.34375-5.351562 5.1875-9.371093-7.144531-25.28125-7.285156-24.355469-7.285156-26.625 0-3.238281 1.679687-5.753907 3.238281-6.222657 60.820312-18.375 103.707031-57.230468 125.75-103.421874 5.679688 11.902343 15.375 28.550781 30.882812 45.414062 24.792969 26.964844 56.710938 46.480469 94.867188 58.007812 2.066406.625 4.070312 4.613282 2.882812 8.742188l-36.511718 126.984375c-13.894532 48.316406-50.914063 80.777344-92.121094 80.777344s-78.226562-32.460938-92.121094-80.777344l-21.210937-73.765625c-1.15625-4.019531-5.359375-6.335938-9.371094-5.183594-4.019531 1.15625-6.34375 5.351563-5.1875 9.371094l21.210937 73.761719c15.777344 54.875 58.648438 91.742187 106.679688 91.742187 48.027344 0 90.898438-36.867187 106.679688-91.742187 37.617187-131.976563 37.457031-127.386719 37.457031-133.6875 0-9.710938-5.757813-18.234375-14.003907-20.722657-81.332031-24.570312-111.238281-81.125-120.316406-104.292968-3.488281-8.925782-16.136718-8.9375-19.628906-.007813-9.082031 23.175781-38.988281 79.730469-120.320312 104.300781-8.246094 2.488282-14.003907 11.011719-14.003907 20.722657 0 5.769531 1.558594 7.925781 7.875 30.808593 1.15625 4.023438 5.359375 6.34375 9.371094 5.1875zm0 0"/><path d="m293.671875 230.367188c-28.40625-23.882813-26.65625-33.003907-37.671875-33.003907-3.839844 0-7.425781 1.707031-9.84375 4.6875-23.046875 28.449219-53.019531 50.226563-89.078125 64.726563-6.1875 2.484375-9.214844 9.160156-7.449219 15.277344l30.75 106.933593c11.757813 40.886719 42.144532 68.355469 75.621094 68.355469s63.863281-27.46875 75.621094-68.355469c32.226562-112.679687 31.246094-107.152343 31.246094-110.441406 0-5.210937-3.117188-9.828125-7.945313-11.769531-13.3125-5.351563-25.976563-11.800782-37.632813-19.164063-3.535156-2.234375-8.214843-1.179687-10.449218 2.359375-2.234375 3.535156-1.175782 8.214844 2.359375 10.449219 11.824219 7.46875 24.597656 14.042969 38.003906 19.566406l-30.140625 104.8125c-9.867188 34.332031-34.410156 57.394531-61.0625 57.394531s-51.191406-23.0625-61.0625-57.390624l-30.140625-104.816407c36.570313-15.0625 67.230469-37.273437 91.203125-66.058593 8.417969 10.101562 17.796875 19.519531 27.921875 28.03125 3.199219 2.691406 7.976563 2.277343 10.671875-.921876 2.691406-3.203124 2.277344-7.980468-.921875-10.671874zm0 0"/><path d="m221.625 357.140625c-2.539062-3.324219-7.289062-3.960937-10.617188-1.421875-3.324218 2.539062-3.960937 7.292969-1.421874 10.617188l26.3125 34.460937c5.128906 6.71875 15.335937 6.304687 19.933593-.726563l65.078125-99.535156c2.289063-3.5 1.308594-8.195312-2.195312-10.484375-3.5-2.289062-8.191406-1.304687-10.484375 2.195313l-62.808594 96.0625zm0 0"/></svg>