<?xml version="1.0" encoding="utf-8"?>
<!-- Generator: Adobe Illustrator 23.0.3, SVG Export Plug-In . SVG Version: 6.00 Build 0)  -->
<svg version="1.1" id="Camada_1" xmlns="http://www.w3.org/2000/svg" xmlns:xlink="http://www.w3.org/1999/xlink" x="0px" y="0px"
	 viewBox="0 0 304 284" style="enable-background:new 0 0 304 284;" xml:space="preserve">
<style type="text/css">
	.st0{fill:#FFFFFF;}
</style>
<g>
	<path class="st0" d="M0,284C0,190.67,0.02,97.33-0.1,4c0-3.42,0.67-4.1,4.1-4.1c98.67,0.12,197.33,0.12,296,0
		c3.42,0,4.1,0.67,4.1,4.1c-0.12,92-0.12,184,0,276c0,3.42-0.67,4.1-4.1,4.1C200,283.98,100,284,0,284z"/>
	<path class="st0" d="M198.96,148.99c11.79,15.13,5.56,32.38-13.17,36.4c-6.46,1.38-12.93,1.2-19.25-0.64
		c-9.03-2.62-15.04-8.22-16.6-17.87c-0.84-0.9-1.17-1.99-1.26-3.18c-0.24-6.98-0.12-13.97-0.09-20.95
		c0.04-11.85,5.47-19.64,16.66-23.23c9.5-3.05,19.04-2.93,28.25,1.28c7.36,3.37,11.03,9.5,10.19,16.5c-2.05,2.95-5.19,1.78-7.94,2.1
		c-3.3,0.17-6.01-0.78-8.49-3.24c-4.26-4.21-11.98-4.87-17.2-2c-4.33,2.37-5.07,6.25-4.61,11.09c7.97-5.61,16.41-4.98,25.02-2.31
		c1.58,0.63,3.2,1.18,4.64,2.11C196.64,146.1,198.35,147.01,198.96,148.99z"/>
	<path class="st0" d="M255,119.84c1.91,0.08,3.24,0.23,3.38,2.95c0.53,10.13,0.68,10.12-9.19,10.12c-7.16,0-14.33,0.16-21.49-0.08
		c-4.97-0.17-3.41,3.24-3.59,5.75c-0.19,2.59-0.39,4.86,3.63,4.66c6.8-0.34,13.65-0.36,20.32,1.6c8.31,2.44,12.82,8.04,13.71,16.5
		c0.89,8.41-1.41,15.77-9.07,20.14c-10.89,6.22-22.32,5.99-33.56,0.94c-5.93-2.67-8.76-7.85-9.55-14.27
		c-0.26-2.07-0.09-3.15,2.37-3.05c2.99,0.12,5.99-0.04,8.99-0.15c1.5-0.05,2.41,0.3,2.87,1.98c2.07,7.56,17.08,7.81,21.67,2.79
		c3.29-3.59,2.75-8.88-1.28-11.74c-2.72-1.93-5.86-2.29-9.05-2.31c-6.66-0.04-13.33,0.04-19.99-0.05c-1.54-0.02-3.4,0.78-4.53-1.11
		c0.29-9.48-1.62-18.88-1.04-28.37c0.13-2.14-0.28-4.36,1.09-6.29c1.99-1.59,4.38-1.4,6.69-1.41c7.66-0.04,15.32-0.07,22.97,0
		c1.25,0.2,2.51,0.04,3.76,0.09C247.75,118.89,251.59,117.55,255,119.84z"/>
	<path class="st0" d="M244.17,119.83c-1.09,0-2.19,0-3.28,0c-0.49-3.19,1.94-5.14,3.21-7.59c0.94-1.82,3.41-3.52,1.84-5.71
		c-1.22-1.71-3.69-1.06-5.66-0.86c-12.08,1.21-24.15,2.44-36.21,3.87c-9.03,1.07-11.24-0.31-14.51-8.95
		c-6.9-18.2-13.18-36.63-20.27-54.76c-5.06-12.92-2.67-11.31-16.01-11.36c-29.29-0.11-58.57,0.06-87.86-0.08
		c-1.65-0.01-3.34-0.2-4.92,0.46c-4.26,2.17-6.05,6.53-8.55,10.13C41.1,60.64,30.39,76.41,19.52,92.06
		c-3.01,4.33-2.16,6.07,3.14,6.69c1.48,0.17,2.98,0.18,4.44,0.58c16.05,1.22,31.92,3.94,47.9,5.69c4.45,0.49,8.9,0.96,13.34,1.53
		c2.34,0.3,4.59,0.72,6.52,2.16c2.52,1.91,3.47,4.75,4.45,7.58c3.51,10.18,7.32,20.26,10.79,30.46c1.28,3.76,3.6,6.03,7.28,7.51
		c7.53,3.04,15.09,6.02,22.53,9.26c2.05,0.89,4.07,1.42,6.23,0.47c1.21-0.34,2.41-0.94,3.64-0.09c0.06,1,0.11,1.99,0.17,2.99
		c-4.9,2.76-9.41,1.21-14.11-0.88c-7.44-3.31-15.05-6.26-22.62-9.26c-2.84-1.12-4.55-2.93-5.57-5.88
		c-4.05-11.63-8.49-23.12-12.41-34.79c-1.32-3.94-3.47-5.41-7.46-5.87c-22.49-2.57-44.96-5.37-67.43-8.14
		c-7.53-0.93-9.06-4.47-4.82-10.63c12.76-18.51,25.53-37,38.14-55.61c2.37-3.49,4.96-5.17,9.36-5.18
		c32.65-0.07,65.3-0.39,97.95-0.65c2.34-0.02,4.67-0.08,6.75,1.24c3.43,1.2,3.57,4.59,4.61,7.25c7.34,18.93,14.2,38.03,21.05,57.13
		c2.12,5.91,4.59,10.12,11.89,8.87c2.88-0.49,5.94,0.41,8.89-0.37c9.32-0.96,18.65-1.88,27.97-2.91c3.17-0.35,6.25-0.66,8.77,1.87
		c1.97,1.44,2.78,3.52,1.69,5.59C250.4,112.81,248.47,117.24,244.17,119.83z"/>
	<path class="st0" d="M214.15,104.12c-4.98,1.49-10.17,1.03-15.25,1.63c-3.05,0.36-3.84-2.09-4.65-4.29
		c-7.71-20.84-15.4-41.69-23.14-62.52c-0.98-2.63-2.26-5.14-3.4-7.7c8.05-0.35,10.3-1.79,13.87,8.49
		c6.77,19.53,14.47,38.73,21.39,58.21c1.65,4.63,3.61,7.12,8.72,6.04C212.46,103.81,213.33,104.06,214.15,104.12z"/>
	<path class="st0" d="M199.99,201.14c0-2.8,0.12-4.97-0.03-7.11c-0.17-2.47,0.93-3.12,3.23-3.11c2.22,0.02,2.85,0.91,2.83,3
		c-0.08,7.66-0.09,15.32,0.01,22.98c0.03,2.06-1.22,3.2-2.62,2.39c-3.09-1.79-5.56,0.24-8.31,0.52c-4.3,0.44-8.07-0.84-10.01-4.99
		c-1.95-4.18-1.98-8.53,1.13-12.21c2.99-3.55,6.92-4.36,11.29-2.59C198.1,200.25,198.67,200.54,199.99,201.14z"/>
	<path class="st0" d="M247.84,201.22c0-3.01,0.08-5.17-0.02-7.32c-0.09-2.03,0.52-3.01,2.78-2.99c2.2,0.02,3.34,0.47,3.29,3.02
		c-0.13,7.46-0.16,14.92,0.01,22.38c0.07,2.94-1.64,3.84-3.62,2.91c-2.25-1.06-3.8-0.3-5.83,0.25c-4.31,1.17-8.28,0.25-11.01-3.65
		c-2.51-3.59-2.33-9.83,0.43-13.09c3.01-3.55,6.82-4.47,11.19-2.81C245.79,200.21,246.49,200.59,247.84,201.22z"/>
	<path class="st0" d="M164.47,220c-6.89-0.08-11.44-2.87-13.5-8.29c-2.36-6.22-0.92-13.36,3.53-17.59c4.2-3.99,11.3-5.05,16.77-2.28
		c1.45,0.73,4.16,1.27,3.3,3.46c-0.82,2.08-2.58,3.17-5.61,1.92c-6.89-2.84-12.9,1.27-12.92,8.25c-0.01,6.97,6.28,11.12,12.99,7.91
		c3.28-1.57,4.9-0.54,5.82,1.88c1.03,2.71-1.99,2.87-3.53,3.71C169.22,220.12,166.81,220,164.47,220z"/>
	<path class="st0" d="M229.91,209.61c0,1.33-0.04,2.66,0.01,3.99c0.14,3.97,0.43,8.06-5.6,4.8c-1.35-0.73-2.09,0.63-3.14,0.94
		c-4.43,1.3-8.25,0.46-11.2-3.2c-2.62-3.25-2.72-9.12-0.26-12.68c2.68-3.87,6.48-4.97,10.94-3.97c0.95,0.21,1.81,1.04,2.75,1.11
		c6.53,0.43,6.53,0.39,6.48,7.02c-0.01,0.66,0,1.33,0,1.99C229.89,209.61,229.9,209.61,229.91,209.61z"/>
	<path class="st0" d="M261.37,211.26c2.61,4.14,5.65,4.29,8.46,3.15c2.56-1.03,4.23-0.09,4.79,1.82c0.73,2.5-2.04,2.58-3.52,3.06
		c-9.24,2.94-16.45-2.93-15.15-12.21c0.69-4.93,4.76-8.11,10.36-8.1c5.56,0.01,9.07,2.82,10.01,7.77c0.59,3.07,0.1,4.82-3.6,4.56
		C269.29,211.07,265.83,211.26,261.37,211.26z"/>
	<path class="st0" d="M285.93,220c-2.19,0.09-4.56-0.45-6.76-1.84c-1.45-0.92-1.56-1.92-0.75-3.32c0.76-1.32,1.48-2.09,3.1-1.08
		c1.88,1.16,4,1.63,6.23,1.23c0.88-0.16,1.71-0.67,1.74-1.51s-0.73-1.4-1.66-1.57c-1.96-0.37-3.98-0.58-5.83-1.25
		c-2.31-0.84-3.91-2.48-3.97-5.2c-0.06-2.91,1.52-4.67,4.05-5.66c3.06-1.19,6.19-1.29,9.22,0.05c1.05,0.46,3.02,0.71,2.03,2.6
		c-0.62,1.18-1.39,2.85-3.42,1.96c-0.6-0.26-1.26-0.48-1.91-0.53c-1.43-0.11-3.51-0.64-3.77,1.19c-0.31,2.15,1.95,1.71,3.3,1.91
		c6.19,0.91,7.77,2.39,7.47,7.08C294.73,218.23,292.05,220.06,285.93,220z"/>
	<path class="st0" d="M244.17,119.83c1.89-2.85,3.68-5.78,5.71-8.53c1.94-2.62,2.49-5.26,1.01-8.22c3.61-0.4,7.92-2.88,10.43,1.27
		c2.52,4.17-1.89,6.71-3.73,9.81c-1.06,1.78-2.95,3.24-2.59,5.68C251.39,119.84,247.78,119.83,244.17,119.83z"/>
	<path class="st0" d="M182.3,209.25c0,2.32-0.05,4.65,0.01,6.97c0.05,1.85-0.16,3.17-2.57,3.22c-2.44,0.05-3.14-0.93-3.08-3.23
		c0.12-4.64,0.09-9.29,0.01-13.94c-0.03-2.04,0.61-3.02,2.83-3.02s2.9,0.99,2.82,3.03C182.23,204.6,182.3,206.92,182.3,209.25z"/>
	<path class="st0" d="M210.81,120.48c0.21,11.35,0.5,22.7-0.18,34.04c-0.17-4.22-0.34-8.43-0.51-12.64
		c-0.61-1.39-0.32-3.24-3.11-1.3c-3.56,2.48-7.5,4.85-12.07,5.43c-1.31-0.6-2.62-1.2-3.94-1.8c1.96-3.12,5.59-3.43,9.37-5.3
		c-0.27,0.09-1.41-0.26-0.96,0.23c0.17,0.19,0.07,0.29-0.31,0.37c-1.48,0.31-3.19,1.41-3.79-1.15c2.6-0.9,5.51,0.56,8.02-1.04
		c4.57-2.06,5.71-5.71,5.49-10.46C208.73,124.77,207.16,121.63,210.81,120.48z"/>
	<path class="st0" d="M194.94,146.01c3.78-2.92,8.36-4.36,12.49-6.64c3.33-1.84,3.04,0.32,2.69,2.5c-3.15,3.27-8.71,2.74-11.16,7.11
		C197.62,148,196.28,147,194.94,146.01z"/>
	<path class="st0" d="M182.9,194.24c-0.51,2-1.66,3.36-3.8,3.11c-1.81-0.21-3.11-1.46-2.98-3.33c0.12-1.77,1.24-3.1,3.21-3.11
		C181.48,190.9,182.58,192.19,182.9,194.24z"/>
	<path class="st0" d="M210.81,120.48c-1.08,3.35-0.34,6.79-0.45,10.19c-0.17,5.1-1.42,6.39-7.02,6.65
		c-0.77-9.09-5.95-14.52-14.45-16.88c-8.87-2.47-17.75-2.35-26.27,1.46c-8.16,3.66-12.53,10.04-12.64,19.1
		c-0.1,7.63-0.13,15.26-0.2,22.89c-0.95,0.33-1.91,0.66-2.86,0.98c-8.57-1.71-16.3-5.62-24.09-9.33c-2.35-1.12-3.41-3.46-4.28-5.91
		c-3.57-10.03-7.53-19.95-10.67-30.11c-2.13-6.89-5.76-10.15-12.85-9.56c-7.75-3.55-16.22-2.84-24.36-4.05
		c-14.88-2.2-29.83-3.91-44.75-5.83c-1.72-3.64-0.43-6.65,1.67-9.72c11.35-16.6,22.95-33.03,34.17-49.73
		c0.99-1.47,2.3-2.81,2.54-4.64c-1.71-1.49-4.28-0.12-5.53-2.18c1.56-1.44,3.49-0.83,5.25-0.83c32.16-0.09,64.32-0.05,96.48-0.26
		c4.18-0.03,6.15,1.29,7.56,5.25c7.56,21.13,15.41,42.16,23.17,63.22c2.66,7.21,3.89,7.77,11.41,6.91
		c13.56-1.56,27.14-2.92,40.72-4.27c1.9-0.19,4.17-0.81,5.36,1.5c1.04,2.02-0.53,3.45-1.49,4.94c-2.08,3.21-4.22,6.38-6.34,9.56
		C230.87,120.53,220.82,119.26,210.81,120.48z"/>
	<path class="st0" d="M184.86,156.01c4.01,1.42,5.66,4.45,5.51,8.5c-0.16,4.26-2.97,6.5-6.6,7.88c-7.33,2.78-15.3,0.45-18.81-5.42
		c-0.76-1.81-1.01-4.05,0.79-4.86C171.88,159.39,177.25,154.1,184.86,156.01z"/>
	<path class="st0" d="M195.32,138.36c1.69,0.28,3.38,0.56,6.14,1.02c-4.06,1.88-7.26,3.36-10.45,4.83
		c-9.18-2.36-18.25-3.68-26.39,3.14c-1.88-7.36-0.42-11.68,4.77-14.47c5.8-3.12,15.61-2.32,18.92,2.29
		C190.31,137.94,192.47,138.42,195.32,138.36z"/>
	<path class="st0" d="M184.86,156.01c-7.15-0.15-12.37,4.88-18.66,7.02c-1.84,0.63-0.85,2.61-1.24,3.94
		c-2.02-4.18-0.75-7.21,3.26-9.27C173.55,154.96,178.91,152.59,184.86,156.01z"/>
	<path class="st0" d="M58.76,33.82c2.53,0.67,6.4-1.2,7.4,0.96c1.09,2.35-2.17,4.78-3.69,7.01C52.36,56.68,42.1,71.49,31.85,86.31
		c-2.91,4.21-6.31,8.17-5.94,13.78c-3.31-0.51-7.72,1.01-9.48-2.67c-1.67-3.5,2.18-5.94,3.94-8.54C32,71.7,43.81,54.65,55.6,37.58
		C56.52,36.23,57.7,35.07,58.76,33.82z"/>
	<path class="st0" d="M95.02,109.96c4.14-2.58,10.31-0.85,11.94,3.58c4.4,11.94,8.84,23.87,12.86,35.94
		c1.15,3.45,3.24,5.1,6.22,6.43c6.91,3.1,14.25,5.2,20.88,8.96c-1.95,1.38-3.86,1.31-6.07,0.38c-8.85-3.72-17.74-7.35-26.69-10.84
		c-2.46-0.96-3.53-2.65-4.35-4.96c-4.03-11.4-8.16-22.76-12.28-34.12C96.85,113.47,96.42,111.48,95.02,109.96z"/>
	<path class="st0" d="M189.79,209.64c0.19-3.3,1.82-5.25,5-5.16c2.98,0.09,5.07,1.7,5.16,4.94c0.11,3.54-2.07,5.25-5.29,5.27
		C191.46,214.71,190,212.56,189.79,209.64z"/>
	<path class="st0" d="M242.36,204.34c3.06,0.37,5.31,1.77,5.43,5.17c0.11,3.17-1.86,4.95-4.81,5.17c-3.34,0.25-5.24-1.66-5.34-5.02
		C237.54,206.53,239.22,204.8,242.36,204.34z"/>
	<path class="st0" d="M213.69,209.35c0.27-3.05,1.8-5.21,4.89-5.08c3.26,0.14,5.71,1.93,5.5,5.63c-0.18,3.1-2.21,4.82-5.21,4.8
		C215.55,214.69,213.89,212.62,213.69,209.35z"/>
	<path class="st0" d="M262.36,206.59c2.59-3.7,5.34-3.29,8.87-0.19C267.92,207.61,265.12,206.74,262.36,206.59z"/>
</g>
</svg>
