<?xml version="1.0" encoding="utf-8"?>
<!-- Generator: Adobe Illustrator 23.0.3, SVG Export Plug-In . SVG Version: 6.00 Build 0)  -->
<svg version="1.1" id="Camada_1" xmlns="http://www.w3.org/2000/svg" xmlns:xlink="http://www.w3.org/1999/xlink" x="0px" y="0px"
	 viewBox="0 0 304 284" style="enable-background:new 0 0 304 284;" xml:space="preserve">
<style type="text/css">
	.st0{fill:#FEFEFE;}
	.st1{fill:#000087;}
	.st2{fill:#0492C0;}
	.st3{fill:#B9E1F1;}
	.st4{fill:#FD8602;}
	.st5{fill:#FD8604;}
	.st6{fill:#B8E1F1;}
	.st7{fill:#FD8704;}
	.st8{fill:#FD8705;}
	.st9{fill:#FC8605;}
	.st10{fill:#FC8706;}
	.st11{fill:#F9FBFC;}
	.st12{fill:#B6E1F1;}
	.st13{fill:#1D9DC7;}
	.st14{fill:#269DC5;}
	.st15{fill:#3AA0C0;}
	.st16{fill:#FCFDFE;}
	.st17{fill:#FCFCFD;}
	.st18{fill:#C2EBF4;}
	.st19{fill:#FBFDFD;}
	.st20{fill:#F7FBFD;}
	.st21{fill:#EDF7FA;}
	.st22{fill:#F8FBFD;}
	.st23{fill:#FEF9F3;}
	.st24{fill:#FEFBF9;}
	.st25{fill:#FEFAF6;}
	.st26{fill:#F7F9F9;}
	.st27{fill:#F5EDE2;}
	.st28{fill:#E3DCCE;}
	.st29{fill:#FD8504;}
</style>
<g>
	<g>
		<path class="st0" d="M153,1c49.5,0,99,0.03,148.5-0.08c2.98-0.01,3.59,0.6,3.58,3.58c-0.1,92.33-0.1,184.67,0,277
			c0,2.98-0.6,3.58-3.58,3.58c-99-0.1-198-0.1-297,0c-2.98,0-3.59-0.6-3.58-3.58c0.1-92.33,0.1-184.67,0-277
			c0-2.98,0.6-3.59,3.58-3.58C54,1.03,103.5,1,153,1z"/>
		<path class="st1" d="M247.16,133.99c5.36,11.37,4.99,23.23,2.11,34.96c-2.29,9.31-9.16,14.65-18.28,17.15
			c-1.57,0.94-3.33,1.32-5.08,1.78c-1.31,0.28-2.63,0.26-3.94,0c-8.2-0.53-15.01-3.75-20.46-10.05c-4.4-5.09-5.4-11.3-6.59-17.52
			c-0.44-4.22-0.46-8.43-0.01-12.64c0.95-2.83,0.86-5.87,1.86-8.71c6.61-18.77,30.87-24.8,46.26-11.48c1.06,0.7,1.94,1.6,2.69,2.63
			C246.43,131.3,247.54,132.37,247.16,133.99z"/>
		<path class="st2" d="M247.16,133.99c-0.65-0.84-1.29-1.68-1.94-2.52c4.45-5.96,9.13-11.76,13.89-17.44
			c4.84-5.78,6.74-11.56,4.2-18.72c-0.94-2.66,0.04-6.26-3.79-7.43c-4.14-1.07-8.75-0.01-12.53-2.73
			c-6.38-4.03-11.69-9.91-19.58-11.35c-11.46-2.67-22.92-5.34-34.3-8.35c-7.13-3.44-14.57-6.24-21.63-9.85
			c-5.41-2.77-5.55-3.11-3.86-8.7c0.88-2.9-2.28-11.48-4.85-13.44c-1.08-0.83-1.77-0.49-2.45,0.43c-0.79,1.06-1.38,2.25-2.18,3.32
			c-2.47,4.13-6.05,6.17-10.89,6.8c-8.87,1.16-17.69,2.71-26.53,4.1c-3.71,0.58-7.88,1.25-9.35-3.93c-1.58-4.3-3.1-8.64-4.52-13
			c-1.35-4.14-3.38-4.24-6.39-1.91c-8.37,5.16-8.49,5.19-17.07,4.04c0.48,2.22,1.81,3.86,2.71,5.68c1.63,3.32,1.27,6.08-2.23,7.97
			c-2.77,1.49-5.52,3.04-8.19,4.68c-4.41,2.7-8.32,2.89-11.9-1.25c-1.34-0.93-2.55-2.02-3.7-3.16c-1.76-1.74-3.46-1.4-5.17,0.05
			c-7.15,3.75-11.14,8.73-8.78,17.58c1.08,4.04,0.16,8.59,0.95,12.9c0.63,3.44-0.96,5.78-4.35,6.84c-1.11,0.35-2.22,0.82-3.37,0.94
			c-7.76,0.81-11.91,5.93-15.02,12.35c-0.29,0.6-0.68,1.16-0.85,1.8c-1.06,4.04,8.86,15.17,12.85,14.08
			c4.23-1.15,6.52-0.05,6.95,4.33c0.39,4.06,3.64,4.23,6.5,4.99c3.39,1.42,6.13-0.43,8.94-1.81c1.95-0.95,4.02-1.59,5.96-2.56
			c1.66-0.78,3.25-1.7,4.93-2.41c4.32-1.81,6.57-0.73,6.53,4.03c-0.06,6.99,3,10.62,9.71,12.21c4.17,0.99,8.06,3.13,12.18,4.41
			c5.31,1.65,8.54,4.95,9.6,10.36c0.96,4.93,3.38,7.76,8.85,8.32c4.89,0.5,8.45,6.25,8.77,12.92c0.28,5.81,0.17,11.64,0.05,17.46
			c-0.08,3.55,1.24,5.78,4.79,6.41c3.94,0.71,6.51,3.07,8.29,6.52c1.17,2.26,2.68,4.2,5.18,5.16c2.97,1.14,3.97,3.4,3.36,6.39
			c-0.64,3.14-1.1,6.05,1.09,9c1.64,2.2-0.33,4.04-1.79,5.63c-4.51,4.91-10.06,8.69-14.59,13.6c-3.89,4.23-3.88,4.54,0.99,7.66
			c6.01,3.85,12.23,7.41,17.67,12.09c0.73,0.96,0.64,2.19,1.17,3.53c2.76-1.94,4.58-4.61,6.63-7.07
			c5.19-6.24,9.86-12.89,15.23-18.97c2.83-3.2,4.86-6.56,4.7-11.08c-0.07-2.09,0.56-4.26,1.7-6.16c2.03-1.22,2.03-1.22,2.42,0.49
			c-0.1,8.5-2.02,15.76-8.63,22.3c-7.38,7.31-12.7,16.65-20.17,24.06c-1.39,1.38-2.34,4.38-5.01,2.99
			c-2.28-1.19-0.82-3.57-0.55-5.45c0.12-0.86,0.16-1.64-0.58-2.26c-3.3-0.46-5.66-2.7-8.3-4.39c-4.77-3.05-9.43-6.25-14.19-9.31
			c-4-2.57-4.21-4.53-1.02-8.02c4.83-5.29,10.78-9.39,15.66-14.67c1.83-1.97,1.67-4.03,2.1-6.45c1.41-7.94-4.81-11.72-7.86-17.19
			c-1.61-2.9-4.93-3.23-7.54-4.59c-6.31-3.29-6.26-3.2-5.55-10.14c0.54-5.3,0.27-10.64,0.15-15.97c-0.17-7.57-5.5-10.2-11.65-12
			c-0.95-0.39-1.9-0.78-2.85-1.18c-1.61-1.18-2.19-2.98-2.39-4.76c-0.76-6.91-5.21-10.2-11.27-12.21
			c-5.33-1.77-10.42-4.22-15.78-5.89c-3.35-1.05-4.73-3.21-4.96-6.57c-0.38-5.49-0.46-5.47-5.89-4.94
			c-0.65,0.06-1.31-0.06-1.83,0.45c-0.31,0.1-0.68,0.12-0.93,0.3c-6.98,5.06-14.37,4.16-21.88,1.56c-0.61-0.24-1.3-0.44-1.74-0.9
			c-1.45-1.55-5.81-4.6-7.39-5.05c-0.97-1.02-1.93-2.04-2.9-3.06c-4.86-3.08-7.87-7.88-11.3-12.27c-0.74-0.95-1.03-2.28-0.41-3.3
			c3.46-5.71,5.38-12.52,11.61-16.25c2.33-0.62,4.87-0.54,6.91-2.1c4.97-1.67,6.05-5.34,5.72-10.16c-0.24-3.49-0.83-6.93-1.02-10.41
			C40.09,51.08,42.97,47.04,53,44c3.42-3.09,6.55-3.22,9.6,0.65c1.11,1.4,2.75,2.38,4.15,3.55c6.2,1.53,10.01-3.18,14.52-5.81
			c1.48-0.86-0.4-2.61-0.89-3.91c-0.93-2.48-3.88-4.29-2.51-7.53c0.64-1.31,1.65-2.37,3.13-1.8c8.58,3.31,15.17-1.76,21.73-5.59
			c3.89-2.27,4.85-0.96,5.95,2.27c1.82,5.35,3.77,10.67,5.58,16.03c0.73,2.16,1.54,3.08,4.27,2.55c8.78-1.71,17.66-2.93,26.49-4.35
			c5.8-0.89,8.41-6.26,12.81-9.13c4.6-6.14,4.82-6.12,8.34,0.76c1.59,3.11,3.11,6.25,4.8,9.31c1.21,2.19,1.84,4.28,0.22,6.5
			c-1.98,2.72-0.53,3.68,1.94,5.02c16.56,9.01,34.55,13.62,52.81,17.34c5.84,1.19,11.29,2.9,15.61,7.08
			c5.46,5.29,12.17,7.2,19.45,7.55c3.33,0.16,4.8,1.78,4.98,4.92c0.01,0.17,0,0.34,0.06,0.49c4.73,12.06,1.2,21.9-7.52,30.88
			C254.51,124.93,251.56,130.1,247.16,133.99z"/>
		<path class="st3" d="M108.98,158.1c11.08,1.63,13.28,4.18,13.02,15.36c-0.13,5.32-0.3,10.64-0.7,15.94
			c-0.25,3.26,0.94,5.11,4.15,5.6c5.68,0.87,8.58,4.74,12.06,9.03c3.5,4.32,6.65,7.63,4.32,13.37c4.75,5.46-1.22,7.22-3.67,9.8
			c-4.23,4.45-8.82,8.59-13.48,12.6c-3.11,2.68-2.49,4.36,0.61,6.38c7.36,4.78,15.02,9.12,21.88,14.66
			c-1.28,1.72-2.53,3.47-3.86,5.15c-0.6,0.75-1.24,1.79-2.36,1.5c-1.3-0.33-1.18-1.75-0.88-2.5c1.88-4.73-1.46-6.34-4.59-8.29
			c-5.91-3.68-11.6-7.72-17.64-11.18c-3.52-2.02-2.6-3.43-0.31-5.46c6.07-5.39,12.09-10.84,18.1-16.3c1.66-1.51,3.41-2.85,0.21-4.91
			c-2.79-1.8-0.63-4.54-0.28-6.76c0.42-2.65,1.19-4.87-2.7-5.38c-1.95-0.26-2.72-2.31-3.52-3.95c-2.14-4.37-4.99-7.76-10.27-8.28
			c-4.51-0.45-5.74-3.36-4.99-7.35c0.92-4.93,0.79-9.89,0.91-14.86C115.14,166.56,112.74,162.06,108.98,158.1z"/>
		<path class="st4" d="M251.85,200.1c0-2.66,0.05-4.65-0.02-6.63c-0.06-1.74,0.35-2.83,2.44-2.79c1.89,0.03,3.17,0.28,3.15,2.65
			c-0.07,7.29-0.06,14.59,0.04,21.88c0.03,2.19-1.45,3-2.76,2.27c-2.67-1.48-4.8-0.11-7.23,0.32c-3.85,0.68-7.37-0.5-9.43-4.05
			c-2.24-3.87-2.26-8.04,0.34-11.74c2.45-3.49,6.09-4.35,10.17-3.19C249.47,199.08,250.35,199.51,251.85,200.1z"/>
		<path class="st5" d="M224.78,198.07c1.54,0.52,3.44,1.9,4.55,1.42c6.31-2.69,5.61,1.48,5.56,5.25c-0.04,3.32-0.08,6.65,0.03,9.97
			c0.06,1.8-0.68,3.52-2.35,2.73c-3.2-1.53-5.87,0.27-8.77,0.47c-6.41,0.45-10.92-5.43-9.5-12.12c0.34-1.61,1.62-2.95,1.3-4.74
			c0.54-3.72,3.79-3.22,6.22-4.01C222.95,196.97,224,197.14,224.78,198.07z"/>
		<path class="st6" d="M53,44c-10.1,4.57-13.27,12.21-10.36,22.79c0.64,2.33,0.21,4.94,0.36,7.42c0.44,7.25,0.46,7.25-7.03,7.73
			c-0.34-8.29-0.6-16.59-1.05-24.87c-0.17-3.08,0.42-5.35,3.36-7.04c3-1.73,5.87-3.83,8.37-6.22C49.11,41.47,50.91,43.8,53,44z"/>
		<path class="st7" d="M269.62,217.95c-6.07,0.05-10.42-3.88-10.56-9.53c-0.14-5.74,4.52-10.21,10.57-10.14
			c5.92,0.07,10.25,4.25,10.25,9.9C279.89,213.9,275.69,217.9,269.62,217.95z"/>
		<path class="st6" d="M64,123c2.66-1.25,5.33-2.5,8.72-4.09c0.17,3.4,0.46,6.28,0.4,9.16c-0.06,2.75,1.04,4.18,3.65,5.1
			c6.72,2.37,13.23,5.4,20.05,7.39c4.32,1.26,6.33,3.62,7.13,7.72c0.57,2.91,1.44,5.76,2.18,8.64c-5.1,1.12-8.12-1.05-8.6-6.09
			c-0.7-7.38-5.07-10.76-11.77-12.57c-5.08-1.37-9.9-3.7-14.93-5.3c-3.42-1.09-5.51-2.7-4.87-6.65C66.2,124.83,66.12,123.23,64,123z
			"/>
		<path class="st3" d="M29.06,84.04c-4.34,4.7-6.81,10.61-10.34,15.84c-1.1,1.63-0.27,2.73,0.75,3.96c3.27,3.97,6.47,8,9.7,12.01
			c-3.33,2.66-5.63,2.02-7.85-1.71c-1.74-2.93-4.06-5.73-6.71-7.85c-4.1-3.29-3.63-6.32-0.78-9.94c1.21-1.54,2.26-3.28,3.04-5.08
			C19.22,85.89,23.42,83.8,29.06,84.04z"/>
		<path class="st8" d="M289.51,218.18c-2.55,0.05-4.92-0.56-7.11-1.9c-1.15-0.7-1.76-1.48-0.88-2.8c0.72-1.08,1.16-2.52,2.98-1.42
			c1.74,1.06,3.69,1.49,5.73,1.25c0.79-0.09,1.71-0.28,1.73-1.37c0.02-0.98-0.67-1.47-1.53-1.66c-1.77-0.39-3.6-0.56-5.31-1.11
			c-2.44-0.78-3.91-2.58-3.86-5.2c0.05-2.62,1.67-4.22,4.04-5.12c2.93-1.1,5.86-1.09,8.72,0.17c0.96,0.42,2.58,0.72,1.8,2.33
			c-0.53,1.1-1.23,2.42-2.99,1.97c-1.98-0.5-5.2-1.75-5.46,0.64c-0.29,2.6,3.31,1.52,5.21,2.02c3.2,0.85,5.47,2.53,5.35,6.14
			C297.81,215.65,294.23,218.14,289.51,218.18z"/>
		<path class="st9" d="M197.61,206.8c2.17,2.16,3.25,4.61,1.76,7.57c-1.43,2.86-4.08,3.6-7.02,3.81c-3.28,0.23-6.14-0.93-8.92-2.46
			c-1.97-2.78-0.02-3.96,2.06-5.09c2.12,0.15,3.83,1.98,6.65,1.42c-1.34-1.22-2.87-0.75-3.98-1.3c-0.95-0.34-1.83-0.79-2.68-1.34
			c-1.09-0.84-1.98-1.84-2.41-3.19c-0.38-5.81,1.48-8.31,6.86-9.25c4.81-0.84,7.57,0.78,8.78,5.15c-0.11,0.5-0.37,0.93-0.75,1.28
			c-1.79,1.22-3.85,0.26-5.85,0.64c0.33,1.05,1.27,0.63,1.88,0.87C195.42,205.12,196.78,205.47,197.61,206.8z"/>
		<path class="st10" d="M215.31,201.11c-0.78,0.58-1.49,1.33-2.36,1.72c-1.71,0.76-4.67-0.08-4.02,3.43
			c0.49,2.67-1.71,6.72,3.72,6.86c1.35,0.03,1.39,1.71,1.49,2.81c0.14,1.61-1.23,1.7-2.34,1.94c-4.32,0.92-7.43-1.17-8.13-5.66
			c-0.43-2.74-0.52-5.54-0.76-8.31c-1.22-0.29-2.72,0.21-3.5-1.28c-1.04-4.67,3.07-6.52,5.41-9.09c1.32-1.45,3.84-0.66,4.99,1.39
			c0.94,1.7,2.36,2.67,4.01,3.45C214.8,199.01,215.1,200.03,215.31,201.11z"/>
		<path class="st6" d="M77.87,30.95c1.49,2.95,2.82,6,4.54,8.8c1.41,2.31,0.88,3.46-1.39,4.58c-2.97,1.45-5.9,3.04-8.69,4.82
			c-2.29,1.46-4,1.03-5.57-0.95c0.78-0.24,1.6-0.39,2.34-0.73c8.28-3.77,8.23-3.76,3.92-11.67c-0.83-1.52-2.77-3.38-1.55-4.85
			C73.14,28.9,75.67,31.76,77.87,30.95z"/>
		<path class="st11" d="M215.31,201.11c-1.1,0-1.48-0.59-1.32-1.62c0.22-4.96,3.24-8.63,5.85-12.46c0.46-0.67,1.46-0.62,2.24-0.12
			c1.43-0.1,2.87-0.2,4.3-0.29c1.62-0.19,2.27,0.66,1.59,2.01c-1.67,3.31-2.74,7.03-5.84,9.46c-2.07,1.21-5.03,0.47-6.52,2.97
			C215.6,201.06,215.31,201.11,215.31,201.11z"/>
		<path class="st6" d="M157.83,30.93c-3.47,4.17-5.44,10.43-12.81,9.13c1.42-4.1,4.47-7.13,6.98-10.49
			C154.77,25.86,155.52,31.96,157.83,30.93z"/>
		<path class="st12" d="M32.06,118.91c2.62,0.75,4.57-1.54,7.32-1.6c0.41,2.57-1.27,5.72,1.81,7.55
			C33.54,124.79,32.34,124.01,32.06,118.91z"/>
		<path class="st13" d="M222.13,198.09c1.48-2.91,2.96-5.82,4.45-8.72c0.49-0.96,1.48-1.95-0.2-2.75c1.44-1.05,3.09-0.26,4.61-0.52
			c-2.07,3.99-4.14,7.98-6.21,11.98C223.89,198.08,223.01,198.09,222.13,198.09z"/>
		<path class="st14" d="M186.14,208.77c0.86,0.38,1.72,0.75,2.58,1.13c-0.37,1.5-1.47,1.72-2.78,1.56c-2.04,0.71-2.54,2.32-2.5,4.26
			c-0.44,1.15-0.87,2.31-1.31,3.46c-0.55-1.18-1.25-0.43-1.92-0.16c-0.7-0.47-0.79-1.15-0.66-1.91c0.91-1.71,1.24-3.6,1.67-5.47
			C182.22,209.59,183.71,208.37,186.14,208.77z"/>
		<path class="st15" d="M200.04,202.89c0.9,0.5,2.22-0.2,2.86,1.01c-1.76,0.97-3.53,1.94-5.29,2.91c-1.21-0.31-2.43-0.63-3.64-0.94
			c-0.12-2.04,1.7-1.84,2.82-2.44c0.38-0.18,0.76-0.36,1.14-0.54C198.63,202.4,199.34,202.4,200.04,202.89z"/>
		<path class="st6" d="M200.04,202.89c-0.7,0-1.4,0-2.11-0.01c0.55-4.65-2.96-4.52-5.82-4.61c-3.78-0.11-7.43,0.58-8.32,5.2
			c-0.21,1.08,0.21,2.28,0.33,3.42c-2.27,3.77-6.44,4.43-9.98,6.15c-1.14,0.28-2.29,0.37-3.46,0.29c-2.29-0.15-4.41-0.66-4.62-3.48
			c-0.23-3.05,1.51-4.5,4.32-5.09c2.2-0.46,4.64,0.42,7.11-1.4c-2.52-1.45-5.02-0.69-7.32-1.01c-2.39-0.34-4.19-1.18-4.11-3.98
			c0.08-2.53,1.81-3.28,3.95-3.64c2.59-0.43,5.32,0.37,7.85-1.39c-4.12-1.11-8.34-1.25-12.53-0.4c-2.06,0.42-1.82,2.56-1.85,4.17
			c-0.1,4.65,0.14,9.3-0.09,13.94c-0.2,4.08,1.45,5.85,5.5,5.56c1.15-0.08,2.32,0.12,3.41,0.58c2.33,3.88,1.53,14.86-2.06,18.57
			c-6.25,6.47-11.4,13.76-16.86,20.83c-0.91,1.18-1.89,2.33-3.52,2.56c-7.11-4.62-14.16-9.34-21.36-13.82
			c-2.71-1.68-3.03-2.87-0.55-5.1c5.93-5.34,11.65-10.92,17.5-16.36c2.12-1.97,3.42-3.6,0.01-5.75c-2.74-1.72-0.5-4.34-0.13-6.31
			c0.67-3.51,1.37-6.29-3.61-6.62c-1.88-0.12-2.5-2.15-3.19-3.57c-2.21-4.61-5.29-7.95-10.68-8.52c-3.01-0.31-4.11-1.91-3.91-5.04
			c0.33-5.14-0.11-10.34,0.37-15.47c0.47-4.98-1.47-9.06-3.51-13.26c-1.68-3.46-5.14-2.74-7.86-3.12c-3.03-0.42-4.96-1.07-5.38-4.47
			c-1.05-8.49-5.8-13.47-14.31-15.22c-3.87-0.8-7.42-3.04-11.28-3.92c-5.18-1.18-6.72-4.23-6.83-9.18
			c-0.18-8.17-0.39-8.17-7.95-4.63c-0.75,0.35-1.53,0.65-2.29,0.98c-2.86-1.08-4.91,1.11-7.28,1.89c-2.62,0.85-5.09,2.14-7.85,2.59
			c-4.27-0.9-9.19-0.84-8-7.75c0.43-2.51-2.07-2.96-3.83-1.8c-3.74,2.47-5.97,1.04-8.05-2.25c-1.14-1.81-2.76-3.31-4.12-4.97
			c-5.04-6.13-4.58-5.91-1.2-12.85c3.09-6.35,7.88-9.12,14.43-10.47c7.18-1.48,7-1.79,6.39-8.78c-0.54-6.11-0.71-12.26-1.19-18.37
			c-0.21-2.61,0.61-4.39,2.89-5.77c2.69-1.62,5.19-3.55,7.77-5.35c1.52,0.28,2.5,1.38,3.49,2.4c1.67,1.74,3.47,2.15,5.56,0.83
			c3.05,3.19,6.06,5.13,10.48,1.78c3.52-2.67,8.97-3.76,11.05-7.11c2.52-4.06-3.68-7.44-4.33-12.68c7.26,3.97,13.07,0.47,18.9-2.95
			c3.55,3.58,3.64,8.68,5.66,12.95c1.6,3.39,3.37,4.22,6.35,1.8c0.81,3.86,3.12,4.73,6.88,4.08c10.6-1.81,21.26-3.34,31.9-4.92
			c3.69-0.55,4.21-4.48,6.82-6.15c4.27,1.74,6.85,7.03,5.23,11.32c-0.83,2.18-1.1,3.84,1.33,4.93c8.89,4.01,17.47,8.72,26.76,11.85
			c0.62,0.21,1.29,0.33,1.95,0.11c11.71,2.94,23.43,5.88,35.14,8.82c6,4.23,10.97,10.24,18.98,10.99c3.97,2.75,8.93,1.13,13.11,2.95
			c-1.92,1.69-2.45,3.74-1.86,6.23c0.38,1.6,0.46,3.3,0.95,4.86c1.8,5.74,0.54,10.6-3.4,15.14c-4.41,5.09-7.44,11.32-12.81,15.65
			c-7.51-6.34-16.2-8-25.64-6.26c-11.09,2.05-18.53,9.86-20.32,21.03c-0.21,1.28-0.59,2.53-0.89,3.8c-0.13-0.11-0.27-0.2-0.38-0.32
			c-0.11-0.12-0.2-0.26-0.3-0.4c-0.1,4.76,0.14,9.53-0.1,14.29c0,0.05,0.31,0.18,0.44,0.14c0.13-0.04,0.22-0.24,0.32-0.36
			c0.41,2.08,0.74,4.18,1.24,6.24c2.58,10.66,10.79,17.86,21.87,19.29c0.95,0.12,1.87,0.46,2.81,0.69c-2.92,1.44-3.46,4.59-5,7.01
			c-1.14,1.78-2.07,3.7-3.09,5.56c-2.19-0.95-5.65,0.12-5.45-4.43c0.1-2.17-2.53-1.01-4.02-0.97
			C204.67,197.86,199.33,198.83,200.04,202.89z"/>
		<path class="st6" d="M230,173.05c-9.87,4.38-18.95-0.58-19.8-11.11c-0.42-5.11-0.33-10.31,0-15.44c0.39-6.09,4.23-10.48,9.7-11.87
			c5.94-1.52,10.58-0.03,13.94,4.48C235.71,150.78,231.81,161.8,230,173.05z"/>
		<path class="st16" d="M243.03,128.77c4.39-6.14,8.6-12.42,13.24-18.38c2.36-3.03,3.23-5.87,2.21-9.6
			c-0.86-3.16-0.67-6.64-1.77-9.68c-1.44-3.97,0.68-4.15,3.45-4.23c1.61-0.05,2.99,0.23,3.31,2.17c0.13,0.81,0.24,1.65,0.51,2.42
			c3.6,10.13,1.53,18.77-6.22,26.35c-4.4,4.3-6.58,10.7-12.53,13.64C244.49,130.57,243.76,129.67,243.03,128.77z"/>
		<path class="st17" d="M230,173.05c-3.02-1.96-0.02-4.05,0.18-5.88c1.01-9.37,3.07-18.62,3.66-28.06
			C240.68,147.99,238.43,167.94,230,173.05z"/>
		<path class="st18" d="M196.16,160.69c-0.12,0.75-0.25,1.49-0.37,2.24c-0.19-0.02-0.38-0.05-0.58-0.07c0-5.9,0-11.8,0-17.7
			c0.19-0.02,0.39-0.04,0.58-0.07c0.13,0.75,0.26,1.5,0.38,2.25C196.17,151.79,196.17,156.24,196.16,160.69z"/>
		<path class="st16" d="M149.88,259.14c6.32-8.03,11.66-16.85,19.26-23.82c2.19-2,2.24-4.74,2.72-7.25
			c0.64-3.38,0.77-6.86,1.12-10.3c2.26-1.83,4.6-1.69,6.99-0.26c0.08,0.5,0.15,1.01,0.23,1.51c-0.21,8.96-3.7,16.13-10,22.76
			c-6.89,7.26-12.13,16.04-19.95,23.35C150.11,262.84,150,260.99,149.88,259.14z"/>
		<path class="st19" d="M192.93,64.12c-1.9,1.9-3.86,0.51-5.51-0.2c-8.35-3.61-16.61-7.41-24.89-11.18
			c-1.54-0.7-3.46-1.69-1.93-3.64c4.47-5.72-0.16-9.2-2.92-13.18c0.9-2.33,2.14-5.43,4.27-5.58c2.05-0.15,2.41,3.43,3.6,5.31
			c1.14,1.81,1.82,3.92,3,5.7c1.47,2.23,1.5,4.22-0.03,6.38c-2.27,3.19-0.93,4.89,2.32,6.3C178.26,57.24,185.57,60.74,192.93,64.12z
			"/>
		<path class="st19" d="M112.07,42.9c-0.01,1.9-0.57,3.08-2.85,3.14c-2.22,0.06-3.4-0.85-4.06-2.83c-1.68-5.03-3.4-10.04-5.1-15.06
			c5.63-3.55,5.66-3.56,7.86,2.66C109.34,34.83,110.69,38.87,112.07,42.9z"/>
		<path class="st20" d="M247.05,83.93c-2.61,2.02-5.19,0.35-7.12-0.8c-4.19-2.48-7.96-5.67-11.87-8.6c-0.6-0.45-0.67-1.07,0.02-1.6
			C236.1,73.67,240.89,79.98,247.05,83.93z"/>
		<path class="st21" d="M49.81,124.23c4.09-3.4,9.43-4.11,14.04-6.42c1.43-0.71,0.88,1.17,1.09,1.94c-3.23,1.52-6.48,3.01-9.68,4.58
			C53.38,125.26,51.6,125.68,49.81,124.23z"/>
		<path class="st22" d="M63.96,49.11c-1.04,2.56-2.54,3.75-4.91,1.41c-1.47-1.45-2.77-3.09-4.14-4.64c1.84-2.23,3.6-2.14,5.5,0.01
			C61.45,47.08,62.77,48.04,63.96,49.11z"/>
		<path class="st23" d="M246.83,213.06c-3.1-0.39-4.76-2.09-4.72-4.96c0.04-3.16,1.91-5.05,5.09-4.77c2.71,0.24,4.69,1.86,4.64,4.88
			C251.78,211.48,249.68,212.81,246.83,213.06z"/>
		<path class="st24" d="M229.49,208.3c-0.38,2.73-1.82,4.65-5.06,4.68c-3.03,0.02-4.74-1.81-4.89-4.55
			c-0.17-2.94,1.34-5.29,4.62-5.25C227.1,203.21,229.1,204.86,229.49,208.3z"/>
		<path class="st25" d="M269.52,203.19c2.84,0.44,4.58,1.93,4.6,4.91c0.02,2.92-1.39,4.78-4.44,4.85c-3.28,0.08-4.92-1.8-4.87-4.95
			C264.86,205.06,266.71,203.59,269.52,203.19z"/>
		<path class="st26" d="M175.04,211.85c3.03-1.65,6.06-3.31,9.08-4.96c0.67,0.63,1.34,1.26,2.01,1.88c-1.6,0.89-3.49,1.4-4.3,3.32
			C179.51,213.74,177.24,213.82,175.04,211.85z"/>
		<path class="st27" d="M185.94,211.46c0.92-0.52,1.85-1.04,2.77-1.56c1.98,0.39,4.38-0.65,5.77,1.64c0.15,0.25-0.15,1.04-0.47,1.26
			c-2.19,1.57-4.37,0.51-6.51-0.22C186.92,212.37,186.46,211.84,185.94,211.46z"/>
		<path class="st28" d="M196.79,203.42c-0.94,0.81-1.88,1.63-2.82,2.44c-0.82,0-1.65,0.1-2.45-0.02c-1.14-0.17-2.54-0.48-2.29-1.97
			c0.22-1.33,1.66-1.6,2.76-1.49C193.61,202.54,195.19,203.06,196.79,203.42z"/>
		<path class="st29" d="M175.04,211.85c2.26,0.08,4.53,0.16,6.79,0.24c-0.5,1.85,1.77,4.65-1.86,5.42
			c-2.33,0.09-4.66,0.17-6.99,0.26c-3.57-0.72-8.36,1.52-10.5-1.05c-2.2-2.65-0.57-7.34-0.68-11.14c-0.1-3.82,0.11-7.64-0.07-11.45
			c-0.13-2.65,0.88-3.48,3.45-3.38c4.31,0.16,8.63,0.09,12.95,0.03c1.93-0.03,3.1,0.33,3.08,2.69c-0.03,2.48-1.45,2.56-3.24,2.53
			c-2.66-0.04-5.32,0.09-7.97-0.04c-2.16-0.11-2.92,0.71-2.92,2.87c0,2.2,1.23,2.37,2.88,2.35c2.66-0.03,5.31,0.04,7.97-0.01
			c2.05-0.04,2.45,1.11,2.44,2.86c-0.01,1.78-0.94,2.27-2.52,2.25c-2.32-0.04-4.65,0.05-6.97-0.02c-2.19-0.06-3.82,0.08-3.83,3.08
			c-0.01,3.34,2.15,2.69,4.03,2.71C172.4,212.06,173.72,211.92,175.04,211.85z"/>
		<path class="st1" d="M184.28,123.78c0,7.29,0,13.92,0,20.55c0,7.66,0.26,15.34-0.09,22.98c-0.22,4.85,0.65,7.71,6.3,6.61
			c2.93-0.57,3.56,0.96,3.58,3.68c0.04,7.4,0.16,7.4-7.34,7.4c-7.16,0-14.33-0.15-21.48,0.07c-3.19,0.1-4.31-0.72-4.22-4.1
			c0.17-6.88-0.04-7.02,6.71-7.01c2.89,0.01,4.18-0.63,4.1-3.85c-0.2-8.66-0.18-17.32-0.01-25.98c0.07-3.38-1.17-3.65-3.82-2.48
			c-1.21,0.54-2.52,0.86-3.81,1.16c-0.6,0.14-1.44,0.25-1.87-0.05c-1.3-0.92-0.22-10.96,1.3-11.53
			C170.27,128.74,176.98,126.39,184.28,123.78z"/>
	</g>
</g>
</svg>
