<?xml version="1.0" encoding="iso-8859-1"?>
<!-- Generator: Adobe Illustrator 19.0.0, SVG Export Plug-In . SVG Version: 6.00 Build 0)  -->
<svg version="1.1" id="Capa_1" xmlns="http://www.w3.org/2000/svg" xmlns:xlink="http://www.w3.org/1999/xlink" x="0px" y="0px"
	 viewBox="0 0 512 512" style="enable-background:new 0 0 512 512;" xml:space="preserve">
<g>
	<g>
		<path d="M256,66C151.234,66,66,151.234,66,256s85.234,190,190,190s190-85.234,190-190S360.766,66,256,66z M172.694,107.858
			c-9.382,12.538-15.999,27.258-18.952,43.246c-8.425-1.651-16.522-4.588-24.069-8.737
			C142.009,128.667,156.535,116.981,172.694,107.858z M117.046,158.173c10.821,6.431,22.625,10.784,34.963,12.935V246H86.302
			C88.201,213.435,99.302,183.302,117.046,158.173z M117.045,353.825C99.302,328.697,88.201,298.565,86.302,266h65.707v74.892
			C139.672,343.042,127.866,347.395,117.045,353.825z M129.672,369.632c7.547-4.15,15.645-7.086,24.07-8.737
			c2.953,15.988,9.57,30.708,18.952,43.247C156.534,395.019,142.008,383.332,129.672,369.632z M246,425.338
			c-35.845-4.275-64.83-31.195-72.177-66.017H246V425.338z M246,339.321h-73.991V266H246V339.321z M246,246h-73.991v-73.321H246V246
			z M246,152.678h-72.177c7.347-34.822,36.332-61.742,72.177-66.017V152.678z M394.955,158.174
			c17.743,25.129,28.844,55.261,30.743,87.826h-65.707v-74.892C372.329,168.958,384.134,164.605,394.955,158.174z M382.328,142.368
			c-7.547,4.15-15.645,7.086-24.07,8.737c-2.953-15.988-9.57-30.708-18.952-43.247C355.466,116.981,369.992,128.668,382.328,142.368
			z M266,86.661c35.845,4.275,64.83,31.195,72.177,66.017H266V86.661z M266,172.679h73.991V246H266V172.679z M266,266h73.991v73.321
			H266V266z M266,425.339v-66.017h72.177C330.83,394.144,301.845,421.064,266,425.339z M339.306,404.142
			c9.382-12.538,15.999-27.258,18.952-43.246c8.425,1.651,16.522,4.588,24.069,8.737
			C369.991,383.333,355.465,395.019,339.306,404.142z M394.954,353.827c-10.821-6.431-22.625-10.784-34.963-12.935V266h65.707
			C423.799,298.565,412.698,328.698,394.954,353.827z"/>
	</g>
</g>
<g>
	<g>
		<path d="M405.999,451.232c-3.189-4.509-9.429-5.583-13.939-2.393C352.121,477.075,305.072,492,256,492
			c-27.156,0-53.776-4.573-79.118-13.593c-5.205-1.853-10.923,0.864-12.774,6.068c-1.852,5.203,0.865,10.922,6.068,12.774
			C197.677,507.037,226.552,512,256,512c53.23,0,104.271-16.193,147.606-46.83C408.115,461.982,409.187,455.741,405.999,451.232z"/>
	</g>
</g>
<g>
	<g>
		<path d="M351.799,18.539C321.346,6.237,289.114,0,256,0c-54.599,0-106.711,16.963-150.705,49.056
			c-4.461,3.254-5.44,9.51-2.186,13.972c1.959,2.683,5.002,4.107,8.088,4.107c2.044,0,4.107-0.625,5.885-1.922
			C157.63,35.634,205.667,20,256,20c30.535,0,60.247,5.748,88.309,17.083c5.121,2.071,10.949-0.405,13.017-5.527
			C359.395,26.435,356.92,20.607,351.799,18.539z"/>
	</g>
</g>
<g>
	<g>
		<path d="M461.461,103.299c4.217-6.226,6.487-13.561,6.487-21.247c0-10.15-3.953-19.693-11.13-26.87
			c-7.177-7.178-16.72-11.13-26.87-11.13c-10.15,0-19.693,3.953-26.87,11.13c-7.178,7.177-11.13,16.72-11.13,26.87
			s3.953,19.693,11.13,26.87c7.177,7.178,16.72,11.13,26.87,11.13c5.743,0,11.29-1.267,16.325-3.666
			C476.216,157.038,492,205.111,492,256c0,30.72-5.815,60.599-17.284,88.806c-2.08,5.116,0.381,10.95,5.497,13.03
			c1.234,0.501,2.509,0.739,3.763,0.739c3.948,0,7.688-2.354,9.267-6.236C505.689,321.728,512,289.315,512,256
			C512,200.276,494.547,147.665,461.461,103.299z M442.676,94.779c-3.399,3.4-7.92,5.272-12.728,5.272s-9.328-1.871-12.728-5.272
			c-3.4-3.399-5.272-7.92-5.272-12.728c0-4.808,1.872-9.328,5.272-12.728c3.399-3.4,7.92-5.272,12.728-5.272
			s9.328,1.872,12.728,5.272c3.4,3.399,5.272,7.92,5.272,12.728C447.948,86.859,446.076,91.379,442.676,94.779z"/>
	</g>
</g>
<g>
	<g>
		<path d="M103.265,408.734c-8.781-8.779-21.695-10.968-32.537-6.566C37.542,360.174,20,309.652,20,256
			c0-25.049,3.904-49.707,11.604-73.287c1.714-5.25-1.152-10.896-6.402-12.61c-5.25-1.716-10.896,1.152-12.61,6.402
			C4.236,202.093,0,228.839,0,256c0,58.502,19.223,113.581,55.592,159.281c0.058,0.072,0.124,0.134,0.183,0.204
			c-6.265,11.396-4.583,26.029,5.064,35.676c5.849,5.848,13.531,8.772,21.213,8.772s15.365-2.924,21.213-8.772
			C114.962,439.464,114.962,420.432,103.265,408.734z M89.123,437.019c-1.889,1.889-4.4,2.929-7.071,2.929s-5.182-1.04-7.071-2.929
			c-1.889-1.889-2.929-4.4-2.929-7.071s1.04-5.182,2.929-7.071c1.889-1.889,4.4-2.929,7.071-2.929s5.182,1.04,7.071,2.929
			c1.889,1.889,2.929,4.4,2.929,7.071S91.012,435.13,89.123,437.019z"/>
	</g>
</g>
<g>
	<g>
		<path d="M89.12,74.98c-1.86-1.86-4.43-2.93-7.07-2.93c-2.63,0-5.21,1.07-7.07,2.93c-1.86,1.86-2.93,4.44-2.93,7.07
			s1.07,5.21,2.93,7.07c1.86,1.86,4.44,2.93,7.07,2.93s5.21-1.07,7.07-2.93s2.93-4.44,2.93-7.07S90.98,76.84,89.12,74.98z"/>
	</g>
</g>
<g>
	<g>
		<path d="M437.02,422.88c-1.86-1.86-4.44-2.93-7.07-2.93s-5.21,1.07-7.07,2.93c-1.86,1.86-2.93,4.44-2.93,7.07s1.07,5.21,2.93,7.07
			c1.86,1.86,4.44,2.93,7.07,2.93s5.21-1.07,7.07-2.93s2.93-4.44,2.93-7.07S438.88,424.74,437.02,422.88z"/>
	</g>
</g>
<g>
</g>
<g>
</g>
<g>
</g>
<g>
</g>
<g>
</g>
<g>
</g>
<g>
</g>
<g>
</g>
<g>
</g>
<g>
</g>
<g>
</g>
<g>
</g>
<g>
</g>
<g>
</g>
<g>
</g>
</svg>
