<?xml version="1.0" encoding="utf-8"?>
<!-- Generator: Adobe Illustrator 23.0.3, SVG Export Plug-In . SVG Version: 6.00 Build 0)  -->
<svg version="1.1" id="Camada_1" xmlns="http://www.w3.org/2000/svg" xmlns:xlink="http://www.w3.org/1999/xlink" x="0px" y="0px"
	 viewBox="0 0 304 284" style="enable-background:new 0 0 304 284;" xml:space="preserve">
<style type="text/css">
	.st0{fill:#FEFEFE;}
	.st1{fill:#000087;}
	.st2{fill:#0194C1;}
	.st3{fill:#B8E1F1;}
	.st4{fill:#FD8501;}
	.st5{fill:#B7E1F1;}
	.st6{fill:#FD8603;}
	.st7{fill:#FD8706;}
	.st8{fill:#FD8C10;}
	.st9{fill:#0898C4;}
	.st10{fill:#FDFEFE;}
	.st11{fill:#FDFDFE;}
	.st12{fill:#FDFDFD;}
	.st13{fill:#0593C1;}
	.st14{fill:#F6F8FB;}
	.st15{fill:#A8DBEE;}
	.st16{fill:#FAFCFD;}
	.st17{fill:#F9FCFD;}
	.st18{fill:#FEFBF9;}
	.st19{fill:#FEF9F3;}
	.st20{fill:#FEF8F2;}
	.st21{fill:#FEFBF7;}
</style>
<g>
	<g>
		<path class="st0" d="M1,285C1,191.67,1.02,98.33,0.9,5c0-3.42,0.67-4.1,4.1-4.1c98.67,0.12,197.33,0.12,296,0
			c3.42,0,4.1,0.67,4.1,4.1c-0.12,92-0.12,184,0,276c0,3.42-0.67,4.1-4.1,4.1C201,284.98,101,285,1,285z"/>
		<path class="st1" d="M183.25,118.15c5.27,10.86,4.06,17.05-4.87,23.66c5.03,3.06,8.97,6.88,9.68,13.06
			c1.09,9.57-3.45,17.69-12.73,21.45c-11.27,4.56-22.76,4.38-34-0.13c-6.71-2.69-11.16-7.61-12.41-15.04
			c-1.45-8.58,2.25-14.44,9.7-18.48c-1.81-1.58-3.53-3.07-5.24-4.57c-1.17-0.32-1.8-1.21-2.35-2.18c-1.77-3.61-1.55-7.4-1.02-11.21
			c1.18-5.39,4.65-9.16,8.83-12.43c3.85-2.3,7.96-3.91,12.44-4.5c1.61-0.12,3.22-0.16,4.84-0.13c1.9-0.08,3.8,0.07,5.7-0.03
			c2.98-0.16,5.86,0.47,8.74,1.06c4.11,0.81,7.51,3.02,10.73,5.57C182.34,115.32,183.21,116.53,183.25,118.15z"/>
		<path class="st1" d="M207.15,109.84c10.96,0.05,21.92,0.21,32.88,0.1c3.02-0.03,4.3,0.46,4.25,3.96
			c-0.13,9.53,0.06,9.54-9.64,9.54c-7.47,0-14.96,0.24-22.42-0.08c-5.41-0.23-3.48,3.49-3.77,6.05c-0.32,2.83-0.33,5.18,3.89,4.88
			c4.44-0.32,8.94,0.09,13.41,0.31c5.76,0.29,11.06,2.03,15.8,5.36c4.22,1.61,5.79,4.85,5.64,9.15
			c2.83,17.97-5.38,28.32-23.67,29.73c-6.54,0.5-12.97-0.21-19.04-2.89c-6.86-3.02-10.37-8.5-11.33-15.81
			c-0.27-2.05,0.08-3.1,2.49-3c3.15,0.13,6.32-0.02,9.48-0.15c1.71-0.07,2.32,0.53,3.08,2.23c3.37,7.49,18.29,8.7,23.25,2.08
			c3.2-4.27,1.6-10.11-3.51-12.49c-3.08-1.43-6.39-1.66-9.75-1.64c-6.66,0.05-13.33-0.18-19.98,0.1c-3.42,0.14-4.15-1.07-4.1-4.24
			c0.14-8.32-0.07-16.64-0.14-24.96c-0.77-0.96-1.25-2.03-1.27-3.27c-0.1-1.84-0.07-3.65,1.23-5.15c2.82-1.62,5.89-1.04,8.9-1.03
			C204.41,108.52,205.74,109.32,207.15,109.84z"/>
		<path class="st2" d="M207.15,109.84c-1.34,0.01-2.68,0.03-4.02,0.04c-1.83-4.43-1.44-5.14,5-8.98c7.16-6.4,14.4-2.37,21.63-0.18
			c1.41,0.46,2.76,1.15,4.25,1.35c2.03,0.28,3.51-0.78,4.8-2.12c1.58-1.63,0.37-3.1-0.45-4.48c-1.17-1.99-2.14-4.14-4.08-5.57
			c-2-0.99-4.14-0.52-6.2-0.57c-2.97-0.07-5.38-0.93-6.71-3.82c-2.17-6.44-3.9-13.02-5.68-19.58c-0.92-3.38-2.59-5.6-6.15-6.3
			c-1.94-0.38-3.77-1.29-5.68-1.82c-3.23-0.89-5.01-3-5.77-6.18c-1.24-5.17-3.39-10.07-4.58-15.24c-0.91-3.96-3.06-6.84-6.6-8.88
			c-4.88-2.82-9.64-5.85-14.35-8.95c-2.27-1.5-4.24-1.69-6.2,0.35c-4.72,4.27-10.3,4.98-16.36,4.15
			c-10.73-1.46-21.46-2.89-32.17-4.45c-5.18-0.75-9.42,0.99-13.68,3.51c-12.18,7.2-11.02,4.47-6.48,17.26
			c1.34,3.77,4.34,7.81,0.43,11.6c-4.36,4.23-8.49,9.11-15.86,7.4c-3.71-0.86-7.57-1.17-11.33-1.89c-3.39-0.65-4.95,0.18-4.65,4
			c0.78,9.95,1.2,19.95,2.61,29.83c0.77,5.4-0.89,8.9-4.69,12.73c-5.56,5.59-11.69,6.16-18.74,4.94c-5.24-0.9-10.54-1.32-16.94-0.91
			c4.86,2.11,8.88,3.48,12.75,5.2c5.46,2.43,6.29,4.7,3.89,10.27c-1.2,2.77-2.71,5.36-4.84,7.53c-2.06,2.11-1.81,3.88,0.33,5.92
			c9.28,8.88,8.08,14.74-3.99,20.09c-0.33,0.14-0.55,0.37-0.72,0.78c0.38,1.66,2.02,1.97,3.23,2.66
			c7.83,4.43,15.78,8.69,23.39,13.46c5.63,3.53,11.41,4.97,17.98,4.72c8.98-0.33,18,0.34,26.88-1.49c7.62-1.4,9.1-0.41,3.62-8.09
			c-6.49-9.11-6.27-9.05,2.2-16.8c4.76-4.36,9.41-8.83,14.29-13.05c1.32-1.15,2.34-2.92,4.54-2.49c0.44,0.76,0.88,1.52,1.32,2.27
			c-6.65,6.24-13.18,12.62-20.01,18.66c-2.54,2.25-2.82,3.88-0.7,6.5c2.61,3.22,4.94,6.68,7.2,10.16c1.82,2.8,0.82,4.77-2.36,5.51
			c-15.52,3.63-31.31,3.28-47.08,3c-1.1-0.02-2.19-0.67-3.29-1.02c-9.98-3.42-18.53-9.59-27.71-14.52
			c-2.92-1.57-5.73-3.36-8.55-5.13c-1.87-1.17-3.74-2.49-3.52-5.01c0.24-2.72,2.39-3.8,4.63-4.66c1.7-0.66,3.51-1.06,5.12-1.94
			c3.82-2.1,4.25-4.72,1.31-7.94c-1.23-1.35-2.59-2.58-3.86-3.9c-4.54-4.7-4.53-6.29,0.34-10.49c1.8-1.56,3.23-3.29,4.22-5.45
			c1.11-2.44,0.72-4.02-1.95-5.07c-4.33-1.7-8.8-3.11-12.87-5.39c-4.04-2.27-4-4.48-0.13-7.27c6.41-3.04,13.05-1.4,19.63-0.95
			c3.65,0.96,7.22-0.31,10.77-0.67c4.23-0.42,8.5-7.06,8.19-11.56c-0.75-10.74-1.9-21.44-2.38-32.2c-0.07-1.64-0.59-3.3,0.54-4.79
			c1.45-2.29,3.49-2.7,6.05-2.25c3.6,0.63,7.26,0.96,10.89,1.41c4.88-0.24,9.88,0.17,13.75-3.92c1.69-1.78,2.33-3.34,1.45-5.73
			c-1.43-3.89-2.97-7.74-4.32-11.66c-1.4-4.07-0.5-7.11,3.34-9.24c4.9-2.72,9.45-6.15,15.04-7.48c4.12-3.04,8.57-1.23,12.86-0.72
			c9.32,1.1,18.61,2.45,27.92,3.7c4.97,1.11,9.44-1.2,14.12-2.06c0.99-0.59,2.09-1.06,2.95-1.8c2.76-2.42,5.27-2.52,8.44-0.33
			c6.16,4.25,12.56,8.16,18.95,12.06c2.14,1.3,3.39,2.93,4.07,5.34c1.67,5.92,3.73,11.73,5.31,17.67c0.81,3.06,2.11,5.17,5.44,5.48
			c8.34,0.79,12.39,5.54,13.61,13.69c0.71,4.72,2.82,9.22,3.93,13.91c0.64,2.68,1.94,3.38,4.51,3.39c2.91,0.01,6.51-1.32,8.57,1.25
			c2.78,3.47,5.12,7.43,6.9,11.51c1.38,3.15-6.78,9.14-10.94,8.16c-4.37-1.03-8.88-1.8-12.98-3.52c-6.05-2.54-9.73,1.72-14.08,4.07
			C205.12,107.74,206.96,108.84,207.15,109.84z"/>
		<path class="st3" d="M24.16,104.12c-3.43,3.31-2.07,5.41,1.74,6.9c4.32,1.7,8.58,3.58,12.97,5.08c2.99,1.02,3.33,2.41,1.93,5.09
			c-1.63,3.13-3.22,6.07-6.43,8c-2.94,1.76-3.05,4.07-0.4,6.46c2.1,1.89,4.08,3.93,6.08,5.93c3.17,3.19,2.19,7.64-2.09,9.3
			c-1.85,0.72-3.77,1.31-5.69,1.84c-2,0.55-4,1.11-4.2,3.58c-0.17,2.21,1.6,3.04,3.23,3.96c11.57,6.56,23.12,13.15,34.68,19.74
			c0.42,0.24,0.76,0.6,1.14,0.9c-6.38,1.24-11.54-1.7-16.76-4.74c-9.75-5.67-19.6-11.17-29.42-16.74c-1.27-0.72-3.04-1.16-2.77-3.06
			c0.26-1.8,2.09-1.86,3.44-2.4c3.69-1.5,8.24-1.48,9.74-6.56c0.7-2.39,0.7-4.09-1.15-5.8c-2.19-2.04-4.22-4.24-6.39-6.3
			c-2.16-2.05-2.51-3.78,0.43-5.46c4.07-2.34,5.1-6.81,7.12-10.57c1.2-2.23-0.58-2.98-2.11-3.64c-4.56-1.98-9.18-3.83-13.72-5.86
			c-1.27-0.57-3.22-0.84-3.13-2.74c0.1-2,2.07-1.68,3.41-2.19C18.55,103.77,21.34,103.83,24.16,104.12z"/>
		<path class="st4" d="M246.56,177.34c8.89-13.61,17.69-27.08,26.49-40.56c0.46-0.7,0.91-1.4,1.37-2.09
			c5.17-7.76,5.17-7.76,15.61-6.67c-3.06,4.8-5.93,9.36-8.86,13.87c-6.07,9.35-12.69,18.39-18.09,28.1
			C259.28,176.8,254.76,179.81,246.56,177.34z"/>
		<path class="st5" d="M60.9,53.96c1.03,11.83,2.03,23.67,3.12,35.5c0.33,3.55,0.81,6.39-2.35,9.75c-5.45,5.8-11.3,5.53-17.89,3.97
			c8.98-1.77,11.24-5.84,10.1-15.79c-1.15-10.03-1.91-20.11-2.85-30.16c-0.31-3.34,1.29-4.6,4.48-4.12
			C57.32,53.38,59.11,53.67,60.9,53.96z"/>
		<path class="st4" d="M231.17,199.71c0-2.48,0.05-4.62-0.01-6.76c-0.06-2.14-0.08-3.87,2.99-3.86c2.78,0.01,3.31,1.19,3.28,3.6
			c-0.09,7.8-0.13,15.61,0.02,23.41c0.05,2.62-1.4,3.63-3.27,2.77c-2.71-1.25-4.87-0.24-7.39,0.25c-4.33,0.85-8.29-0.2-10.81-4.29
			c-2.57-4.17-2.28-9.97,0.78-13.53c3.21-3.73,7.29-4.22,11.76-2.71C229.27,198.85,230,199.22,231.17,199.71z"/>
		<path class="st4" d="M181.17,199.89c0-2.98,0.11-5.3-0.03-7.6c-0.14-2.38,0.78-3.18,3.16-3.19c2.44-0.01,3.15,0.94,3.12,3.24
			c-0.09,7.8-0.18,15.61,0.04,23.41c0.09,3.3-1.94,4.08-3.91,3.05c-2.34-1.22-3.88-0.33-5.94,0.17c-4.48,1.08-8.75,0.33-11.44-3.87
			c-2.75-4.29-2.7-8.9,0.1-13.14c2.74-4.17,6.97-4.71,11.5-3.73C178.7,198.45,179.54,199.09,181.17,199.89z"/>
		<path class="st4" d="M282.59,178.38c-6.83-0.23-11.71-5.34-11.38-11.91c0.33-6.58,5.46-11.06,12.45-10.84
			c7.07,0.21,11.64,4.85,11.5,11.66C295.02,174.18,289.98,178.63,282.59,178.38z"/>
		<path class="st3" d="M107.12,15.09c-4.99,2.94-9.93,5.97-14.99,8.78c-2.98,1.66-3.95,3.65-2.51,6.93
			c1.6,3.63,2.96,7.37,4.18,11.15c0.61,1.91,2.92,4.22,1.06,5.83c-2.78,2.41-4.87,6.36-9.18,6.29c-2.59-0.04-5.33,0.23-7.84-0.94
			c7.66-3.21,8.45-4.99,5.48-12.37c-0.5-1.23-0.99-2.47-1.44-3.72c-4.2-11.79-5.55-8.87,5.87-15.74
			C93.61,17.77,99.43,13.24,107.12,15.09z"/>
		<path class="st4" d="M247.19,149.1c-1.2-3.47-3.25-6.41-5.64-9.15c0.58-8.81,4.76-13.11,12.46-12.78c6.91,0.3,11.5,5.1,11.35,11.9
			c-0.15,6.84-4.86,11.34-11.88,11.3C251.31,150.37,249.18,150.07,247.19,149.1z"/>
		<path class="st4" d="M144.41,188.62c2.71-0.01,5.35,0.43,7.61,1.96c1.17,0.79,3.81,1.14,2.44,3.38c-0.99,1.61-2.24,3.56-5.14,2.01
			c-3.77-2-7.82-1.9-11.1,1.21c-3.02,2.87-3.75,6.53-2.42,10.53c1.81,5.49,7.58,7.9,13.44,4.75c3.47-1.87,4.75,0.19,5.77,2.12
			c1.22,2.31-1.48,2.76-2.85,3.44c-6.24,3.13-14.59,2.03-19.12-2.36c-4.12-3.99-5.48-11.7-3.11-17.68
			C132.31,191.97,137.57,188.57,144.41,188.62z"/>
		<path class="st4" d="M212.39,208.81c0,2.5-0.06,5,0.02,7.5c0.06,1.82-0.8,3.48-2.45,2.57c-3.43-1.92-6.3,0.2-9.42,0.45
			c-4.37,0.34-8.01-1.26-9.82-5.38c-1.92-4.37-1.76-8.85,1.39-12.7c2.85-3.48,6.77-3.94,10.92-3.06c0.79,0.17,1.51,0.96,2.27,0.97
			c2.24,0.04,5.27-2.71,6.48-0.15c1.24,2.62,0.49,6.17,0.61,9.31C212.4,208.48,212.39,208.65,212.39,208.81z"/>
		<path class="st4" d="M245.85,211.11c2.3,3.78,5.64,3.67,8.55,2.53c2.95-1.16,4.43,0.4,4.98,2.3c0.57,1.95-1.96,2.39-3.32,2.73
			c-4.62,1.17-9.27,1.4-13.22-2.01c-3.61-3.11-3.74-7.27-2.91-11.48c1.04-5.28,5.91-8.11,12.33-7.45c5.49,0.57,8.85,4.24,8.94,9.47
			c0.04,2.31-0.64,3.39-3.09,3.22c-1.98-0.14-3.99-0.11-5.98,0C250.2,210.52,248.2,209.93,245.85,211.11z"/>
		<path class="st6" d="M271.8,197.61c1.83,0.08,3.67,0.13,5.33,1.02c0.98,0.52,2.54,0.97,1.71,2.42c-0.62,1.08-1.08,3.03-3.19,2.27
			c-0.47-0.17-0.94-0.34-1.43-0.43c-1.89-0.36-4.66-1.27-4.95,1.22c-0.28,2.39,2.68,1.68,4.33,1.88c4.01,0.49,7.25,1.95,7.33,6.55
			c0.08,4.5-3.03,6.33-6.97,7.07c-3.22,0.6-6.27-0.03-9.15-1.55c-1.53-0.8-2.95-1.47-1.72-3.74c1.05-1.93,2.07-2.08,3.87-1.06
			c1.9,1.07,4.01,1.61,6.23,1.01c0.8-0.22,1.64-0.54,1.61-1.59c-0.03-0.97-0.72-1.45-1.58-1.62c-0.81-0.16-1.66-0.13-2.47-0.26
			c-5.61-0.92-8.21-3.31-7.9-7.19C263.15,199.89,266.52,197.63,271.8,197.61z"/>
		<path class="st7" d="M162.84,208.51c0,2.33-0.11,4.66,0.03,6.98c0.15,2.39-0.35,3.64-3.2,3.61c-2.66-0.03-2.92-1.26-2.88-3.37
			c0.09-4.82,0.09-9.64,0-14.46c-0.04-2.13,0.25-3.33,2.9-3.36c2.87-0.04,3.33,1.25,3.19,3.62
			C162.73,203.84,162.84,206.18,162.84,208.51z"/>
		<path class="st8" d="M163.18,192.76c-0.41,1.99-1.52,3.37-3.67,3.15c-2-0.2-3.44-1.47-3.25-3.61c0.18-2.04,1.59-3.32,3.68-3.21
			C162.07,189.19,163.07,190.63,163.18,192.76z"/>
		<path class="st3" d="M162.02,16.02c-4.11,4.79-9.19,2.92-14.12,2.06c1.75-0.33,3.7,0.05,5.06-1.59
			C155.8,13.03,158.86,13.41,162.02,16.02z"/>
		<path class="st9" d="M194.03,114.99c-0.02,1.02-0.04,2.05-0.06,3.07c-3.57,0.03-7.15,0.05-10.72,0.08
			c-0.86-1.01-1.72-2.02-2.59-3.03C185.09,112.48,189.55,112.69,194.03,114.99z"/>
		<path class="st3" d="M194.03,114.99c-4.45,0.04-8.91,0.09-13.36,0.13c-2.94-2.05-5.98-3.89-9.36-5.13
			c-2.65-0.95-5.33-1.97-7.68-3.45c-4.13-2.61-7.84-3.11-11.35,0.87c-0.33,0.02-0.7,0.08-0.97-0.07c-4.68-2.45-8.08-1.14-10.43,3.45
			c-0.45,0.87-1.41,1.39-1.7,2.38c-3.6,2.94-6.36,6.52-8.12,10.85c-4.91,10.07-12.89,17.54-21.13,24.74
			c-3.01,2.62-5.75,5.5-8.68,8.18c-2.27,2.08-2.33,4.08-0.57,6.52c1.65,2.29,3.41,4.49,4.95,6.86c1.36,2.1,2.72,4.19,2.54,6.86
			c-12.11,3.28-24.48,1.35-36.73,1.77c-0.62,0.02-1.3-0.29-1.86-0.61c-12.43-7.03-24.85-14.08-38.33-21.74
			c3.2-1.09,5.39-1.92,7.62-2.58c2.17-0.64,3.86-1.69,4.92-3.83c3.14-6.35,3.07-6.94-2.38-11.86c-0.99-0.89-1.93-1.85-2.96-2.68
			c-2.33-1.87-3.31-3.46-0.03-5.56c3.88-2.49,4.9-7,6.64-10.91c1.31-2.93-0.72-4.22-3.07-5.17c-5.07-2.04-10.13-4.09-15.76-6.36
			c2.97-1.88,5.46-2.76,8.57-2.32c6.26,0.88,12.57,1.35,18.83,2.23c2.29,0.32,3.79-0.59,5.36-1.93c9.72-8.33,9.59-8.3,7.9-23.12
			c-0.94-8.25-1.18-16.59-2-24.86c-0.26-2.58,0.24-3.23,2.79-2.82c5.74,0.92,11.58,1.34,17.27,2.52c5.08,1.05,6.85-3.35,10.11-5.25
			c4.32-2.51,4.42-5.75,2.3-10.09c-2.16-4.42-5.61-9.98-4.43-13.79c1.3-4.23,8.42-5.18,12.41-8.33c6.85-5.41,14.06-2.14,21.09-1.44
			c8.76,0.88,17.5,2.12,26.17,3.68c5.41,0.97,9.29-1.39,13.16-4.4c5.86,2.11,10.81,5.77,15.88,9.24c1.75,1.2,2.4,3.1,3.01,5.03
			c1.61,5.07,3.24,10.15,4.5,15.31c0.96,3.95,2.91,6.77,7,7.49c7.5,1.32,11.44,5.67,12.5,13.19c0.53,3.76,2.04,7.36,3.25,10.99
			c2.42,7.31,2.8,7.53,10.34,5.75c1.03,2.52,2.64,3.62,5.6,3.48c2.63-0.12,5.53-1.09,8.01,0.83c-2.83,1.9-5.73,1.41-8.46,0.47
			c1.71,1.89,3,4.39,4.36,6.84c1.33,2.42,1.24,4.43-1.69,5.57c-2.2-0.64-4.51-1.05-6.6-1.96c-5.27-2.28-10.09-1.98-14.51,1.89
			c-5.21-1.44-9.1,1.4-13.07,4.02c-1.61,1.06-1.86,2.57-1.59,4.29C194.19,111.79,194.11,113.39,194.03,114.99z"/>
		<path class="st10" d="M108.16,177.16c-2.39-4.93-5.61-9.33-8.94-13.63c-2.08-2.69-2.3-4.6,0.57-7c4.71-3.93,8.94-8.43,13.62-12.4
			c6.89-5.85,11.76-13.41,17.63-20.12c-0.38,4-0.46,7.97,0.99,11.82c-7.51,6.83-14.98,13.72-22.56,20.48
			c-2.49,2.22-2.64,4.19-0.62,6.84c2.99,3.91,5.69,8.04,8.92,12.67C114.01,176.34,111.09,176.75,108.16,177.16z"/>
		<path class="st11" d="M158.71,166.19c-3.85-0.01-7.14-0.31-10.08-2.14c-5.65-3.52-5.72-10.04,0.14-13.08
			c6.23-3.23,12.8-3.05,19.18-0.18c2.98,1.34,4.42,3.9,4.21,7.24c-0.21,3.41-2.41,5.42-5.2,6.71
			C164.24,166.01,161.22,166.31,158.71,166.19z"/>
		<path class="st12" d="M158.83,120.82c7.06,0.11,11.82,3.46,11.71,8.24c-0.11,4.8-4.92,8.29-11.72,8.51
			c-6.94,0.22-12.64-3.6-12.74-8.55C145.98,124,151.11,120.7,158.83,120.82z"/>
		<path class="st13" d="M151.88,106.82c4.58-5.4,4.6-5.44,10.93-1.91c2.88,1.6,5.66,3.37,8.49,5.07c-3.08-0.4-6.16-0.8-9.24-1.2
			c-2.1-0.78-4.2-1.9-6.32-0.03c-1.54,0.05-3.08,0.09-4.61,0.14C150.5,107.88,151.12,107.32,151.88,106.82z"/>
		<path class="st14" d="M151.88,106.82c-0.25,0.69-0.5,1.38-0.75,2.06c-4.18,0.88-8.15,2.36-11.96,4.27
			C140.53,105.32,144.34,103.42,151.88,106.82z"/>
		<path class="st15" d="M155.75,108.75c2.13-6.28,4.21-0.85,6.31,0.03C159.96,108.77,157.86,108.76,155.75,108.75z"/>
		<path class="st16" d="M194.27,110.19c-1.04-0.74-2.44-1.27-1.77-3c1.02-2.64,11.73-7.63,14.44-6.66c0.73,0.26,1.33,0.89,1.99,1.35
			c-2.64,2.15-7.72,2.54-5.79,8C200.18,109.98,197.22,110.09,194.27,110.19z"/>
		<path class="st10" d="M222.22,84.75c-1.44,3.99-4.78,1.86-7.28,2.12c-2.39,0.24-2.62-1.85-3.13-3.7
			c-1.93-6.87-4.09-13.67-6.06-20.53c-0.79-2.76-1.94-4.59-5.22-5.02c-7.86-1.03-12.92-5.04-13.69-13.57
			c-1.08-11.85-7.84-19.51-18.59-23.97c-1.12-0.46-1.97-1.24-2.5-2.33c1.98-2.46,3.95-2.74,6.74-0.84
			c6.45,4.4,14.4,7.33,19.36,12.96c4.84,5.5,5.27,14.09,7.36,21.4c1.03,3.6,3.09,5.45,6.48,5.84c7.46,0.84,11.23,4.83,12.35,12.29
			C218.8,74.6,220.78,79.63,222.22,84.75z"/>
		<path class="st17" d="M230.03,101.94c1.47-1.81,2.06-3.46,0.26-5.63c-1.55-1.88-2.5-4.24-4.19-7.25c3.65,0,6.69,0,9.73,0
			c0.81,1.23,1.92,2.35,2.36,3.7c0.8,2.45,4.77,4.27,2.59,7.13C238.11,103.41,234.27,104.72,230.03,101.94z"/>
		<path class="st18" d="M226.02,214.02c-3.6-0.01-5.38-1.99-5.51-5.18c-0.13-3.21,1.58-5.54,4.97-5.54c3.35,0,5.65,1.72,5.67,5.43
			C231.16,212.2,229.08,213.68,226.02,214.02z"/>
		<path class="st18" d="M181.18,208.15c0,3.75-1.79,5.59-5.08,5.81c-3.73,0.25-5.54-1.96-5.59-5.39c-0.04-2.97,1.59-5.16,4.75-5.26
			C178.65,203.19,180.86,204.88,181.18,208.15z"/>
		<path class="st19" d="M287.21,166.84c-0.25,2.88-1.58,4.32-4.19,4.12c-2.26-0.17-3.77-1.57-3.75-3.82
			c0.02-2.4,1.43-4.07,4.01-4.11C285.94,162.99,286.98,164.73,287.21,166.84z"/>
		<path class="st20" d="M257.59,138.94c-0.47,2.26-1.46,4.09-4.14,4.04c-2.83-0.05-4.33-1.81-4.18-4.46
			c0.14-2.44,1.87-3.8,4.38-3.81C256.39,134.71,257.28,136.54,257.59,138.94z"/>
		<path class="st21" d="M201.02,214.04c-3.63-0.22-5.58-2.25-5.51-5.72c0.05-2.93,1.73-5.02,4.88-5.27c3.31-0.27,6.4,2.59,6.13,5.76
			C206.24,212.05,204.31,213.85,201.02,214.04z"/>
		<path class="st21" d="M255.59,205.84c-3.55,0-6.34,0-9.18,0C248.68,201.83,251.3,201.65,255.59,205.84z"/>
	</g>
</g>
</svg>
