<?xml version="1.0" encoding="utf-8"?>
<!-- Generator: Adobe Illustrator 23.0.3, SVG Export Plug-In . SVG Version: 6.00 Build 0)  -->
<svg version="1.1" id="Camada_1" xmlns="http://www.w3.org/2000/svg" xmlns:xlink="http://www.w3.org/1999/xlink" x="0px" y="0px"
	 viewBox="0 0 852 159" style="enable-background:new 0 0 852 159;" xml:space="preserve">
<style type="text/css">
	.st0{fill:#1360A3;}
	.st1{fill:#DD9F3D;}
</style>
<g>
	<path class="st0" d="M21.09,125.63c-0.45,1.52-0.95,2.65-1.48,3.41c-0.53,0.76-1.55,1.14-3.07,1.14H5.11
		c-3.18,0-4.77-1.52-4.77-4.54V9.98c0-1.31,0.45-2.4,1.36-3.26c0.91-0.86,1.94-1.29,3.11-1.29h12.5c1.51,0,2.7,0.44,3.56,1.33
		c0.86,0.88,1.29,1.96,1.29,3.22v34.76c3.64-3.74,7.81-6.71,12.54-8.94c4.72-2.22,10.14-3.33,16.25-3.33c6.82,0,13.17,1.3,19.05,3.9
		c5.88,2.6,11.01,6.15,15.38,10.64c4.37,4.49,7.79,9.76,10.26,15.79c2.47,6.03,3.71,12.51,3.71,19.43c0,6.87-1.24,13.32-3.71,19.35
		c-2.47,6.03-5.9,11.3-10.26,15.79c-4.37,4.49-9.49,8.04-15.38,10.64c-5.88,2.6-12.23,3.9-19.05,3.9c-2.98,0-5.83-0.33-8.56-0.98
		c-2.73-0.66-5.33-1.55-7.8-2.69c-2.48-1.14-4.78-2.49-6.93-4.05c-2.15-1.56-4.1-3.23-5.87-5L21.09,125.63z M78.05,82.23
		c0-3.99-0.71-7.8-2.12-11.44c-1.41-3.64-3.38-6.83-5.91-9.58c-2.53-2.75-5.5-4.95-8.94-6.59c-3.43-1.64-7.15-2.46-11.13-2.46
		c-4.04,0-7.84,0.82-11.4,2.46c-3.56,1.64-6.67,3.84-9.32,6.59c-2.65,2.75-4.73,5.95-6.25,9.58c-1.51,3.64-2.27,7.45-2.27,11.44
		v0.53c0.05,3.99,0.86,7.74,2.42,11.25c1.56,3.51,3.66,6.59,6.29,9.24c2.62,2.65,5.69,4.75,9.2,6.29c3.51,1.54,7.28,2.31,11.32,2.31
		c3.99,0,7.7-0.78,11.13-2.35c3.43-1.56,6.41-3.69,8.94-6.36c2.52-2.67,4.49-5.82,5.91-9.43C77.34,90.1,78.05,86.27,78.05,82.23z"/>
	<path class="st0" d="M213.02,125.71c0,0.91-0.19,1.65-0.57,2.24c-0.38,0.58-0.87,1.04-1.48,1.36c-0.61,0.33-1.3,0.56-2.08,0.68
		c-0.78,0.13-1.6,0.19-2.46,0.19h-9.47c-1.62,0-2.74-0.43-3.37-1.29c-0.63-0.86-1.1-1.94-1.4-3.26l-0.45-6.44
		c-1.77,1.77-3.72,3.42-5.87,4.96c-2.15,1.54-4.46,2.88-6.93,4.01c-2.47,1.14-5.1,2.02-7.88,2.65c-2.78,0.63-5.63,0.95-8.56,0.95
		c-4.54,0-8.93-0.59-13.14-1.78c-4.22-1.19-8.17-2.85-11.85-5c-3.69-2.15-7.03-4.73-10.04-7.76c-3-3.03-5.58-6.39-7.73-10.07
		c-2.15-3.69-3.81-7.65-5-11.89c-1.19-4.24-1.78-8.66-1.78-13.25c0-4.59,0.59-9.01,1.78-13.25c1.19-4.24,2.85-8.2,5-11.89
		c2.15-3.68,4.72-7.03,7.73-10.04c3-3,6.35-5.58,10.04-7.73c3.69-2.15,7.64-3.81,11.85-5c4.22-1.19,8.6-1.78,13.14-1.78
		c3.23,0,6.31,0.34,9.24,1.02c2.93,0.68,5.67,1.64,8.22,2.88c2.55,1.24,4.91,2.73,7.08,4.47c2.17,1.74,4.14,3.65,5.91,5.72l1.06-8.1
		c0.25-0.91,0.49-1.65,0.72-2.23c0.23-0.58,0.5-1.05,0.83-1.4c0.33-0.35,0.74-0.59,1.25-0.72c0.5-0.13,1.14-0.19,1.89-0.19h7.57
		c0.81,0,1.62,0.08,2.42,0.23c0.81,0.15,1.54,0.39,2.2,0.72c0.66,0.33,1.17,0.78,1.55,1.36c0.38,0.58,0.57,1.3,0.57,2.16V125.71z
		 M134.25,82.01c0,4.04,0.71,7.87,2.12,11.48c1.41,3.61,3.38,6.78,5.91,9.5c2.52,2.73,5.49,4.89,8.9,6.48
		c3.41,1.59,7.13,2.39,11.17,2.39c4.09,0,7.92-0.8,11.47-2.39c3.56-1.59,6.65-3.75,9.28-6.48c2.62-2.73,4.7-5.89,6.21-9.5
		c1.51-3.61,2.27-7.44,2.27-11.48c0-3.99-0.76-7.79-2.27-11.4c-1.52-3.61-3.59-6.78-6.21-9.51c-2.63-2.73-5.72-4.9-9.28-6.51
		c-3.56-1.62-7.39-2.42-11.47-2.42c-4.04,0-7.76,0.81-11.17,2.42c-3.41,1.62-6.38,3.79-8.9,6.51c-2.53,2.73-4.5,5.9-5.91,9.51
		C134.95,74.22,134.25,78.02,134.25,82.01z"/>
	<path class="st0" d="M232.86,5.07c0-3.04,1.49-4.56,4.47-4.56h12.72c1.41,0,2.55,0.38,3.41,1.14c0.86,0.76,1.29,1.9,1.29,3.42V16.4
		c0,1.17-0.4,2.27-1.21,3.31c-0.81,1.04-1.94,1.56-3.41,1.56h-12.72c-3.03,0-4.54-1.62-4.54-4.86V5.07z M232.86,38.61
		c0-1.31,0.38-2.41,1.14-3.29c0.76-0.88,1.87-1.33,3.33-1.33h12.57c0.56,0,1.12,0.11,1.7,0.34c0.58,0.23,1.1,0.56,1.55,0.98
		c0.45,0.43,0.83,0.92,1.14,1.48c0.3,0.56,0.45,1.16,0.45,1.82v87.03c0,3.03-1.59,4.54-4.77,4.54h-12.57
		c-3.03,0-4.54-1.52-4.54-4.54V38.61z"/>
	<path class="st0" d="M313.98,130.18c-3.99-0.05-7.74-0.66-11.25-1.82c-3.51-1.16-6.56-2.84-9.16-5.04c-2.6-2.2-4.66-4.9-6.17-8.11
		c-1.51-3.21-2.27-6.86-2.27-10.96V91.74V53.07h-8.71c-1.47,0-2.56-0.33-3.29-0.98c-0.73-0.65-1.1-1.74-1.1-3.25V37.99
		c0-1.46,0.37-2.49,1.1-3.09c0.73-0.6,1.83-0.91,3.29-0.91h8.71c0-2.68,0.01-5.34,0.04-7.99c0.03-2.65,0.04-5.31,0.04-7.99
		c0-1.01,0.31-1.8,0.95-2.39c0.63-0.58,1.6-1.1,2.92-1.55c0.86-0.3,1.89-0.67,3.11-1.1c1.21-0.43,2.46-0.85,3.75-1.25
		c1.29-0.4,2.54-0.74,3.75-1.02c1.21-0.28,2.22-0.42,3.03-0.42c1.56,0,2.59,0.43,3.07,1.29c0.48,0.86,0.72,2,0.72,3.41
		c0,3.18-0.01,6.35-0.04,9.51c-0.03,3.16-0.04,6.32-0.04,9.51h10.91c1.31,0,2.32,0.34,3.03,1.02c0.71,0.68,1.06,1.75,1.06,3.21
		v10.33c0,1.61-0.35,2.77-1.06,3.47c-0.71,0.7-1.72,1.06-3.03,1.06H306.4c0,3.29,0,6.07,0,8.34c0,2.28,0,4.29,0,6.03
		c0,1.74,0.01,3.37,0.04,4.89c0.02,1.52,0.04,3.16,0.04,4.93c0,1.77,0,3.79,0,6.07c0,2.28,0,5.06,0,8.34c0,0.1-0.01,0.2-0.04,0.3
		c-0.03,0.1-0.04,0.2-0.04,0.3v9.93c0,3.34,0.66,5.74,1.97,7.21c1.31,1.47,3.43,2.2,6.36,2.2c1.06,0,1.89,0.38,2.5,1.14
		c0.61,0.76,0.91,1.67,0.91,2.73v10.53c0,1.31-0.37,2.34-1.1,3.07C316.31,129.81,315.29,130.18,313.98,130.18z"/>
	<path class="st0" d="M432.97,125.71c0,0.91-0.19,1.65-0.57,2.24c-0.38,0.58-0.87,1.04-1.48,1.36c-0.61,0.33-1.3,0.56-2.08,0.68
		c-0.78,0.13-1.6,0.19-2.46,0.19h-9.47c-1.62,0-2.74-0.43-3.37-1.29c-0.63-0.86-1.1-1.94-1.4-3.26l-0.45-6.44
		c-1.77,1.77-3.72,3.42-5.87,4.96c-2.15,1.54-4.46,2.88-6.93,4.01c-2.47,1.14-5.1,2.02-7.88,2.65c-2.78,0.63-5.63,0.95-8.56,0.95
		c-4.54,0-8.93-0.59-13.14-1.78c-4.22-1.19-8.17-2.85-11.85-5c-3.69-2.15-7.03-4.73-10.04-7.76c-3-3.03-5.58-6.39-7.73-10.07
		c-2.15-3.69-3.81-7.65-5-11.89c-1.19-4.24-1.78-8.66-1.78-13.25c0-4.59,0.59-9.01,1.78-13.25c1.19-4.24,2.85-8.2,5-11.89
		c2.15-3.68,4.72-7.03,7.73-10.04c3-3,6.35-5.58,10.04-7.73c3.69-2.15,7.64-3.81,11.85-5c4.22-1.19,8.6-1.78,13.14-1.78
		c3.23,0,6.31,0.34,9.24,1.02c2.93,0.68,5.67,1.64,8.22,2.88c2.55,1.24,4.91,2.73,7.08,4.47c2.17,1.74,4.14,3.65,5.91,5.72l1.06-8.1
		c0.25-0.91,0.49-1.65,0.72-2.23c0.23-0.58,0.5-1.05,0.83-1.4c0.33-0.35,0.74-0.59,1.25-0.72c0.5-0.13,1.14-0.19,1.89-0.19h7.57
		c0.81,0,1.62,0.08,2.42,0.23c0.81,0.15,1.54,0.39,2.2,0.72c0.66,0.33,1.17,0.78,1.55,1.36c0.38,0.58,0.57,1.3,0.57,2.16V125.71z
		 M354.2,82.01c0,4.04,0.71,7.87,2.12,11.48c1.41,3.61,3.38,6.78,5.91,9.5c2.52,2.73,5.49,4.89,8.9,6.48
		c3.41,1.59,7.13,2.39,11.17,2.39c4.09,0,7.92-0.8,11.47-2.39c3.56-1.59,6.65-3.75,9.28-6.48c2.62-2.73,4.7-5.89,6.21-9.5
		c1.51-3.61,2.27-7.44,2.27-11.48c0-3.99-0.76-7.79-2.27-11.4c-1.52-3.61-3.59-6.78-6.21-9.51c-2.63-2.73-5.72-4.9-9.28-6.51
		c-3.56-1.62-7.39-2.42-11.47-2.42c-4.04,0-7.76,0.81-11.17,2.42c-3.41,1.62-6.38,3.79-8.9,6.51c-2.53,2.73-4.5,5.9-5.91,9.51
		C354.9,74.22,354.2,78.02,354.2,82.01z"/>
	<path class="st1" d="M463.03,103.06c1.06,1.67,2.4,3.11,4.01,4.32c1.62,1.21,3.27,2.21,4.96,2.99c1.69,0.78,3.31,1.35,4.85,1.7
		c1.54,0.35,2.76,0.53,3.67,0.53c1.41,0,3.08-0.15,5-0.45c1.92-0.3,3.72-0.85,5.42-1.63c1.69-0.78,3.13-1.84,4.32-3.18
		c1.19-1.34,1.78-3.04,1.78-5.11c0-2.02-0.47-3.66-1.4-4.92c-0.94-1.26-2.2-2.31-3.79-3.14c-1.59-0.83-3.41-1.53-5.45-2.08
		c-2.04-0.56-4.2-1.16-6.48-1.82c-5.3-1.41-9.82-3.12-13.56-5.11c-3.74-1.99-6.8-4.28-9.2-6.85c-2.4-2.58-4.15-5.4-5.26-8.48
		c-1.11-3.08-1.67-6.44-1.67-10.07c0-4.09,0.81-7.83,2.42-11.21c1.62-3.38,3.89-6.29,6.82-8.71c2.93-2.42,6.45-4.3,10.57-5.64
		c4.11-1.34,8.67-2.01,13.67-2.01c3.53,0,6.69,0.32,9.47,0.95c2.78,0.63,5.35,1.58,7.73,2.84c2.37,1.26,4.61,2.85,6.7,4.77
		c2.09,1.92,4.23,4.17,6.4,6.74c0.76,0.91,1.14,1.79,1.14,2.65c0,0.91-0.51,1.77-1.51,2.58c-0.76,0.61-1.65,1.36-2.69,2.27
		c-1.04,0.91-2.06,1.79-3.07,2.65c-1.01,0.86-1.97,1.59-2.88,2.2c-0.91,0.61-1.67,0.91-2.27,0.91c-1.11,0-2.2-0.66-3.26-1.97
		c-1.11-1.31-2.22-2.46-3.33-3.45c-1.11-0.98-2.27-1.79-3.48-2.42c-1.21-0.63-2.53-1.11-3.94-1.44c-1.41-0.33-2.95-0.49-4.62-0.49
		c-1.36,0-2.79,0.2-4.28,0.61c-1.49,0.4-2.85,1.01-4.09,1.82c-1.24,0.81-2.27,1.78-3.11,2.92c-0.83,1.14-1.25,2.41-1.25,3.82
		c0,1.62,0.52,2.99,1.55,4.13c1.03,1.14,2.34,2.12,3.93,2.95c1.59,0.83,3.31,1.53,5.18,2.08c1.86,0.56,3.6,1.06,5.22,1.51
		c4.64,1.31,8.9,2.83,12.78,4.54c3.88,1.72,7.22,3.8,10.02,6.25c2.8,2.45,4.98,5.33,6.54,8.63c1.56,3.31,2.34,7.18,2.34,11.63
		c0,4.7-0.93,8.9-2.79,12.61c-1.86,3.71-4.44,6.86-7.74,9.43c-3.3,2.58-7.2,4.54-11.71,5.91c-4.51,1.36-9.42,2.04-14.72,2.04
		c-3.18,0-6.41-0.34-9.7-1.02c-3.28-0.68-6.43-1.74-9.43-3.18c-3.01-1.44-5.78-3.28-8.33-5.53c-2.55-2.25-4.68-4.91-6.4-7.99
		c-0.76-1.26-1.14-2.4-1.14-3.41c0-0.65,0.16-1.22,0.49-1.7c0.33-0.48,0.77-0.95,1.33-1.4l8.48-6.51c0.76-0.45,1.44-0.68,2.04-0.68
		c0.71,0,1.34,0.24,1.89,0.72C461.77,101.61,462.38,102.26,463.03,103.06z"/>
	<path class="st1" d="M557.86,43.91c1.26-1.62,2.7-3.11,4.32-4.47c1.62-1.36,3.47-2.55,5.57-3.56c2.1-1.01,4.48-1.79,7.16-2.35
		c2.68-0.55,5.71-0.83,9.09-0.83c5.71,0,10.75,1.1,15.15,3.29c4.39,2.2,8.08,5.18,11.06,8.94c2.98,3.76,5.24,8.17,6.78,13.22
		c1.54,5.05,2.31,10.4,2.31,16.06v50.52c0,1.82-0.43,3.18-1.29,4.09c-0.86,0.91-2.1,1.36-3.71,1.36h-11.51
		c-2.02,0-3.37-0.38-4.05-1.14c-0.68-0.76-1.02-2.09-1.02-4.01V74.21c0-2.68-0.47-5.28-1.4-7.8c-0.94-2.52-2.27-4.76-4.01-6.7
		c-1.74-1.94-3.85-3.51-6.32-4.7c-2.47-1.19-5.23-1.78-8.26-1.78c-2.32,0-4.65,0.44-6.97,1.33c-2.32,0.88-4.43,2.16-6.32,3.82
		c-1.89,1.67-3.45,3.71-4.66,6.14c-1.21,2.42-1.84,5.18-1.89,8.26v49.46c0,0.96-0.05,1.92-0.15,2.88c-0.1,0.96-0.32,1.82-0.64,2.57
		c-0.33,0.76-0.8,1.36-1.4,1.82c-0.61,0.46-1.39,0.68-2.35,0.68h-12.5c-1.67,0-2.89-0.39-3.67-1.17c-0.78-0.78-1.17-1.91-1.17-3.37
		V9.9c0-1.31,0.4-2.4,1.21-3.26c0.81-0.86,1.99-1.29,3.56-1.29h12.5c1.16,0,2.22,0.44,3.18,1.33c0.96,0.88,1.44,1.93,1.44,3.14
		V43.91z"/>
	<path class="st1" d="M635.42,82.23c0-4.59,0.59-9.02,1.78-13.29c1.19-4.27,2.86-8.24,5.03-11.93c2.17-3.69,4.77-7.03,7.8-10.04
		c3.03-3,6.38-5.58,10.06-7.73c3.68-2.15,7.63-3.81,11.84-5c4.21-1.19,8.62-1.78,13.21-1.78c4.54,0,8.93,0.59,13.17,1.78
		c4.24,1.19,8.19,2.85,11.84,5c3.66,2.15,7,4.72,10.03,7.73c3.03,3,5.63,6.35,7.8,10.04c2.17,3.69,3.85,7.66,5.03,11.93
		c1.19,4.27,1.78,8.7,1.78,13.29c0,4.6-0.59,9.01-1.78,13.25c-1.19,4.24-2.86,8.19-5.03,11.85c-2.17,3.66-4.77,7.01-7.8,10.04
		c-3.03,3.03-6.37,5.62-10.03,7.76c-3.66,2.15-7.61,3.81-11.84,5c-4.24,1.19-8.63,1.78-13.17,1.78c-4.59,0-8.99-0.59-13.21-1.78
		c-4.21-1.19-8.16-2.85-11.84-5c-3.68-2.15-7.04-4.73-10.06-7.76c-3.03-3.03-5.63-6.37-7.8-10.04c-2.17-3.66-3.85-7.61-5.03-11.85
		C636.01,91.25,635.42,86.83,635.42,82.23z M656.78,82.23c0,4.04,0.71,7.86,2.12,11.48c1.41,3.61,3.38,6.75,5.91,9.43
		c2.52,2.68,5.52,4.8,8.97,6.36c3.46,1.57,7.24,2.35,11.32,2.35c3.99,0,7.69-0.78,11.1-2.35c3.41-1.56,6.35-3.69,8.82-6.36
		c2.47-2.67,4.41-5.82,5.8-9.43c1.39-3.61,2.08-7.44,2.08-11.48c0-3.99-0.69-7.8-2.08-11.44c-1.39-3.64-3.32-6.83-5.8-9.58
		c-2.48-2.75-5.41-4.95-8.82-6.59c-3.41-1.64-7.11-2.46-11.1-2.46c-4.09,0-7.87,0.82-11.32,2.46c-3.46,1.64-6.45,3.84-8.97,6.59
		c-2.52,2.75-4.49,5.95-5.91,9.58C657.49,74.43,656.78,78.25,656.78,82.23z"/>
	<path class="st1" d="M755.01,34.44c0.66-0.3,1.33-0.49,2.01-0.57c0.68-0.08,1.35-0.11,2.01-0.11h7.65c1.52,0,2.59,0.43,3.22,1.29
		c0.63,0.86,1.07,1.94,1.32,3.26l1.59,9.24c1.77-2.02,3.65-3.94,5.64-5.76c1.99-1.82,4.2-3.43,6.63-4.85
		c2.42-1.41,5.1-2.54,8.03-3.37c2.93-0.83,6.21-1.25,9.85-1.25c4.59,0,8.97,0.59,13.14,1.78c4.17,1.19,8.05,2.85,11.66,5
		c3.61,2.15,6.88,4.72,9.81,7.73c2.93,3.01,5.44,6.35,7.54,10.04c2.09,3.69,3.71,7.65,4.85,11.89c1.14,4.24,1.7,8.66,1.7,13.25
		c0,4.6-0.57,9.01-1.7,13.25c-1.14,4.24-2.75,8.21-4.85,11.89c-2.1,3.69-4.61,7.04-7.54,10.07c-2.93,3.03-6.2,5.62-9.81,7.76
		c-3.61,2.15-7.51,3.81-11.7,5c-4.19,1.19-8.56,1.78-13.1,1.78c-3.28,0-6.3-0.35-9.05-1.06c-2.75-0.71-5.3-1.68-7.65-2.92
		c-2.35-1.24-4.52-2.67-6.51-4.32c-2-1.64-3.88-3.4-5.64-5.26v36.89c0,1.21-0.38,2.25-1.14,3.11c-0.76,0.86-1.89,1.29-3.41,1.29
		h-12.57c-1.06,0-2.11-0.39-3.14-1.17c-1.04-0.78-1.55-1.86-1.55-3.22V38.23c0-1.06,0.24-1.89,0.72-2.5
		C753.49,35.12,754.16,34.7,755.01,34.44z M830.07,82.01c0-3.99-0.72-7.79-2.16-11.4c-1.44-3.61-3.41-6.77-5.91-9.47
		c-2.5-2.7-5.47-4.85-8.9-6.44c-3.43-1.59-7.15-2.39-11.13-2.39c-3.99,0-7.74,0.78-11.25,2.35c-3.51,1.57-6.59,3.67-9.24,6.32
		c-2.65,2.65-4.77,5.74-6.36,9.28c-1.59,3.53-2.41,7.27-2.46,11.21v0.53c0,4.04,0.77,7.88,2.31,11.51c1.54,3.64,3.64,6.82,6.29,9.54
		c2.65,2.73,5.76,4.9,9.32,6.51c3.56,1.62,7.36,2.42,11.4,2.42c3.99,0,7.7-0.81,11.13-2.42c3.43-1.61,6.4-3.79,8.9-6.51
		c2.5-2.73,4.47-5.91,5.91-9.54C829.36,89.88,830.07,86.05,830.07,82.01z"/>
	<g>
		<path class="st1" d="M44.63,75.75c0-0.49-0.09-0.95-0.28-1.39c-0.19-0.44-0.44-0.81-0.76-1.13s-0.7-0.57-1.13-0.76
			c-0.44-0.19-0.9-0.28-1.39-0.28c-0.5,0-0.97,0.09-1.4,0.28c-0.43,0.19-0.81,0.44-1.13,0.76c-0.32,0.32-0.58,0.7-0.76,1.13
			c-0.18,0.44-0.27,0.9-0.27,1.39c0,0.5,0.09,0.96,0.27,1.4c0.18,0.43,0.43,0.81,0.76,1.13c0.32,0.32,0.7,0.58,1.13,0.76
			c0.43,0.18,0.9,0.27,1.4,0.27c0.49,0,0.95-0.09,1.39-0.27c0.44-0.18,0.82-0.43,1.13-0.76c0.32-0.32,0.57-0.7,0.76-1.13
			C44.54,76.72,44.63,76.25,44.63,75.75z"/>
		<path class="st1" d="M57.69,85.08c-0.5,0-0.96,0.09-1.4,0.27c-0.43,0.18-0.81,0.43-1.12,0.76c-0.32,0.32-0.57,0.7-0.76,1.13
			c-0.19,0.43-0.28,0.9-0.28,1.4c0,0.5,0.09,0.97,0.28,1.4c0.19,0.43,0.44,0.81,0.76,1.13c0.32,0.32,0.69,0.58,1.12,0.76
			c0.43,0.18,0.9,0.27,1.4,0.27c0.5,0,0.97-0.09,1.4-0.27c0.43-0.18,0.81-0.43,1.13-0.76c0.32-0.32,0.58-0.7,0.76-1.13
			c0.18-0.43,0.27-0.9,0.27-1.4c0-1.11-0.37-1.99-1.12-2.62C59.39,85.39,58.57,85.08,57.69,85.08z"/>
		<path class="st1" d="M49.38,56.92c-12.88,0-23.32,11.31-23.32,25.27c0,13.96,10.44,25.27,23.32,25.27S72.7,96.15,72.7,82.2
			C72.7,68.24,62.26,56.92,49.38,56.92z M38.51,81.8c-0.8-0.34-1.5-0.81-2.09-1.4c-0.59-0.59-1.06-1.29-1.4-2.09
			c-0.34-0.8-0.51-1.65-0.51-2.56c0-0.91,0.17-1.76,0.51-2.55c0.34-0.79,0.81-1.49,1.4-2.09c0.59-0.6,1.29-1.06,2.09-1.4
			c0.8-0.34,1.65-0.51,2.56-0.51c0.91,0,1.76,0.17,2.55,0.51c0.79,0.34,1.49,0.81,2.08,1.4c0.6,0.6,1.07,1.29,1.41,2.09
			c0.34,0.79,0.51,1.65,0.51,2.55c0,0.91-0.17,1.76-0.51,2.56c-0.34,0.8-0.81,1.5-1.41,2.09c-0.6,0.59-1.29,1.06-2.08,1.4
			c-0.79,0.34-1.65,0.51-2.55,0.51C40.17,82.31,39.31,82.14,38.51,81.8z M45.86,94.19c-0.09,0.2-0.2,0.36-0.34,0.47
			c-0.14,0.11-0.31,0.16-0.51,0.16h-2.14c-0.4,0-0.6-0.13-0.6-0.37c0-0.06,0-0.09-0.01-0.11c-0.01-0.02,0.02-0.09,0.08-0.23
			l9.98-23.82c0.12-0.28,0.26-0.48,0.4-0.59c0.14-0.11,0.35-0.16,0.64-0.16h1.87c0.48,0,0.71,0.15,0.71,0.44
			c0,0.06-0.01,0.13-0.03,0.23c-0.02,0.1-0.02,0.14,0,0.14c-1.7,4-3.38,7.97-5.02,11.92C49.23,86.22,47.56,90.2,45.86,94.19z
			 M63.73,91.19c-0.34,0.79-0.81,1.49-1.4,2.09c-0.59,0.6-1.29,1.06-2.09,1.4c-0.8,0.34-1.65,0.51-2.56,0.51
			c-0.91,0-1.76-0.17-2.55-0.51c-0.79-0.34-1.49-0.81-2.08-1.4c-0.6-0.6-1.06-1.29-1.41-2.09c-0.34-0.79-0.51-1.65-0.51-2.55
			c0-0.91,0.17-1.76,0.51-2.55c0.34-0.79,0.81-1.49,1.41-2.08c0.6-0.6,1.29-1.06,2.08-1.4c0.79-0.34,1.65-0.51,2.55-0.51
			c0.91,0,1.76,0.17,2.56,0.51c0.8,0.34,1.5,0.81,2.09,1.4c0.59,0.6,1.06,1.29,1.4,2.08c0.34,0.79,0.51,1.65,0.51,2.55
			C64.24,89.55,64.07,90.4,63.73,91.19z"/>
	</g>
</g>
</svg>
