<?xml version="1.0" encoding="utf-8"?>
<!-- Generator: Adobe Illustrator 23.0.3, SVG Export Plug-In . SVG Version: 6.00 Build 0)  -->
<svg version="1.1" id="Camada_1" xmlns="http://www.w3.org/2000/svg" xmlns:xlink="http://www.w3.org/1999/xlink" x="0px" y="0px"
	 viewBox="0 0 1920 500" style="enable-background:new 0 0 1920 500;" xml:space="preserve">
<style type="text/css">
	.st0{fill:#1360A3;}
	.st1{fill:#DD9F3D;}
	.st2{fill:#FFFFFF;}
	.st3{font-family:'HelveticaNeue-Bold';}
	.st4{font-size:112.7342px;}
</style>
<g>
	<path class="st0" d="M101.83,324.51c-0.74,2.47-1.54,4.32-2.41,5.56c-0.86,1.24-2.53,1.85-5,1.85H75.78
		c-5.19,0-7.78-2.47-7.78-7.41V135.97c0-2.14,0.74-3.91,2.22-5.31c1.48-1.4,3.17-2.1,5.06-2.1h20.37c2.47,0,4.4,0.72,5.8,2.16
		c1.4,1.44,2.1,3.19,2.1,5.25v56.68c5.93-6.09,12.74-10.95,20.44-14.57c7.7-3.62,16.52-5.43,26.49-5.43
		c11.11,0,21.46,2.12,31.05,6.36c9.59,4.24,17.94,10.02,25.07,17.35c7.12,7.33,12.7,15.91,16.73,25.74
		c4.03,9.84,6.05,20.39,6.05,31.67c0,11.2-2.02,21.71-6.05,31.55c-4.03,9.84-9.61,18.42-16.73,25.75
		c-7.12,7.33-15.48,13.11-25.07,17.35c-9.59,4.24-19.94,6.36-31.05,6.36c-4.86,0-9.51-0.54-13.95-1.61
		c-4.45-1.07-8.69-2.53-12.72-4.38c-4.04-1.85-7.8-4.05-11.3-6.61c-3.5-2.55-6.69-5.27-9.57-8.15L101.83,324.51z M194.69,253.76
		c0-6.5-1.15-12.72-3.46-18.64c-2.31-5.93-5.52-11.13-9.63-15.62c-4.12-4.49-8.97-8.07-14.57-10.74c-5.6-2.67-11.65-4.01-18.15-4.01
		c-6.59,0-12.78,1.34-18.58,4.01c-5.8,2.68-10.87,6.26-15.19,10.74c-4.32,4.49-7.72,9.69-10.19,15.62
		c-2.47,5.93-3.7,12.14-3.7,18.64v0.86c0.08,6.5,1.4,12.62,3.95,18.34c2.55,5.72,5.97,10.74,10.25,15.06
		c4.28,4.32,9.28,7.74,15,10.25c5.72,2.51,11.87,3.77,18.46,3.77c6.5,0,12.55-1.28,18.15-3.83c5.6-2.55,10.45-6.01,14.57-10.37
		c4.12-4.36,7.33-9.49,9.63-15.37C193.53,266.58,194.69,260.35,194.69,253.76z"/>
	<path class="st0" d="M414.72,324.64c0,1.48-0.31,2.7-0.93,3.64c-0.62,0.95-1.42,1.69-2.41,2.22c-0.99,0.54-2.12,0.91-3.4,1.11
		c-1.28,0.21-2.61,0.31-4.01,0.31h-15.43c-2.64,0-4.47-0.7-5.49-2.1c-1.03-1.4-1.79-3.17-2.28-5.31l-0.74-10.5
		c-2.88,2.88-6.07,5.58-9.57,8.09c-3.5,2.51-7.27,4.69-11.3,6.54c-4.03,1.85-8.32,3.29-12.84,4.32c-4.53,1.03-9.18,1.54-13.95,1.54
		c-7.41,0-14.55-0.97-21.42-2.9c-6.87-1.93-13.32-4.65-19.32-8.15c-6.01-3.5-11.46-7.72-16.36-12.66
		c-4.9-4.94-9.1-10.41-12.59-16.42c-3.5-6.01-6.22-12.47-8.15-19.39c-1.93-6.91-2.9-14.12-2.9-21.61c0-7.49,0.97-14.69,2.9-21.61
		c1.93-6.91,4.65-13.38,8.15-19.39c3.5-6.01,7.7-11.46,12.59-16.36c4.9-4.9,10.35-9.09,16.36-12.59c6.01-3.5,12.45-6.21,19.32-8.15
		c6.87-1.93,14.02-2.9,21.42-2.9c5.27,0,10.29,0.55,15.06,1.67c4.77,1.11,9.24,2.68,13.4,4.69c4.16,2.02,8,4.45,11.55,7.28
		c3.54,2.84,6.75,5.95,9.63,9.32l1.73-13.21c0.41-1.48,0.8-2.69,1.17-3.64c0.37-0.95,0.82-1.71,1.36-2.28
		c0.53-0.58,1.21-0.97,2.04-1.17c0.82-0.2,1.85-0.31,3.09-0.31h12.35c1.32,0,2.63,0.12,3.95,0.37c1.31,0.25,2.51,0.64,3.58,1.17
		c1.07,0.54,1.91,1.28,2.53,2.22c0.62,0.95,0.93,2.12,0.93,3.52V324.64z M286.3,253.39c0,6.59,1.15,12.82,3.46,18.71
		c2.3,5.88,5.51,11.05,9.63,15.49c4.11,4.45,8.95,7.96,14.51,10.56c5.56,2.59,11.63,3.89,18.21,3.89c6.67,0,12.9-1.3,18.71-3.89
		c5.8-2.59,10.84-6.11,15.13-10.56c4.28-4.45,7.65-9.61,10.12-15.49c2.47-5.89,3.7-12.12,3.7-18.71c0-6.5-1.23-12.7-3.7-18.58
		c-2.47-5.88-5.85-11.05-10.12-15.5c-4.28-4.44-9.32-7.98-15.13-10.62c-5.8-2.63-12.04-3.95-18.71-3.95
		c-6.59,0-12.66,1.32-18.21,3.95c-5.56,2.64-10.39,6.17-14.51,10.62c-4.12,4.45-7.33,9.61-9.63,15.5
		C287.45,240.69,286.3,246.89,286.3,253.39z"/>
	<path class="st0" d="M447.06,127.97c0-4.96,2.43-7.44,7.29-7.44h20.74c2.3,0,4.16,0.62,5.56,1.86c1.4,1.24,2.1,3.1,2.1,5.58v18.47
		c0,1.9-0.66,3.7-1.98,5.39c-1.32,1.69-3.17,2.54-5.56,2.54h-20.74c-4.94,0-7.41-2.64-7.41-7.93V127.97z M447.06,182.64
		c0-2.14,0.62-3.93,1.85-5.37c1.23-1.44,3.04-2.16,5.43-2.16h20.5c0.91,0,1.83,0.18,2.78,0.56c0.94,0.37,1.79,0.91,2.53,1.61
		c0.74,0.7,1.36,1.5,1.85,2.41c0.49,0.91,0.74,1.89,0.74,2.96v141.87c0,4.94-2.59,7.41-7.78,7.41h-20.5c-4.94,0-7.41-2.47-7.41-7.41
		V182.64z"/>
	<path class="st0" d="M579.3,331.92c-6.5-0.08-12.62-1.07-18.34-2.97c-5.72-1.89-10.7-4.63-14.94-8.22
		c-4.24-3.58-7.59-7.99-10.06-13.23s-3.7-11.18-3.7-17.86v-20.39v-63.03h-14.2c-2.39,0-4.18-0.53-5.37-1.6
		c-1.19-1.07-1.79-2.83-1.79-5.29v-17.71c0-2.38,0.6-4.06,1.79-5.04c1.19-0.98,2.98-1.48,5.37-1.48h14.2c0-4.36,0.02-8.7,0.06-13.03
		c0.04-4.32,0.06-8.66,0.06-13.03c0-1.65,0.51-2.94,1.54-3.89c1.03-0.94,2.61-1.79,4.75-2.53c1.4-0.49,3.09-1.09,5.06-1.79
		c1.98-0.7,4.01-1.38,6.11-2.04c2.1-0.66,4.14-1.21,6.11-1.67c1.98-0.45,3.62-0.68,4.94-0.68c2.55,0,4.22,0.7,5,2.1
		c0.78,1.4,1.17,3.25,1.17,5.56c0,5.19-0.02,10.35-0.06,15.5c-0.04,5.15-0.06,10.31-0.06,15.5h17.78c2.14,0,3.79,0.55,4.94,1.66
		c1.15,1.11,1.73,2.85,1.73,5.23v16.85c0,2.62-0.58,4.51-1.73,5.66c-1.15,1.15-2.8,1.72-4.94,1.72h-17.78c0,5.36,0,9.89,0,13.6
		c0,3.71,0,6.99,0,9.83c0,2.84,0.02,5.5,0.06,7.98c0.04,2.47,0.06,5.15,0.06,8.04c0,2.88,0,6.18,0,9.89c0,3.71,0,8.24,0,13.6
		c0,0.17-0.02,0.33-0.06,0.5c-0.04,0.17-0.06,0.33-0.06,0.49v16.2c0,5.44,1.07,9.36,3.21,11.75c2.14,2.39,5.6,3.58,10.37,3.58
		c1.73,0,3.09,0.62,4.07,1.85c0.99,1.23,1.48,2.71,1.48,4.45v17.16c0,2.14-0.6,3.81-1.79,5
		C583.11,331.33,581.44,331.92,579.3,331.92z"/>
	<path class="st0" d="M773.29,324.64c0,1.48-0.31,2.7-0.93,3.64c-0.62,0.95-1.42,1.69-2.41,2.22c-0.99,0.54-2.12,0.91-3.4,1.11
		c-1.28,0.21-2.61,0.31-4.01,0.31h-15.43c-2.64,0-4.47-0.7-5.49-2.1c-1.03-1.4-1.79-3.17-2.28-5.31l-0.74-10.5
		c-2.88,2.88-6.07,5.58-9.57,8.09c-3.5,2.51-7.27,4.69-11.3,6.54c-4.03,1.85-8.32,3.29-12.84,4.32c-4.53,1.03-9.18,1.54-13.95,1.54
		c-7.41,0-14.55-0.97-21.42-2.9c-6.87-1.93-13.32-4.65-19.32-8.15c-6.01-3.5-11.46-7.72-16.36-12.66
		c-4.9-4.94-9.1-10.41-12.59-16.42c-3.5-6.01-6.22-12.47-8.15-19.39c-1.93-6.91-2.9-14.12-2.9-21.61c0-7.49,0.97-14.69,2.9-21.61
		c1.93-6.91,4.65-13.38,8.15-19.39c3.5-6.01,7.7-11.46,12.59-16.36c4.9-4.9,10.35-9.09,16.36-12.59c6.01-3.5,12.45-6.21,19.32-8.15
		c6.87-1.93,14.02-2.9,21.42-2.9c5.27,0,10.29,0.55,15.06,1.67c4.77,1.11,9.24,2.68,13.4,4.69c4.16,2.02,8,4.45,11.55,7.28
		c3.54,2.84,6.75,5.95,9.63,9.32l1.73-13.21c0.41-1.48,0.8-2.69,1.17-3.64c0.37-0.95,0.82-1.71,1.36-2.28
		c0.53-0.58,1.21-0.97,2.04-1.17c0.82-0.2,1.85-0.31,3.09-0.31h12.35c1.32,0,2.63,0.12,3.95,0.37c1.31,0.25,2.51,0.64,3.58,1.17
		c1.07,0.54,1.91,1.28,2.53,2.22c0.62,0.95,0.93,2.12,0.93,3.52V324.64z M644.87,253.39c0,6.59,1.15,12.82,3.46,18.71
		c2.3,5.88,5.51,11.05,9.63,15.49c4.11,4.45,8.95,7.96,14.51,10.56c5.56,2.59,11.63,3.89,18.21,3.89c6.67,0,12.9-1.3,18.71-3.89
		c5.8-2.59,10.84-6.11,15.13-10.56c4.28-4.45,7.65-9.61,10.12-15.49c2.47-5.89,3.7-12.12,3.7-18.71c0-6.5-1.23-12.7-3.7-18.58
		c-2.47-5.88-5.85-11.05-10.12-15.5c-4.28-4.44-9.32-7.98-15.13-10.62c-5.8-2.63-12.04-3.95-18.71-3.95
		c-6.59,0-12.66,1.32-18.21,3.95c-5.56,2.64-10.39,6.17-14.51,10.62c-4.12,4.45-7.33,9.61-9.63,15.5
		C646.02,240.69,644.87,246.89,644.87,253.39z"/>
	<path class="st1" d="M822.3,287.72c1.73,2.72,3.91,5.06,6.54,7.04c2.63,1.98,5.33,3.6,8.09,4.88c2.76,1.28,5.39,2.2,7.9,2.78
		c2.51,0.58,4.51,0.86,5.99,0.86c2.3,0,5.02-0.25,8.15-0.74c3.13-0.49,6.07-1.38,8.83-2.66c2.76-1.28,5.1-3,7.04-5.19
		c1.93-2.18,2.9-4.96,2.9-8.33c0-3.29-0.76-5.97-2.28-8.03c-1.52-2.06-3.58-3.77-6.17-5.12c-2.59-1.36-5.56-2.49-8.89-3.4
		c-3.33-0.91-6.85-1.89-10.56-2.96c-8.64-2.3-16.01-5.08-22.1-8.33c-6.09-3.25-11.09-6.98-15-11.17c-3.91-4.2-6.77-8.81-8.58-13.83
		c-1.81-5.02-2.72-10.5-2.72-16.42c0-6.67,1.32-12.76,3.95-18.27c2.63-5.51,6.34-10.25,11.11-14.2c4.77-3.95,10.52-7.02,17.23-9.2
		c6.71-2.18,14.14-3.27,22.29-3.27c5.76,0,10.91,0.52,15.43,1.54c4.53,1.03,8.72,2.57,12.6,4.63c3.87,2.06,7.51,4.65,10.93,7.78
		c3.41,3.13,6.89,6.79,10.43,10.99c1.24,1.48,1.85,2.92,1.85,4.32c0,1.48-0.82,2.88-2.47,4.2c-1.24,0.99-2.7,2.22-4.38,3.7
		c-1.69,1.48-3.35,2.92-5,4.32c-1.65,1.4-3.21,2.59-4.69,3.58c-1.48,0.99-2.72,1.48-3.7,1.48c-1.81,0-3.58-1.07-5.31-3.21
		c-1.81-2.14-3.62-4.01-5.43-5.62c-1.81-1.61-3.7-2.92-5.68-3.95c-1.97-1.03-4.12-1.81-6.42-2.35c-2.31-0.53-4.82-0.8-7.53-0.8
		c-2.22,0-4.55,0.33-6.98,0.99c-2.43,0.66-4.65,1.65-6.67,2.96c-2.02,1.32-3.7,2.9-5.06,4.75c-1.36,1.85-2.04,3.93-2.04,6.24
		c0,2.64,0.84,4.88,2.53,6.73c1.68,1.85,3.82,3.46,6.41,4.82c2.59,1.36,5.4,2.49,8.44,3.4c3.04,0.91,5.88,1.73,8.51,2.47
		c7.56,2.14,14.5,4.61,20.83,7.41c6.33,2.8,11.77,6.2,16.34,10.19c4.56,3.99,8.11,8.69,10.66,14.08c2.55,5.39,3.82,11.71,3.82,18.95
		c0,7.66-1.52,14.51-4.55,20.56c-3.04,6.05-7.24,11.18-12.61,15.37c-5.37,4.2-11.74,7.41-19.09,9.63c-7.35,2.22-15.35,3.33-24,3.33
		c-5.19,0-10.46-0.56-15.81-1.67c-5.35-1.11-10.48-2.84-15.37-5.19c-4.9-2.34-9.43-5.35-13.58-9.01c-4.16-3.66-7.64-8-10.43-13.03
		c-1.23-2.06-1.85-3.91-1.85-5.56c0-1.07,0.27-1.99,0.8-2.78c0.53-0.78,1.25-1.54,2.16-2.29l13.83-10.62
		c1.23-0.74,2.35-1.11,3.33-1.11c1.15,0,2.18,0.39,3.09,1.17C820.24,285.35,821.23,286.4,822.3,287.72z"/>
	<path class="st1" d="M976.89,191.28c2.06-2.63,4.4-5.06,7.04-7.28c2.63-2.22,5.66-4.16,9.07-5.8c3.42-1.65,7.3-2.92,11.67-3.83
		c4.36-0.9,9.3-1.36,14.82-1.36c9.3,0,17.53,1.79,24.7,5.37c7.16,3.58,13.17,8.44,18.03,14.57c4.86,6.13,8.54,13.32,11.05,21.55
		c2.51,8.23,3.77,16.96,3.77,26.18v82.36c0,2.96-0.7,5.19-2.1,6.67c-1.4,1.48-3.42,2.22-6.05,2.22h-18.77
		c-3.29,0-5.49-0.62-6.61-1.85c-1.11-1.24-1.67-3.41-1.67-6.54v-82.85c0-4.36-0.76-8.6-2.28-12.72c-1.52-4.12-3.7-7.76-6.54-10.93
		c-2.84-3.17-6.28-5.72-10.31-7.66c-4.03-1.93-8.52-2.9-13.46-2.9c-3.79,0-7.57,0.72-11.36,2.16c-3.79,1.44-7.22,3.52-10.31,6.24
		c-3.09,2.72-5.62,6.05-7.59,10c-1.98,3.95-3.01,8.44-3.09,13.46v80.63c0,1.56-0.08,3.13-0.25,4.69c-0.17,1.56-0.51,2.96-1.05,4.2
		c-0.54,1.24-1.3,2.22-2.28,2.96c-0.99,0.74-2.27,1.11-3.83,1.11h-20.37c-2.72,0-4.71-0.64-5.99-1.91c-1.28-1.28-1.91-3.11-1.91-5.5
		V135.84c0-2.14,0.66-3.91,1.98-5.31c1.32-1.4,3.25-2.1,5.8-2.1h20.37c1.89,0,3.62,0.72,5.19,2.16c1.56,1.44,2.35,3.15,2.35,5.12
		V191.28z"/>
	<path class="st1" d="M1103.33,253.76c0-7.49,0.97-14.71,2.9-21.67c1.93-6.96,4.67-13.44,8.21-19.45
		c3.54-6.01,7.77-11.46,12.71-16.36c4.94-4.9,10.4-9.09,16.41-12.6c6-3.5,12.44-6.21,19.31-8.15c6.87-1.93,14.05-2.9,21.53-2.9
		c7.4,0,14.56,0.97,21.47,2.9c6.91,1.93,13.35,4.65,19.31,8.15c5.97,3.5,11.42,7.7,16.35,12.6c4.94,4.9,9.17,10.35,12.71,16.36
		c3.54,6.01,6.27,12.49,8.21,19.45c1.93,6.96,2.9,14.18,2.9,21.67c0,7.49-0.97,14.69-2.9,21.61c-1.93,6.92-4.67,13.36-8.21,19.33
		c-3.54,5.97-7.77,11.42-12.71,16.36c-4.93,4.94-10.38,9.16-16.35,12.66c-5.96,3.5-12.4,6.22-19.31,8.15s-14.07,2.9-21.47,2.9
		c-7.48,0-14.66-0.97-21.53-2.9c-6.87-1.93-13.3-4.65-19.31-8.15c-6-3.5-11.47-7.72-16.41-12.66c-4.94-4.94-9.17-10.39-12.71-16.36
		c-3.54-5.97-6.27-12.41-8.21-19.33C1104.3,268.45,1103.33,261.25,1103.33,253.76z M1138.15,253.76c0,6.59,1.15,12.82,3.46,18.71
		c2.3,5.88,5.51,11.01,9.63,15.37c4.12,4.36,8.99,7.82,14.63,10.37c5.64,2.55,11.79,3.83,18.46,3.83c6.5,0,12.53-1.28,18.09-3.83
		c5.56-2.55,10.35-6.01,14.38-10.37c4.03-4.36,7.18-9.49,9.45-15.37c2.26-5.89,3.39-12.12,3.39-18.71c0-6.5-1.13-12.72-3.39-18.64
		c-2.27-5.93-5.42-11.13-9.45-15.62c-4.04-4.49-8.83-8.07-14.38-10.74c-5.56-2.67-11.59-4.01-18.09-4.01
		c-6.67,0-12.82,1.34-18.46,4.01c-5.64,2.68-10.52,6.26-14.63,10.74c-4.12,4.49-7.33,9.69-9.63,15.62
		C1139.3,241.04,1138.15,247.26,1138.15,253.76z"/>
	<path class="st1" d="M1298.3,175.85c1.07-0.49,2.16-0.8,3.27-0.93c1.11-0.12,2.2-0.18,3.27-0.18h12.47c2.47,0,4.22,0.7,5.25,2.1
		c1.03,1.4,1.75,3.17,2.16,5.31l2.59,15.06c2.88-3.29,5.95-6.42,9.2-9.38c3.25-2.96,6.85-5.6,10.8-7.9
		c3.95-2.3,8.31-4.14,13.09-5.49c4.77-1.36,10.13-2.04,16.05-2.04c7.49,0,14.63,0.97,21.42,2.9c6.79,1.94,13.13,4.65,19.01,8.15
		c5.88,3.5,11.21,7.7,15.99,12.59c4.77,4.9,8.87,10.35,12.29,16.36c3.41,6.01,6.05,12.47,7.9,19.39c1.85,6.91,2.78,14.12,2.78,21.61
		c0,7.49-0.93,14.69-2.78,21.61c-1.85,6.92-4.49,13.38-7.9,19.39c-3.42,6.01-7.51,11.48-12.29,16.42
		c-4.77,4.94-10.1,9.16-15.99,12.66c-5.89,3.5-12.25,6.21-19.08,8.15c-6.83,1.93-13.95,2.9-21.36,2.9c-5.35,0-10.27-0.58-14.76-1.73
		c-4.49-1.15-8.64-2.74-12.47-4.76c-3.83-2.02-7.37-4.36-10.62-7.04c-3.25-2.67-6.32-5.54-9.2-8.58v60.13
		c0,1.98-0.62,3.66-1.85,5.06c-1.24,1.4-3.09,2.1-5.56,2.1h-20.5c-1.73,0-3.44-0.64-5.12-1.91c-1.69-1.28-2.53-3.03-2.53-5.25
		V182.02c0-1.73,0.39-3.09,1.17-4.07C1295.81,176.96,1296.9,176.26,1298.3,175.85z M1420.66,253.39c0-6.5-1.17-12.7-3.52-18.58
		c-2.35-5.88-5.56-11.03-9.63-15.43c-4.08-4.4-8.91-7.9-14.51-10.49c-5.6-2.59-11.65-3.89-18.15-3.89c-6.51,0-12.62,1.28-18.34,3.83
		c-5.72,2.55-10.74,5.99-15.06,10.31c-4.32,4.32-7.78,9.36-10.37,15.13c-2.59,5.76-3.93,11.85-4.01,18.27v0.86
		c0,6.59,1.25,12.84,3.77,18.77c2.51,5.93,5.93,11.11,10.25,15.56c4.32,4.45,9.38,7.99,15.19,10.62c5.8,2.64,11.99,3.95,18.58,3.95
		c6.5,0,12.55-1.32,18.15-3.95c5.6-2.63,10.43-6.17,14.51-10.62c4.07-4.44,7.28-9.63,9.63-15.56
		C1419.49,266.23,1420.66,259.98,1420.66,253.39z"/>
	<path class="st0" d="M1802.24,334.65h-321.14V175.12h321.14c15.33,0,27.76,12.43,27.76,27.76v104
		C1830,322.22,1817.57,334.65,1802.24,334.65z"/>
	<g>
		<path class="st1" d="M140.21,243.19c0-0.8-0.15-1.55-0.46-2.26c-0.3-0.71-0.72-1.33-1.23-1.85c-0.52-0.52-1.13-0.93-1.85-1.24
			c-0.71-0.31-1.47-0.46-2.26-0.46c-0.82,0-1.57,0.15-2.28,0.46c-0.7,0.31-1.32,0.72-1.85,1.24c-0.53,0.52-0.94,1.13-1.24,1.85
			c-0.3,0.71-0.45,1.47-0.45,2.26c0,0.81,0.15,1.57,0.45,2.28c0.29,0.7,0.71,1.32,1.24,1.85c0.53,0.53,1.14,0.94,1.85,1.24
			c0.7,0.3,1.46,0.44,2.28,0.44c0.8,0,1.55-0.15,2.26-0.44c0.71-0.3,1.33-0.71,1.85-1.24c0.52-0.53,0.93-1.14,1.23-1.85
			C140.06,244.77,140.21,244.01,140.21,243.19z"/>
		<path class="st1" d="M161.49,258.4c-0.81,0-1.57,0.15-2.27,0.44c-0.7,0.3-1.31,0.71-1.83,1.24c-0.52,0.53-0.93,1.14-1.23,1.85
			c-0.3,0.7-0.46,1.46-0.46,2.28c0,0.82,0.15,1.57,0.46,2.28c0.31,0.7,0.72,1.32,1.23,1.85c0.52,0.53,1.13,0.94,1.83,1.24
			c0.7,0.3,1.46,0.44,2.27,0.44c0.82,0,1.57-0.15,2.28-0.44c0.7-0.3,1.32-0.71,1.84-1.24c0.53-0.53,0.94-1.14,1.24-1.85
			c0.3-0.7,0.45-1.46,0.45-2.28c0-1.81-0.61-3.24-1.83-4.27C164.26,258.91,162.94,258.4,161.49,258.4z"/>
		<path class="st1" d="M147.95,212.5c-21,0-38.02,18.45-38.02,41.2c0,22.75,17.02,41.2,38.02,41.2s38.02-18.45,38.02-41.2
			C185.97,230.95,168.95,212.5,147.95,212.5z M130.23,253.05c-1.3-0.56-2.44-1.31-3.4-2.28c-0.96-0.96-1.72-2.1-2.28-3.4
			c-0.55-1.3-0.83-2.7-0.83-4.18c0-1.48,0.28-2.87,0.83-4.16c0.55-1.29,1.31-2.43,2.28-3.4c0.96-0.97,2.1-1.73,3.4-2.29
			c1.3-0.55,2.7-0.83,4.18-0.83c1.48,0,2.87,0.28,4.16,0.83c1.29,0.56,2.43,1.32,3.4,2.29c0.97,0.97,1.74,2.11,2.29,3.4
			c0.55,1.3,0.83,2.68,0.83,4.16c0,1.48-0.28,2.87-0.83,4.18c-0.55,1.3-1.32,2.44-2.29,3.4c-0.97,0.96-2.1,1.72-3.4,2.28
			c-1.29,0.55-2.68,0.83-4.16,0.83C132.93,253.88,131.54,253.6,130.23,253.05z M142.21,273.25c-0.15,0.33-0.33,0.59-0.55,0.76
			c-0.22,0.18-0.5,0.26-0.83,0.26h-3.5c-0.65,0-0.97-0.2-0.97-0.61c0-0.09-0.01-0.15-0.01-0.18c-0.01-0.03,0.03-0.15,0.12-0.37
			l16.27-38.83c0.2-0.46,0.42-0.78,0.65-0.96c0.23-0.18,0.58-0.26,1.04-0.26h3.05c0.78,0,1.17,0.24,1.17,0.72
			c0,0.09-0.02,0.22-0.06,0.37c-0.04,0.16-0.04,0.24,0,0.24c-2.77,6.51-5.51,12.99-8.19,19.43
			C147.71,260.26,144.98,266.74,142.21,273.25z M171.35,268.37c-0.55,1.3-1.31,2.43-2.28,3.4c-0.96,0.97-2.1,1.73-3.4,2.29
			c-1.3,0.55-2.7,0.83-4.18,0.83c-1.48,0-2.87-0.28-4.16-0.83s-2.43-1.32-3.4-2.29c-0.97-0.97-1.73-2.1-2.29-3.4
			c-0.55-1.29-0.83-2.68-0.83-4.16c0-1.48,0.28-2.87,0.83-4.16c0.56-1.29,1.32-2.43,2.29-3.4c0.97-0.97,2.1-1.73,3.4-2.29
			c1.29-0.56,2.68-0.83,4.16-0.83c1.48,0,2.87,0.28,4.18,0.83c1.3,0.56,2.44,1.32,3.4,2.29c0.96,0.97,1.72,2.1,2.28,3.4
			c0.55,1.3,0.83,2.68,0.83,4.16C172.18,265.68,171.9,267.07,171.35,268.37z"/>
	</g>
</g>
<text transform="matrix(1 0 0 1 1515.8779 287.1855)" class="st2 st3 st4">news</text>
</svg>
