<svg id="Camada_1" data-name="Camada 1" xmlns="http://www.w3.org/2000/svg" xmlns:xlink="http://www.w3.org/1999/xlink" viewBox="0 0 511 510.32"><defs><style>.cls-1{fill:none;}.cls-2{clip-path:url(#clip-path);}.cls-3{fill:#c4e2f2;}.cls-4{fill:#2d303b;}.cls-5{fill:#3c3f4d;}.cls-6{fill:#83b2c6;}.cls-7{fill:#1f81a3;}.cls-8{fill:#2c92bf;}.cls-9{fill:#ff491f;}.cls-10{fill:#ffe14d;}.cls-11{fill:#fff;}</style><clipPath id="clip-path" transform="translate(-49 -142)"><rect class="cls-1" x="50" y="141" width="511" height="511"/></clipPath></defs><g class="cls-2"><path class="cls-3" d="M560,185.87V461.18a44.34,44.34,0,0,1-44.34,44.32H93.33A44.33,44.33,0,0,1,49,461.18V185.87A43.87,43.87,0,0,1,92.87,142H516.13A43.88,43.88,0,0,1,560,185.87Zm0,0" transform="translate(-49 -142)"/><path class="cls-4" d="M407.57,564.66,304.5,588.14,201.42,564.66l14.12-59.15,84.58-31.1,93.32,31.1L398,524.66Zm0,0" transform="translate(-49 -142)"/><path class="cls-5" d="M560,456v5.21a44.34,44.34,0,0,1-44.34,44.34H93.33A44.34,44.34,0,0,1,49,461.16V456Zm0,0" transform="translate(-49 -142)"/></g><path class="cls-5" d="M407.57,564.66H249.92l9.55-40H398Zm0,0" transform="translate(-49 -142)"/><path class="cls-4" d="M468.31,597.59v14H140.69v-14a32.93,32.93,0,0,1,32.93-32.93H435.38a32.93,32.93,0,0,1,32.93,32.93Zm0,0" transform="translate(-49 -142)"/><path class="cls-6" d="M505.37,505.5H274L285.3,396.38H494Zm0,0" transform="translate(-49 -142)"/><path class="cls-7" d="M287.91,273.45l-2.73,20.85-8.75,66.63a24.11,24.11,0,0,1-23.9,21H148.09a24.11,24.11,0,0,1-23.9-21l-11.48-87.48L200.31,250Zm0,0" transform="translate(-49 -142)"/><path class="cls-8" d="M285.18,294.3l-8.75,66.63a24.11,24.11,0,0,1-23.9,21H181.46a24.1,24.1,0,0,1-23.9-21l-5.93-45.16a19,19,0,0,1,18.84-21.47Zm0,0" transform="translate(-49 -142)"/><path class="cls-7" d="M299.9,249.86v12.76a10.83,10.83,0,0,1-10.82,10.83H111.54a10.83,10.83,0,0,1-10.82-10.83V249.86A10.83,10.83,0,0,1,111.54,239H289.08a10.83,10.83,0,0,1,10.82,10.83Zm0,0" transform="translate(-49 -142)"/><path class="cls-8" d="M299.9,249.86v12.76a10.83,10.83,0,0,1-10.82,10.83H153.25a10.83,10.83,0,0,1-10.82-10.83V249.86A10.83,10.83,0,0,1,153.25,239H289.08a10.83,10.83,0,0,1,10.82,10.83Zm0,0" transform="translate(-49 -142)"/><path class="cls-5" d="M200.31,190a17.73,17.73,0,0,0-17.73,17.73v84.46a17.73,17.73,0,0,0,35.46,0V207.75A17.73,17.73,0,0,0,200.31,190Zm0,0" transform="translate(-49 -142)"/><g class="cls-2"><path class="cls-4" d="M504.32,505.5H272.92L278.07,456H499.18Zm0,0" transform="translate(-49 -142)"/><path class="cls-9" d="M507.59,396.38H298.86L272.27,652.31H534.18Zm0,0" transform="translate(-49 -142)"/><path class="cls-10" d="M385.14,479.13H240.05L221.57,652.31H403.63Zm0,0" transform="translate(-49 -142)"/></g><path class="cls-11" d="M459.53,429.23a7.82,7.82,0,0,1-7.82-7.82V369.79a48.49,48.49,0,1,0-97,0v51.62a7.82,7.82,0,1,1-15.64,0V369.79a64.13,64.13,0,1,1,128.26,0v51.62a7.81,7.81,0,0,1-7.82,7.82Zm0,0" transform="translate(-49 -142)"/><path class="cls-5" d="M312.6,585.79a41.51,41.51,0,0,1-41.46-41.45V510.71a7.83,7.83,0,0,1,15.65,0v33.63a25.81,25.81,0,0,0,51.62,0V510.71a7.82,7.82,0,1,1,15.64,0v33.63a41.5,41.5,0,0,1-41.45,41.45Zm0,0" transform="translate(-49 -142)"/><path class="cls-9" d="M378.43,229.27H345.06a7.82,7.82,0,1,1,0-15.64h33.37a7.82,7.82,0,1,1,0,15.64Zm0,0" transform="translate(-49 -142)"/><path class="cls-5" d="M521.3,229.27H412.85a7.82,7.82,0,0,1,0-15.64H521.3a7.82,7.82,0,1,1,0,15.64Zm0,0" transform="translate(-49 -142)"/><path class="cls-9" d="M378.43,265.77H345.06a7.82,7.82,0,0,1,0-15.64h33.37a7.82,7.82,0,1,1,0,15.64Zm0,0" transform="translate(-49 -142)"/><path class="cls-5" d="M521.3,265.77H412.85a7.82,7.82,0,0,1,0-15.64H521.3a7.82,7.82,0,1,1,0,15.64Zm0,0" transform="translate(-49 -142)"/></svg>