<svg id="Camada_1" data-name="Camada 1" xmlns="http://www.w3.org/2000/svg" xmlns:xlink="http://www.w3.org/1999/xlink" viewBox="0 0 511 448.72"><defs><style>.cls-1{fill:none;}.cls-2{clip-path:url(#clip-path);}.cls-3{fill:#c4e2f2;}.cls-4{fill:#83b2c6;}.cls-5{fill:#e6e6e6;}.cls-6{fill:#ffe14d;}.cls-7{fill:#3c3f4d;}.cls-8{fill:#e2720e;}.cls-9{fill:#ff8e1d;}.cls-10{fill:#ff491f;}</style><clipPath id="clip-path" transform="translate(-50 -171.94)"><rect class="cls-1" x="51" y="171" width="510" height="450"/></clipPath></defs><g class="cls-2"><path class="cls-3" d="M491.76,248.28V593.06a27.6,27.6,0,0,1-27.6,27.6H77.6A27.6,27.6,0,0,1,50,593.06V248.28a27.59,27.59,0,0,1,27.6-27.6H464.16a27.6,27.6,0,0,1,27.6,27.6Zm0,0" transform="translate(-50 -171.94)"/><path class="cls-4" d="M491.76,248.28v33H50v-33a27.59,27.59,0,0,1,27.6-27.6H464.16a27.6,27.6,0,0,1,27.6,27.6Zm0,0" transform="translate(-50 -171.94)"/></g><path class="cls-5" d="M86.55,260.89c-7.18,0-10.57-9.35-4.94-13.91a7.83,7.83,0,1,1,4.94,13.91Zm0,0" transform="translate(-50 -171.94)"/><path class="cls-5" d="M139.81,260.89c-7.11,0-10.49-9.16-5.08-13.79s14,.22,12.8,7.29a7.91,7.91,0,0,1-7.72,6.5Zm0,0" transform="translate(-50 -171.94)"/><g class="cls-2"><path class="cls-5" d="M113.18,260.89a7.83,7.83,0,0,1-5.08-13.79c5.45-4.67,14,.22,12.79,7.29a7.88,7.88,0,0,1-7.71,6.5Zm0,0" transform="translate(-50 -171.94)"/><path class="cls-6" d="M437.38,246.14l-54.16,12.58a25.92,25.92,0,0,0-19.38,19.37l-12.58,54.17a25.93,25.93,0,0,0,6.92,24.19L450,448.29a25.9,25.9,0,0,0,36.64,0l66.75-66.75a25.9,25.9,0,0,0,0-36.64l-91.84-91.85a25.92,25.92,0,0,0-24.19-6.91Zm0,0" transform="translate(-50 -171.94)"/></g><path class="cls-3" d="M443.48,316.19A22.17,22.17,0,1,1,421.31,294a22.18,22.18,0,0,1,22.17,22.17Zm0,0" transform="translate(-50 -171.94)"/><path class="cls-7" d="M427.06,321.51a7.84,7.84,0,0,1-11.08.42,512,512,0,0,1-38.79-41.05c-26.56-31.53-40.2-56.94-40.54-75.53-.18-9.12,2.71-16.71,8.58-22.58C356.41,171.59,367,171,373.92,172.55c22.56,4.89,37.6,38,41.69,48.13H398.54c-6.47-13.81-17.39-30.55-28-32.83-1.68-.37-6.81-1.47-14.28,6-2.82,2.82-4.09,6.39-4,11.21.58,30.39,53.86,86.38,74.34,105.39a7.85,7.85,0,0,1,.42,11.07Zm0,0" transform="translate(-50 -171.94)"/><path class="cls-7" d="M445.9,389.24a7.83,7.83,0,0,1-5.54-13.36L481,335.24a7.83,7.83,0,0,1,11.07,11.08L451.44,387a7.8,7.8,0,0,1-5.54,2.29Zm0,0" transform="translate(-50 -171.94)"/><path class="cls-7" d="M467.31,410.65a7.83,7.83,0,0,1-5.54-13.37l40.64-40.63a7.83,7.83,0,1,1,11.07,11.08l-40.63,40.63a7.8,7.8,0,0,1-5.54,2.29Zm0,0" transform="translate(-50 -171.94)"/><path class="cls-8" d="M294,479.68l-2.73,20.88-8.76,66.72a24.14,24.14,0,0,1-23.94,21H154a24.14,24.14,0,0,1-23.94-21l-11.5-87.6,87.73-23.5Zm0,0" transform="translate(-50 -171.94)"/><path class="cls-9" d="M291.26,500.56l-8.76,66.72a24.14,24.14,0,0,1-23.94,21H187.4a24.14,24.14,0,0,1-23.94-21l-5.94-45.21a19,19,0,0,1,18.87-21.51Zm0,0" transform="translate(-50 -171.94)"/><path class="cls-8" d="M306,456.05v12.79a10.84,10.84,0,0,1-10.84,10.84H117.37a10.84,10.84,0,0,1-10.83-10.84V456.05a10.84,10.84,0,0,1,10.83-10.84H295.16A10.84,10.84,0,0,1,306,456.05Zm0,0" transform="translate(-50 -171.94)"/><path class="cls-9" d="M306,456.05v12.79a10.84,10.84,0,0,1-10.84,10.84h-136a10.85,10.85,0,0,1-10.85-10.84V456.05a10.85,10.85,0,0,1,10.85-10.84h136A10.84,10.84,0,0,1,306,456.05Zm0,0" transform="translate(-50 -171.94)"/><path class="cls-7" d="M206.27,396.13a17.75,17.75,0,0,0-17.75,17.75v84.59a17.75,17.75,0,1,0,35.5,0V413.88a17.75,17.75,0,0,0-17.75-17.75Zm0,0" transform="translate(-50 -171.94)"/><path class="cls-10" d="M385.23,554.34a7.9,7.9,0,0,1-7.83-7.83,8.25,8.25,0,0,1,2.62-5.87l6.83-6.82q10.77-10.77,21.54-21.55c1.87-1.86,3.89-4.48,6.41-5.44a7.83,7.83,0,0,1,8.3,12.9c-5.47,5.63-11.11,11.1-16.66,16.65-5.21,5.22-10.35,10.55-15.67,15.67a7.91,7.91,0,0,1-5.54,2.29Zm0,0" transform="translate(-50 -171.94)"/><path class="cls-10" d="M381.05,517.8a7.83,7.83,0,1,1,7.75-6.69,7.92,7.92,0,0,1-7.75,6.69Zm0,0" transform="translate(-50 -171.94)"/><path class="cls-10" d="M421.78,558.52c-6.89,0-10.42-8.68-5.42-13.47a7.83,7.83,0,1,1,5.42,13.47Zm0,0" transform="translate(-50 -171.94)"/><path class="cls-7" d="M130.41,328.77H97a7.84,7.84,0,1,1,0-15.67h33.41a7.84,7.84,0,1,1,0,15.67Zm0,0" transform="translate(-50 -171.94)"/><path class="cls-7" d="M273.49,328.77H164.88a7.84,7.84,0,0,1,0-15.67H273.49a7.84,7.84,0,0,1,0,15.67Zm0,0" transform="translate(-50 -171.94)"/><path class="cls-7" d="M130.41,365.32H97a7.83,7.83,0,1,1,0-15.66h33.41a7.83,7.83,0,1,1,0,15.66Zm0,0" transform="translate(-50 -171.94)"/><path class="cls-7" d="M273.49,365.32H164.88a7.83,7.83,0,0,1,0-15.66H273.49a7.83,7.83,0,0,1,0,15.66Zm0,0" transform="translate(-50 -171.94)"/></svg>