<svg id="Camada_1" data-name="Camada 1" xmlns="http://www.w3.org/2000/svg" viewBox="0 0 510.25 512"><defs><style>.cls-1{fill:#e5e5e5;}.cls-2{fill:#cbcbcb;}.cls-3{fill:#b3b3b3;}.cls-4{fill:#2c92bf;}.cls-5{fill:#c4e2f2;}.cls-6{fill:#3c3f4d;}</style></defs><path class="cls-1" d="M430.91,140V251.14H336.55a32.32,32.32,0,0,0-32.35,32.34,32.33,32.33,0,1,1-64.66,0V140Zm0,0" transform="translate(-50 -140)"/><path class="cls-2" d="M430.91,237.16v14H336.55a32.32,32.32,0,0,0-32.35,32.34,32.33,32.33,0,1,1-64.66,0V237.16Zm0,0" transform="translate(-50 -140)"/><path class="cls-3" d="M368.88,283.48v32.33h-97a32.28,32.28,0,0,0,32.33-32.33,32.34,32.34,0,1,1,64.67,0Zm0,0" transform="translate(-50 -140)"/><path class="cls-1" d="M560.25,283.48V619.89H368.88V283.48a32.32,32.32,0,0,0-32.33-32.34H527.91a32.3,32.3,0,0,1,32.34,32.34Zm0,0" transform="translate(-50 -140)"/><path class="cls-4" d="M293.5,276.85H79.82A29.82,29.82,0,0,0,50,306.67V622.18A29.82,29.82,0,0,0,79.82,652H293.5a29.82,29.82,0,0,0,29.82-29.82V306.67a29.82,29.82,0,0,0-29.82-29.82Zm0,0" transform="translate(-50 -140)"/><rect class="cls-5" x="31.34" y="168.19" width="210.63" height="77.5"/><rect class="cls-1" x="107.92" y="355.86" width="57.47" height="48.51"/><rect class="cls-1" x="181.07" y="286.56" width="53.07" height="53.63"/><rect class="cls-1" x="181.07" y="355.86" width="53.07" height="48.51"/><rect class="cls-1" x="181.07" y="420.04" width="53.07" height="53.63"/><rect class="cls-1" x="107.92" y="286.56" width="57.47" height="53.63"/><rect class="cls-1" x="107.92" y="420.04" width="57.47" height="53.63"/><rect class="cls-1" x="39.18" y="420.04" width="53.07" height="53.63"/><rect class="cls-1" x="39.18" y="286.56" width="53.07" height="53.63"/><rect class="cls-1" x="39.18" y="355.86" width="53.07" height="48.51"/><path class="cls-6" d="M420.35,298.65H399.46a7.84,7.84,0,1,1,0-15.67h20.89a7.84,7.84,0,1,1,0,15.67Zm0,0" transform="translate(-50 -140)"/><path class="cls-6" d="M530.05,298.65H447.52a7.84,7.84,0,1,1,0-15.67h82.53a7.84,7.84,0,0,1,0,15.67Zm0,0" transform="translate(-50 -140)"/><path class="cls-6" d="M420.35,475.2H399.46a7.84,7.84,0,1,1,0-15.67h20.89a7.84,7.84,0,1,1,0,15.67Zm0,0" transform="translate(-50 -140)"/><path class="cls-6" d="M530.05,475.2H447.52a7.84,7.84,0,1,1,0-15.67h82.53a7.84,7.84,0,0,1,0,15.67Zm0,0" transform="translate(-50 -140)"/><path class="cls-6" d="M420.35,431.07H399.46a7.84,7.84,0,0,1,0-15.68h20.89a7.84,7.84,0,0,1,0,15.68Zm0,0" transform="translate(-50 -140)"/><path class="cls-6" d="M530.05,431.07H447.52a7.84,7.84,0,0,1,0-15.68h82.53a7.84,7.84,0,0,1,0,15.68Zm0,0" transform="translate(-50 -140)"/><path class="cls-6" d="M420.35,386.93H399.46a7.84,7.84,0,1,1,0-15.68h20.89a7.84,7.84,0,0,1,0,15.68Zm0,0" transform="translate(-50 -140)"/><path class="cls-6" d="M530.05,386.93H447.52a7.84,7.84,0,1,1,0-15.68h82.53a7.84,7.84,0,0,1,0,15.68Zm0,0" transform="translate(-50 -140)"/><path class="cls-6" d="M420.35,342.79H399.46a7.84,7.84,0,1,1,0-15.67h20.89a7.84,7.84,0,1,1,0,15.67Zm0,0" transform="translate(-50 -140)"/><path class="cls-6" d="M530.05,342.79H447.52a7.84,7.84,0,1,1,0-15.67h82.53a7.84,7.84,0,0,1,0,15.67Zm0,0" transform="translate(-50 -140)"/><path class="cls-6" d="M290.81,184.37h-20.9a7.84,7.84,0,0,1,0-15.67h20.9a7.84,7.84,0,1,1,0,15.67Zm0,0" transform="translate(-50 -140)"/><path class="cls-6" d="M400.5,184.37H318a7.84,7.84,0,0,1,0-15.67H400.5a7.84,7.84,0,1,1,0,15.67Zm0,0" transform="translate(-50 -140)"/><path class="cls-6" d="M290.81,228.51h-20.9a7.84,7.84,0,0,1,0-15.67h20.9a7.84,7.84,0,1,1,0,15.67Zm0,0" transform="translate(-50 -140)"/><path class="cls-6" d="M400.5,228.51H318a7.84,7.84,0,0,1,0-15.67H400.5a7.84,7.84,0,1,1,0,15.67Zm0,0" transform="translate(-50 -140)"/><path class="cls-6" d="M473.47,539.31V520a22.35,22.35,0,0,1,7.14,2.48,9,9,0,0,0,4,1.37c4.25,0,6.09-5.2,6.09-7.85,0-5.67-8.86-8.29-17.25-8.87V506a5.38,5.38,0,0,0-10.75,0v1.51c-12.82,2.15-20.16,10-20.16,21.51,0,14.17,11.6,18.63,20.16,21.85v21.66c-4.72-.89-7.8-3.28-10.27-5.21-2-1.56-3.62-2.8-5.45-2.8-3.67,0-6.43,4.83-6.43,8,0,5.92,9.09,13,22.15,13.82v.54A5.3,5.3,0,0,0,464.8,591a4.53,4.53,0,0,0,3.11,1.16h.19a5.38,5.38,0,0,0,5.37-5.38v-1.14c12.23-2.61,19.23-11.07,19.23-23.23,0-13.77-9.22-19.27-19.23-23.14Zm5.29,24.57a8.14,8.14,0,0,1-5.29,7.92V555.42c3.66,2.16,5.29,4.78,5.29,8.46Zm-16-43.22v14.56c-3.27-1.51-6.22-3.51-6.22-7.65,0-3.32,2.15-5.71,6.22-6.91Zm0,0" transform="translate(-50 -140)"/><path class="cls-6" d="M267.31,368.64H250.59a7.84,7.84,0,1,1,0-15.67h16.72a7.84,7.84,0,0,1,0,15.67Zm0,0" transform="translate(-50 -140)"/></svg>