<svg id="Camada_1" data-name="Camada 1" xmlns="http://www.w3.org/2000/svg" xmlns:xlink="http://www.w3.org/1999/xlink" viewBox="0 0 512 474.44"><defs><style>.cls-1{fill:none;}.cls-2{fill:#c4e2f2;}.cls-3{fill:#83b2c6;}.cls-4{fill:#e6e6e6;}.cls-5{fill:#2c92bf;}.cls-6{fill:#ffdcb6;}.cls-7{fill:#edc59d;}.cls-8{fill:#ff491f;}.cls-9{fill:#2d303b;}.cls-10{clip-path:url(#clip-path);}.cls-11{fill:#3c3f4d;}.cls-12{fill:#ed3618;}.cls-13{fill:#ffe14d;}.cls-14{fill:#32cc77;}</style><clipPath id="clip-path" transform="translate(-50 -159)"><rect class="cls-1" x="50" y="159" width="512" height="475"/></clipPath></defs><path class="cls-2" d="M316.07,469.24V605.8a27.63,27.63,0,0,1-27.64,27.64H77.67A27.63,27.63,0,0,1,50,605.8V469.24a27.63,27.63,0,0,1,27.64-27.63H288.43a27.63,27.63,0,0,1,27.64,27.63Zm0,0" transform="translate(-50 -159)"/><path class="cls-3" d="M316.07,469.24v33H50v-33a27.63,27.63,0,0,1,27.64-27.63H288.43a27.63,27.63,0,0,1,27.64,27.63Zm0,0" transform="translate(-50 -159)"/><path class="cls-4" d="M86.63,481.86A7.84,7.84,0,0,1,81.56,468c5.38-4.54,13.88.11,12.83,7.13a7.91,7.91,0,0,1-7.76,6.69Zm0,0" transform="translate(-50 -159)"/><path class="cls-4" d="M140,481.86c-7.06,0-10.48-9-5.21-13.7s14-.07,13,7a7.92,7.92,0,0,1-7.76,6.7Zm0,0" transform="translate(-50 -159)"/><path class="cls-4" d="M113.3,481.86a7.84,7.84,0,0,1-4.61-14.18c5.79-4.13,14,1.23,12.21,8.25a7.91,7.91,0,0,1-7.6,5.93Zm0,0" transform="translate(-50 -159)"/><path class="cls-5" d="M507.42,570.34H483.19a7.85,7.85,0,0,1,0-15.69h24.23a5.72,5.72,0,0,0,5.72-5.71V536.63a7.84,7.84,0,0,1,15.68,0v12.31a21.42,21.42,0,0,1-21.4,21.4Zm0,0" transform="translate(-50 -159)"/><path class="cls-5" d="M528.82,461.34H513.13V352.58c0-2.44-.07-4.9-.21-7.29l15.66-.92c.16,2.7.24,5.46.24,8.21Zm0,0" transform="translate(-50 -159)"/><path class="cls-5" d="M270.93,454.6H255.25V389.13c0-75.42,61.35-136.79,136.78-136.79a136.57,136.57,0,0,1,70,19.25l.43.28,25.78,17.79-8.91,12.91-25.56-17.64a121.12,121.12,0,0,0-182.83,104.2Zm0,0" transform="translate(-50 -159)"/><path class="cls-6" d="M491.29,361V499.23a99.26,99.26,0,1,1-198.52,0V400" transform="translate(-50 -159)"/><path class="cls-7" d="M391.33,598.49a99.24,99.24,0,0,1-98.56-99.26V400h44.69v99.26c0,27.42,6.1,52.23,16,70.2,9.72,17.68,23.1,28.72,37.89,29.06Zm0,0" transform="translate(-50 -159)"/><path class="cls-8" d="M392,551.93a41,41,0,0,1-29.11-12A7.85,7.85,0,1,1,374,528.8a25.51,25.51,0,0,0,36,0,7.85,7.85,0,1,1,11.09,11.1,41,41,0,0,1-29.11,12Zm0,0" transform="translate(-50 -159)"/><path class="cls-9" d="M436,490.79a7.84,7.84,0,0,1-7.84-7.84V460.52a7.84,7.84,0,1,1,15.68,0V483a7.84,7.84,0,0,1-7.84,7.84Zm0,0" transform="translate(-50 -159)"/><g class="cls-10"><path class="cls-9" d="M348.08,490.79a7.84,7.84,0,0,1-7.84-7.84V460.52a7.84,7.84,0,0,1,15.68,0V483a7.84,7.84,0,0,1-7.84,7.84Zm0,0" transform="translate(-50 -159)"/><path class="cls-11" d="M533.34,272.2A28.75,28.75,0,0,0,504.5,301,28.76,28.76,0,0,0,447,301H355.75a63,63,0,0,0-63,63v79.73c36.62.78,30.75-43.69,30.75-43.69H463a99,99,0,0,0,99-98c.16-16-12.69-29.7-28.66-29.75Zm0,0" transform="translate(-50 -159)"/></g><path class="cls-9" d="M482.6,273.15A28.77,28.77,0,0,0,446.5,301h14.7a28.77,28.77,0,0,1,21.4-27.8Zm0,0" transform="translate(-50 -159)"/><path class="cls-9" d="M540.6,273.15A28.77,28.77,0,0,0,504.5,301h14.7a28.77,28.77,0,0,1,21.4-27.8Zm0,0" transform="translate(-50 -159)"/><path class="cls-9" d="M355.74,301H381a63,63,0,0,0-63,63v67.3c-4.43,7.19-12.1,12.71-25.2,12.43V363.93a63,63,0,0,1,63-63Zm0,0" transform="translate(-50 -159)"/><path class="cls-12" d="M292.77,454.6V516a20.6,20.6,0,0,1-15,19.83,20.29,20.29,0,0,1-5.59.78h-8A20.61,20.61,0,0,1,243.53,516V454.6A20.62,20.62,0,0,1,264.14,434h8a20.29,20.29,0,0,1,5.59.78,20.6,20.6,0,0,1,15,19.84Zm0,0" transform="translate(-50 -159)"/><path class="cls-8" d="M292.77,454.6V516a20.6,20.6,0,0,1-15,19.83,20.6,20.6,0,0,1-15-19.83V454.6a20.6,20.6,0,0,1,15-19.84,20.6,20.6,0,0,1,15,19.84Zm0,0" transform="translate(-50 -159)"/><path class="cls-12" d="M540.53,454.6V516a20.6,20.6,0,0,1-15,19.83,20.24,20.24,0,0,1-5.59.78h-8A20.62,20.62,0,0,1,491.29,516V454.6A20.62,20.62,0,0,1,511.91,434h8a20.24,20.24,0,0,1,5.59.78,20.6,20.6,0,0,1,15,19.84Zm0,0" transform="translate(-50 -159)"/><path class="cls-8" d="M540.53,454.6V516a20.6,20.6,0,0,1-15,19.83,20.6,20.6,0,0,1-15-19.83V454.6a20.6,20.6,0,0,1,15-19.84,20.6,20.6,0,0,1,15,19.84Zm0,0" transform="translate(-50 -159)"/><path class="cls-11" d="M459.82,545h5.85a17.53,17.53,0,0,1,0,35h-5.85a17.53,17.53,0,0,1,0-35Zm0,0" transform="translate(-50 -159)"/><path class="cls-13" d="M75.51,159H227.35a25.52,25.52,0,0,1,25.52,25.51V304.22a25.52,25.52,0,0,1-25.52,25.51H212.42V388.3l-58.56-58.57H75.51A25.51,25.51,0,0,1,50,304.22V184.51A25.51,25.51,0,0,1,75.51,159Zm0,0" transform="translate(-50 -159)"/><path class="cls-8" d="M97.06,542.54H78.23a7.85,7.85,0,0,1,0-15.69H97.06a7.85,7.85,0,0,1,0,15.69Zm0,0" transform="translate(-50 -159)"/><path class="cls-11" d="M193.26,542.54h-71.1a7.85,7.85,0,1,1,0-15.69h71.1a7.85,7.85,0,0,1,0,15.69Zm0,0" transform="translate(-50 -159)"/><path class="cls-13" d="M97.06,574.43H78.23a7.85,7.85,0,0,1,0-15.69H97.06a7.85,7.85,0,0,1,0,15.69Zm0,0" transform="translate(-50 -159)"/><path class="cls-11" d="M193.26,574.43h-71.1a7.85,7.85,0,1,1,0-15.69h71.1a7.85,7.85,0,0,1,0,15.69Zm0,0" transform="translate(-50 -159)"/><path class="cls-13" d="M97.06,606.32H78.23a7.84,7.84,0,1,1,0-15.68H97.06a7.84,7.84,0,0,1,0,15.68Zm0,0" transform="translate(-50 -159)"/><path class="cls-11" d="M193.26,606.32h-71.1a7.84,7.84,0,1,1,0-15.68h71.1a7.84,7.84,0,0,1,0,15.68Zm0,0" transform="translate(-50 -159)"/><path class="cls-14" d="M159.51,236.9v-23a26.59,26.59,0,0,1,8.54,3c1.79.91,3.2,1.62,4.77,1.62,5,0,7.19-6.15,7.19-9.29,0-6.71-10.55-9.8-20.5-10.48v-1.44a6.35,6.35,0,0,0-12.69,0v1.84c-15.23,2.54-24,11.82-24,25.52,0,16.82,13.8,22.11,24,25.93v25.84c-5.65-1.06-9.32-3.91-12.29-6.21-2.39-1.86-4.28-3.33-6.44-3.33-4.32,0-7.58,5.72-7.58,9.42,0,7,10.79,15.43,26.31,16.38v.68a6.28,6.28,0,0,0,2.46,5,5.33,5.33,0,0,0,3.66,1.36h.23a6.35,6.35,0,0,0,6.34-6.34v-1.39c14.52-3.09,22.85-13.13,22.85-27.57,0-16.35-11-22.88-22.85-27.46Zm6.38,29.16a9.72,9.72,0,0,1-6.38,9.48V255.92c4.4,2.58,6.38,5.73,6.38,10.14Zm-19.07-51.43v17.44c-3.93-1.79-7.48-4.19-7.48-9.17,0-4,2.59-6.84,7.48-8.27Zm0,0" transform="translate(-50 -159)"/><path class="cls-11" d="M536.26,177.58H345.94a7.85,7.85,0,0,1,0-15.69H536.26a7.85,7.85,0,0,1,0,15.69Zm0,0" transform="translate(-50 -159)"/><path class="cls-9" d="M536.26,209.36H396.13a7.84,7.84,0,1,1,0-15.68H536.26a7.84,7.84,0,1,1,0,15.68Zm0,0" transform="translate(-50 -159)"/></svg>