<svg id="Camada_1" data-name="Camada 1" xmlns="http://www.w3.org/2000/svg" viewBox="0 0 512 479.14"><defs><style>.cls-1{fill:#c4e2f2;}.cls-2{fill:#83b2c6;}.cls-3{fill:#e5e5e5;}.cls-4{fill:#ff491f;}.cls-5{fill:#ed3618;}.cls-6{fill:#2c92bf;}.cls-7{fill:#ff8e1d;}.cls-8{fill:#32cc77;}</style></defs><path class="cls-1" d="M562,183.64V529a27.64,27.64,0,0,1-27.65,27.64H147.2A27.63,27.63,0,0,1,119.56,529V183.64A27.63,27.63,0,0,1,147.2,156H534.35A27.64,27.64,0,0,1,562,183.64Zm0,0" transform="translate(-50 -156)"/><rect class="cls-2" x="126.03" y="343.58" width="36.17" height="57.03"/><rect class="cls-2" x="197.68" y="280.82" width="36.16" height="119.78"/><path class="cls-2" d="M562,183.64v33H119.55v-33A27.64,27.64,0,0,1,147.2,156H534.35A27.64,27.64,0,0,1,562,183.64Zm0,0" transform="translate(-50 -156)"/><path class="cls-3" d="M156.16,196.27c-7.29,0-10.56-9.48-4.86-14s14,.71,12.55,7.68a7.92,7.92,0,0,1-7.69,6.32Zm0,0" transform="translate(-50 -156)"/><path class="cls-3" d="M209.5,196.27c-7.2,0-10.53-9.32-5-13.91a7.85,7.85,0,1,1,5,13.91Zm0,0" transform="translate(-50 -156)"/><path class="cls-3" d="M182.84,196.27a7.84,7.84,0,0,1-4.74-14.1c5.75-4.36,14.15,1.15,12.34,8.18a7.94,7.94,0,0,1-7.6,5.92Zm0,0" transform="translate(-50 -156)"/><path class="cls-4" d="M466.28,385.05a125.51,125.51,0,1,1-125.51-125.5v125.5l99.08-77a124.93,124.93,0,0,1,26.43,77Zm0,0" transform="translate(-50 -156)"/><path class="cls-5" d="M283.84,436.82v60.11a125.57,125.57,0,0,1-36.16-27.7V436.82Zm0,0" transform="translate(-50 -156)"/><path class="cls-2" d="M452,249.79l-99.09,76.78V201.5A125.48,125.48,0,0,1,452,249.79Zm0,0" transform="translate(-50 -156)"/><path class="cls-6" d="M466.28,385.05a125.32,125.32,0,0,1-52,101.72L340.77,385.05,439.85,308a125,125,0,0,1,26.43,77.05Zm0,0" transform="translate(-50 -156)"/><path class="cls-7" d="M467.64,249.79l-99.08,76.78V201.5a125.45,125.45,0,0,1,99.08,48.29Zm0,0" transform="translate(-50 -156)"/><rect class="cls-8" y="244.74" width="36.17" height="234.4"/><rect class="cls-8" x="69.55" y="191.4" width="36.16" height="287.74"/><rect class="cls-8" x="141.72" y="343.58" width="36.17" height="135.56"/><rect class="cls-8" x="213.36" y="280.82" width="36.17" height="198.32"/><path class="cls-4" d="M534.86,526.5H451.71a7.84,7.84,0,1,1,0-15.68h83.15a7.84,7.84,0,1,1,0,15.68Zm0,0" transform="translate(-50 -156)"/><path class="cls-7" d="M534.86,493.3H476.81a7.85,7.85,0,0,1,0-15.69h58.05a7.85,7.85,0,1,1,0,15.69Zm0,0" transform="translate(-50 -156)"/></svg>