<svg id="Camada_1" data-name="Camada 1" xmlns="http://www.w3.org/2000/svg" xmlns:xlink="http://www.w3.org/1999/xlink" viewBox="0 0 509.21 511"><defs><style>.cls-1{fill:none;}.cls-2{fill:#1f81a3;}.cls-3{fill:#2c92bf;}.cls-4{clip-path:url(#clip-path);}.cls-5{fill:#15738c;}.cls-6{fill:#32cc77;}.cls-7{fill:#ff491f;}.cls-8{fill:#2d303b;}.cls-9{fill:#e6e6e6;}</style><clipPath id="clip-path" transform="translate(-51 -140)"><rect class="cls-1" x="50" y="141" width="511" height="511"/></clipPath></defs><path class="cls-2" d="M527.71,394.6c0,2.61-.05,5.2-.14,7.79a221.33,221.33,0,0,1-61.64,145.92q-5.39,5.63-11.18,10.88a221.46,221.46,0,0,1-106.54,53.43q-5.43,1.07-10.94,1.84a222,222,0,0,1-180.82-55.28q-5.77-5.25-11.18-10.87A221.32,221.32,0,0,1,83.64,402.39c-.11-2.59-.14-5.18-.14-7.79s0-5.21.14-7.79a221.27,221.27,0,0,1,61.63-145.9q5.39-5.62,11.18-10.89a221.36,221.36,0,0,1,117.42-55.28,225.83,225.83,0,0,1,31.73-2.24,221.71,221.71,0,0,1,31.64,2.24q5.53.78,11,1.84A221.54,221.54,0,0,1,454.77,230q5.78,5.26,11.17,10.89a221.32,221.32,0,0,1,61.63,145.9q.13,3.87.14,7.79Zm0,0" transform="translate(-51 -140)"/><path class="cls-3" d="M527.7,394.6c0,108.1-77.21,198.16-179.49,218C245.92,592.76,168.7,502.7,168.7,394.6s77.22-198.15,179.51-218c102.28,19.87,179.49,109.93,179.49,218Zm0,0" transform="translate(-51 -140)"/><g class="cls-4"><path class="cls-5" d="M527.57,402.39c.09-2.59.14-5.18.14-7.79s-.05-5.21-.14-7.79H411.63c-.54-35.33-4.77-69.85-12.23-100.69A230,230,0,0,0,465.87,241l.07-.06q-5.38-5.62-11.17-10.89a214.58,214.58,0,0,1-59.43,40.84q-3.13-10.94-6.88-21.05c-13.14-35.67-31.08-61.82-51.22-75.07a221.71,221.71,0,0,0-31.64-2.24,225.83,225.83,0,0,0-31.73,2.24c-17,11.17-32.42,31.44-44.91,59.66a290.1,290.1,0,0,0-13.14,36.44A213.8,213.8,0,0,1,156.45,230q-5.79,5.25-11.18,10.89l.06.06a229.94,229.94,0,0,0,66.42,45.14c-7.46,30.71-11.66,65-12.19,100.7H83.64c-.11,2.58-.14,5.18-.14,7.79s0,5.2.14,7.79H199.56c.53,35.71,4.73,70,12.19,100.71a230,230,0,0,0-66.42,45.15l-.06.06q5.4,5.63,11.18,10.87a214.41,214.41,0,0,1,59.37-40.81A289.53,289.53,0,0,0,229,554.81c12.49,28.22,27.86,48.47,44.89,59.64a224.08,224.08,0,0,0,63.42,0c20.13-13.26,38.06-39.4,51.19-75.06,2.49-6.73,4.79-13.76,6.88-21a214.24,214.24,0,0,1,59.41,40.83q5.79-5.27,11.18-10.88l-.06-.06a229.84,229.84,0,0,0-66.47-45.16c7.46-30.84,11.69-65.36,12.23-100.7ZM243.21,240.71c17-38.4,39.74-60.42,62.39-60.42a38.82,38.82,0,0,1,15.72,3.43c20.13,8.83,38.78,34.22,52.52,71.49,2.55,6.9,4.9,14.16,7,21.68a215.72,215.72,0,0,1-150.58,0,278.41,278.41,0,0,1,12.92-36.17ZM373.84,534c-13.74,37.26-32.39,62.65-52.52,71.49a39.12,39.12,0,0,1-15.72,3.41c-22.65,0-45.39-22-62.39-60.41a277.88,277.88,0,0,1-12.92-36.17,215.58,215.58,0,0,1,150.58,0c-2.13,7.52-4.48,14.78-7,21.69Zm11-36.85a231,231,0,0,0-158.46,0c-6.82-28.92-10.67-61.17-11.19-94.79H396c-.52,33.28-4.4,65.71-11.24,94.77ZM215.15,386.81c.52-33.61,4.37-65.86,11.19-94.78a231.19,231.19,0,0,0,158.46,0c6.84,29.06,10.72,61.49,11.24,94.76Zm0,0" transform="translate(-51 -140)"/><path class="cls-6" d="M560.21,216.19A76.2,76.2,0,1,1,484,140a76.19,76.19,0,0,1,76.19,76.19Zm0,0" transform="translate(-51 -140)"/></g><path class="cls-7" d="M317.23,450.57H85.56A34.56,34.56,0,0,0,51,485.14v131.3A34.56,34.56,0,0,0,85.56,651H317.23a34.56,34.56,0,0,0,34.57-34.56V485.14a34.57,34.57,0,0,0-34.57-34.57Zm0,0" transform="translate(-51 -140)"/><path class="cls-8" d="M245.57,495.68H51v41.93H351.8V495.68Zm0,0" transform="translate(-51 -140)"/><path class="cls-8" d="M225.13,582.31H177.67a7.8,7.8,0,1,1,0-15.59h47.46a7.8,7.8,0,0,1,0,15.59Zm0,0" transform="translate(-51 -140)"/><path class="cls-8" d="M300.72,582.31H253.26a7.8,7.8,0,0,1,0-15.59h47.46a7.8,7.8,0,1,1,0,15.59Zm0,0" transform="translate(-51 -140)"/><path class="cls-8" d="M149.53,582.31H102.07a7.8,7.8,0,0,1,0-15.59h47.46a7.8,7.8,0,0,1,0,15.59Zm0,0" transform="translate(-51 -140)"/><path class="cls-9" d="M478,263a7.8,7.8,0,0,1-6.81-4l-20.78-37.41A7.79,7.79,0,0,1,464,214l13.51,24.32L507.32,177a7.8,7.8,0,0,1,14,6.82L485,258.64a7.78,7.78,0,0,1-6.79,4.38Zm0,0" transform="translate(-51 -140)"/></svg>