<?xml version="1.0" encoding="utf-8"?>
<!-- Generator: Adobe Illustrator 23.0.3, SVG Export Plug-In . SVG Version: 6.00 Build 0)  -->
<svg version="1.1" id="Capa_1" xmlns="http://www.w3.org/2000/svg" xmlns:xlink="http://www.w3.org/1999/xlink" x="0px" y="0px"
	 viewBox="0 0 512 512" style="enable-background:new 0 0 512 512;" xml:space="preserve">
<style type="text/css">
	.st0{fill:#FFFFFF;}
</style>
<g>
	<path class="st0" d="M222.89,388h51.49c4.42,0,8-3.58,8-8V264.09h26.75c4.1,0,7.54-3.1,7.96-7.18l4.51-43.77
		c0.23-2.25-0.5-4.5-2.02-6.18c-1.52-1.68-3.67-2.64-5.94-2.64h-31.26v-17.73c0-3.66,1.16-3.94,2.93-3.94h27.68c4.42,0,8-3.58,8-8
		v-42.5c0-4.41-3.56-7.98-7.97-8L274.85,124c-26.75,0-41.03,11.77-48.29,21.64c-10.15,13.79-11.66,29.94-11.66,38.34v20.33H198.4
		c-4.42,0-8,3.58-8,8v43.77c0,4.42,3.58,8,8,8h16.49V380C214.89,384.42,218.47,388,222.89,388z M206.4,248.09v-27.77h16.49
		c4.42,0,8-3.58,8-8v-28.33c0-5.18,0.83-18.38,8.55-28.86c7.39-10.04,19.3-15.13,35.38-15.13l30.18,0.12v26.53h-19.68
		c-9.42,0-18.93,6.16-18.93,19.94v25.73c0,4.42,3.58,8,8,8h30.39l-2.86,27.77h-27.53c-4.42,0-8,3.58-8,8V372h-35.49V256.09
		c0-4.42-3.58-8-8-8L206.4,248.09L206.4,248.09z"/>
	<path class="st0" d="M437.02,74.98C388.67,26.63,324.38,0,256,0C187.62,0,123.34,26.63,74.98,74.98S0,187.62,0,256
		c0,68.39,26.63,132.68,74.98,181.03C123.33,485.38,187.62,512,256,512c68.39,0,132.67-26.62,181.02-74.97
		C485.37,388.68,512,324.39,512,256C512,187.62,485.37,123.34,437.02,74.98z M425.71,425.71C380.38,471.04,320.11,496,256,496
		c-64.11,0-124.37-24.96-169.7-70.29C40.97,380.39,16,320.11,16,256c0-64.1,24.97-124.37,70.3-169.7C131.63,40.97,191.9,16,256,16
		c64.11,0,124.38,24.97,169.71,70.3C471.04,131.63,496,191.9,496,256C496,320.11,471.04,380.39,425.71,425.71z"/>
	<path class="st0" d="M430.04,114.97c-2.78-3.43-7.82-3.96-11.25-1.17c-3.43,2.78-3.96,7.82-1.17,11.25
		C447.53,161.92,464,208.43,464,256c0,55.57-21.64,107.8-60.92,147.09C363.8,442.37,311.56,464,256,464
		c-51.26,0-100.51-18.81-138.66-52.96c-3.29-2.95-8.35-2.67-11.3,0.63s-2.67,8.35,0.63,11.3C147.76,459.74,200.8,480,256,480
		c59.84,0,116.09-23.3,158.39-65.6C456.7,372.09,480,315.84,480,256C480,204.77,462.26,154.68,430.04,114.97z"/>
	<path class="st0" d="M48,256c0-114.69,93.31-208,208-208c51.26,0,100.5,18.81,138.66,52.96c3.29,2.95,8.35,2.67,11.3-0.62
		c2.95-3.29,2.67-8.35-0.62-11.3C364.24,52.26,311.2,32,256,32c-59.83,0-116.08,23.3-158.39,65.61C55.3,139.92,32,196.17,32,256
		c0,51.24,17.74,101.33,49.96,141.04c1.58,1.95,3.89,2.96,6.22,2.96c1.77,0,3.55-0.58,5.04-1.79c3.43-2.78,3.96-7.82,1.17-11.25
		C64.47,350.09,48,303.58,48,256z"/>
</g>
</svg>
