<?xml version="1.0" encoding="utf-8"?>
<!-- Generator: Adobe Illustrator 23.0.3, SVG Export Plug-In . SVG Version: 6.00 Build 0)  -->
<svg version="1.1" id="Layer_1" xmlns="http://www.w3.org/2000/svg" xmlns:xlink="http://www.w3.org/1999/xlink" x="0px" y="0px"
	 viewBox="0 0 507 507" style="enable-background:new 0 0 507 507;" xml:space="preserve">
<style type="text/css">
	.st0{fill:#FFFFFF;}
</style>
<g transform="translate(2 1)">
	<g>
		<g>
			<path class="st0" d="M252.3-1C113.8-1,1.4,111.5,1.4,249.1c0,43.6,11.8,85.6,33.6,124.2L-2,506l135.1-36.1
				c39.4,21,80.6,32.7,119.2,32.7c136.8,0,252.6-115.8,252.6-253.5S391.7-1,252.3-1z M252.3,485.8c-36.9,0-76.4-11.8-114.2-32.7
				l-3.4-1.7L21.5,482.5l31.1-111.6l-1.7-3.4c-21-36.1-32.7-77.2-32.7-118.3c0-128.4,104.9-233.3,234.2-233.3
				c130.1,0,235.9,104.9,235.9,233.3S379.9,485.8,252.3,485.8z"/>
			<path class="st0" d="M252.3,41c-115,0-209,93.2-209,208.2c0,41.1,11.8,79.7,32.7,114.2l3.4,4.2l-22.7,79.7l82.3-21l4.2,2.5
				c34.4,21,72.2,31.9,109.1,31.9c115.8,0,210.7-94.8,210.7-211.5C463,134.1,368.2,41,252.3,41z M251.5,444.7
				c-33.6,0-68-10.9-99.9-30.2l-10.1-6.7l-61.3,15.1L97,364.1l-6.7-10.9c-20.1-31.1-30.2-67.1-30.2-104.1
				c0-104.9,86.5-191.4,192.2-191.4c106.6,0,193.9,86.5,193.9,191.4C446.2,356.6,358.9,443.9,251.5,444.7z"/>
			<path class="st0" d="M378.2,295.3l-52.9-24.3c-7.6-3.4-15.1-0.8-20.1,5l-20.1,26c-15.1-5.9-57.1-24.3-81.4-69.7l18.5-21.8
				c4.2-5,5-11.8,2.5-17.6L202,139.2c-2.5-5.9-7.6-10.1-14.3-10.1l-15.9-0.8c-6.7,0-14.3,1.7-19.3,6.7c-7.6,6.7-21.8,21-26,40.3
				c-5.9,27.7,3.4,60.4,26.9,92.3c14.3,20.1,57.9,79.7,141.8,103.2c8.4,2.5,16.8,3.4,24.3,3.4c14.3,0,27.7-4.2,39.4-10.9
				c13.4-8.4,22.7-22.7,26-37.8l2.5-11.8C389.1,306.2,384.9,298.6,378.2,295.3z M367.3,321.3c-2.5,10.9-9.2,21-18.5,26.9
				c-14.3,9.2-31.1,10.9-49.5,5.9c-78.1-21.8-119.2-78.1-132.6-96.5c-20.1-27.7-28.5-56.2-23.5-78.9c3.4-15.1,14.3-26,21-31.9
				c1.7-1.7,4.2-2.5,6.7-2.5l16.8,1.7l22.7,52.9l-20.1,22.7c-3.4,4.2-4.2,10.9-1.7,15.9c27.7,53.7,78.1,74.7,93.2,79.7
				c5.9,1.7,11.8,0,15.9-5l20.1-26.9l52.9,24.3L367.3,321.3z"/>
		</g>
	</g>
</g>
</svg>
