<svg height="495pt" viewBox="-39 0 495 495.648" width="495pt" xmlns="http://www.w3.org/2000/svg"><path d="m216.324219 112h-112c-4.417969 0-8-3.585938-8-8v-32c0-4.414062 3.582031-8 8-8h112c4.414062 0 8 3.585938 8 8v32c0 4.414062-3.585938 8-8 8zm0 0" fill="#f0bc5e"/><path d="m64.324219 136h88v16h-88zm0 0"/><path d="m168.324219 136h88v16h-88zm0 0"/><path d="m64.324219 200h88v16h-88zm0 0"/><path d="m168.324219 200h88v16h-88zm0 0"/><path d="m288.324219 240v-168h-8c-17.648438 0-32-14.351562-32-32v-8h-176v8c0 17.648438-14.351563 32-32 32h-8v272h8c17.648437 0 32 14.351562 32 32v8h160v-16h-144.664063c-3.382812-20.070312-19.265625-35.953125-39.335937-39.335938v-241.328124c20.070312-3.382813 35.953125-19.265626 39.335937-39.335938h145.328125c3.382813 20.070312 19.265625 35.953125 39.335938 39.335938v152.664062zm0 0"/><path d="m378.292969 397.398438-15.328125 4.59375 16.375 54.566406-20.59375-10.292969-18.085938 18.085937-11.039062-44.136718-15.511719 3.882812 17.878906 71.550782 29.910157-29.914063 43.410156 21.707031zm0 0"/><path d="m283.988281 464.351562-18.089843-18.085937-20.589844 10.292969 16.375-54.566406-15.328125-4.59375-.785157 2.601562h-189.964843c-3.386719-20.054688-19.226563-35.886719-39.28125-39.28125v-305.4375c20.054687-3.386719 35.886719-19.226562 39.28125-39.28125h209.4375c3.386719 20.054688 19.226562 35.886719 39.28125 39.28125v176.71875h16v-232h-320v416h240.449219l-21.433594 71.441406 43.40625-21.707031 29.914062 29.914063 17.878906-71.550782-15.511718-3.875zm20.335938-448.351562v22.863281c-11.191407-2.902343-19.960938-11.671875-22.863281-22.863281zm-288 0h22.863281c-2.902344 11.191406-11.671875 19.960938-22.863281 22.863281zm0 384v-22.863281c11.191406 2.910156 19.960937 11.671875 22.863281 22.863281zm0 0"/><path d="m64.324219 232h88v16h-88zm0 0"/><path d="m168.324219 232h88v16h-88zm0 0"/><path d="m64.324219 168h192v16h-192zm0 0"/><path d="m64.324219 264h173.253906v16h-173.253906zm0 0"/><path d="m312.324219 432c-9.625 0-18.542969-3.984375-24.945313-10.910156-9 2.820312-18.71875 1.78125-27.054687-3.019532-8.335938-4.8125-14.070313-12.726562-16.152344-21.917968-9.191406-2.082032-17.113281-7.816406-21.917969-16.152344-4.808594-8.335938-5.832031-18.0625-3.019531-27.054688-6.925781-6.402343-10.910156-15.320312-10.910156-24.945312s3.984375-18.542969 10.910156-24.945312c-2.8125-8.992188-1.796875-18.71875 3.019531-27.054688 4.8125-8.335938 12.726563-14.070312 21.917969-16.152344 2.082031-9.191406 7.816406-17.113281 16.152344-21.917968 8.328125-4.808594 18.046875-5.832032 27.054687-3.019532 6.402344-6.925781 15.320313-10.910156 24.945313-10.910156s18.542969 3.984375 24.945312 10.910156c8.992188-2.832031 18.710938-1.789062 27.054688 3.019532 8.335937 4.8125 14.070312 12.726562 16.152343 21.917968 9.191407 2.082032 17.113282 7.816406 21.917969 16.152344 4.808594 8.335938 5.832031 18.0625 3.015625 27.054688 6.929688 6.402343 10.914063 15.320312 10.914063 24.945312s-3.984375 18.542969-10.914063 24.945312c2.816406 8.992188 1.800782 18.71875-3.015625 27.054688-4.816406 8.335938-12.726562 14.070312-21.917969 16.152344-2.082031 9.191406-7.816406 17.113281-16.152343 21.917968-8.34375 4.808594-18.0625 5.816407-27.054688 3.019532-6.402343 6.925781-15.320312 10.910156-24.945312 10.910156zm0 0" fill="#f0bc5e"/><path d="m312.324219 400c-39.703125 0-72-32.296875-72-72s32.296875-72 72-72 72 32.296875 72 72-32.296875 72-72 72zm0-128c-30.871094 0-56 25.128906-56 56s25.128906 56 56 56c30.871093 0 56-25.128906 56-56s-25.128907-56-56-56zm0 0"/><path d="m312.324219 371.3125-32.6875-32.6875c-4.648438-4.648438-7.3125-11.082031-7.3125-17.65625 0-13.769531 11.199219-24.96875 24.96875-24.96875 5.414062 0 10.726562 1.808594 15.03125 5.03125 4.304687-3.222656 9.617187-5.03125 15.03125-5.03125 13.769531 0 24.96875 11.199219 24.96875 24.96875 0 6.574219-2.664063 13.007812-7.3125 17.65625zm-15.03125-59.3125c-4.945313 0-8.96875 4.023438-8.96875 8.96875 0 2.359375.953125 4.671875 2.625 6.34375l21.375 21.375 21.375-21.375c1.671875-1.671875 2.625-3.984375 2.625-6.34375 0-4.945312-4.023438-8.96875-8.96875-8.96875-2.359375 0-4.671875.953125-6.34375 2.625l-8.6875 8.6875-8.6875-8.6875c-1.671875-1.671875-3.984375-2.625-6.34375-2.625zm0 0"/></svg>