<svg id="Layer_3" enable-background="new 0 0 64 64" height="512" viewBox="0 0 64 64" width="512" xmlns="http://www.w3.org/2000/svg"><g><g><path d="m33 56h-26v-44h10v-10h28v54" fill="#c7e2fc"/></g><g><path d="m57 47v15h-24v-18h9l3 3z" fill="#c16b3f"/></g><g><path d="m33 62 4-11h20v11" fill="#e39854"/></g><g><path d="m17 12h-10v36.988c.167.002.332.012.5.012 17.949 0 32.5-13.879 32.5-31 0-5.855-1.703-11.329-4.66-16h-18.34z" fill="#ebf7fe"/></g><g><path d="m7 12h10v-10" fill="#8892a0"/></g><g><path d="m57 63h-24c-.552 0-1-.448-1-1v-18c0-.552.448-1 1-1h9c.265 0 .52.105.707.293l2.707 2.707h11.586c.552 0 1 .448 1 1v15c0 .552-.448 1-1 1zm-23-2h22v-13h-11c-.265 0-.52-.105-.707-.293l-2.707-2.707h-7.586z"/></g><g><path d="m33.94 62.342-1.88-.684 4-11c.144-.395.52-.658.94-.658h20v2h-19.3z"/></g><g><path d="m33 57h-26c-.552 0-1-.448-1-1v-44c0-.552.448-1 1-1h9v-9c0-.552.448-1 1-1h28c.552 0 1 .448 1 1v41h-2v-40h-26v9c0 .552-.448 1-1 1h-9v42h25z"/></g><g><path d="m4.929 6h14.142v2h-14.142z" transform="matrix(.707 -.707 .707 .707 -1.435 10.536)"/></g><g><path d="m10 15h2v2h-2z"/></g><g><path d="m14 15h2v2h-2z"/></g><g><path d="m18 15h24v2h-24z"/></g><g><path d="m40 19h2v2h-2z"/></g><g><path d="m36 19h2v2h-2z"/></g><g><path d="m10 19h24v2h-24z"/></g><g><path d="m10 23h2v2h-2z"/></g><g><path d="m14 23h2v2h-2z"/></g><g><path d="m18 23h24v2h-24z"/></g><g><path d="m40 27h2v2h-2z"/></g><g><path d="m36 27h2v2h-2z"/></g><g><path d="m10 27h24v2h-24z"/></g><g><path d="m10 31h2v2h-2z"/></g><g><path d="m14 31h2v2h-2z"/></g><g><path d="m18 31h24v2h-24z"/></g><g><path d="m40 35h2v2h-2z"/></g><g><path d="m36 35h2v2h-2z"/></g><g><path d="m10 35h24v2h-24z"/></g><g><path d="m48 11h2v36h-2z"/></g><g><path d="m14 59h19v2h-19z"/></g></g></svg>