<?xml version="1.0" encoding="utf-8"?>
<!-- Generator: Adobe Illustrator 23.0.3, SVG Export Plug-In . SVG Version: 6.00 Build 0)  -->
<svg version="1.1" id="Camada_1" xmlns="http://www.w3.org/2000/svg" xmlns:xlink="http://www.w3.org/1999/xlink" x="0px" y="0px"
	 viewBox="0 0 600 600" style="enable-background:new 0 0 600 600;" xml:space="preserve">
<style type="text/css">
	.st0{fill:#EADDC1;}
	.st1{fill:#CBBCA0;}
	.st2{fill:#AD947D;}
	.st3{fill:#211A21;}
	.st4{fill:#564C54;}
	.st5{fill:#FFFFFF;}
	.st6{fill:#CE6F5B;}
	.st7{fill:#C5452B;}
	.st8{fill:#F1F0F0;}
	.st9{fill:#E2AC34;}
	.st10{fill:#CA801A;}
	.st11{fill:#4C61A4;}
	.st12{fill:#94511D;}
	.st13{fill:#3E4691;}
	.st14{opacity:0.5;}
	.st15{fill:#69371A;}
	.st16{opacity:0.8;}
</style>
<g>
	<g>
		<ellipse class="st0" cx="291.05" cy="551.45" rx="291.05" ry="13.21"/>
	</g>
	<g>
		<g>
			<g>
				<g>
					<g>
						<g>
							<g>
								<path class="st1" d="M188.51,338.97c17.93-17.31,54.52,15.46,75.78,37.82c9.78,10.27,16.32,18.34,16.32,18.34
									c3.27,3.13,6.06,5.97,8.44,8.55c1.29,1.4,2.43,2.7,3.45,3.93l-29.99,11.87c-9.36-5.59-19.47-11.75-26.06-16.13
									C208.39,384.69,171.57,355.33,188.51,338.97z"/>
							</g>
						</g>
					</g>
				</g>
				<g>
					<g>
						<g>
							<g>
								<path class="st2" d="M217.12,361.33c0.5-0.63,1.4-0.74,2.02-0.25c1.95,1.53,40.78,31.91,61.87,51.08l-2.99,1.19
									c-21.49-19.36-60.18-49.63-60.65-50C216.74,362.86,216.63,361.95,217.12,361.33z"/>
							</g>
						</g>
					</g>
				</g>
			</g>
			<g>
				<g>
					<g>
						<g>
							<g>
								<path class="st0" d="M270.9,359.09c1.68,4.21,3.05,7.95,4.14,11.27c0.84,2.56,1.5,4.83,1.99,6.84l-23.72,9.39
									c-7.55-10.72-19.64-28.07-26.02-38.3c-17.82-28.6-39.19-70.57-17-78.45c23.48-8.34,43.23,36.64,53.34,65.79
									C268.29,349.03,270.9,359.09,270.9,359.09z"/>
							</g>
						</g>
					</g>
				</g>
				<g>
					<g>
						<g>
							<g>
								<path class="st1" d="M264.22,382.28c-9.79-24.63-37.44-77.72-37.74-78.3c-0.37-0.71-0.09-1.58,0.61-1.94
									c0.72-0.37,1.58-0.09,1.94,0.61c1.25,2.39,28.1,53.95,37.87,78.57L264.22,382.28z"/>
							</g>
						</g>
					</g>
				</g>
			</g>
		</g>
		<g>
			<g>
				<g>
					<g>
						<g>
							<path class="st1" d="M506.01,283.1c0,0,105.92-33.79,92.87-73.59C584.5,165.62,525.23,231.94,506.01,283.1z"/>
						</g>
					</g>
				</g>
				<g>
					<g>
						<g>
							<g>
								<g>
									<path class="st2" d="M495.46,293.42c23.88-27.42,62.87-59.83,63.36-60.24c0.38-0.31,0.93-0.26,1.24,0.12
										c0.31,0.37,0.26,0.93-0.12,1.24c-0.49,0.4-39.75,33.04-63.45,60.36L495.46,293.42z"/>
								</g>
							</g>
						</g>
					</g>
				</g>
			</g>
			<g>
				<g>
					<g>
						<g>
							<path class="st0" d="M515.96,251.85c0,0-3.07-129.78,49.14-117.58C604.99,143.59,569.03,216.79,515.96,251.85z"/>
						</g>
					</g>
				</g>
				<g>
					<g>
						<g>
							<g>
								<g>
									<path class="st1" d="M494.57,298.58c20.22-45.24,53.69-118.6,54.09-119.48c0.2-0.44,0.72-0.64,1.17-0.44
										c0.44,0.2,0.64,0.72,0.44,1.17c-0.4,0.88-34.35,75.29-54.52,120.43L494.57,298.58z"/>
								</g>
							</g>
						</g>
					</g>
				</g>
			</g>
		</g>
		<g>
			<g>
				<g>
					<g>
						<g>
							<path class="st1" d="M485.85,491.48c21.94-30.62,42.55-66.22,53.94-89.91c14.88-30.95,20.37-55.51,16.32-73
								c-0.27-1.16-1.43-1.88-2.59-1.61c-1.16,0.27-1.88,1.43-1.61,2.58c7.08,30.57-17.54,88.28-71.41,161.87L485.85,491.48z"/>
						</g>
					</g>
				</g>
			</g>
			<g>
				<g>
					<g>
						<path class="st0" d="M550.75,372.87c0,0,15.32,9.46,30.91-18.13C581.66,354.74,554.09,346.91,550.75,372.87z"/>
					</g>
				</g>
			</g>
			<g>
				<g>
					<g>
						<path class="st0" d="M543.45,387.51c0,0,10.3-14.77-16.38-31.87C527.07,355.64,517.72,382.73,543.45,387.51z"/>
					</g>
				</g>
			</g>
			<g>
				<g>
					<g>
						<path class="st0" d="M555.14,342.51c0,0,14.64-10.49-4.82-35.51C550.32,307,532.47,329.42,555.14,342.51z"/>
					</g>
				</g>
			</g>
			<g>
				<g>
					<g>
						<path class="st0" d="M529.68,417.42c0,0,11.22,14.09,35.22-6.61C564.89,410.81,541.61,394.12,529.68,417.42z"/>
					</g>
				</g>
			</g>
			<g>
				<g>
					<g>
						<path class="st0" d="M519.99,431.21c0,0,12.7-12.77-10.62-34.22C509.36,396.99,495.47,422.04,519.99,431.21z"/>
					</g>
				</g>
			</g>
			<g>
				<g>
					<g>
						<path class="st0" d="M508.59,451.4c0,0,10.95,14.3,35.34-5.94C543.93,445.47,520.96,428.33,508.59,451.4z"/>
					</g>
				</g>
			</g>
			<g>
				<g>
					<g>
						<path class="st0" d="M499.78,466.99c0,0-17.78-2.85-11.55-33.92C488.23,433.07,514.21,445.16,499.78,466.99z"/>
					</g>
				</g>
			</g>
		</g>
	</g>
	<g>
		<g>
			<g>
				<path class="st3" d="M521.4,82.21v447.67c0,14.03-11.37,25.41-25.41,25.41H273.06c-7.05,0-13.43-2.87-18.03-7.5
					c-4.56-4.6-7.38-10.92-7.38-17.9V82.21c0-14.03,11.37-25.41,25.41-25.41h222.93c4.15,0,8.06,0.99,11.52,2.76
					C515.76,63.77,521.4,72.33,521.4,82.21z"/>
			</g>
			<g>
				<path class="st4" d="M247.65,196.48h-4.37c-2.72,0-4.93-2.21-4.93-4.93v-49.29c0-2.72,2.21-4.93,4.93-4.93h4.37V196.48z"/>
				<path class="st4" d="M521.4,181.01h3.57c2.23,0,4.03-1.8,4.03-4.03v-40.1c0-2.23-1.8-4.03-4.03-4.03h-3.57V181.01z"/>
				<path class="st4" d="M247.65,263.65h-4.37c-2.72,0-4.93-2.21-4.93-4.93v-49.29c0-2.72,2.21-4.93,4.93-4.93h4.37V263.65z"/>
			</g>
			<g>
				<path class="st5" d="M508.72,80.67v450.74c0,6.19-5.02,11.19-11.19,11.19H271.52c-4.62,0-8.59-2.8-10.3-6.81
					c-0.58-1.35-0.89-2.83-0.89-4.38V80.67c0-6.18,5.02-11.19,11.19-11.19h226.01c1.56,0,3.04,0.31,4.39,0.89
					C505.92,72.1,508.72,76.06,508.72,80.67z"/>
			</g>
			<g>
				<path class="st0" d="M490.01,294.88H284.22c-0.82,0-1.48,0.66-1.48,1.48l0,0c0,0.82,0.66,1.48,1.48,1.48h205.79
					c0.82,0,1.48-0.66,1.48-1.48l0,0C491.49,295.54,490.83,294.88,490.01,294.88z"/>
				<path class="st0" d="M490.01,307.26H284.22c-0.82,0-1.48,0.66-1.48,1.48l0,0c0,0.82,0.66,1.48,1.48,1.48h205.79
					c0.82,0,1.48-0.66,1.48-1.48l0,0C491.49,307.92,490.83,307.26,490.01,307.26z"/>
			</g>
			<g>
				<path class="st0" d="M490.01,142.55h-98.72c-0.82,0-1.48-0.66-1.48-1.48l0,0c0-0.82,0.66-1.48,1.48-1.48h98.72
					c0.82,0,1.48,0.66,1.48,1.48l0,0C491.49,141.89,490.83,142.55,490.01,142.55z"/>
				<path class="st0" d="M490.01,154.93h-98.72c-0.82,0-1.48-0.66-1.48-1.48l0,0c0-0.82,0.66-1.48,1.48-1.48h98.72
					c0.82,0,1.48,0.66,1.48,1.48l0,0C491.49,154.27,490.83,154.93,490.01,154.93z"/>
				<path class="st0" d="M490.01,167.32h-98.72c-0.82,0-1.48-0.66-1.48-1.48l0,0c0-0.82,0.66-1.48,1.48-1.48h98.72
					c0.82,0,1.48,0.66,1.48,1.48l0,0C491.49,166.65,490.83,167.32,490.01,167.32z"/>
				<path class="st0" d="M490.01,179.7h-98.72c-0.82,0-1.48-0.66-1.48-1.48l0,0c0-0.82,0.66-1.48,1.48-1.48h98.72
					c0.82,0,1.48,0.66,1.48,1.48l0,0C491.49,179.04,490.83,179.7,490.01,179.7z"/>
				<path class="st0" d="M490.01,192.08h-98.72c-0.82,0-1.48-0.66-1.48-1.48l0,0c0-0.82,0.66-1.48,1.48-1.48h98.72
					c0.82,0,1.48,0.66,1.48,1.48l0,0C491.49,191.42,490.83,192.08,490.01,192.08z"/>
				<path class="st0" d="M490.01,204.47h-98.72c-0.82,0-1.48-0.66-1.48-1.48l0,0c0-0.82,0.66-1.48,1.48-1.48h98.72
					c0.82,0,1.48,0.66,1.48,1.48l0,0C491.49,203.8,490.83,204.47,490.01,204.47z"/>
			</g>
			<g>
				<g>
					
						<rect x="373.99" y="404.2" transform="matrix(-1 -1.224647e-16 1.224647e-16 -1 831.357 871.7277)" class="st6" width="83.39" height="63.34"/>
					
						<rect x="371.22" y="401.03" transform="matrix(-1 -1.224647e-16 1.224647e-16 -1 831.357 812.5941)" class="st6" width="88.91" height="10.53"/>
					
						<rect x="373.99" y="411.56" transform="matrix(-1 -1.224647e-16 1.224647e-16 -1 831.357 828.9233)" class="st7" width="83.39" height="5.8"/>
					
						<rect x="412.02" y="401.03" transform="matrix(-1 -1.224647e-16 1.224647e-16 -1 831.357 868.6189)" class="st5" width="7.31" height="66.56"/>
					<rect x="412.02" y="416.98" class="st8" width="7.31" height="50.61"/>
					<rect x="412.02" y="411.56" class="st0" width="7.31" height="5.8"/>
				</g>
				<g>
					
						<rect x="320.59" y="339.41" transform="matrix(-0.9104 0.4138 -0.4138 -0.9104 845.6457 558.9928)" class="st9" width="83.39" height="63.34"/>
					
						<rect x="305.6" y="338.89" transform="matrix(-0.9104 0.4138 -0.4138 -0.9104 811.1372 512.6335)" class="st9" width="88.91" height="10.53"/>
					
						<rect x="311.74" y="348.69" transform="matrix(-0.9104 0.4138 -0.4138 -0.9104 820.6663 525.4358)" class="st10" width="83.39" height="5.8"/>
					
						<rect x="357.99" y="336.38" transform="matrix(-0.9104 0.4138 -0.4138 -0.9104 843.833 556.5515)" class="st5" width="7.31" height="66.56"/>
					
						<rect x="361.29" y="351.61" transform="matrix(0.9104 -0.4138 0.4138 0.9104 -123.249 184.7747)" class="st8" width="7.31" height="50.61"/>
					
						<rect x="349.78" y="348.69" transform="matrix(0.9104 -0.4138 0.4138 0.9104 -113.803 177.7469)" class="st0" width="7.31" height="5.8"/>
				</g>
				<g>
					<g>
						<g>
							<circle class="st3" cx="428.25" cy="513.71" r="11.11"/>
						</g>
						<g>
							<circle class="st4" cx="428.25" cy="513.71" r="6.95"/>
						</g>
					</g>
					<g>
						<g>
							<path class="st3" d="M356.46,513.71c0,6.14,4.98,11.11,11.11,11.11c6.14,0,11.11-4.98,11.11-11.11
								c0-6.14-4.98-11.11-11.11-11.11C361.43,502.59,356.46,507.57,356.46,513.71z"/>
						</g>
						<g>
							<path class="st4" d="M367.57,520.66c3.83,0,6.95-3.12,6.95-6.95c0-3.83-3.12-6.95-6.95-6.95c-3.83,0-6.95,3.12-6.95,6.95
								C360.62,517.54,363.74,520.66,367.57,520.66z"/>
						</g>
					</g>
					<g>
						<path class="st3" d="M476.85,370.13c-0.54-0.61-1.32-0.97-2.13-0.97H310.82l-2.6-9.53c-0.34-1.24-1.47-2.1-2.75-2.1h-17.73
							v5.71h15.55l2.53,9.25c0.01,0.08,0.03,0.17,0.06,0.26l5.12,18.41v0l0.79,2.84l6.46,23.2l1.57,5.65l6.25,22.44l1.57,5.65
							l5.64,20.23c0.03,0.12,0.07,0.24,0.12,0.36l0,0c0,0,0,0,0,0l4.85,17.42c2.53,9.07,10.87,15.41,20.29,15.41H445
							c1.56,0,2.82-1.26,2.82-2.82c0-1.56-1.26-2.82-2.82-2.82h-86.45c-6.89,0-13-4.64-14.85-11.28l-3.95-14.19h121.26
							c1.41,0,2.61-1.04,2.8-2.44l2.77-19.86l0.79-5.65l3.13-22.44l0.79-5.65l3.32-23.83c0.25-0.42,0.39-0.91,0.39-1.43
							c0-0.25-0.03-0.48-0.09-0.71l2.62-18.84C477.62,371.57,477.38,370.75,476.85,370.13z M458.55,467.59H338.18l-3.87-13.9
							c-0.04-0.13-0.08-0.25-0.13-0.37v-0.01l-0.66-2.37h127.35L458.55,467.59z M461.65,445.29H331.93l-6.25-22.44h139.09
							L461.65,445.29z M465.57,417.19H324.11l-6.25-22.44h150.83L465.57,417.19z M469.48,389.11H316.29l-3.98-14.29h159.16
							L469.48,389.11z"/>
					</g>
					<path class="st4" d="M270.43,360.38L270.43,360.38c0,1.58,1.28,2.86,2.86,2.86h19.69v-5.71h-19.69
						C271.71,357.53,270.43,358.81,270.43,360.38z"/>
				</g>
			</g>
			<g>
				<path class="st0" d="M367.02,208.36h-75.24c-4.99,0-9.04-4.05-9.04-9.04v-55.43c0-4.99,4.05-9.04,9.04-9.04h75.24
					c4.99,0,9.04,4.05,9.04,9.04v55.43C376.05,204.31,372.01,208.36,367.02,208.36z"/>
				<g>
					<g>
						<g>
							<g>
								<g>
									<g>
										<path class="st6" d="M288.75,191.62l73.89-0.32c0.55-1,0.84-2.42,0.95-4.11c0.43-6.25-1.6-16.22-2.6-22.5
											c-0.12-0.73-0.23-1.42-0.31-2.04c-0.14-1.05-0.23-1.93-0.23-2.57c-0.02-5.13-4.56-4.23-4.56-4.23
											c-7.44,7.36-15.96-3.59-20.89,0.03c0,0-2.12,1.54-7.97,6.84c-5.84,5.3-15.8,8.83-24.28,12.42
											c-10.94,4.63-14.03,9.22-14.63,12.38C287.66,190.02,288.75,191.62,288.75,191.62z"/>
									</g>
								</g>
							</g>
						</g>
					</g>
					<g>
						<g>
							<g>
								<g>
									<g>
										<path class="st7" d="M288.75,191.62l73.89-0.32c0.55-1,0.84-2.42,0.95-4.11l-75.47,0.33
											C287.66,190.02,288.75,191.62,288.75,191.62z"/>
									</g>
								</g>
							</g>
						</g>
					</g>
					<g>
						<g>
							<g>
								<g>
									<g>
										<g>
											<g>
												<path class="st5" d="M333.91,159.03c0,0-1.33-3.22-4.26-2.18c-2.93,1.04-2.61,5.88-2.61,5.88
													S328.82,167.11,333.91,159.03z"/>
											</g>
										</g>
									</g>
								</g>
							</g>
						</g>
						<g>
							<g>
								<g>
									<g>
										<g>
											<path class="st5" d="M334.88,173.55c0.67,0,1.22-0.55,1.21-1.22c-0.03-7.34-4.64-11.29-4.83-11.46
												c-0.51-0.43-1.28-0.37-1.72,0.15c-0.43,0.51-0.37,1.28,0.15,1.71c0.17,0.14,3.94,3.44,3.97,9.6
												C333.66,173.01,334.21,173.55,334.88,173.55z"/>
										</g>
									</g>
								</g>
							</g>
						</g>
						<g>
							<g>
								<g>
									<g>
										<g>
											<path class="st5" d="M319.48,164.05c0.29,0,0.58-0.1,0.81-0.31c1.54-1.38,6.08-1.66,8.58-1.5
												c0.67,0.04,1.25-0.47,1.29-1.14c0.04-0.67-0.47-1.25-1.14-1.29c-0.77-0.05-7.56-0.38-10.35,2.12
												c-0.5,0.45-0.54,1.22-0.1,1.72C318.81,163.91,319.15,164.05,319.48,164.05z"/>
										</g>
									</g>
								</g>
							</g>
						</g>
						<g>
							<g>
								<g>
									<g>
										<g>
											<g>
												<path class="st5" d="M330.22,163.12l0.51-2.59c0,0,0.02,0,0.07,0.01l-1.26-1.26c0.69-0.69,6.84-6.69,11.95-6.71
													c0.03,0,0.07,0,0.1,0c1.53,0.02,2.81,0.56,3.82,1.61c1.06,1.11,1.39,2.54,0.9,3.94c-0.81,2.34-3.72,4.14-7.58,4.68
													c-2.58,0.36-4.52,0.47-5.89,0.48C331.1,163.29,330.27,163.13,330.22,163.12z M331.94,160.63c1.18,0.04,3.27,0,6.42-0.44
													c3.23-0.45,5.06-1.8,5.46-2.93c0.16-0.46,0.06-0.86-0.32-1.25c-0.51-0.54-1.13-0.79-1.95-0.8c-0.02,0-0.04,0-0.06,0
													C338.4,155.22,333.97,158.74,331.94,160.63z"/>
											</g>
										</g>
									</g>
								</g>
							</g>
						</g>
						<g>
							<g>
								<g>
									<g>
										<g>
											<g>
												<path class="st5" d="M328.19,161.97l1.12-2.39c-2.43-1.14-4.77-4.16-4.63-5.98c0.03-0.44,0.22-0.99,1.36-1.33
													c0.8-0.23,1.19-0.04,1.44,0.16c1.28,0.98,1.69,4.31,1.65,6.18l2.64,0.06c0.01-0.63,0.06-6.22-2.68-8.33
													c-0.73-0.56-1.99-1.13-3.79-0.6c-2.65,0.77-3.18,2.62-3.26,3.66C321.8,156.63,325.09,160.51,328.19,161.97z"/>
											</g>
										</g>
									</g>
								</g>
							</g>
						</g>
					</g>
					<g>
						<g>
							<g>
								<g>
									<g>
										<g>
											<path class="st7" d="M355.1,191.33l2.19-0.01c-2.2-2.49-4.27-6.32-4.02-11.81c0.32-7.3,4.68-12.24,7.72-14.82
												c-0.12-0.73-0.23-1.42-0.31-2.04c-3.27,2.52-8.77,8.03-9.17,16.78C351.28,184.67,353.02,188.58,355.1,191.33z"/>
										</g>
									</g>
								</g>
							</g>
						</g>
					</g>
					<g>
						<g>
							<g>
								<g>
									<g>
										<path class="st5" d="M328.31,167.08c0.55,0,1.04-0.38,1.18-0.93c0.16-0.65-0.24-1.31-0.89-1.47l-4.62-1.13
											c-0.65-0.16-1.31,0.24-1.47,0.89c-0.16,0.65,0.24,1.31,0.89,1.47l4.62,1.13C328.11,167.06,328.21,167.08,328.31,167.08z"
											/>
									</g>
								</g>
							</g>
						</g>
					</g>
					<g>
						<g>
							<g>
								<g>
									<g>
										<path class="st5" d="M323.7,169.78c0.55,0,1.04-0.38,1.18-0.93c0.16-0.65-0.24-1.31-0.89-1.47l-4.62-1.13
											c-0.65-0.16-1.31,0.24-1.47,0.89c-0.16,0.65,0.24,1.31,0.89,1.47l4.62,1.13C323.51,169.77,323.61,169.78,323.7,169.78z"/>
									</g>
								</g>
							</g>
						</g>
					</g>
					<g>
						<g>
							<g>
								<g>
									<g>
										<path class="st5" d="M319.1,172.38c0.55,0,1.04-0.38,1.18-0.93c0.16-0.65-0.24-1.31-0.9-1.47l-4.62-1.13
											c-0.65-0.16-1.31,0.24-1.47,0.89c-0.16,0.65,0.24,1.31,0.89,1.47l4.62,1.13C318.9,172.37,319,172.38,319.1,172.38z"/>
									</g>
								</g>
							</g>
						</g>
					</g>
					<g>
						<g>
							<g>
								<g>
									<g>
										<path class="st5" d="M314.08,174.79c0.55,0,1.04-0.38,1.18-0.93c0.16-0.65-0.24-1.31-0.9-1.47l-4.62-1.13
											c-0.65-0.16-1.31,0.24-1.47,0.89c-0.16,0.65,0.24,1.31,0.89,1.47l4.62,1.13C313.88,174.77,313.98,174.79,314.08,174.79z"
											/>
									</g>
								</g>
							</g>
						</g>
					</g>
					<g>
						<g>
							<g>
								<g>
									<g>
										<path class="st5" d="M308.63,176.84c0.55,0,1.04-0.38,1.18-0.93c0.16-0.65-0.24-1.31-0.89-1.47l-4.62-1.13
											c-0.65-0.16-1.31,0.24-1.47,0.89c-0.16,0.65,0.24,1.31,0.89,1.47l4.62,1.13C308.43,176.83,308.53,176.84,308.63,176.84z"
											/>
									</g>
								</g>
							</g>
						</g>
					</g>
				</g>
			</g>
			<g>
				<g>
					<g>
						<g>
							<g>
								<polygon class="st9" points="312.39,259.19 304.64,263.27 306.12,254.64 299.85,248.52 308.52,247.26 312.39,239.41 
									316.27,247.26 324.94,248.52 318.67,254.64 320.15,263.27 								"/>
							</g>
						</g>
					</g>
					<g>
						<g>
							<g>
								<polygon class="st9" points="351.95,259.19 344.19,263.27 345.67,254.64 339.4,248.52 348.07,247.26 351.95,239.41 
									355.82,247.26 364.49,248.52 358.22,254.64 359.7,263.27 								"/>
							</g>
						</g>
					</g>
					<g>
						<g>
							<g>
								<polygon class="st9" points="391.5,259.19 383.75,263.27 385.23,254.64 378.96,248.52 387.62,247.26 391.5,239.41 
									395.38,247.26 404.04,248.52 397.77,254.64 399.25,263.27 								"/>
							</g>
						</g>
					</g>
					<g>
						<g>
							<g>
								<polygon class="st9" points="431.05,259.19 423.3,263.27 424.78,254.64 418.51,248.52 427.18,247.26 431.05,239.41 
									434.93,247.26 443.6,248.52 437.32,254.64 438.8,263.27 								"/>
							</g>
						</g>
					</g>
					<g>
						<g>
							<g>
								<polygon class="st0" points="468.47,259.19 460.71,263.27 462.19,254.64 455.92,248.52 464.59,247.26 468.47,239.41 
									472.34,247.26 481.01,248.52 474.74,254.64 476.22,263.27 								"/>
							</g>
						</g>
					</g>
				</g>
				<g>
					<path class="st0" d="M468.07,274.76H304.8c-12.92,0-23.42-10.51-23.42-23.42c0-12.92,10.51-23.42,23.42-23.42h163.27
						c12.92,0,23.42,10.51,23.42,23.42C491.49,264.25,480.98,274.76,468.07,274.76z M304.8,230.2c-11.66,0-21.14,9.48-21.14,21.14
						c0,11.66,9.48,21.14,21.14,21.14h163.27c11.66,0,21.14-9.48,21.14-21.14c0-11.66-9.48-21.14-21.14-21.14H304.8z"/>
				</g>
			</g>
			<g>
				<g>
					<path class="st0" d="M508.72,80.67v23.76H260.33V80.67c0-6.18,5.02-11.19,11.19-11.19h226.01c1.56,0,3.04,0.31,4.39,0.89
						C505.92,72.1,508.72,76.06,508.72,80.67z"/>
				</g>
			</g>
			<g>
				<path class="st3" d="M454.52,91.87h-140c-3.76,0-6.83-3.07-6.83-6.83V72.93c0-3.76,3.07-6.83,6.83-6.83h140
					c3.76,0,6.83,3.07,6.83,6.83v12.11C461.35,88.8,458.28,91.87,454.52,91.87z"/>
				<path class="st4" d="M422.51,80.46h-88.73c-0.92,0-1.68-0.76-1.68-1.68v-2.98c0-0.92,0.76-1.68,1.68-1.68h88.73
					c0.92,0,1.68,0.76,1.68,1.68v2.98C424.19,79.71,423.43,80.46,422.51,80.46z"/>
				<path class="st4" d="M446.62,77.09c0,2.1-1.7,3.8-3.8,3.8s-3.8-1.7-3.8-3.8s1.7-3.8,3.8-3.8S446.62,74.99,446.62,77.09z"/>
			</g>
		</g>
		<g>
			<g>
				<g>
					<g>
						<path class="st11" d="M510.56,164.09l20.45,46.62c1.33,3.02,4.85,4.4,7.88,3.07l46.62-20.45c3.02-1.33,4.4-4.85,3.07-7.88
							l-20.45-46.62c-1.33-3.02-4.85-4.4-7.88-3.07l-46.62,20.45C510.61,157.54,509.24,161.07,510.56,164.09z M541.66,155.1
							c-1.87,1.32-4.44,0.28-4.85-2c-0.2-1.13,0.3-2.33,1.24-2.99c1.87-1.32,4.44-0.28,4.85,2
							C543.09,153.24,542.59,154.44,541.66,155.1z"/>
					</g>
				</g>
				<g>
					<g>
						<path class="st5" d="M528.37,175.89c-2.25-5.12-0.23-9.51,4.15-11.43c4.38-1.92,8.97-0.44,11.22,4.69
							c2.27,5.17,0.23,9.51-4.15,11.43C535.21,182.5,530.64,181.05,528.37,175.89z M549.68,157.42l6.98-3.06l-7.06,37.59l-6.98,3.06
							L549.68,157.42z M537.87,171.72c-1.21-2.77-2.49-3.2-3.39-2.8c-0.91,0.4-1.46,1.63-0.24,4.39c1.21,2.77,2.49,3.2,3.4,2.8
							C538.54,175.71,539.09,174.49,537.87,171.72z M555.55,180.23c-2.25-5.12-0.23-9.51,4.15-11.43c4.38-1.92,8.97-0.44,11.22,4.69
							c2.27,5.16,0.23,9.51-4.15,11.43C562.39,186.83,557.82,185.39,555.55,180.23z M565.05,176.06c-1.21-2.77-2.49-3.2-3.39-2.8
							c-0.91,0.4-1.45,1.62-0.24,4.39c1.21,2.77,2.49,3.2,3.39,2.8C565.72,180.05,566.27,178.83,565.05,176.06z"/>
					</g>
				</g>
			</g>
			<g>
				<g>
					<path class="st6" d="M543.5,129.39c-3.14-14.79-11.14-31.63-21.42-45.04c-0.21-0.28-0.43-0.55-0.65-0.83v2.62
						c10.67,14.2,17.87,30.74,20.59,43.57c1.12,5.29,1.49,9.91,1.14,13.56c-0.27,2.79-0.96,5.02-2.06,6.53
						c-0.42,0.58-0.91,1.06-1.45,1.43c-0.81,0.54-1.76,0.85-2.84,0.91c-0.08,0.5-0.04,1.02,0.15,1.52c1.32-0.09,2.5-0.48,3.53-1.18
						c0.68-0.45,1.27-1.04,1.79-1.75c1.39-1.89,2.21-4.66,2.45-8.15C544.98,138.92,544.57,134.47,543.5,129.39z M521.43,143.09
						c-15.66-19.38-37.7-76.39-41.46-86.28c-0.03-0.08-0.05-0.14-0.08-0.21c0.33,0.07,0.66,0.14,0.99,0.21h5.56
						c-2.44-0.82-4.97-1.48-7.6-1.94c-0.27-0.05-0.54,0.05-0.71,0.26c-0.17,0.21-0.22,0.49-0.13,0.74c0.06,0.16,0.18,0.48,0.35,0.94
						c3.3,8.76,26.65,69.85,43.07,88.61c1.53,1.75,3,3.13,4.39,4.07c0.43,0.29,0.85,0.57,1.27,0.82l1.69-0.74
						c-0.69-0.39-1.39-0.84-2.12-1.33C525.03,147.14,523.28,145.38,521.43,143.09z"/>
				</g>
			</g>
		</g>
	</g>
	<g>
		<g>
			<g>
				<g>
					<g>
						<g>
							<g>
								<g>
									<g>
										<polygon class="st12" points="84.99,482.17 77.2,488.71 86.22,502.89 94.01,496.35 										"/>
									</g>
								</g>
							</g>
						</g>
						<g>
							<g>
								<g>
									<g>
										<g>
											<g>
												<path class="st9" d="M85.44,551.12L52.6,499.5c0.45-0.83,1.31-1.67,2.44-2.5c4.16-3.1,12.02-6.14,16.84-8.25
													c0.57-0.24,1.09-0.48,1.56-0.7c0.79-0.37,1.44-0.7,1.89-0.99c3.59-2.28,4.99,1.28,4.99,1.28
													c-1.8,8.48,9.65,9.51,9.32,14.57c0,0-0.12,2.17-1.2,8.61c-1.08,6.44,0.92,14.96,2.21,22.48
													c1.67,9.7-0.15,13.91-2.08,15.73C87.05,551.17,85.44,551.12,85.44,551.12z"/>
											</g>
										</g>
									</g>
								</g>
							</g>
							<g>
								<g>
									<g>
										<g>
											<g>
												<path class="st10" d="M85.44,551.12L52.6,499.5c0.45-0.83,1.31-1.67,2.44-2.5l33.54,52.73
													C87.05,551.17,85.44,551.12,85.44,551.12z"/>
											</g>
										</g>
									</g>
								</g>
							</g>
							<g>
								<g>
									<g>
										<g>
											<g>
												<g>
													<g>
														<path class="st5" d="M87.95,505.07c0,0,2.84-0.51,3.43,1.99c0.59,2.5-2.92,4.45-2.92,4.45S84.59,512.24,87.95,505.07z
															"/>
													</g>
												</g>
											</g>
										</g>
									</g>
								</g>
								<g>
									<g>
										<g>
											<g>
												<g>
													<path class="st5" d="M77.39,510.9c-0.3-0.47-0.16-1.09,0.31-1.39c5.13-3.26,9.94-1.82,10.14-1.76
														c0.53,0.17,0.83,0.73,0.66,1.26c-0.16,0.53-0.73,0.83-1.26,0.66c-0.17-0.05-4.16-1.21-8.47,1.53
														C78.32,511.51,77.69,511.37,77.39,510.9z"/>
												</g>
											</g>
										</g>
									</g>
								</g>
								<g>
									<g>
										<g>
											<g>
												<g>
													<path class="st5" d="M90.9,517.37c-0.13-0.2-0.19-0.45-0.14-0.7c0.27-1.69-1.57-4.98-2.79-6.65
														c-0.33-0.45-0.23-1.08,0.22-1.41c0.45-0.33,1.08-0.23,1.41,0.22c0.37,0.51,3.64,5.1,3.15,8.16
														c-0.09,0.55-0.61,0.92-1.16,0.84C91.3,517.78,91.05,517.61,90.9,517.37z"/>
												</g>
											</g>
										</g>
									</g>
								</g>
								<g>
									<g>
										<g>
											<g>
												<g>
													<g>
														<path class="st5" d="M85.46,507.73c-0.61-0.96-1.4-2.36-2.3-4.32c-1.35-2.94-1.4-5.76-0.13-7.38
															c0.76-0.96,1.91-1.38,3.15-1.13c1.19,0.23,2.14,0.89,2.84,1.94c0.01,0.02,0.03,0.05,0.04,0.07
															c2.27,3.57,0.84,10.54,0.67,11.33l-1.44-0.31c0.02,0.03,0.04,0.04,0.04,0.04l-1.57,1.51
															C86.71,509.45,86.24,508.94,85.46,507.73z M87.22,498.09c-0.01-0.01-0.02-0.03-0.03-0.04c-0.37-0.56-0.82-0.88-1.43-1
															c-0.44-0.09-0.76,0.02-1.01,0.34c-0.61,0.78-0.73,2.66,0.4,5.11c1.1,2.39,2.01,3.86,2.57,4.67
															C88.12,504.91,88.59,500.25,87.22,498.09z"/>
													</g>
												</g>
											</g>
										</g>
									</g>
								</g>
								<g>
									<g>
										<g>
											<g>
												<g>
													<g>
														<path class="st5" d="M88.46,510.37l1.17-1.85c1.88,1.19,5.03,1.46,6.24,0.55c0.29-0.22,0.59-0.6,0.31-1.54
															c-0.2-0.66-0.51-0.85-0.76-0.94c-1.25-0.45-3.76,0.75-5.04,1.61l-1.22-1.81c0.43-0.29,4.31-2.83,7-1.86
															c0.72,0.26,1.67,0.88,2.11,2.37c0.65,2.19-0.4,3.39-1.09,3.91C95.03,512.44,90.86,511.89,88.46,510.37z"/>
													</g>
												</g>
											</g>
										</g>
									</g>
								</g>
							</g>
							<g>
								<g>
									<g>
										<g>
											<g>
												<g>
													<path class="st10" d="M55.95,504.76l-0.98-1.53c2.72,0.42,6.32,0.14,10.03-2.48c4.94-3.49,6.43-8.74,6.87-12.01
														c0.57-0.24,1.09-0.48,1.56-0.7c-0.29,3.41-1.67,9.71-7.59,13.9C62.3,504.45,58.81,504.98,55.95,504.76z"/>
												</g>
											</g>
										</g>
									</g>
								</g>
							</g>
							<g>
								<g>
									<g>
										<g>
											<g>
												<path class="st5" d="M84.85,512.58c-0.24-0.38-0.2-0.89,0.12-1.24c0.38-0.4,1.02-0.42,1.43-0.03l2.85,2.72
													c0.4,0.38,0.42,1.02,0.03,1.43c-0.38,0.4-1.02,0.42-1.43,0.03L85,512.77C84.94,512.71,84.89,512.65,84.85,512.58z"/>
											</g>
										</g>
									</g>
								</g>
							</g>
							<g>
								<g>
									<g>
										<g>
											<g>
												<path class="st5" d="M85.02,517c-0.24-0.38-0.2-0.89,0.12-1.24c0.38-0.4,1.02-0.42,1.43-0.03l2.85,2.72
													c0.4,0.38,0.42,1.02,0.03,1.43c-0.38,0.4-1.02,0.42-1.43,0.03l-2.85-2.72C85.12,517.13,85.06,517.07,85.02,517z"/>
											</g>
										</g>
									</g>
								</g>
							</g>
							<g>
								<g>
									<g>
										<g>
											<g>
												<path class="st5" d="M85.27,521.37c-0.24-0.38-0.2-0.89,0.12-1.24c0.38-0.4,1.02-0.42,1.43-0.03l2.85,2.72
													c0.4,0.38,0.42,1.02,0.03,1.43c-0.38,0.4-1.02,0.42-1.43,0.03l-2.85-2.72C85.37,521.5,85.31,521.44,85.27,521.37z"/>
											</g>
										</g>
									</g>
								</g>
							</g>
							<g>
								<g>
									<g>
										<g>
											<g>
												<path class="st5" d="M85.84,525.94c-0.24-0.38-0.2-0.89,0.12-1.24c0.38-0.4,1.02-0.42,1.43-0.03l2.85,2.72
													c0.4,0.38,0.42,1.02,0.03,1.43c-0.38,0.4-1.02,0.42-1.43,0.03L86,526.13C85.94,526.08,85.88,526.01,85.84,525.94z"/>
											</g>
										</g>
									</g>
								</g>
							</g>
							<g>
								<g>
									<g>
										<g>
											<g>
												<path class="st5" d="M86.85,530.66c-0.24-0.38-0.2-0.89,0.12-1.24c0.38-0.4,1.02-0.42,1.43-0.03l2.85,2.72
													c0.4,0.38,0.42,1.02,0.04,1.43c-0.38,0.4-1.02,0.42-1.43,0.03L87,530.85C86.94,530.79,86.89,530.73,86.85,530.66z"/>
											</g>
										</g>
									</g>
								</g>
							</g>
						</g>
						<g>
							<g>
								<g>
									<g>
										<path class="st11" d="M179.25,390.25c-0.01,0.12-0.03,0.23-0.04,0.35c0,0-0.3,0.57-0.87,1.63
											c-4.05,7.47-21.64,39.36-43.49,69.41c-3.15,4.33-6.39,8.63-9.69,12.8c-1.45,1.84-2.91,3.65-4.38,5.43
											c-6.39,7.74-11.75,12.5-17.86,16.5c-0.65,0.42-1.3,0.84-1.97,1.25c-1.27,0.78-2.58,1.54-3.94,2.3
											c-0.64,0.35-1.3,0.71-1.98,1.08c0,0-9.84-10.35-14.42-20.39c0,0,1.28-2.09,3.34-5.48c0.4-0.67,0.84-1.38,1.3-2.14
											c1.39-2.3,3.02-5,4.78-7.94c7.93-13.25,18.62-31.43,22.61-39.88c2.92-6.17,6.39-13.02,10.27-19.76
											c0.74-1.28,1.49-2.56,2.26-3.83c0.09-0.15,0.17-0.29,0.26-0.44c5.28-8.72,11.19-16.99,17.38-23.09l-14.08-83.08
											l-0.89-5.22l31.13-10.99l1.78-0.62l7.41-2.62c0,0,0.59,2.73,1.51,7.42c0.11,0.57,0.23,1.16,0.35,1.78
											C174.14,306.04,183.37,359.33,179.25,390.25z"/>
									</g>
								</g>
							</g>
						</g>
						<g>
							<g>
								<g>
									<path class="st13" d="M102.91,496.37c-0.65,0.42-1.3,0.84-1.97,1.25l-12.05-15.96l-1.11-1.47l-3.83-5.07
										c0.4-0.67,0.84-1.38,1.3-2.14l3.75,4.97l1.11,1.47L102.91,496.37z"/>
								</g>
							</g>
						</g>
						<g>
							<g>
								<g>
									<g>
										<path class="st13" d="M179.25,390.25c-0.01,0.12-0.03,0.23-0.04,0.35c0,0-0.3,0.57-0.87,1.63
											c-7.06-1.32-12.48-4.82-12.81-5.03c-0.48-0.32-0.62-0.96-0.3-1.45c0.32-0.48,0.96-0.62,1.45-0.3
											C166.74,385.51,172.28,389.07,179.25,390.25z"/>
									</g>
								</g>
							</g>
						</g>
						<g>
							<g>
								<g>
									<g>
										<path class="st13" d="M150.93,380.94c-0.15,0.15-15.76,15.68-60.83,98.48c-0.4,0.74-0.81,1.49-1.22,2.24l-1.11-1.47
											c0.41-0.75,0.82-1.5,1.22-2.24c41.81-76.77,57.85-95.15,60.42-97.86c-3.67-13.58-14.92-83.13-15.4-86.12
											c-0.07-0.46,0.24-0.89,0.7-0.96c0.46-0.08,0.89,0.24,0.96,0.7c0.12,0.74,11.99,74.15,15.49,86.4
											C151.25,380.4,151.16,380.72,150.93,380.94z"/>
									</g>
								</g>
							</g>
						</g>
						<g>
							<g>
								<g>
									<g>
										<path class="st13" d="M134.84,461.65c-4.53,6.23-9.25,12.39-14.07,18.23c-0.87-12.74-3.22-54.83,2.12-74.47
											c0.64-2.34,1.38-4.37,2.26-5.98l0.27,1.71L134.84,461.65z"/>
									</g>
								</g>
							</g>
						</g>
					</g>
					<g>
						<g>
							<g>
								<g>
									<g>
										<path class="st11" d="M76.55,255.14c0,0-2.34,22.23,2.71,34.6c5.06,12.37,70.51,6.01,87.2-5.13
											c6.84-4.57-7.73-46.72-7.73-46.72L76.55,255.14z"/>
									</g>
								</g>
							</g>
						</g>
						<g>
							<g>
								<g>
									<g>
										<g>
											<path class="st13" d="M170.01,284.72c-0.99-0.17-1.96-0.42-2.9-0.75c-1.5-0.51-2.94-1.2-4.31-2.08
												c-1.42-0.91-2.7-1.98-3.84-3.14c-7.22-7.28-9.34-18.28-9.44-18.82c-0.08-0.46,0.22-0.89,0.67-0.98
												c0.46-0.08,0.9,0.22,0.98,0.67c0.02,0.13,2.24,11.57,9.56,18.5c0.91,0.87,1.91,1.66,2.99,2.36
												c1.3,0.84,2.67,1.49,4.11,1.96c0.6,0.2,1.21,0.36,1.83,0.49C169.78,283.5,169.89,284.09,170.01,284.72z"/>
										</g>
									</g>
								</g>
							</g>
						</g>
						<g>
							<g>
								<g>
									<g>
										<g>
											<path class="st13" d="M129.62,290.94c0.02,0.44-0.33,0.82-0.79,0.85c0,0,0,0-0.01,0c-0.46,0.02-0.86-0.32-0.88-0.77
												c-0.15-3.04-0.33-6.15-0.52-9.26c-0.03-0.55-0.07-1.09-0.11-1.64c-0.66-10.16-1.5-20.13-2.13-27.17
												c-0.05-0.57-0.1-1.12-0.15-1.65c-0.14-1.55-0.27-2.92-0.38-4.08c0.56-0.09,1.11-0.18,1.66-0.27
												c0.11,1.16,0.24,2.54,0.38,4.1c0.05,0.53,0.1,1.08,0.15,1.65c0.63,6.98,1.46,16.86,2.12,26.96
												c0.04,0.56,0.07,1.12,0.11,1.67C129.29,284.56,129.47,287.79,129.62,290.94z"/>
										</g>
									</g>
								</g>
							</g>
						</g>
						<g>
							<g>
								<g>
									<g>
										<g>
											<path class="st13" d="M132.02,280.22c-0.26,0.13-1.44,0.67-2.94,1.12c-0.52,0.16-1.08,0.3-1.66,0.42
												c-0.53,0.1-1.06,0.18-1.59,0.21c-1.02,0.06-2-0.05-2.82-0.44c-1.02-0.49-1.68-1.38-1.91-2.57
												c-0.61-3.13-1.89-16.07-2.76-25.22c-0.06-0.56-0.11-1.11-0.16-1.64c-0.14-1.46-0.26-2.8-0.36-3.93
												c0.56-0.07,1.11-0.13,1.67-0.21c0.1,1.14,0.23,2.49,0.37,3.97c0.05,0.53,0.1,1.08,0.15,1.65
												c0.87,9.13,2.14,22.05,2.74,25.09c0.13,0.7,0.46,1.15,1.01,1.42c0.89,0.42,2.22,0.34,3.55,0.05
												c0.57-0.12,1.13-0.28,1.65-0.45c0.96-0.31,1.8-0.66,2.31-0.9c0.42-0.2,0.92-0.04,1.12,0.37
												C132.61,279.53,132.44,280.02,132.02,280.22z"/>
										</g>
									</g>
								</g>
							</g>
						</g>
					</g>
					<g>
						<g>
							<g>
								<g>
									<g>
										<polygon class="st12" points="103.95,511.74 105.6,524.91 122.41,524.91 123.39,511.05 										"/>
									</g>
								</g>
							</g>
						</g>
						<g>
							<g>
								<g>
									<g>
										<path class="st11" d="M125.16,283.4v226.16l-0.24,3.58H99.97c-0.27-1.63-0.87-4.27-1.66-7.66
											c-0.17-0.74-0.35-1.52-0.54-2.32c-3.25-13.83-8.82-37.41-9.8-57.91c-1.4-29.27-1.01-67.21-1.01-67.21
											c-2.85-21.76-7.32-68.88-9.54-93.01c-0.06-0.58-0.1-1.13-0.15-1.68c-0.75-8.1-1.21-13.2-1.21-13.2
											c4.02-1.67,11.3-0.52,19.05,1.68c0.56,0.16,1.12,0.32,1.69,0.49C110.56,276.44,125.16,283.4,125.16,283.4z"/>
									</g>
								</g>
							</g>
						</g>
						<g>
							<g>
								<g>
									<path class="st13" d="M125.16,503.15v2.32H98.31c-0.17-0.74-0.35-1.52-0.54-2.32H125.16z"/>
								</g>
							</g>
						</g>
						<g>
							<g>
								<g>
									<g>
										<path class="st13" d="M125.16,383.12v2.16c-2.92,0.74-6.26,0.98-9.39,0.98c-5.78,0-10.83-0.82-11.19-0.88
											c-0.57-0.1-0.95-0.63-0.86-1.2c0.09-0.57,0.63-0.96,1.2-0.86C105.06,383.33,117.27,385.32,125.16,383.12z"/>
									</g>
								</g>
							</g>
						</g>
						<g>
							<g>
								<g>
									<g>
										<path class="st13" d="M102.49,505.48h-1.71c-0.14-0.72-0.28-1.5-0.44-2.32c-2.21-11.71-6.24-33.61-8.33-47.83
											c-2.93-19.84-1.55-74.87-1.5-77.02c-2.22-18.92-6.74-83.75-6.78-84.4c-0.03-0.46,0.32-0.87,0.78-0.9
											c0.47-0.03,0.86,0.32,0.89,0.78c0.05,0.65,4.57,65.58,6.78,84.38c0,0.04,0.01,0.08,0.01,0.12
											c-0.02,0.56-1.47,56.79,1.48,76.79c2.11,14.32,6.19,36.45,8.38,48.07C102.2,503.99,102.35,504.76,102.49,505.48z"/>
									</g>
								</g>
							</g>
						</g>
						<g>
							<g>
								<g>
									<g>
										<g>
											<g>
												<g>
													<path class="st9" d="M128.8,547.37c0,0.15,0,0.3-0.01,0.44c-0.01,0.67-0.04,1.28-0.07,1.8
														c-0.07,1.14-0.15,1.84-0.15,1.84H90.71c0,0-0.19-1.46-0.04-3.64c0.25-3.87,1.53-9.98,6.76-14.02
														c7.16-5.53,4.39-4.38,5.86-6.9c0.17-0.28,1.45-4.57,1.59-4.86c1.23-2.62,2.36-3.86,9.15-3.86c9,0,9.79,4.37,10.75,6.66
														c0.4,0.95,0.94,2.96,1.5,5.34c0.23,0.96,0.45,1.98,0.68,3.02c0.55,2.61,1.07,5.33,1.43,7.51
														C128.75,543.04,128.83,545.44,128.8,547.37z"/>
												</g>
											</g>
										</g>
									</g>
								</g>
								<g>
									<g>
										<g>
											<g>
												<g>
													<g>
														<path class="st10" d="M128.8,547.37c0,0.15,0,0.3-0.01,0.44c-0.01,0.67-0.04,1.28-0.07,1.8c-1.85-1.3-3.16-3-3.93-5.1
															c-2.34-6.38,1.26-14.04,1.41-14.36l0.08,0.04c0.23,0.96,0.45,1.98,0.68,3.02c-0.85,2.61-1.84,6.98-0.47,10.69
															C126.98,545.25,127.76,546.41,128.8,547.37z"/>
													</g>
												</g>
											</g>
										</g>
									</g>
								</g>
								<g>
									<g>
										<g>
											<g>
												<g>
													<path class="st10" d="M128.8,547.82c-0.05,2.16-0.22,3.64-0.22,3.64H90.71c0,0-0.19-1.46-0.04-3.64H128.8z"/>
												</g>
											</g>
										</g>
									</g>
								</g>
							</g>
							<g>
								<g>
									<g>
										<g>
											<g>
												<g>
													<g>
														<path class="st5" d="M110.05,523.72c-0.15,0-0.3-0.03-0.44-0.1c-0.96-0.43-9.4-4.36-10.06-8.46
															c-0.13-0.82-0.03-2.03,1.2-3.16c1.17-1.07,2.31-1.06,3.07-0.86c3.82,1.01,6.72,9.47,7.26,11.16
															c0.13,0.41,0.01,0.85-0.31,1.14C110.57,523.62,110.31,523.72,110.05,523.72z M103.02,513.2
															c-0.21,0-0.48,0.09-0.81,0.4c-0.56,0.51-0.58,0.93-0.53,1.22c0.28,1.74,3.49,4.01,6.42,5.63
															c-1.34-3.29-3.27-6.8-4.84-7.21C103.19,513.22,103.11,513.2,103.02,513.2z"/>
													</g>
												</g>
											</g>
										</g>
									</g>
								</g>
								<g>
									<g>
										<g>
											<g>
												<g>
													<g>
														<path class="st5" d="M111.89,523.72c-0.26,0-0.52-0.09-0.72-0.27c-0.32-0.28-0.44-0.73-0.31-1.14
															c0.54-1.69,3.44-10.15,7.26-11.16c0.76-0.2,1.9-0.21,3.07,0.86c1.23,1.13,1.33,2.34,1.2,3.16
															c-0.66,4.1-9.1,8.02-10.06,8.46C112.19,523.69,112.04,523.72,111.89,523.72z M118.91,513.2
															c-0.09,0-0.17,0.02-0.24,0.03c-1.56,0.41-3.5,3.92-4.83,7.21c2.93-1.62,6.14-3.89,6.42-5.63
															c0.05-0.3,0.03-0.71-0.53-1.22C119.39,513.29,119.13,513.2,118.91,513.2z"/>
													</g>
												</g>
											</g>
										</g>
									</g>
								</g>
								<g>
									<g>
										<g>
											<g>
												<g>
													<g>
														<path class="st5" d="M110.94,520.56c0,0-1.76-0.83-1.9,1.59c-0.11,1.96,1.28,2.38,1.85,2.05c0,0,1.2,0.36,1.8-0.6
															C113.29,522.64,112.89,519.6,110.94,520.56z"/>
													</g>
												</g>
											</g>
										</g>
									</g>
								</g>
								<g>
									<g>
										<g>
											<g>
												<g>
													<g>
														<path class="st5" d="M103.19,527.17c-0.22,0-0.45-0.07-0.64-0.21c-0.48-0.36-0.58-1.03-0.22-1.51
															c3.41-4.57,8.65-3.58,8.87-3.53c0.58,0.12,0.96,0.69,0.85,1.27c-0.12,0.58-0.69,0.96-1.27,0.85
															c-0.18-0.03-4.15-0.75-6.72,2.71C103.85,527.02,103.52,527.17,103.19,527.17z"/>
													</g>
												</g>
											</g>
										</g>
									</g>
								</g>
								<g>
									<g>
										<g>
											<g>
												<g>
													<g>
														<path class="st5" d="M119.73,528.26c-0.41,0-0.8-0.24-0.98-0.63c-1.75-3.85-7.86-4.78-7.92-4.79
															c-0.59-0.09-1-0.63-0.91-1.22c0.09-0.59,0.64-1,1.22-0.91c0.3,0.04,7.34,1.12,9.57,6.03
															c0.25,0.54,0.01,1.18-0.54,1.43C120.04,528.23,119.88,528.26,119.73,528.26z"/>
													</g>
												</g>
											</g>
										</g>
									</g>
								</g>
							</g>
							<g>
								<g>
									<g>
										<g>
											<g>
												<path class="st5" d="M115.28,529.98c-0.09,0-0.18-0.01-0.27-0.03c-4.82-1.25-8.74-0.19-8.78-0.18
													c-0.58,0.16-1.17-0.18-1.33-0.75c-0.16-0.57,0.18-1.17,0.75-1.33c0.18-0.05,4.53-1.22,9.89,0.17
													c0.58,0.15,0.92,0.74,0.77,1.32C116.2,529.66,115.76,529.98,115.28,529.98z"/>
											</g>
										</g>
									</g>
								</g>
							</g>
							<g>
								<g>
									<g>
										<g>
											<g>
												<path class="st5" d="M113.66,533.4c-0.09,0-0.18-0.01-0.27-0.03c-4.78-1.24-8.74-0.19-8.78-0.18
													c-0.57,0.16-1.17-0.18-1.33-0.76c-0.16-0.57,0.18-1.17,0.75-1.33c0.18-0.05,4.53-1.22,9.89,0.17
													c0.58,0.15,0.92,0.74,0.77,1.32C114.58,533.08,114.14,533.4,113.66,533.4z"/>
											</g>
										</g>
									</g>
								</g>
							</g>
							<g>
								<g>
									<g>
										<g>
											<g>
												<path class="st5" d="M111.76,537.29c-0.09,0-0.18-0.01-0.27-0.03c-4.78-1.24-8.74-0.19-8.78-0.18
													c-0.57,0.16-1.17-0.18-1.33-0.76c-0.16-0.57,0.18-1.17,0.75-1.33c0.18-0.05,4.53-1.22,9.89,0.17
													c0.58,0.15,0.92,0.74,0.77,1.32C112.68,536.97,112.24,537.29,111.76,537.29z"/>
											</g>
										</g>
									</g>
								</g>
							</g>
						</g>
						<g>
							<g>
								<g>
									<g>
										<g>
											<path class="st13" d="M101.43,259.93c-0.07,0.39-1.22,6.35-4.64,12.37c-2.01,3.55-4.82,7.12-8.64,9.58
												c-3.22,2.07-6.81,3.12-10.73,3.14c-0.05-0.57-0.1-1.13-0.15-1.68c3.66,0,7-0.96,9.98-2.87c3.42-2.2,5.98-5.41,7.87-8.66
												c3.48-5.99,4.66-12.1,4.68-12.19c0.08-0.46,0.52-0.76,0.98-0.68C101.21,259.04,101.52,259.48,101.43,259.93z"/>
										</g>
									</g>
								</g>
							</g>
						</g>
					</g>
				</g>
				<g>
					<g>
						<g>
							<path class="st9" d="M213.32,180.89c0.07,3.97-4.36,9.37-10.65,14.88c-0.42,0.37-0.86,0.74-1.3,1.12
								c-6.98,5.9-15.88,11.84-23.46,16.16c-7.37,4.21-17.65,8.96-27.37,10.22c-9.19,1.19-17.88-0.74-23.17-9.18
								c-0.61-0.97-1.17-2-1.67-3.06c-8.6-18.03-3.54-48.5-3.54-48.5l21.83-38.77c15.47,13.92,11.5,49.95,17.16,54.11
								c0.1,0.07,0.19,0.14,0.3,0.2c0.71,0.44,1.55,0.68,2.49,0.75c6.21,0.51,17.15-5.95,28.15-8.85c0.59-0.15,1.19-0.3,1.78-0.44
								c0.56-0.13,1.12-0.24,1.68-0.34C205.36,167.38,213.18,172.41,213.32,180.89z"/>
						</g>
					</g>
					<g>
						<g>
							<path class="st10" d="M202.67,195.77c-0.42,0.37-0.86,0.74-1.3,1.12c-4.62-4.3-7.6-10.19-8.77-17.48
								c-0.55-3.42-0.63-6.68-0.52-9.43c0.59-0.15,1.19-0.3,1.78-0.44c-0.15,2.78-0.1,6.14,0.47,9.64
								C195.47,186.2,198.26,191.75,202.67,195.77z"/>
						</g>
					</g>
					<g>
						<g>
							<path class="st10" d="M163.94,178.81c-4.01,2.69-9.51,6.93-12.07,11.41c-0.16,0.28-0.45,0.44-0.76,0.44
								c-0.15,0-0.29-0.04-0.43-0.11c-0.42-0.24-0.56-0.77-0.33-1.19c1.94-3.41,5.37-6.61,8.67-9.17c-3.75,0.73-7.31,2.05-7.35,2.07
								c-0.1,0.04-0.21,0.06-0.31,0.06c-0.35,0-0.69-0.22-0.82-0.56c-0.17-0.45,0.06-0.95,0.51-1.12c0.24-0.09,5.66-2.1,10.38-2.56
								C162.16,178.5,162.99,178.74,163.94,178.81z"/>
						</g>
					</g>
					<g>
						<g>
							<path class="st10" d="M150.54,223.27c-9.19,1.19-17.88-0.74-23.17-9.18c-0.61-0.97-1.16-2-1.67-3.06
								c3.17-1.07,9.6-2.08,17.71,2.71C148.67,216.85,150.32,220.35,150.54,223.27z"/>
						</g>
					</g>
					<g>
						<g>
							<g>
								<path class="st12" d="M230.41,152.25c0,0-7.88,27.12-22.2,30.41l-6.63-8.34C201.58,174.32,215.37,153.64,230.41,152.25z"/>
							</g>
						</g>
						<g>
							<g>
								<g>
									<g>
										<path class="st4" d="M201.22,181.06l1.1,0.63c0.58,0.33,1.29,0.25,1.79-0.19c4.59-4.1,26.85-24.03,30.65-27.98
											c0.35-0.37,0.5-0.88,0.39-1.38l-3.46-16.38c-0.08-0.4-0.32-0.74-0.66-0.97l-1.52-1.01l3.55,17.65L201.22,181.06z"/>
									</g>
								</g>
							</g>
							<g>
								<g>
									<g>
										<path class="st3" d="M201.13,180.82l-3.94-16.21c-0.15-0.63,0.27-1.66,0.95-2.3l30.17-28.11c0.68-0.63,1.36-0.63,1.51,0
											l3.94,16.21c0.15,0.63-0.27,1.66-0.95,2.3l-30.17,28.11C201.96,181.46,201.28,181.46,201.13,180.82z"/>
									</g>
								</g>
							</g>
							<g>
								<g>
									<g>
										<path class="st4" d="M206.52,173.09l-2.87-11.78c-0.15-0.63,0.27-1.66,0.95-2.3l22.37-20.84c0.68-0.63,1.36-0.63,1.51,0
											l2.87,11.78c0.15,0.63-0.27,1.66-0.95,2.3l-22.37,20.84C207.35,173.72,206.68,173.72,206.52,173.09z"/>
									</g>
								</g>
							</g>
							<g>
								<g>
									<g>
										<path class="st4" d="M202.5,171.78c-1.05,0.98-2.09,0.98-2.33,0c-0.24-0.98,0.42-2.57,1.47-3.54
											c1.05-0.98,2.09-0.98,2.33,0C204.21,169.22,203.55,170.8,202.5,171.78z"/>
									</g>
								</g>
							</g>
						</g>
						<g>
							<g>
								<g>
									<path class="st12" d="M203.62,157.68c0,0-2.72-6.21,1.28-9.27c4-3.06,12.29-3.85,12.29-3.85c3.22,2.54-2.22,5.47-9.08,8.46
										L203.62,157.68z"/>
								</g>
							</g>
						</g>
						<g>
							<g>
								<g>
									<g>
										<g>
											<g>
												<path class="st12" d="M216.95,169.98c0,0,4.2,1.9,5.57-0.48c1.38-2.37-1.12-8.36-2.13-10.4
													c-1.02-2.04-2.11,3.14-1.6,5.47c0.3,1.38,0.19,3.57,0.19,3.57L216.95,169.98z"/>
											</g>
										</g>
									</g>
								</g>
							</g>
							<g>
								<g>
									<g>
										<g>
											<g>
												<path class="st12" d="M222.6,164.1c0,0,4.42,1.83,6.05-0.99c1.64-2.82-1.32-9.92-2.53-12.34
													c-1.21-2.42-2.69,3.78-1.9,6.5c0.79,2.72-0.14,3.93-0.14,3.93L222.6,164.1z"/>
											</g>
										</g>
									</g>
								</g>
							</g>
							<g>
								<g>
									<g>
										<g>
											<g>
												<path class="st12" d="M225.67,161.19c0,0,3.9,1.61,5.35-0.88c1.45-2.49-1.17-8.76-2.24-10.9
													c-1.07-2.14-2.38,3.34-1.68,5.74c0.7,2.4-0.12,3.47-0.12,3.47L225.67,161.19z"/>
											</g>
										</g>
									</g>
								</g>
							</g>
							<g>
								<g>
									<g>
										<g>
											<g>
												<path class="st12" d="M219.55,168.42c0,0,4.42,1.83,6.05-0.99c1.64-2.82-1.32-9.92-2.53-12.34
													c-1.21-2.42-2.69,3.78-1.9,6.5c0.79,2.72-0.14,3.93-0.14,3.93L219.55,168.42z"/>
											</g>
										</g>
									</g>
								</g>
							</g>
						</g>
					</g>
				</g>
				<g>
					<g>
						<g>
							<g>
								<path class="st5" d="M75.44,274.6l-2.08,12.67c0,0,23.98,5.36,39.09,1.48c15.11-3.87,51.57-7.52,57.8-7.77l-3.99-16.86
									C166.25,264.13,119.49,278.86,75.44,274.6z"/>
							</g>
						</g>
					</g>
					<g>
						<g>
							<g>
								<g>
									<path class="st10" d="M126.68,115.76c0,0,8.91-18.1-10.01-28.14c-13.23-7.02-38.78-8.31-46.58,7.77
										c-7.25,14.95,9.06,27.54,9.06,27.54S114.08,130.4,126.68,115.76z"/>
								</g>
							</g>
						</g>
					</g>
					<g>
						<g>
							<g>
								<path class="st3" d="M95.89,94.81c0,0-16.35,2.23-10.43,10.95c3.14,4.61,20.85,7.13,20.85,7.13S109.79,96.91,95.89,94.81z"
									/>
							</g>
						</g>
					</g>
					<g>
						<g>
							<g>
								<g>
									<path class="st9" d="M164.36,259.68c0,0-60.56,20.34-86.66,10.19c0,0-8.18-2.55-11.46-18.57
										c-0.11-0.52-0.21-1.06-0.31-1.62c-1.38-7.93-1.6-18.9,0.71-34.03c2.76-18.16-1.06-27.43-2.69-45.51
										c-0.06-0.64-0.12-1.28-0.17-1.94c-0.17-1.96-0.34-4.01-0.5-6.2c-1.76-23.87-9.35-34.07,2.54-41.16
										c11.89-7.08,27.49-12.52,27.49-12.52s13.27,4.21,22.62,0c0,0,14.23,6.97,25.17,10.96c10.94,3.99,7.34,32.89,10.79,49.49
										c3.45,16.6,9.29,29.8,14.57,57.34C171.26,251.28,164.36,259.68,164.36,259.68z"/>
								</g>
							</g>
						</g>
					</g>
					<g>
						<g>
							<g>
								<path class="st10" d="M165.78,223.63c-0.45,0-0.84-0.35-0.87-0.81c-0.51-6.94-5.79-24.57-8.94-35.1
									c-0.61-2.05-1.14-3.82-1.53-5.13c-2.29-7.89-4.89-26.43-5-27.22c-0.07-0.48,0.27-0.92,0.74-0.98
									c0.48-0.07,0.92,0.27,0.98,0.74c0.03,0.19,2.69,19.2,4.94,26.97c0.38,1.31,0.91,3.07,1.52,5.12
									c3.18,10.6,8.49,28.33,9.01,35.47c0.03,0.48-0.33,0.9-0.81,0.93C165.82,223.63,165.8,223.63,165.78,223.63z"/>
							</g>
						</g>
					</g>
					<g>
						<g>
							<g>
								<g>
									<path class="st10" d="M167.42,251.28c0,0,2.58,7.92-1.07,13.25c0,0-54.41,18.89-90.91,10.07c0,0-3.29-3.96-4.2-12.08
										C71.24,262.52,115.13,273.43,167.42,251.28z"/>
								</g>
							</g>
						</g>
					</g>
					<g>
						<g>
							<g>
								<g>
									<path class="st10" d="M111.13,133.76c10.09,0,13.24-9.04,13.28-9.13c0.12-0.35-0.07-0.72-0.42-0.84
										c-0.35-0.12-0.72,0.07-0.84,0.41l0,0c-0.12,0.36-3.11,8.82-13.04,8.2c-10.31-0.64-23.56-7.46-23.69-7.52
										c-0.33-0.17-0.72-0.04-0.89,0.28c-0.17,0.32-0.04,0.72,0.28,0.89c0.55,0.29,13.62,7.01,24.21,7.67
										C110.41,133.75,110.77,133.76,111.13,133.76z"/>
								</g>
							</g>
						</g>
					</g>
					<g>
						<g>
							<g>
								<g>
									<path class="st10" d="M147.4,212.11c0,0,7,21.41,4.43,33.31c0,0-23.02,13.72-57.34,6.83c0,0-1.92-21.17-3.27-34.79
										C91.22,217.46,126.26,211.78,147.4,212.11z"/>
								</g>
							</g>
						</g>
					</g>
					<g>
						<g>
							<g>
								<g>
									<path class="st5" d="M107.19,228.57c0.26,0,0.48-0.21,0.49-0.47C109.8,182.36,97,113.76,96.87,113.07
										c-0.05-0.27-0.31-0.45-0.58-0.4c-0.27,0.05-0.45,0.31-0.4,0.58c0.13,0.69,12.9,69.18,10.79,114.8
										c-0.01,0.27,0.2,0.51,0.47,0.52C107.17,228.57,107.18,228.57,107.19,228.57z"/>
								</g>
							</g>
						</g>
					</g>
					<g>
						<g>
							<g>
								<g>
									<path class="st5" d="M137.75,225.49c0.01,0,0.01,0,0.02,0c0.27-0.01,0.49-0.24,0.48-0.51
										c-1.66-55.23-20.42-111.59-20.61-112.15c-0.09-0.26-0.37-0.4-0.63-0.31c-0.26,0.09-0.4,0.37-0.31,0.63
										c0.19,0.56,18.9,56.78,20.56,111.86C137.26,225.28,137.48,225.49,137.75,225.49z"/>
								</g>
							</g>
						</g>
					</g>
					<g>
						<g>
							<g>
								<g>
									<path class="st3" d="M135,116.42c0,0,3.56,34.41-9.87,57.92c-17.95,31.4-58.5,41.31-58.5,41.31s-2.03-5.16,0.11-12.66
										c0,0,37.52-6.98,53.23-38.35c12.78-25.53,6.7-51.01,6.7-51.01S132.2,113.62,135,116.42z"/>
								</g>
							</g>
						</g>
					</g>
					<g>
						<g>
							<g>
								<g>
									<g>
										<g>
											<g>
												<path class="st3" d="M103.77,202.73c0.23-0.01,0.47-0.03,0.7-0.05c1.16-0.09,2.32-0.26,3.45-0.49
													c0.62-0.12,1.22-0.26,1.82-0.43c0.91-0.24,1.82-0.53,2.71-0.85c0.64-0.23,1.27-0.49,1.9-0.76
													c8.75-3.82,16.06-11.46,19.54-20.36c0.25-0.64,0.49-1.29,0.69-1.95c0.38-1.17,0.69-2.36,0.92-3.56
													c0.12-0.6,0.22-1.21,0.3-1.82c0.15-1.08,0.24-2.17,0.26-3.27c0-0.23,0.01-0.47,0.01-0.7
													c-0.05-11.17-16.14-17.84-16.14-17.84l-4.31,7.54l-0.99,1.73l-7.69,13.45l-12.73,8.29l-1.65,1.07l-7.55,4.92
													C85.02,187.66,92.62,203.33,103.77,202.73z"/>
											</g>
										</g>
									</g>
								</g>
							</g>
						</g>
						<g class="st14">
							<g>
								<g>
									<g>
										<g>
											<path class="st4" d="M107.92,202.2c0.62-0.12,1.22-0.26,1.82-0.43c-3.08-8.4-10.18-15.58-15.53-20.1l-1.65,1.07
												C97.75,187.07,104.85,194.11,107.92,202.2z"/>
										</g>
									</g>
								</g>
							</g>
						</g>
						<g>
							<g class="st14">
								<g>
									<g>
										<g>
											<path class="st4" d="M121.21,166.79c4.91,4.35,9.73,6.86,14.3,7.5c0.12-0.6,0.22-1.21,0.3-1.82
												c-8.22-1.14-15.81-8.87-20.19-14.27l-0.99,1.73C116.4,162.07,118.64,164.51,121.21,166.79z"/>
										</g>
									</g>
								</g>
							</g>
							<g>
								<g>
									<g>
										<g>
											<g>
												<path class="st4" d="M119.93,150.66c0,0,12.85,6.74,5.46,17.96c-7.39,11.22-20.17,24.99-28.01,25.8
													c-7.84,0.81-12.44-6.68-12.44-6.68L119.93,150.66z"/>
											</g>
										</g>
									</g>
								</g>
							</g>
						</g>
						<g class="st14">
							<g>
								<g>
									<g>
										<g>
											<path class="st4" d="M112.45,200.91c0.64-0.23,1.27-0.49,1.9-0.76c0.16-3.96,1.31-8.98,5.21-13.42
												c4.17-4.75,9.85-6.43,14.33-6.95c0.25-0.64,0.49-1.29,0.69-1.95c-4.91,0.42-11.52,2.13-16.4,7.69
												C113.61,190.73,112.48,196.54,112.45,200.91z"/>
										</g>
									</g>
								</g>
							</g>
						</g>
					</g>
				</g>
				<g>
					<g>
						<g>
							<g>
								<g>
									<g>
										<g>
											<g>
												<g>
													<g>
														<g>
															<g>
																<g>
																	<path class="st12" d="M115.37,105.73l-1.26,5.76c-0.79,0.4-1.64,0.58-2.35,0.98c-12.18,6.94-21.58-2.92-21.41-3.54
																		l5.32-22.42l17.36,16.93L115.37,105.73z"/>
																</g>
															</g>
														</g>
													</g>
												</g>
											</g>
											<g>
												<g>
													<g>
														<g>
															<g>
																<g>
																	<g>
																		<g>
																			<path class="st3" d="M115.41,105.57l-1.3,5.92c-0.79,0.4-1.58,0.72-2.35,0.98
																				c-7.77-5.24-12.01-15.53-12.01-15.53l13.28,6.5L115.41,105.57z"/>
																		</g>
																	</g>
																</g>
															</g>
														</g>
													</g>
												</g>
											</g>
										</g>
									</g>
								</g>
								<g>
									<path class="st3" d="M92.45,64.46c0,0-6.06-4.64-3.1-10.2c2.96-5.56,8.82-3.81,8.82-3.81s0.1-6.1,5.18-7.85
										c5.09-1.75,8.21,3.04,8.21,3.04s2.32-5.87,7.49-5.21c5.17,0.65,5.02,5.64,5.02,5.64s4.96-4.27,10.33-0.84
										c5.37,3.44,1.32,8.31,1.32,8.31s4.78,1.36,2.97,6.37c-0.95,2.63-5.13,3.92-5.13,3.92L92.45,64.46z"/>
									<g>
										<path class="st3" d="M95.23,62.76c0,0-4.1-0.58-6,4.14c-1.96,4.87,1.35,7.4,1.35,7.4s-3.42,2.88-1.86,6.81
											c1.56,3.93,5.44,2.58,5.44,2.58s-4.36,3.88-1.24,7.3c3.13,3.42,8.95-4.04,8.95-4.04L95.23,62.76z"/>
									</g>
									<g>
										<g>
											<g>
												<g>
													<g>
														<g>
															<g>
																<g>
																	<path class="st3" d="M128.75,58.61c0,0,13.59,4.93,4.43,13.48C133.18,72.09,127.6,62.35,128.75,58.61z"/>
																</g>
																<g>
																	<path class="st3" d="M129.42,68.46c0,0,4.5-0.61,5.8,2.96c1.3,3.56-2.22,5.47-2.22,5.47s2.22,2.33,0.59,6.23
																		c-1.63,3.9-4.35,3.1-4.35,3.1s2.62,2.52-0.58,5.88c-3.19,3.36-7.2-2.77-7.2-2.77L129.42,68.46z"/>
																</g>
															</g>
														</g>
													</g>
												</g>
											</g>
										</g>
									</g>
									<g>
										<g>
											<g>
												<g>
													<g>
														<g>
															<g>
																<g>
																	<path class="st15" d="M127.35,81.61c0,0,4.12-3.15,5.12,1.12c1,4.27-2.14,11.78-6.83,9.41L127.35,81.61z"/>
																</g>
															</g>
														</g>
													</g>
												</g>
											</g>
										</g>
									</g>
									<g>
										<g>
											<g>
												<path class="st12" d="M128.68,96.11c0,0-2.6,11.91-14.97,9.17c-12.3-2.72-18.57-14.23-18.91-14.77
													c-0.01-0.01-0.01-0.01-0.01-0.01l0.41-2.53l2.15-13.14l1.15-7.02c0,0,1.17-12.85,13.55-12.52
													c9.05,0.24,16.87,3.47,19.98,8.9c1.15,2,1.65,4.31,1.34,6.87l-2.35,12.55l-0.58,3.08L128.68,96.11z"/>
											</g>
										</g>
									</g>
									<g>
										<g>
											<path class="st3" d="M117.36,95.37c0.95,0.14,1.58-0.08,1.61-0.09c0.18-0.06,0.27-0.26,0.21-0.44
												c-0.06-0.18-0.26-0.27-0.44-0.21c-0.05,0.02-1.18,0.39-2.69-0.4c-0.17-0.09-0.38-0.02-0.47,0.15
												c-0.09,0.17-0.02,0.38,0.15,0.47C116.33,95.15,116.89,95.3,117.36,95.37z"/>
										</g>
									</g>
									<g>
										<path class="st5" d="M124.45,88c0,0-6.44-0.09-11.6-2.79c0,0-0.08,7.58,6.13,7.47C123.55,92.59,124.45,88,124.45,88z"/>
									</g>
									<g>
										<path class="st3" d="M120.74,84.81c-1.12-0.43-2.29-1.14-2.94-1.56c-0.24-0.15-0.31-0.48-0.16-0.72
											c0.16-0.24,0.48-0.31,0.72-0.16c1.77,1.14,3.77,1.98,4.13,1.73l0,0c0,0,0.01-0.04,0.01-0.13
											c-0.13-4.47-2.22-5.41-2.24-5.42c-0.23-0.1-0.36-0.35-0.31-0.59l0.9-3.94c0.06-0.28,0.34-0.45,0.62-0.39
											c0.27,0.06,0.45,0.34,0.39,0.62l-0.82,3.57c0.77,0.52,2.37,2.09,2.49,6.13c0.02,0.65-0.33,0.94-0.54,1.06
											C122.48,85.31,121.63,85.15,120.74,84.81z"/>
									</g>
									<g>
										<path class="st3" d="M117.41,72.05c2.67-0.58,2.32-4.57-0.41-4.76c-2.38-0.16-5.37,0.08-6.99,1.97
											c-2.97,3.45,4.45,3.36,7.31,2.81C117.35,72.06,117.38,72.05,117.41,72.05z"/>
									</g>
									<g>
										<path class="st3" d="M124.25,74.13c-2.06-1.47-0.31-4.73,2.08-3.9c2.08,0.73,4.53,2.03,5.23,4.22
											c1.27,4.02-5.01,1.24-7.25-0.28C124.3,74.16,124.28,74.14,124.25,74.13z"/>
									</g>
									<g>
										<g>
											<g>
												<g>
													<g>
														<g>
															<g>
																<g>
																	<path class="st3" d="M99.67,79.08c-0.27-1.94-1.45-4.21-4.8-5.74c-0.4-1.09-1.01-2.69-0.7-5.34
																		c0.3-2.58-0.02-5.15,1.54-7.88c0,0,3.96-5.17,16.34-4.84c9.04,0.24,16.87,3.47,19.98,8.9
																		c-0.18,0.4-0.47,0.68-0.78,0.95c-3.11,2.67-7.81,1.05-12.73-1.74c-4.91-2.78-10.07-0.36-10.07-0.36
																		c0.6,0.4,0.99,1.11,0.95,2.3c-0.03,0.86-0.29,1.7-0.69,2.46c-0.5,0.95-1.31,2.14-2.2,1.94c0,0,1.27,2.97-0.5,4.67
																		c-1.76,1.7-2.55,1.65-2.55,1.65s1.23,2.51-0.35,4.21C102,81.47,99.67,79.08,99.67,79.08z"/>
																</g>
															</g>
														</g>
													</g>
												</g>
											</g>
										</g>
									</g>
									<g class="st16">
										<g>
											<g>
												<g>
													<g>
														<g>
															<g>
																<g>
																	<g>
																		<path class="st15" d="M114.54,81.57c-0.19,0.87-2.13,1.18-4.33,0.69c-2.2-0.48-3.83-1.58-3.64-2.44
																			c0.19-0.87,2.13-1.18,4.33-0.69C113.1,79.61,114.73,80.71,114.54,81.57z"/>
																	</g>
																</g>
															</g>
														</g>
													</g>
												</g>
											</g>
										</g>
									</g>
									<g class="st16">
										<g>
											<g>
												<g>
													<g>
														<g>
															<g>
																<g>
																	<g>
																		<path class="st15" d="M130.45,86.66c-0.31-0.04-0.64-0.09-0.97-0.16c-2.2-0.48-3.83-1.58-3.64-2.45
																			c0.19-0.87,2.13-1.18,4.33-0.7c0.3,0.07,0.59,0.14,0.86,0.23L130.45,86.66z"/>
																	</g>
																</g>
															</g>
														</g>
													</g>
												</g>
											</g>
										</g>
									</g>
									<g>
										<g>
											<g>
												<g>
													<g>
														<g>
															<g>
																<g>
																	<path class="st3" d="M99.74,86.52c-0.09,0.12-2.45,3.41-4.94,3.98c-0.01-0.01-0.01-0.01-0.01-0.01l0.41-2.53
																		C95.21,87.95,97.24,88.05,99.74,86.52z"/>
																</g>
															</g>
														</g>
													</g>
												</g>
											</g>
										</g>
									</g>
									<g>
										<g>
											<g>
												<g>
													<g>
														<g>
															<g>
																<g>
																	<path class="st12" d="M99.37,77.77c0,0-3.36-7.44-7.95-3.18c-3.78,3.51-0.72,15.49,5.78,13.04L99.37,77.77z"/>
																</g>
															</g>
														</g>
													</g>
												</g>
											</g>
										</g>
									</g>
									<g>
										<g>
											<g>
												<g>
													<g>
														<g>
															<g>
																<g>
																	<g>
																		<g>
																			<path class="st5" d="M92.83,84.55c-0.13,0.61,0.25,1.2,0.86,1.34c0.61,0.13,1.2-0.25,1.34-0.86
																				c0.13-0.61-0.25-1.2-0.86-1.34C93.56,83.56,92.96,83.94,92.83,84.55z"/>
																		</g>
																	</g>
																</g>
															</g>
														</g>
													</g>
												</g>
											</g>
										</g>
									</g>
									<g>
										<g>
											<g>
												<g>
													<g>
														<g>
															<g>
																<g>
																	<path class="st3" d="M96.98,85.57c0.02,0,0.04,0.01,0.05,0.01c0.28,0.03,0.52-0.17,0.55-0.45
																		c0.6-5.57-3.56-8.46-3.74-8.58c-0.23-0.16-0.54-0.1-0.7,0.13c-0.16,0.23-0.1,0.54,0.13,0.7l0,0
																		c0.16,0.11,3.84,2.68,3.31,7.64C96.56,85.28,96.73,85.51,96.98,85.57z"/>
																</g>
															</g>
														</g>
													</g>
												</g>
											</g>
										</g>
									</g>
									<g>
										<g>
											<g>
												<g>
													<g>
														<g>
															<g>
																<g>
																	<path class="st3" d="M93.06,81.59c0.11,0.02,0.23,0.01,0.33-0.04l0,0c0.5-0.25,1.98-0.82,2.78-0.42
																		c0.25,0.12,0.55,0.03,0.67-0.22c0.12-0.25,0.02-0.55-0.22-0.67c-1.39-0.7-3.45,0.3-3.68,0.41
																		c-0.25,0.12-0.35,0.43-0.22,0.67C92.79,81.47,92.92,81.56,93.06,81.59z"/>
																</g>
															</g>
														</g>
													</g>
												</g>
											</g>
										</g>
									</g>
								</g>
							</g>
							<g>
								<g>
									<g>
										<g>
											<g>
												<g>
													<g>
														<path class="st3" d="M115.43,76.59c-0.23,1.23-0.97,2.13-1.66,2c-0.69-0.13-1.06-1.23-0.84-2.46
															c0.23-1.23,0.97-2.13,1.66-2C115.28,74.26,115.66,75.36,115.43,76.59z"/>
													</g>
												</g>
											</g>
										</g>
									</g>
								</g>
								<g>
									<g>
										<g>
											<g>
												<g>
													<g>
														<path class="st3" d="M127.62,78.83c-0.23,1.23-0.97,2.13-1.66,2c-0.69-0.13-1.06-1.23-0.84-2.46
															c0.23-1.23,0.97-2.13,1.66-2C127.47,76.49,127.85,77.6,127.62,78.83z"/>
													</g>
												</g>
											</g>
										</g>
									</g>
								</g>
							</g>
						</g>
					</g>
					<g>
						<g>
							<g>
								<g>
									<path class="st10" d="M86.29,106.64c0,0,17.47,7.67,20.9,7.64c0,0-4.46,4.17-11.51,4.86c-9.25,0.91-24.84-1.1-24.84-1.1
										S75.43,108.53,86.29,106.64z"/>
								</g>
							</g>
						</g>
						<g>
							<g>
								<g>
									<path class="st10" d="M115.41,105.3c0,0,0,7.17-8.22,8.97c0,0,1.55,5.36,8.56,4.36c7.01-0.99,10.93-5.02,10.93-5.02
										S120.94,105.3,115.41,105.3z"/>
								</g>
							</g>
						</g>
					</g>
				</g>
				<g>
					<g>
						<g>
							<path class="st9" d="M93.98,250.43c0,0-27.81,4.74-46.94-6.56c-10.86-6.42-18.93-18-17.52-38.56
								c0.02-0.31,0.04-0.62,0.07-0.94c4.51-55.5,33.15-80.61,33.15-80.61c10.73-2.79,22.66,0.08,6.11,70.73
								c-4.86,28.66,22.79,31.01,22.79,31.01L93.98,250.43z"/>
						</g>
					</g>
					<g>
						<g>
							<g>
								<path class="st10" d="M68.28,201.03c-0.09,0-0.18-0.01-0.27-0.04c-0.46-0.15-0.71-0.64-0.56-1.1
									c0.11-0.34,11.15-34.52,11.34-52.58c0.01-0.48,0.39-0.86,0.88-0.86c0.48,0.01,0.87,0.4,0.86,0.88
									c-0.19,18.33-11.31,52.76-11.42,53.1C68.99,200.79,68.65,201.03,68.28,201.03z"/>
							</g>
						</g>
						<g>
							<g>
								<path class="st10" d="M78.25,161.67c-0.16,0-0.31-0.04-0.46-0.13c-0.41-0.25-0.54-0.79-0.28-1.2l5.09-8.26
									c0.25-0.41,0.79-0.54,1.2-0.28c0.41,0.25,0.54,0.79,0.28,1.2l-5.09,8.26C78.83,161.53,78.54,161.67,78.25,161.67z"/>
							</g>
						</g>
					</g>
					<g>
						<g>
							<path class="st10" d="M88.08,252.29c-0.34,0-0.66-0.2-0.8-0.53c-3.2-7.49-2.47-28.65-2.44-29.54
								c0.02-0.48,0.42-0.86,0.9-0.84c0.48,0.02,0.86,0.42,0.84,0.9c-0.01,0.22-0.75,21.66,2.3,28.8c0.19,0.44-0.02,0.96-0.46,1.14
								C88.31,252.26,88.2,252.29,88.08,252.29z"/>
						</g>
					</g>
					<g>
						<g>
							<path class="st10" d="M94.23,251.26c-0.36,0.11-6.16,1.86-14.24,1.86c-4.13,0-8.86-0.46-13.76-1.83
								c-0.11-0.52-0.21-1.06-0.31-1.62c0.2-0.12,0.44-0.16,0.68-0.09c14,3.95,26.98,0.05,27.11,0.01c0.46-0.14,0.95,0.12,1.09,0.58
								C94.95,250.63,94.7,251.12,94.23,251.26z"/>
						</g>
					</g>
					<g>
						<g>
							<path class="st10" d="M86.11,223.12c-0.36,0-0.72-0.01-1.1-0.04c-3.74-0.24-9.16-1.88-13.81-8.31
								c-0.28-0.39-0.19-0.94,0.2-1.22c0.39-0.28,0.94-0.19,1.22,0.2c8.11,11.23,18.7,6.72,18.81,6.68
								c0.44-0.19,0.96,0.01,1.15,0.45c0.19,0.44,0,0.96-0.45,1.15C92.01,222.07,89.59,223.12,86.11,223.12z"/>
						</g>
					</g>
					<g>
						<g>
							<path class="st10" d="M47.04,243.87c-10.86-6.42-18.93-18-17.52-38.56C37.16,213.76,49.46,229.88,47.04,243.87z"/>
						</g>
					</g>
				</g>
			</g>
		</g>
		<g>
			<g>
				<g>
					<g>
						<path class="st6" d="M225.53,115.66H179.9c-0.76,0-1.38-0.62-1.38-1.38V76.74c0-0.76,0.62-1.38,1.38-1.38h45.64
							c0.76,0,1.38,0.62,1.38,1.38v37.54C226.91,115.04,226.29,115.66,225.53,115.66z"/>
					</g>
				</g>
			</g>
		</g>
		<path class="st6" d="M212.75,114.05l4.24,8.48c0.17,0.35,0.68,0.31,0.8-0.06l2.77-8.42H212.75z"/>
		<g>
			<g>
				<g>
					<g>
						<path class="st5" d="M212.38,102.63c-0.02,0-0.04,0-0.06-0.01l-24.6-4.15c-0.16-0.03-0.28-0.15-0.3-0.31l-1.61-10.63
							c-0.02-0.11,0.01-0.22,0.09-0.3c0.07-0.08,0.17-0.13,0.28-0.13h29.3c0.11,0,0.22,0.05,0.29,0.14c0.07,0.09,0.1,0.2,0.08,0.31
							l-3.09,14.78C212.71,102.51,212.56,102.63,212.38,102.63z M188.11,97.79l23.98,4.05l2.92-13.99H186.6L188.11,97.79z"/>
					</g>
				</g>
			</g>
			<g>
				<g>
					<path class="st5" d="M214.43,92.15C214.43,92.15,214.43,92.15,214.43,92.15l-27.67-0.81c-0.17-0.01-0.3-0.15-0.3-0.32
						c0.01-0.17,0.14-0.3,0.32-0.3l27.66,0.81c0.17,0.01,0.3,0.15,0.3,0.32C214.74,92.02,214.6,92.15,214.43,92.15z"/>
				</g>
			</g>
			<g>
				<g>
					<path class="st5" d="M213.17,97.37c-0.01,0-0.02,0-0.03,0l-25.91-2.53c-0.17-0.02-0.29-0.17-0.28-0.34
						c0.02-0.17,0.17-0.29,0.34-0.28l25.91,2.53c0.17,0.02,0.29,0.17,0.28,0.34C213.47,97.25,213.33,97.37,213.17,97.37z"/>
				</g>
			</g>
			<g>
				<g>
					<g>
						<path class="st5" d="M215.47,87.85c-0.03,0-0.05,0-0.08-0.01c-0.2-0.04-0.32-0.24-0.28-0.44l1.17-5.17
							c0.04-0.17,0.19-0.29,0.36-0.29h4.93c0.2,0,0.37,0.17,0.37,0.37c0,0.2-0.17,0.37-0.37,0.37h-4.64l-1.1,4.89
							C215.79,87.73,215.64,87.85,215.47,87.85z"/>
					</g>
				</g>
			</g>
			<g>
				<g>
					<path class="st5" d="M223.47,83.28h-4.44c-0.28,0-0.51-0.23-0.51-0.51v-0.91c0-0.28,0.23-0.51,0.51-0.51h4.44
						c0.28,0,0.51,0.23,0.51,0.51v0.91C223.99,83.05,223.76,83.28,223.47,83.28z"/>
				</g>
			</g>
			<g>
				<g>
					<g>
						<path class="st5" d="M211.58,106.19h-22.6c-0.2,0-0.37-0.17-0.37-0.37c0-0.2,0.17-0.37,0.37-0.37h22.31l0.74-3.27
							c0.04-0.2,0.24-0.32,0.44-0.28c0.2,0.04,0.32,0.24,0.28,0.44l-0.8,3.56C211.9,106.07,211.75,106.19,211.58,106.19z"/>
					</g>
				</g>
			</g>
			<g>
				<g>
					<g>
						<g>
							<path class="st5" d="M196.47,109.87c-1.1,0-2-0.9-2-2c0-1.1,0.9-2,2-2c1.1,0,2,0.9,2,2
								C198.47,108.98,197.58,109.87,196.47,109.87z M196.47,106.5c-0.75,0-1.37,0.61-1.37,1.37c0,0.75,0.61,1.37,1.37,1.37
								c0.75,0,1.37-0.61,1.37-1.37C197.84,107.12,197.22,106.5,196.47,106.5z"/>
						</g>
					</g>
				</g>
			</g>
			<g>
				<g>
					<g>
						<g>
							<path class="st5" d="M204.63,109.87c-1.1,0-2-0.9-2-2c0-1.1,0.9-2,2-2c1.1,0,2,0.9,2,2
								C206.64,108.98,205.74,109.87,204.63,109.87z M204.63,106.5c-0.75,0-1.37,0.61-1.37,1.37c0,0.75,0.61,1.37,1.37,1.37
								s1.37-0.61,1.37-1.37C206,107.12,205.39,106.5,204.63,106.5z"/>
						</g>
					</g>
				</g>
			</g>
		</g>
	</g>
	<g>
		<g>
			<g>
				<g>
					<path class="st3" d="M264.73,476.51L264.73,476.51c-0.58-0.02-1.03-0.5-1-1.08c0.12-2.51,0.57-9.12,1.93-15.66
						c2.4-11.52,6.41-17.35,11.92-17.35c5.52,0,9.43,5.84,11.62,17.37c1.24,6.54,1.56,13.16,1.64,15.66
						c0.02,0.58-0.44,1.06-1.02,1.06l0,0c-0.56,0.01-1.03-0.44-1.04-1c-0.23-9.53-2.57-31.03-11.2-31.03
						c-8.64,0-11.38,21.51-11.79,31.05C265.76,476.09,265.29,476.52,264.73,476.51z"/>
				</g>
			</g>
			<g>
				<polygon class="st13" points="312.96,555.8 238.23,555.8 248.52,472.64 302.67,472.64 				"/>
			</g>
			<g>
				<polygon class="st11" points="309.18,555.8 234.45,555.8 244.74,472.64 298.89,472.64 				"/>
			</g>
			<polygon class="st13" points="271.82,528.43 282.57,534.08 280.52,522.11 289.21,513.63 277.19,511.88 271.82,500.99 
				266.44,511.88 254.42,513.63 263.12,522.11 261.06,534.08 			"/>
			<g>
				<g>
					<circle class="st13" cx="259.92" cy="476.8" r="2.55"/>
				</g>
				<g>
					<circle class="st13" cx="286.04" cy="476.8" r="2.55"/>
				</g>
				<g>
					<g>
						<path class="st3" d="M259.99,476.51L259.99,476.51c-0.6-0.02-1.06-0.52-1.03-1.12c0.13-2.59,0.58-9.43,1.99-16.2
							c2.48-11.91,6.63-17.94,12.32-17.94c5.71,0,9.75,6.04,12.01,17.96c1.28,6.77,1.61,13.6,1.69,16.2c0.02,0.6-0.46,1.09-1.05,1.1
							l0,0c-0.58,0.01-1.06-0.46-1.07-1.04c-0.24-9.85-2.65-32.08-11.58-32.08c-8.94,0-11.77,22.24-12.19,32.1
							C261.05,476.07,260.57,476.52,259.99,476.51z"/>
					</g>
				</g>
			</g>
		</g>
		<g>
			<g>
				<g>
					<path class="st3" d="M206.14,465.74L206.14,465.74c-0.66-0.02-1.17-0.57-1.14-1.23c0.14-2.85,0.64-10.36,2.19-17.79
						c2.72-13.08,7.28-19.71,13.54-19.71c6.27,0,10.71,6.64,13.19,19.73c1.41,7.43,1.77,14.94,1.86,17.79
						c0.02,0.66-0.5,1.2-1.16,1.2l0,0c-0.64,0.01-1.16-0.5-1.18-1.14c-0.26-10.82-2.91-35.24-12.72-35.24
						c-9.82,0-12.93,24.43-13.39,35.26C207.31,465.26,206.78,465.76,206.14,465.74z"/>
				</g>
			</g>
			<g>
				<polygon class="st7" points="260.92,555.8 176.04,555.8 187.73,461.34 249.23,461.34 				"/>
			</g>
			<g>
				<polygon class="st6" points="256.63,555.8 171.75,555.8 183.44,461.34 244.94,461.34 				"/>
			</g>
			<g>
				<g>
					<path class="st7" d="M216.89,531.67c-0.02,0-0.03,0-0.05,0l0,0l-0.15,0c-5.29-0.01-10.25-2.08-13.98-5.83
						c-3.73-3.75-5.78-8.72-5.76-14.01l0-0.15c0.03-10.9,8.9-19.75,19.79-19.75c0.02,0,0.03,0,0.05,0h0.15
						c10.92,0.03,19.77,8.93,19.75,19.84l0,0.15c-0.01,5.29-2.08,10.25-5.83,13.98C227.11,529.62,222.16,531.67,216.89,531.67z
						 M216.84,530.32c0.01,0,0.03,0,0.04,0c4.91,0,9.53-1.91,13.01-5.37c3.49-3.48,5.42-8.1,5.43-13.03l0-0.15
						c0.02-10.17-8.23-18.46-18.4-18.48h-0.15c-0.01,0-0.03,0-0.04,0c-10.15,0-18.42,8.24-18.44,18.4l0,0.15
						c-0.01,4.93,1.9,9.56,5.37,13.05c3.47,3.49,8.1,5.42,13.03,5.43L216.84,530.32z"/>
				</g>
				<g>
					<path class="st7" d="M217.15,524.98C217.15,524.98,217.15,524.98,217.15,524.98c-0.18,0-0.35-0.07-0.48-0.2l-9.58-9.62
						c-1.48-1.49-2.3-3.48-2.29-5.6c0-2.12,0.83-4.1,2.32-5.58c1.31-1.31,2.98-1.94,4.69-1.77c1.94,0.19,3.83,1.39,5.39,3.4
						c1.57-2,3.47-3.19,5.41-3.38c1.71-0.16,3.37,0.47,4.68,1.79c1.48,1.49,2.3,3.48,2.29,5.59c0,2.12-0.83,4.1-2.32,5.58
						l-9.62,9.58C217.5,524.91,217.33,524.98,217.15,524.98z"/>
				</g>
			</g>
			<g>
				<g>
					<circle class="st7" cx="200.68" cy="466.07" r="2.9"/>
				</g>
				<g>
					<path class="st7" d="M233.24,466.07c0,1.6-1.3,2.9-2.9,2.9c-1.6,0-2.9-1.3-2.9-2.9c0-1.6,1.3-2.9,2.9-2.9
						C231.94,463.18,233.24,464.47,233.24,466.07z"/>
				</g>
				<g>
					<g>
						<path class="st3" d="M200.75,465.74L200.75,465.74c-0.68-0.02-1.21-0.59-1.17-1.27c0.15-2.94,0.66-10.71,2.26-18.4
							c2.82-13.52,7.53-20.38,14-20.38c6.48,0,11.07,6.86,13.64,20.4c1.46,7.69,1.83,15.45,1.92,18.4c0.02,0.68-0.52,1.24-1.2,1.25
							l0,0c-0.66,0.01-1.2-0.52-1.22-1.18c-0.27-11.19-3.01-36.44-13.15-36.44c-10.15,0-13.37,25.26-13.85,36.46
							C201.96,465.24,201.41,465.76,200.75,465.74z"/>
					</g>
				</g>
			</g>
		</g>
	</g>
	<g>
		<g>
			<g>
				<path class="st1" d="M553.95,96.99c0,0-0.01,0-0.01,0l-6.01-0.17c-0.14,0-0.27-0.06-0.37-0.17c-0.1-0.1-0.15-0.24-0.14-0.38
					l0.11-4.02c-2.52-0.26-5.06-0.85-7.22-1.66c-1.3-0.49-2.45-1.05-3.39-1.67c-0.22-0.14-0.3-0.43-0.19-0.67l3.44-7.24
					c0.06-0.14,0.18-0.24,0.33-0.28c0.14-0.04,0.3-0.02,0.43,0.06c1.7,1.07,3.8,1.93,5.93,2.43c1.24,0.29,2.44,0.46,3.57,0.49
					c1.3,0.04,2.24-0.07,2.8-0.3c0.5-0.21,0.57-0.46,0.58-0.7c0.02-0.86-1.8-1.38-3.84-1.87l-0.72-0.17
					c-2.32-0.55-4.95-1.18-7.16-2.45c-1.64-0.94-2.79-2.08-3.52-3.5c-0.65-1.24-0.95-2.7-0.9-4.32c0.15-5.32,4.26-9.12,10.77-10
					l0.12-4.19c0-0.14,0.06-0.27,0.16-0.37c0.1-0.1,0.24-0.15,0.38-0.14l6.01,0.17c0.29,0.01,0.52,0.25,0.51,0.54l-0.12,4.08
					c0.99,0.14,1.97,0.33,2.91,0.57c2.05,0.51,3.87,1.24,5.4,2.16c0.23,0.14,0.32,0.42,0.21,0.67l-3.23,7.2
					c-0.06,0.13-0.17,0.24-0.31,0.28c-0.14,0.05-0.29,0.03-0.42-0.04c-0.2-0.11-0.39-0.21-0.59-0.31c-2.58-1.31-5.07-2.01-7.42-2.08
					c-0.18-0.01-0.34-0.01-0.49-0.01c-1.31,0.01-2.86,0.24-2.89,1.26c0,0.15,0.04,0.36,0.4,0.61c0.75,0.53,2.29,0.88,4.08,1.29
					c1.16,0.27,2.47,0.57,3.76,0.96c2.38,0.74,5.7,2.08,7.17,5.21v0c0.54,1.16,0.79,2.5,0.75,3.97c-0.15,5.1-4.05,8.87-10.21,9.91
					l-0.12,4.29c0,0.14-0.06,0.27-0.16,0.37C554.22,96.94,554.09,96.99,553.95,96.99z M548.49,95.78l4.95,0.14l0.12-4.2
					c0.01-0.26,0.2-0.47,0.45-0.51c5.97-0.87,9.61-4.22,9.75-8.97c0.04-1.31-0.18-2.49-0.65-3.5l0,0c-0.98-2.1-3.05-3.58-6.52-4.65
					c-1.24-0.38-2.54-0.68-3.68-0.94c-1.89-0.43-3.53-0.81-4.45-1.45c-0.58-0.4-0.87-0.91-0.86-1.51c0.03-1.03,0.73-2.25,3.94-2.28
					c0.17,0,0.35,0,0.54,0.01c2.5,0.07,5.15,0.81,7.87,2.19c0.04,0.02,0.07,0.04,0.11,0.06l2.81-6.25
					c-1.36-0.75-2.94-1.36-4.71-1.81c-1.04-0.26-2.14-0.47-3.25-0.61c-0.27-0.03-0.47-0.27-0.46-0.54l0.11-4.03l-4.95-0.14
					l-0.12,4.12c-0.01,0.26-0.21,0.48-0.47,0.51c-6.3,0.7-10.15,4.08-10.29,9.03c-0.04,1.45,0.22,2.73,0.79,3.81
					c0.64,1.23,1.65,2.23,3.11,3.07c2.08,1.19,4.63,1.8,6.88,2.33l0.72,0.17c2.2,0.53,4.7,1.14,4.65,2.92
					c-0.01,0.52-0.24,1.23-1.22,1.64c-0.71,0.3-1.77,0.42-3.24,0.38c-1.2-0.04-2.47-0.21-3.78-0.52c-2.03-0.48-4.05-1.27-5.74-2.26
					l-2.99,6.29c0.8,0.48,1.74,0.93,2.8,1.32c2.21,0.83,4.85,1.42,7.44,1.64c0.28,0.02,0.49,0.26,0.48,0.54L548.49,95.78z"/>
			</g>
		</g>
		<g>
			<g>
				<path class="st1" d="M262.71,42.12L262.71,42.12c0,0.33,0.27,0.6,0.6,0.6h149.44c0.33,0,0.6-0.27,0.6-0.6l0,0
					c0-0.33-0.27-0.6-0.6-0.6H263.31C262.98,41.52,262.71,41.79,262.71,42.12z"/>
			</g>
		</g>
		<g>
			<g>
				<path class="st1" d="M71.04,314.13c0-0.33-0.27-0.6-0.6-0.6H19.78c-0.3,0-0.58,0.21-0.63,0.5c-0.06,0.38,0.23,0.71,0.6,0.71
					h50.69C70.77,314.74,71.04,314.46,71.04,314.13L71.04,314.13z"/>
			</g>
		</g>
		<g>
			<g>
				<g>
					<g>
						<path class="st1" d="M44.96,96.46c-0.08,0-0.16-0.02-0.23-0.05l-8.11-3.59c-2.27,0.93-4.69,1.41-7.19,1.41h-0.19
							c-5.05-0.01-9.8-1.99-13.36-5.57c-3.56-3.58-5.52-8.33-5.51-13.39v-0.15c0.02-10.41,8.51-18.87,18.91-18.87h0.19
							c10.43,0.02,18.9,8.53,18.87,18.96v0.15c0,0,0,0,0,0c-0.01,4.39-1.47,8.49-4.22,11.86l1.4,8.57c0.03,0.21-0.05,0.42-0.21,0.54
							C45.2,96.42,45.08,96.46,44.96,96.46z M36.62,91.63c0.08,0,0.16,0.02,0.23,0.05l7.37,3.27l-1.27-7.79
							c-0.03-0.16,0.02-0.33,0.13-0.46c2.69-3.2,4.11-7.12,4.13-11.34v-0.15c0.02-9.8-7.93-17.79-17.73-17.82h-0.19
							c-9.78,0-17.75,7.96-17.77,17.73v0.15c-0.01,4.75,1.83,9.22,5.18,12.58c3.35,3.36,7.81,5.22,12.55,5.24h0.19
							c2.42,0,4.77-0.48,6.97-1.41C36.47,91.64,36.54,91.63,36.62,91.63z M47.77,75.36L47.77,75.36L47.77,75.36z"/>
					</g>
				</g>
			</g>
			<g>
				<g>
					<path class="st1" d="M29.69,88.35C29.69,88.35,29.69,88.35,29.69,88.35c-0.18,0-0.35-0.07-0.48-0.2l-9.53-9.57
						c-1.48-1.48-2.29-3.46-2.28-5.57c0-2.11,0.82-4.08,2.3-5.55c1.31-1.3,2.96-1.93,4.66-1.76c1.93,0.19,3.81,1.38,5.36,3.38
						c1.56-1.99,3.45-3.18,5.38-3.36c1.7-0.16,3.35,0.47,4.65,1.78c1.47,1.48,2.28,3.46,2.28,5.56c0,2.11-0.82,4.08-2.31,5.55
						l-9.57,9.53C30.04,88.28,29.87,88.35,29.69,88.35z M23.82,67.03c-1.15,0-2.24,0.48-3.16,1.39c-1.23,1.22-1.9,2.86-1.91,4.6
						c0,1.75,0.67,3.38,1.89,4.61l9.05,9.1l9.09-9.05c1.23-1.22,1.91-2.86,1.91-4.6v0c0-1.75-0.67-3.38-1.89-4.61
						c-1.03-1.03-2.26-1.51-3.57-1.39c-1.76,0.17-3.52,1.42-4.95,3.54c-0.13,0.18-0.33,0.3-0.56,0.3c0,0,0,0,0,0
						c-0.22,0-0.43-0.11-0.56-0.3c-1.42-2.12-3.18-3.39-4.93-3.56C24.1,67.03,23.96,67.03,23.82,67.03z"/>
				</g>
			</g>
		</g>
		<g>
			<path class="st1" d="M54.98,275.58c-3.53,0-6.4,2.87-6.4,6.4c0,3.53,2.87,6.4,6.4,6.4c3.53,0,6.4-2.87,6.4-6.4
				C61.38,278.45,58.51,275.58,54.98,275.58z M54.98,287.18c-2.87,0-5.19-2.33-5.19-5.2c0-2.87,2.33-5.19,5.19-5.19
				c2.87,0,5.19,2.33,5.19,5.19C60.18,284.84,57.85,287.18,54.98,287.18z"/>
		</g>
		<g>
			<path class="st1" d="M575.71,108.85c-3.53,0-6.4,2.87-6.4,6.4c0,3.53,2.87,6.4,6.4,6.4c3.53,0,6.4-2.87,6.4-6.4
				C582.11,111.72,579.24,108.85,575.71,108.85z M575.71,120.44c-2.86,0-5.19-2.33-5.19-5.2s2.33-5.19,5.19-5.19
				s5.19,2.33,5.19,5.19S578.57,120.44,575.71,120.44z"/>
		</g>
	</g>
</g>
</svg>
