<svg height="496pt" viewBox="0 0 496 496" width="496pt" xmlns="http://www.w3.org/2000/svg"><path d="m352 328c-44.113281 0-80-35.886719-80-80s35.886719-80 80-80 80 35.886719 80 80-35.886719 80-80 80zm0 0" fill="#f0bc5e"/><path d="m184 160h72v104h-72zm0 0" fill="#f0bc5e"/><path d="m320 32h64v16h-64zm0 0"/><path d="m400 32h16v16h-16zm0 0"/><path d="m288 32h16v16h-16zm0 0"/><path d="m328 448h48v16h-48zm0 0"/><path d="m456 0h-208c-22.054688 0-40 17.945312-40 40v88h-208v240h192v-16h-176v-208h256v208h-64v104c0 22.054688 17.945312 40 40 40h208c22.054688 0 40-17.945312 40-40v-416c0-22.054688-17.945312-40-40-40zm-208 16h208c13.230469 0 24 10.769531 24 24v24h-256v-24c0-13.230469 10.769531-24 24-24zm40 352v-240h-32v-16h192v272h-192v-16zm-48 0v32h224v-304h-224v32h-16v-48h256v336h-256v-48zm216 112h-208c-13.230469 0-24-10.769531-24-24v-24h256v24c0 13.230469-10.769531 24-24 24zm0 0"/><path d="m320 211.054688v73.890624l73.886719-36.945312zm16 25.890624 22.113281 11.054688-22.113281 11.054688zm0 0"/><path d="m163.121094 257.710938-27.121094-7.742188v-2.136719c9.96875-7.511719 16-19.328125 16-31.832031v-14.335938c0-21.503906-16.007812-39.734374-36.449219-41.503906-11.191406-.976562-22.34375 2.808594-30.574219 10.351563-8.25 7.558593-12.976562 18.3125-12.976562 29.488281v16c0 12.503906 6.03125 24.320312 16 31.832031v2.136719l-27.121094 7.742188c-17.007812 4.863281-28.878906 20.609374-28.878906 38.289062v8h160v-8c0-17.679688-11.871094-33.425781-28.878906-38.289062zm-113.722656 30.289062c2.546874-7.078125 8.378906-12.761719 15.882812-14.894531l38.71875-11.074219v-23.070312l-3.976562-2.3125c-7.527344-4.382813-12.023438-12.105469-12.023438-20.648438v-16c0-6.710938 2.839844-13.160156 7.792969-17.695312 5.007812-4.601563 11.503906-6.816407 18.382812-6.207032 12.230469 1.0625 21.824219 12.292969 21.824219 25.566406v14.335938c0 8.542969-4.496094 16.265625-12.023438 20.648438l-3.976562 2.3125v23.070312l38.71875 11.074219c7.503906 2.140625 13.335938 7.824219 15.882812 14.894531zm0 0"/><path d="m32 320h16v16h-16zm0 0"/><path d="m64 320h128v16h-128zm0 0"/><path d="m184 160h72v16h-72zm0 0"/><path d="m184 192h72v16h-72zm0 0"/><path d="m184 224h72v16h-72zm0 0"/><path d="m208 256h48v16h-48zm0 0"/></svg>