<?xml version="1.0" encoding="utf-8"?>
<!-- Generator: Adobe Illustrator 23.0.3, SVG Export Plug-In . SVG Version: 6.00 Build 0)  -->
<svg version="1.1" id="Layer_1" xmlns="http://www.w3.org/2000/svg" xmlns:xlink="http://www.w3.org/1999/xlink" x="0px" y="0px"
	 viewBox="0 0 508 508" style="enable-background:new 0 0 508 508;" xml:space="preserve">
<style type="text/css">
	.st0{fill:#FFFFFF;}
</style>
<g>
	<g>
		<path class="st0" d="M378.8,0H129.2C57.9,0,0,58,0,129.2v249.6C0,450,57.9,508,129.2,508h249.6C450,508,508,450,508,378.8V129.2
			C508,58,450,0,378.8,0z M500,378.8c0,66.8-54.4,121.2-121.2,121.2H129.2C62.4,500,8,445.6,8,378.8V129.2C8,62.4,62.4,8,129.2,8
			h249.6C445.6,8,500,62.4,500,129.2V378.8z"/>
	</g>
</g>
<g>
	<g>
		<path class="st0" d="M480.2,254c-2.2,0-4,1.8-4,4v112c0,57.6-48.6,106.2-106.2,106.2H138c-57.6,0-106.2-48.6-106.2-106.2V138
			C31.8,80.4,80.4,31.8,138,31.8h231.1c2.2,0,4-1.8,4-4s-1.8-4-4-4H138C76.1,23.8,23.8,76.1,23.8,138v232
			c0,61.9,52.3,114.2,114.2,114.2h232c61.9,0,114.2-52.3,114.2-114.2V258C484.2,255.8,482.4,254,480.2,254z"/>
	</g>
</g>
<g>
	<g>
		<path class="st0" d="M449.8,58.2c-20.9-20.9-53.9-34.4-84-34.4c-2.2,0-4,1.8-4,4s1.8,4,4,4c28.2,0,58.9,12.6,78.4,32
			c0.8,0.8,1.8,1.2,2.8,1.2s2-0.4,2.8-1.2C451.4,62.3,451.4,59.8,449.8,58.2z"/>
	</g>
</g>
<g>
	<g>
		<path class="st0" d="M480.2,166.7c-2.2,0-4,1.8-4,4v59.5c0,2.2,1.8,4,4,4s4-1.8,4-4v-59.5C484.2,168.5,482.4,166.7,480.2,166.7z"
			/>
	</g>
</g>
<g>
	<g>
		<path class="st0" d="M309.4,249.2c-1.1-1.9-3.5-2.7-5.4-1.6l-78.4,42.3l0-78l26.5,14.4c1.9,1.1,4.4,0.3,5.4-1.6
			c1.1-1.9,0.3-4.4-1.6-5.4l-32.5-17.7c-1.2-0.7-2.7-0.6-4,0.1c-1.2,0.7-2,2-2,3.4l0,91.4c0,1.4,0.7,2.7,2,3.4
			c0.6,0.4,1.3,0.6,2,0.6c0.7,0,1.3-0.2,1.9-0.5l84.3-45.5C309.7,253.6,310.4,251.1,309.4,249.2z"/>
	</g>
</g>
<g>
	<g>
		<path class="st0" d="M410.1,188.8c-0.1-1-2.8-24-12.9-34.7c-11.9-13-25.1-14.4-32.1-15.1l-1.7-0.2c-43.3-3.3-108.8-3.9-109.6-3.9
			c-0.7,0-66,0.6-109.4,3.9l-1.2,0.1c-6.5,0.7-20.2,2.2-32.3,15.4c-10.1,10.7-13,33.6-13.1,34.7c0,0.3-2.4,26.8-2.4,53v24.7
			c0,26.2,2.4,52.8,2.4,53.1c0.1,1,2.6,23.9,12.7,34.6c10.8,11.8,24.5,13.5,32.6,14.5c1.5,0.2,2.9,0.4,4.4,0.6
			c24.9,2.5,103.1,3.3,106.4,3.3c0,0,0,0,0,0c0.7,0,66.1-0.2,109.7-3.4c0.6-0.1,1.2-0.1,2-0.2c7-0.7,19.9-2.1,31.6-14.8
			c10.1-10.7,13.1-33.6,13.2-34.6c0-0.3,2.7-26.8,2.7-53.1V242C412.8,215.8,410.1,189.1,410.1,188.8z M404.8,266.7
			c0,25.8-2.6,52-2.6,52.2c-0.7,5.9-4.1,22.7-11.1,30.1c-9.6,10.5-20.2,11.6-26.5,12.3c-0.8,0.1-1.5,0.2-1.9,0.2
			c-42.8,3.2-107.4,3.4-108.9,3.4c-1.8,0-81.3-0.8-105.3-3.2c-1.3-0.2-2.8-0.4-4.5-0.7c-7.5-0.9-18.8-2.4-27.7-12.1
			c-8.3-8.8-10.6-29.7-10.6-29.9c0-0.3-2.4-26.4-2.4-52.3V242c0-25.8,2.3-52,2.4-52.2c0.7-5.9,4-22.7,11-30.1
			c10.1-11,20.9-12.2,27.3-12.9l1.1-0.1c43-3.2,108-3.8,108.8-3.8c0.7,0,65.8,0.6,108.7,3.8l1.7,0.2c6.4,0.7,17.2,1.8,27.1,12.6
			c8.3,8.8,10.8,29.9,10.8,30.1c0,0.3,2.6,26.6,2.6,52.4V266.7z"/>
	</g>
</g>
</svg>
