<?xml version="1.0" encoding="utf-8"?>
<!-- Generator: Adobe Illustrator 23.0.3, SVG Export Plug-In . SVG Version: 6.00 Build 0)  -->
<svg version="1.1" id="Camada_1" xmlns="http://www.w3.org/2000/svg" xmlns:xlink="http://www.w3.org/1999/xlink" x="0px" y="0px"
	 viewBox="0 0 452 137" style="enable-background:new 0 0 452 137;" xml:space="preserve">
<style type="text/css">
	.st0{fill:#FFFFFF;}
</style>
<g>
	<path class="st0" d="M177.51,136.38c-58.82,0-117.65,0-176.47,0.03c-0.94,0-1.01-0.27-1.01-1.08C0.05,90.56,0.05,45.79,0.02,1.02
		c0-0.9,0.21-1.03,1.06-1.03c149.98,0.02,299.96,0.02,449.94,0c0.81,0,0.99,0.19,0.98,0.99c-0.03,7.99-0.02,15.99-0.02,23.98
		c-0.7-0.24-0.51-0.85-0.53-1.34c-0.11-3.05-0.5-6.07-1.28-9.03c-1.98-7.52-7.97-12.47-15.71-13.22c-3.54-0.34-6.95-0.02-10.24,1.25
		c-2.49,0.95-4.55,2.54-6.25,4.61c-1.67,2.04-3.01,4.27-4.05,6.69c-0.24,0.56-0.4,1.5-1.13,1.36c-0.77-0.15-0.49-1.08-0.49-1.68
		c-0.03-2.72,0-5.45-0.02-8.17c-0.01-1.81-0.79-2.68-2.59-2.7c-4.01-0.06-8.03-0.06-12.04,0c-1.88,0.03-2.74,0.96-2.78,2.83
		c-0.03,1.58-0.01,3.15-0.01,4.73c0,21.5,0,43.01,0,64.51c0,0.47-0.01,0.93,0.01,1.4c0.09,1.64,1,2.58,2.66,2.63
		c1.72,0.06,3.44,0.02,5.16,0.02c2.47,0,4.95,0.01,7.42,0c2.42-0.01,3.24-0.82,3.24-3.23c0.01-13.08-0.03-26.16,0.02-39.24
		c0.01-3.85,0.47-7.66,1.9-11.28c1.48-3.72,3.96-6.29,8.12-6.8c2.54-0.31,6.06,0.68,7.72,3.82c1.09,2.07,1.58,4.29,1.8,6.59
		c0.24,2.43,0.24,4.86,0.24,7.3c-0.01,13.01-0.01,26.02-0.01,39.03c0,0.39-0.01,0.79,0.01,1.18c0.06,1.74,0.84,2.56,2.59,2.61
		c1.97,0.06,3.94,0.02,5.91,0.02c2.15,0,4.3-0.04,6.45,0.01c1.37,0.03,2.57-0.21,3.4-1.41c0.1-0.15,0.26-0.24,0.46-0.21
		c0,19.4-0.01,38.79,0.02,58.19c0,0.81-0.18,0.99-0.99,0.99c-87.3-0.02-174.59-0.02-261.89-0.02c0.12-0.61,0.63-0.49,1.01-0.5
		c8.08-0.19,16.06-1.24,24.01-2.62c7.57-1.31,15.01-3.16,22.35-5.42c6.07-1.87,12.02-4.05,17.84-6.61c9.08-4,17.75-8.71,25.75-14.62
		c0.58-0.43,1.13-0.88,1.51-1.51c1.17-1.9,0.19-4.12-2.03-4.5c-1.08-0.19-2.13-0.05-3.16,0.39c-4.78,2.04-9.65,3.85-14.56,5.55
		c-5.22,1.81-10.5,3.41-15.83,4.83c-9.54,2.54-19.19,4.52-28.97,5.83c-5.39,0.72-10.8,1.31-16.24,1.65
		c-4.08,0.25-8.15,0.31-12.23,0.44c-3.8,0.11-7.59,0.03-11.37-0.1c-6.08-0.2-12.14-0.67-18.19-1.39
		c-11.16-1.31-22.19-3.3-33.06-6.12c-12.48-3.24-24.64-7.41-36.44-12.62c-7.22-3.19-14.25-6.74-21.1-10.66
		c-0.47-0.27-0.94-0.52-1.44-0.72c-1.06-0.44-1.99-0.29-2.44,0.38c-0.46,0.68-0.34,1.84,0.35,2.59c0.6,0.66,1.32,1.21,1.99,1.8
		c5.35,4.67,10.93,9.05,16.79,13.06c8.07,5.51,16.54,10.3,25.41,14.4c8.12,3.75,16.48,6.85,25.08,9.3
		c8.59,2.46,17.32,4.27,26.2,5.37c5.37,0.67,10.74,1.21,16.16,1.29C176.88,135.89,177.39,135.78,177.51,136.38z"/>
	<path class="st0" d="M451.98,77.23c-0.66,1.45-1.81,1.96-3.37,1.95c-4.19-0.05-8.39-0.02-12.58-0.02c-2.32,0-3.22-0.91-3.22-3.26
		c0-14.05,0.01-28.1,0.01-42.15c0-2.91-0.12-5.8-0.84-8.64c-0.95-3.76-3.18-5.99-6.38-6.4c-4.15-0.54-7.65,1.44-9.54,5.41
		c-1.63,3.43-2.13,7.1-2.28,10.85c-0.05,1.25-0.06,2.51-0.06,3.76c0,12.33,0,24.66,0,36.99c0,2.53-0.9,3.44-3.41,3.45
		c-4.19,0-8.39,0-12.58,0c-2.15,0-3.17-1.01-3.17-3.15c-0.01-23.55-0.01-47.1-0.01-70.65c0-1.87,1.02-2.93,2.92-2.94
		c4.12-0.02,8.24-0.02,12.37,0c1.87,0.01,2.84,1.01,2.84,2.85c0,3.32,0,6.64,0,10.15c0.55-0.39,0.62-0.85,0.78-1.23
		c1.25-2.87,2.76-5.58,4.9-7.9c3.89-4.22,8.9-5.54,14.41-5.37c6.48,0.21,11.8,2.7,15.43,8.26c1.9,2.91,2.69,6.21,3.14,9.6
		c0.27,2.05,0.43,4.11,0.65,6.17C451.98,42.38,451.98,59.81,451.98,77.23z"/>
	<path class="st0" d="M177.51,136.38c-1.9-0.37-3.84-0.25-5.76-0.38c-6.91-0.44-13.76-1.27-20.57-2.5
		c-16.25-2.95-31.8-8.05-46.61-15.38c-14.44-7.15-27.62-16.14-39.59-26.92c-0.26-0.24-0.51-0.51-0.7-0.81
		c-0.53-0.82-0.65-1.69-0.05-2.51c0.61-0.83,1.52-0.95,2.42-0.65c0.67,0.22,1.3,0.59,1.92,0.95c19.64,11.25,40.54,19.27,62.54,24.48
		c10.15,2.4,20.42,4.11,30.79,5.17c12.39,1.27,24.82,1.62,37.26,0.85c26.66-1.66,52.35-7.57,77.01-17.9
		c0.94-0.39,1.88-0.69,2.91-0.6c1.43,0.12,2.54,0.78,3.12,2.11c0.59,1.35,0.15,2.54-0.77,3.56c-1.02,1.13-2.34,1.88-3.58,2.74
		c-11.75,8.12-24.56,14.06-38.09,18.53c-11.79,3.89-23.86,6.57-36.19,8.02c-4.34,0.51-8.69,0.89-13.06,1.07
		c-0.45,0.02-0.93-0.08-1.36,0.17C185.25,136.38,181.38,136.38,177.51,136.38z"/>
	<path class="st0" d="M95.78,14.22c3.24-8.55,9.21-13.29,18.52-13.32c9.15-0.02,14.55,5.15,17.89,13.04
		c0.43-0.05,0.39-0.38,0.48-0.58c3.72-8.59,11.69-13.28,21.03-12.33c5.64,0.57,10.37,2.88,13.89,7.41
		c2.56,3.31,3.36,7.21,3.69,11.26c0.33,4.15,0.07,8.31,0.06,12.47c-0.01,14.52-0.01,29.04-0.02,43.56c0,2.55-0.87,3.43-3.41,3.43
		c-4.16,0-8.32,0-12.48,0c-2.29,0-3.28-0.98-3.28-3.25c0.01-15.2,0.02-30.4,0.02-45.6c0-1.9-0.04-3.8-0.5-5.66
		c-0.88-3.59-3.29-5.43-6.97-5.74c-4.81-0.39-9.3,2.82-10.22,8.39c-0.47,2.84-0.6,5.7-0.6,8.57c-0.01,13.26,0,26.53,0,39.79
		c0,2.66-0.85,3.5-3.55,3.5c-4.12,0-8.25,0-12.37,0c-2.28,0-3.25-0.98-3.25-3.29c0-15.09,0-30.18-0.02-45.28
		c0-2.26-0.31-4.5-1.07-6.65c-1.08-3.06-3.2-4.89-6.46-5.17c-3.34-0.28-6.28,0.54-8.23,3.53c-1.64,2.51-2.08,5.38-2.29,8.29
		c-0.43,6.01-0.17,12.04-0.2,18.06c-0.04,9.03-0.01,18.07-0.01,27.1c0,2.5-0.9,3.4-3.45,3.4c-4.19,0-8.39,0-12.58,0
		c-2.16,0-3.13-0.98-3.13-3.16c0-23.44,0-46.89,0-70.33c0-2.3,0.95-3.24,3.27-3.25c3.94,0,7.89,0,11.83,0c2.16,0,3.17,1,3.17,3.13
		c0,2.85,0,5.71,0,8.56C95.62,14.15,95.7,14.18,95.78,14.22z"/>
	<path class="st0" d="M244.38,36.83c0,5.94,0.06,10.89-0.02,15.83c-0.07,4.14,1.12,7.82,3.63,11.09c0.65,0.85,1.3,1.71,1.86,2.63
		c0.87,1.45,0.67,2.51-0.59,3.6c-3.3,2.86-6.6,5.73-9.91,8.59c-1.67,1.45-2.95,1.41-4.65,0c-2.67-2.23-4.81-4.91-6.63-7.84
		c-0.42-0.68-0.67-0.67-1.22-0.11c-3.22,3.25-6.67,6.23-11.07,7.77c-6.07,2.13-12.3,2.48-18.49,0.7
		c-6.07-1.74-10.26-5.74-12.28-11.76c-2.19-6.52-2.09-13.06,0.62-19.41c3.1-7.27,8.97-11.39,16.29-13.7
		c5.01-1.59,10.2-2.22,15.39-2.8c2.21-0.25,4.42-0.46,6.63-0.69c0.37-0.04,0.83,0.02,0.83-0.59c-0.03-2.86,0.2-5.74-0.49-8.56
		c-0.8-3.31-2.9-5.33-6.19-6.14c-2.93-0.73-5.77-0.44-8.49,0.8c-2.99,1.37-4.79,3.76-5.58,6.94c-0.6,2.4-1.35,2.93-3.78,2.68
		c-3.92-0.41-7.84-0.82-11.75-1.27c-2.14-0.25-2.93-1.41-2.49-3.49c1.89-8.87,7.13-14.96,15.56-18.12c9.58-3.59,19.32-3.87,29-0.38
		c8.68,3.13,13.1,9.5,13.65,18.67C244.54,26.78,244.27,32.3,244.38,36.83z"/>
	<path class="st0" d="M61.1,37.05c0,5.87,0.04,10.89-0.01,15.91c-0.04,3.95,1.12,7.46,3.48,10.6c0.67,0.89,1.34,1.77,1.94,2.71
		c0.97,1.51,0.77,2.59-0.58,3.77c-3.25,2.82-6.52,5.61-9.74,8.46c-1.4,1.24-3.06,1.68-4.93-0.01c-2.53-2.28-4.66-4.85-6.46-7.72
		c-0.46-0.74-0.72-0.69-1.3-0.11c-3.22,3.26-6.68,6.24-11.08,7.76c-6.03,2.08-12.23,2.45-18.39,0.68
		C7.96,77.36,3.77,73.38,1.73,67.37c-2.21-6.51-2.11-13.06,0.59-19.41c3.09-7.26,8.95-11.41,16.27-13.73
		c5.01-1.59,10.2-2.22,15.39-2.8c2.21-0.25,4.42-0.46,6.63-0.69c0.36-0.04,0.85,0.06,0.84-0.56c-0.01-2.83,0.21-5.67-0.43-8.46
		c-0.89-3.91-3.5-5.98-7.36-6.48c-4.51-0.58-8.47,0.51-11.34,4.31c-0.85,1.13-1.31,2.45-1.64,3.82c-0.52,2.12-1.44,2.74-3.61,2.51
		c-3.99-0.43-7.98-0.84-11.96-1.29c-2.04-0.23-2.85-1.45-2.42-3.46C4.6,12.26,9.82,6.15,18.25,2.98c9.62-3.62,19.4-3.89,29.11-0.36
		c8.67,3.15,13.06,9.57,13.58,18.73C61.25,26.87,61,32.39,61.1,37.05z"/>
	<path class="st0" d="M320.7,37.42c0.03-5.1,1.35-13.02,5.2-20.35c4.46-8.49,11.2-14.12,20.79-15.68c13.32-2.17,25.42,3,32.16,16.06
		c2.97,5.74,4.44,11.9,4.99,18.3c0.6,7.1,0.17,14.1-1.97,20.93c-2.41,7.68-6.45,14.27-13.18,18.93c-5.66,3.92-12,5.47-18.83,4.93
		c-12.66-1-20.69-8.15-25.44-19.47C321.8,54.85,320.66,48.08,320.7,37.42z"/>
	<path class="st0" d="M288.01,17.66c-0.59,0-0.98,0-1.36,0c-7.31,0-14.62,0-21.94,0c-2.54,0-3.33-0.8-3.34-3.34
		c0-3.05-0.01-6.09,0-9.14c0.01-2,0.96-2.96,2.98-2.96c15.06-0.01,30.11-0.01,45.17,0c2.11,0,3.05,0.99,3.05,3.13
		c0.01,2.15-0.1,4.31,0.03,6.45c0.13,2.16-0.52,4-1.73,5.72c-3.56,5.07-7.1,10.15-10.65,15.23c-4.72,6.75-9.44,13.49-14.17,20.24
		c-0.2,0.29-0.39,0.58-0.73,1.07c2.27-0.06,4.35,0.01,6.43,0.15c6.71,0.47,13.14,1.97,19.13,5.14c2.06,1.09,3.07,2.65,3.04,4.98
		c-0.05,3.3,0,6.6-0.02,9.89c-0.01,2.55-1.69,3.53-4,2.44c-15.77-7.44-31.54-7.52-47.29,0.09c-2.17,1.05-3.85,0.04-3.86-2.41
		c-0.01-3.69,0.01-7.38,0.01-11.08c0-2.51,0.74-4.75,2.19-6.83c8.79-12.55,17.54-25.13,26.3-37.7
		C287.48,18.46,287.68,18.16,288.01,17.66z"/>
	<path class="st0" d="M278.33,91.71c-5.75,0.18-11.13,0.71-16.5,1.37c-0.6,0.07-1.22,0.13-1.82,0.09c-1.25-0.08-1.74-1-1.17-2.12
		c0.35-0.69,0.94-1.15,1.57-1.58c5.16-3.53,10.94-5.4,17.04-6.37c6.34-1,12.69-1.05,19.02,0.15c1.51,0.29,2.98,0.71,4.42,1.28
		c1.53,0.61,2.27,1.72,2.47,3.32c0.49,4.05-0.18,8-1.1,11.91c-1.9,8.08-5.13,15.54-10.51,21.96c-1.15,1.38-2.42,2.64-3.78,3.81
		c-0.14,0.12-0.27,0.23-0.42,0.33c-0.85,0.57-1.77,1.2-2.75,0.49c-1.02-0.74-0.47-1.76-0.12-2.65c2.56-6.45,5.11-12.9,6.71-19.67
		c0.58-2.47,1.08-4.96,0.81-7.54c-0.19-1.8-1.08-2.96-2.76-3.6c-2.42-0.93-4.96-1.03-7.5-1.17
		C280.64,91.65,279.31,91.71,278.33,91.71z"/>
	<path class="st0" d="M224.74,46.92c-0.05,3.66-0.15,7.3-1.63,10.74c-1.01,2.37-2.35,4.5-4.42,6.1c-2.96,2.29-6.26,3.07-9.76,1.56
		c-3.45-1.49-4.62-4.59-4.95-8.07c-0.18-1.9-0.03-3.79,0.49-5.64c1.02-3.57,3.36-6,6.69-7.51c4.14-1.87,8.55-2.18,13.01-2.26
		c0.54-0.01,0.56,0.26,0.56,0.66C224.74,43.98,224.74,45.45,224.74,46.92z"/>
	<path class="st0" d="M41.41,49.55c-0.12,4.01-0.86,7.86-3.2,11.23c-2.22,3.2-5.1,5.31-9.17,5.28c-3.45-0.02-6-1.6-7.35-4.79
		c-2.37-5.59-1.37-14.44,7.02-17.58c1.58-0.59,3.2-1.02,4.86-1.31c1.7-0.29,3.4-0.51,5.13-0.49c0.68-0.1,1.36,0,2.03-0.05
		c0.58-0.05,0.74,0.2,0.72,0.74C41.41,44.91,41.5,47.23,41.41,49.55z"/>
	<path class="st0" d="M41.41,49.55c-0.01-2.09-0.02-4.19-0.02-6.28c0-1.36,0-1.35-1.41-1.34c-0.43,0-0.85-0.02-1.28-0.03
		c2.83-0.53,2.89-0.51,2.85,2.31C41.54,45.99,41.71,47.78,41.41,49.55z"/>
	<path class="st0" d="M341.29,39.35c0.04-4.89,0.03-10.02,1.43-15.01c0.67-2.4,1.7-4.61,3.47-6.44c3.28-3.41,11.35-3.42,14.16,2.13
		c1.3,2.56,1.94,5.31,2.3,8.11c1.08,8.38,1.22,16.78,0.06,25.18c-0.4,2.88-1.18,5.67-2.76,8.17c-2.19,3.46-5.8,5.01-9.69,4.16
		c-2.32-0.51-3.95-1.93-5.18-3.88c-1.77-2.81-2.51-5.98-3.02-9.21C341.39,48.25,341.33,43.92,341.29,39.35z"/>
</g>
</svg>
