<?xml version="1.0" encoding="utf-8"?>
<!-- Generator: Adobe Illustrator 23.0.3, SVG Export Plug-In . SVG Version: 6.00 Build 0)  -->
<svg version="1.1" xmlns="http://www.w3.org/2000/svg" xmlns:xlink="http://www.w3.org/1999/xlink" x="0px" y="0px"
	 viewBox="0 0 3710 3710" style="enable-background:new 0 0 3710 3710;" xml:space="preserve">
<style type="text/css">
	.st0{fill:#FFFFFF;}
	.st1{opacity:0.3;fill:url(#SVGID_1_);}
	.st2{fill:url(#SVGID_2_);}
	.st3{opacity:0.86;fill:#FFFFFF;}
	.st4{fill:url(#SVGID_3_);}
	.st5{opacity:0.71;fill:#FFFFFF;}
	.st6{fill:url(#SVGID_4_);}
	.st7{fill:url(#SVGID_5_);}
	.st8{opacity:0.47;fill:#FFFFFF;}
	.st9{opacity:0.53;fill:#FFFFFF;}
	.st10{fill:url(#SVGID_6_);}
	.st11{fill:url(#SVGID_7_);}
	.st12{fill:url(#SVGID_8_);}
	.st13{fill:url(#SVGID_9_);}
	.st14{fill:url(#SVGID_10_);}
	.st15{fill:url(#SVGID_11_);}
	.st16{fill:url(#SVGID_12_);}
	.st17{opacity:0.39;fill:#FFFFFF;}
	.st18{fill:url(#SVGID_13_);}
	.st19{fill:url(#SVGID_14_);}
	.st20{fill:url(#SVGID_15_);}
	.st21{fill:url(#SVGID_16_);}
	.st22{fill:url(#SVGID_17_);}
	.st23{fill:url(#SVGID_18_);}
	.st24{fill:url(#SVGID_19_);}
	.st25{fill:url(#SVGID_20_);}
	.st26{opacity:0.3;}
	.st27{fill:url(#SVGID_21_);}
	.st28{fill:url(#SVGID_22_);}
	.st29{fill:url(#SVGID_23_);}
	.st30{fill:url(#SVGID_24_);}
	.st31{fill:url(#SVGID_25_);}
	.st32{fill:url(#SVGID_26_);}
	.st33{opacity:0.56;fill:#FFFFFF;}
	.st34{fill:url(#SVGID_27_);}
	.st35{fill:url(#SVGID_28_);}
	.st36{fill:url(#SVGID_29_);}
	.st37{fill:url(#SVGID_30_);}
	.st38{fill:url(#SVGID_31_);}
	.st39{fill:url(#SVGID_32_);}
	.st40{fill:url(#SVGID_33_);}
	.st41{fill:url(#SVGID_34_);}
	.st42{fill:url(#SVGID_35_);}
	.st43{fill:url(#SVGID_36_);}
	.st44{fill:url(#SVGID_37_);}
	.st45{fill:url(#SVGID_38_);}
	.st46{fill:url(#SVGID_39_);}
	.st47{fill:url(#SVGID_40_);}
	.st48{fill:url(#SVGID_41_);}
	.st49{fill:url(#SVGID_42_);}
	.st50{fill:url(#SVGID_43_);}
	.st51{fill:url(#SVGID_44_);}
	.st52{fill:url(#SVGID_45_);}
	.st53{fill:url(#SVGID_46_);}
	.st54{fill:url(#SVGID_47_);}
	.st55{fill:url(#SVGID_48_);}
	.st56{fill:url(#SVGID_49_);}
	.st57{fill:url(#SVGID_50_);}
	.st58{fill:url(#SVGID_51_);}
</style>
<g id="Background">
	<g>
		<g>
			<rect class="st0" width="3710" height="3710"/>
		</g>
	</g>
</g>
<g id="Illustration">
	<g>
		<linearGradient id="SVGID_1_" gradientUnits="userSpaceOnUse" x1="3579.4187" y1="4029.729" x2="1133.1134" y2="991.5711">
			<stop  offset="0" style="stop-color:#B37CFF"/>
			<stop  offset="1" style="stop-color:#F895E7"/>
		</linearGradient>
		<path class="st1" d="M2922.06,2820.7c-57.05,58.56-111.02,96.33-153.67,126.16c-501.3,350.73-1094.48,248.49-1220.55,223.52
			c-186.16-36.87-546.01-108.13-806.17-406.45c-393.6-451.33-332.31-1162.39-27.01-1631.78c55.84-85.86,350.83-562.39,950.4-638.81
			c362.85-46.25,785.82,47.03,1092.12,297.25C3400.13,1315.84,3354.36,2376.92,2922.06,2820.7z"/>
		<g>
			
				<linearGradient id="SVGID_2_" gradientUnits="userSpaceOnUse" x1="-1018.2626" y1="1644.3402" x2="186.8937" y2="1644.3402" gradientTransform="matrix(0.6945 -1.1188 0.8496 0.5275 107.3932 193.1962)">
				<stop  offset="0" style="stop-color:#B37CFF"/>
				<stop  offset="1" style="stop-color:#F895E7"/>
			</linearGradient>
			<path class="st2" d="M969.76,472.65c-89.77,246.91-563.88,1693.9,486.79,2115.54c0,0,516.31-920.51-454.34-2128.18
				C993.71,449.44,975.62,456.52,969.76,472.65z"/>
			<path class="st3" d="M1025.17,696.69c-3.99,78.15-5.01,156.56-4.72,234.87c0.4,78.33,2.5,156.65,6.34,234.88
				c7.72,156.44,22.24,312.61,46.32,467.32c24.23,154.59,57.75,308.06,107.71,456.25c12.61,36.98,26.05,73.69,40.97,109.78
				c14.95,36.07,31.09,71.64,48.66,106.47c35.29,69.54,76.74,136.05,125.99,196.3l0.03,0.04c2.34,2.86,1.92,7.08-0.95,9.43
				c-2.86,2.34-7.08,1.92-9.42-0.95l-0.02-0.02c-49.77-61.39-91.4-128.86-126.73-199.19c-17.59-35.22-33.71-71.14-48.62-107.54
				c-14.88-36.41-28.25-73.4-40.78-110.65c-49.64-149.24-82.61-303.36-106.27-458.46c-23.5-155.21-37.4-311.71-44.49-468.41
				c-3.52-78.36-5.3-156.79-5.38-235.22c0.03-78.44,1.38-156.84,5.7-235.24c0.09-1.56,1.42-2.76,2.99-2.68
				c1.56,0.09,2.76,1.42,2.68,2.99L1025.17,696.69z"/>
		</g>
		<g>
			
				<linearGradient id="SVGID_3_" gradientUnits="userSpaceOnUse" x1="818.0038" y1="31.114" x2="1601.6754" y2="3761.938" gradientTransform="matrix(0.9968 0.0801 -0.0801 0.9968 -150.9284 41.6404)">
				<stop  offset="0" style="stop-color:#A737D5"/>
				<stop  offset="1" style="stop-color:#EF497A"/>
			</linearGradient>
			<path class="st4" d="M1199.62,2085.72c0,0-844.29-297.45-713.19-1364.86c2.19-17.8,30.27-27.64,46.33-16.24
				C682.19,810.66,1193.9,1235.58,1199.62,2085.72z"/>
			<path class="st5" d="M634.14,935.3c40.55,84.29,81,168.62,120.98,253.18c20,42.28,39.9,84.6,59.41,127.1l29.28,63.75
				c9.75,21.25,19.22,42.64,28.84,63.95c38.2,85.38,76.63,170.67,113.25,256.76c36.89,85.96,73.17,172.22,106.82,259.55
				c0.5,1.29-0.15,2.73-1.43,3.23c-1.26,0.48-2.67-0.13-3.2-1.36l-27.53-64.48l-28-64.28c-18.85-42.78-37.47-85.65-56.66-128.27
				l-57.33-127.98l-57.83-127.77l-57.97-127.71c-19.46-42.51-38.49-85.21-57.71-127.84c-38.4-85.26-76.73-170.57-115.76-255.54
				c-0.62-1.34-0.03-2.93,1.31-3.54C631.93,933.43,633.5,934,634.14,935.3z"/>
		</g>
		<g>
			<linearGradient id="SVGID_4_" gradientUnits="userSpaceOnUse" x1="2910.6023" y1="1329.6226" x2="778.8123" y2="2952.7825">
				<stop  offset="0" style="stop-color:#2B3582"/>
				<stop  offset="1" style="stop-color:#150E42"/>
			</linearGradient>
			<path class="st6" d="M614.48,1326.95l2409.58-40.72c97.01-1.64,174.88,81.57,169.11,180.71l-82.94,1426.3
				c-4.54,78.06-67.32,139.21-143.71,139.96l-2316.19,22.91c-57.21,0.57-104.48-45.56-106.66-104.08l-55.42-1488.61
				C485.52,1389.75,542.47,1328.17,614.48,1326.95z"/>
			<linearGradient id="SVGID_5_" gradientUnits="userSpaceOnUse" x1="2686.8035" y1="1189.9518" x2="117.6589" y2="4046.0417">
				<stop  offset="0" style="stop-color:#FDF53F"/>
				<stop  offset="1" style="stop-color:#D93C65"/>
			</linearGradient>
			<path class="st7" d="M651.42,1363.29l2346.69-38.74c94.48-1.56,170.31,77.6,164.7,171.93l-80.77,1356.99
				c-4.42,74.27-65.57,132.44-139.96,133.16l-2255.73,21.79c-55.72,0.54-101.75-43.35-103.87-99.03l-53.97-1416.27
				C525.82,1423.03,581.29,1364.45,651.42,1363.29z"/>
			<path class="st8" d="M698.63,1436.13l2241.53-36.3c90.25-1.46,162.68,72.72,157.32,161.1l-77.16,1271.57
				c-4.22,69.59-62.63,124.11-133.69,124.78L731.97,2977.7c-53.22,0.5-97.19-40.62-99.22-92.79l-51.55-1327.12
				C578.65,1492.11,631.64,1437.21,698.63,1436.13z"/>
			<g>
				<path class="st9" d="M1360.22,1619.87l-657.15,1.73c-1.36,0-2.47-1.1-2.48-2.46l-0.14-53.44c0-1.36,1.1-2.47,2.46-2.48
					l657.15-1.73c1.36,0,2.47,1.1,2.48,2.46l0.14,53.44C1362.69,1618.76,1361.59,1619.87,1360.22,1619.87z"/>
				<path class="st9" d="M1774.78,1620.05l-227.58,0.6c-1.31,0-2.37-1.06-2.38-2.36l-0.14-53.64c0-1.31,1.06-2.37,2.36-2.38
					l227.58-0.6c1.31,0,2.37,1.06,2.38,2.36l0.14,53.64C1777.14,1618.98,1776.08,1620.05,1774.78,1620.05z"/>
				<path class="st9" d="M2280.07,1618.72l-451.28,1.19c-2.08,0.01-3.77-1.68-3.78-3.76l-0.13-50.84c-0.01-2.08,1.68-3.77,3.76-3.78
					l451.28-1.19c2.08-0.01,3.77,1.68,3.78,3.76l0.13,50.84C2283.84,1617.02,2282.15,1618.71,2280.07,1618.72z"/>
				<path class="st9" d="M873.59,1723.76l-169.95,0.45c-2.08,0.01-3.77-1.68-3.78-3.76l-0.13-50.84c-0.01-2.08,1.68-3.77,3.76-3.78
					l169.95-0.45c2.08-0.01,3.77,1.68,3.78,3.76l0.13,50.84C877.36,1722.06,875.67,1723.75,873.59,1723.76z"/>
				<path class="st9" d="M1361.81,1722.58l-476.57,1.25c-1.36,0-2.47-1.1-2.48-2.46l-0.14-53.44c0-1.36,1.1-2.47,2.46-2.48
					l476.57-1.25c1.36,0,2.47,1.1,2.48,2.46l0.14,53.44C1364.27,1721.47,1363.17,1722.57,1361.81,1722.58z"/>
				<path class="st9" d="M1776.91,1722.75l-227.58,0.6c-1.31,0-2.37-1.06-2.38-2.36l-0.14-53.64c0-1.31,1.06-2.37,2.36-2.38
					l227.58-0.6c1.31,0,2.37,1.06,2.38,2.36l0.14,53.64C1779.28,1721.69,1778.22,1722.75,1776.91,1722.75z"/>
				<path class="st9" d="M2655.98,1720.44l-664.61,1.75c-2.08,0.01-3.77-1.68-3.78-3.76l-0.13-50.84c-0.01-2.08,1.68-3.77,3.76-3.78
					l664.61-1.75c2.08-0.01,3.77,1.68,3.78,3.76l0.13,50.84C2659.75,1718.74,2658.07,1720.43,2655.98,1720.44z"/>
				<path class="st9" d="M873.73,1826.32l-169.95,0.45c-2.08,0.01-3.77-1.68-3.78-3.76l-0.13-50.84c-0.01-2.08,1.68-3.77,3.76-3.78
					l169.95-0.45c2.08-0.01,3.77,1.68,3.78,3.76l0.13,50.84C877.5,1824.62,875.81,1826.31,873.73,1826.32z"/>
				<path class="st9" d="M1361.85,1825.14l-476.57,1.25c-1.36,0-2.47-1.1-2.48-2.46l-0.14-53.44c0-1.36,1.1-2.47,2.46-2.48
					l476.57-1.25c1.36,0,2.47,1.1,2.48,2.46l0.14,53.44C1364.31,1824.03,1363.21,1825.14,1361.85,1825.14z"/>
				<path class="st9" d="M1777.01,1825.31l-227.58,0.6c-1.31,0-2.37-1.06-2.38-2.36l-0.14-53.64c0-1.31,1.06-2.37,2.36-2.38
					l227.58-0.6c1.31,0,2.37,1.06,2.38,2.36l0.14,53.64C1779.38,1824.25,1778.32,1825.31,1777.01,1825.31z"/>
				<path class="st9" d="M2942.21,1822.25l-868.31,2.29c-2.08,0.01-3.77-1.68-3.78-3.76l-0.13-50.84c-0.01-2.08,1.68-3.77,3.76-3.78
					l868.31-2.29c2.08-0.01,3.77,1.68,3.78,3.76l0.13,50.84C2945.98,1820.55,2944.29,1822.24,2942.21,1822.25z"/>
				<path class="st9" d="M875.43,1929.02l-169.95,0.45c-2.08,0.01-3.77-1.68-3.78-3.76l-0.13-50.84c-0.01-2.08,1.68-3.77,3.76-3.78
					l169.95-0.45c2.08-0.01,3.77,1.68,3.78,3.76l0.13,50.84C879.19,1927.33,877.51,1929.02,875.43,1929.02z"/>
				<path class="st9" d="M1364.65,1927.84l-476.57,1.25c-1.36,0-2.47-1.1-2.48-2.46l-0.14-53.44c0-1.36,1.1-2.47,2.46-2.48
					l476.57-1.25c1.36,0,2.47,1.1,2.48,2.46l0.14,53.44C1367.11,1926.73,1366.01,1927.84,1364.65,1927.84z"/>
				<path class="st9" d="M1779.15,1928.02l-227.58,0.6c-1.31,0-2.37-1.06-2.38-2.36l-0.14-53.64c0-1.31,1.06-2.37,2.36-2.38
					l227.58-0.6c1.31,0,2.37,1.06,2.38,2.36l0.14,53.64C1781.52,1926.95,1780.46,1928.02,1779.15,1928.02z"/>
				<path class="st9" d="M2947.08,1924.94l-868.31,2.29c-2.08,0.01-3.77-1.68-3.78-3.76l-0.13-50.84c-0.01-2.08,1.68-3.77,3.76-3.78
					l868.31-2.29c2.08-0.01,3.77,1.68,3.78,3.76l0.13,50.84C2950.85,1923.25,2949.17,1924.94,2947.08,1924.94z"/>
				<path class="st9" d="M875.17,2035.6l-169.95,0.45c-2.08,0.01-3.77-1.68-3.78-3.76l-0.13-50.84c-0.01-2.08,1.68-3.77,3.76-3.78
					l169.95-0.45c2.08-0.01,3.77,1.68,3.78,3.76l0.13,50.84C878.94,2033.9,877.25,2035.6,875.17,2035.6z"/>
				<path class="st9" d="M1363.97,2034.42l-476.57,1.25c-1.36,0-2.47-1.1-2.48-2.46l-0.14-53.44c0-1.36,1.1-2.47,2.46-2.48
					l476.57-1.25c1.36,0,2.47,1.1,2.48,2.46l0.14,53.44C1366.44,2033.31,1365.34,2034.42,1363.97,2034.42z"/>
				<path class="st9" d="M1778.73,2034.59l-227.58,0.6c-1.31,0-2.37-1.06-2.38-2.36l-0.14-53.64c0-1.31,1.06-2.37,2.36-2.38
					l227.58-0.6c1.31,0,2.37,1.06,2.38,2.36l0.14,53.64C1781.09,2033.53,1780.04,2034.59,1778.73,2034.59z"/>
				<path class="st9" d="M2945.63,2031.52l-868.31,2.29c-2.08,0.01-3.77-1.68-3.78-3.76l-0.13-50.84c-0.01-2.08,1.68-3.77,3.76-3.78
					l868.31-2.29c2.08-0.01,3.77,1.68,3.78,3.76l0.13,50.84C2949.39,2029.83,2947.71,2031.52,2945.63,2031.52z"/>
				<path class="st9" d="M876.87,2138.31l-169.95,0.45c-2.08,0.01-3.77-1.68-3.78-3.76l-0.13-50.84c-0.01-2.08,1.68-3.77,3.76-3.78
					l169.95-0.45c2.08-0.01,3.77,1.68,3.78,3.76l0.13,50.84C880.63,2136.61,878.95,2138.3,876.87,2138.31z"/>
				<path class="st9" d="M1366.77,2137.12l-476.57,1.25c-1.36,0-2.47-1.1-2.48-2.46l-0.14-53.44c0-1.36,1.1-2.47,2.46-2.48
					l476.57-1.25c1.36,0,2.47,1.1,2.48,2.46l0.14,53.44C1369.24,2136.01,1368.14,2137.12,1366.77,2137.12z"/>
				<path class="st9" d="M1780.86,2137.3l-227.58,0.6c-1.31,0-2.37-1.06-2.38-2.36l-0.14-53.64c0-1.31,1.06-2.37,2.36-2.38
					l227.58-0.6c1.31,0,2.37,1.06,2.38,2.36l0.14,53.64C1783.23,2136.23,1782.17,2137.3,1780.86,2137.3z"/>
				<path class="st9" d="M2359.22,2135.78l-529.07,1.39c-2.08,0.01-3.77-1.68-3.78-3.76l-0.13-50.84c-0.01-2.08,1.68-3.77,3.76-3.78
					l529.07-1.39c2.08-0.01,3.77,1.68,3.78,3.76l0.13,50.84C2362.99,2134.08,2361.3,2135.77,2359.22,2135.78z"/>
				<path class="st9" d="M1367.17,2239.68l-660.76,1.74c-1.36,0-2.47-1.1-2.48-2.46l-0.14-53.44c0-1.36,1.1-2.47,2.46-2.48
					l660.76-1.74c1.36,0,2.47,1.1,2.48,2.46l0.14,53.44C1369.64,2238.57,1368.53,2239.68,1367.17,2239.68z"/>
				<path class="st9" d="M1780.96,2239.86l-227.58,0.6c-1.31,0-2.37-1.06-2.38-2.36l-0.14-53.64c0-1.31,1.06-2.37,2.36-2.38
					l227.58-0.6c1.31,0,2.37,1.06,2.38,2.36l0.14,53.64C1783.33,2238.79,1782.27,2239.86,1780.96,2239.86z"/>
				<path class="st9" d="M2612.82,2237.67l-661.47,1.74c-2.08,0.01-3.77-1.68-3.78-3.76l-0.13-50.84c-0.01-2.08,1.68-3.77,3.76-3.78
					l661.47-1.74c2.08-0.01,3.77,1.68,3.78,3.76l0.13,50.84C2616.59,2235.97,2614.91,2237.66,2612.82,2237.67z"/>
				<path class="st9" d="M872.02,2343.59l-162.85,0.43c-2.08,0.01-3.77-1.68-3.78-3.76l-0.13-50.84c-0.01-2.08,1.68-3.77,3.76-3.78
					l162.85-0.43c2.08-0.01,3.77,1.68,3.78,3.76l0.13,50.84C875.79,2341.89,874.11,2343.58,872.02,2343.59z"/>
				<path class="st9" d="M1369.61,2342.39l-476.57,1.25c-1.36,0-2.47-1.1-2.48-2.46l-0.14-53.44c0-1.36,1.1-2.47,2.46-2.48
					l476.57-1.25c1.36,0,2.47,1.1,2.48,2.46l0.14,53.44C1372.08,2341.27,1370.98,2342.38,1369.61,2342.39z"/>
				<path class="st9" d="M1783.1,2342.56l-227.58,0.6c-1.31,0-2.37-1.06-2.38-2.36l-0.14-53.64c0-1.31,1.06-2.37,2.36-2.38
					l227.58-0.6c1.31,0,2.37,1.06,2.38,2.36l0.14,53.64C1785.47,2341.5,1784.41,2342.56,1783.1,2342.56z"/>
				<path class="st9" d="M2952.21,2339.49l-898.06,2.36c-2.08,0.01-3.77-1.68-3.78-3.76l-0.13-50.84c-0.01-2.08,1.68-3.77,3.76-3.78
					l898.06-2.36c2.08-0.01,3.77,1.68,3.78,3.76l0.13,50.84C2955.98,2337.79,2954.3,2339.48,2952.21,2339.49z"/>
				<path class="st9" d="M875.83,2650.08l-169.95,0.45c-2.08,0.01-3.77-1.68-3.78-3.76l-0.13-50.84c-0.01-2.08,1.68-3.77,3.76-3.78
					l169.95-0.45c2.08-0.01,3.77,1.68,3.78,3.76l0.13,50.84C879.6,2648.39,877.91,2650.08,875.83,2650.08z"/>
				<path class="st9" d="M1365.97,2648.9l-476.57,1.25c-1.36,0-2.47-1.1-2.48-2.46l-0.14-53.44c0-1.36,1.1-2.47,2.46-2.48
					l476.57-1.25c1.36,0,2.47,1.1,2.48,2.46l0.14,53.44C1368.44,2647.79,1367.33,2648.9,1365.97,2648.9z"/>
				<path class="st9" d="M1779.83,2649.08l-227.58,0.6c-1.31,0-2.37-1.06-2.38-2.36l-0.14-53.64c0-1.31,1.06-2.37,2.36-2.38
					l227.58-0.6c1.31,0,2.37,1.06,2.38,2.36l0.14,53.64C1782.2,2648.01,1781.14,2649.07,1779.83,2649.08z"/>
				<path class="st9" d="M2358.19,2647.56l-529.07,1.39c-2.08,0.01-3.77-1.68-3.78-3.76l-0.13-50.84c-0.01-2.08,1.68-3.77,3.76-3.78
					l529.07-1.39c2.08-0.01,3.77,1.68,3.78,3.76l0.13,50.84C2361.95,2645.86,2360.27,2647.55,2358.19,2647.56z"/>
				<path class="st9" d="M1366.36,2751.46l-660.76,1.74c-1.36,0-2.47-1.1-2.48-2.46l-0.14-53.44c0-1.36,1.1-2.47,2.46-2.48
					l660.76-1.74c1.36,0,2.47,1.1,2.48,2.46l0.14,53.44C1368.83,2750.35,1367.73,2751.46,1366.36,2751.46z"/>
				<path class="st9" d="M1779.93,2751.64l-227.58,0.6c-1.31,0-2.37-1.06-2.38-2.36l-0.14-53.64c0-1.31,1.06-2.37,2.36-2.38
					l227.58-0.6c1.31,0,2.37,1.06,2.38,2.36l0.14,53.64C1782.3,2750.57,1781.24,2751.64,1779.93,2751.64z"/>
				<path class="st9" d="M2611.43,2749.45l-661.47,1.74c-2.08,0.01-3.77-1.68-3.78-3.76l-0.13-50.84c-0.01-2.08,1.68-3.77,3.76-3.78
					l661.47-1.74c2.08-0.01,3.77,1.68,3.78,3.76l0.13,50.84C2615.19,2747.75,2613.51,2749.44,2611.43,2749.45z"/>
				<path class="st9" d="M870.99,2855.37l-162.85,0.43c-2.08,0.01-3.77-1.68-3.78-3.76l-0.13-50.84c-0.01-2.08,1.68-3.77,3.76-3.78
					l162.85-0.43c2.08-0.01,3.77,1.68,3.78,3.76l0.13,50.84C874.75,2853.67,873.07,2855.36,870.99,2855.37z"/>
				<path class="st9" d="M1368.81,2854.17l-476.57,1.25c-1.36,0-2.47-1.1-2.48-2.46l-0.14-53.44c0-1.36,1.1-2.47,2.46-2.48
					l476.57-1.25c1.36,0,2.47,1.1,2.48,2.46l0.14,53.44C1371.28,2853.05,1370.18,2854.16,1368.81,2854.17z"/>
				<path class="st9" d="M1782.06,2854.34l-227.58,0.6c-1.31,0-2.37-1.06-2.38-2.36l-0.14-53.64c0-1.31,1.06-2.37,2.36-2.38
					l227.58-0.6c1.31,0,2.37,1.06,2.38,2.36l0.14,53.64C1784.43,2853.27,1783.37,2854.34,1782.06,2854.34z"/>
				<path class="st9" d="M2950.82,2851.27l-898.06,2.36c-2.08,0.01-3.77-1.68-3.78-3.76l-0.13-50.84c-0.01-2.08,1.68-3.77,3.76-3.78
					l898.06-2.36c2.08-0.01,3.77,1.68,3.78,3.76l0.13,50.84C2954.58,2849.57,2952.9,2851.26,2950.82,2851.27z"/>
				<path class="st9" d="M870.31,2448.05l-162.85,0.43c-2.08,0.01-3.77-1.68-3.78-3.76l-0.13-50.84c-0.01-2.08,1.68-3.77,3.76-3.78
					l162.85-0.43c2.08-0.01,3.77,1.68,3.78,3.76l0.13,50.84C874.07,2446.36,872.39,2448.05,870.31,2448.05z"/>
				<path class="st9" d="M1366.21,2446.86l-476.57,1.25c-1.36,0-2.47-1.1-2.48-2.46l-0.14-53.44c0-1.36,1.1-2.47,2.46-2.48
					l476.57-1.25c1.36,0,2.47,1.1,2.48,2.46l0.14,53.44C1368.68,2445.74,1367.57,2446.85,1366.21,2446.86z"/>
				<path class="st9" d="M1780.66,2447.03l-227.58,0.6c-1.31,0-2.37-1.06-2.38-2.36l-0.14-53.64c0-1.31,1.06-2.37,2.36-2.38
					l227.58-0.6c1.31,0,2.37,1.06,2.38,2.36l0.14,53.64C1783.03,2445.96,1781.97,2447.03,1780.66,2447.03z"/>
				<path class="st9" d="M2945.57,2443.96l-898.06,2.36c-2.08,0.01-3.77-1.68-3.78-3.76l-0.13-50.84c-0.01-2.08,1.68-3.77,3.76-3.78
					l898.06-2.36c2.08-0.01,3.77,1.68,3.78,3.76l0.13,50.84C2949.33,2442.27,2947.65,2443.96,2945.57,2443.96z"/>
				<path class="st9" d="M871.95,2550.76l-162.85,0.43c-2.08,0.01-3.77-1.68-3.78-3.76l-0.13-50.84c-0.01-2.08,1.68-3.77,3.76-3.78
					l162.85-0.43c2.08-0.01,3.77,1.68,3.78,3.76l0.13,50.84C875.71,2549.06,874.03,2550.76,871.95,2550.76z"/>
				<path class="st9" d="M1369.01,2549.56l-476.57,1.25c-1.36,0-2.47-1.1-2.48-2.46l-0.14-53.44c0-1.36,1.1-2.47,2.46-2.48
					l476.57-1.25c1.36,0,2.47,1.1,2.48,2.46l0.14,53.44C1371.48,2548.45,1370.37,2549.56,1369.01,2549.56z"/>
				<path class="st9" d="M1782.8,2549.74l-227.58,0.6c-1.31,0-2.37-1.06-2.38-2.36l-0.14-53.64c0-1.31,1.06-2.37,2.36-2.38
					l227.58-0.6c1.31,0,2.37,1.06,2.38,2.36l0.14,53.64C1785.17,2548.67,1784.11,2549.73,1782.8,2549.74z"/>
				<path class="st9" d="M2950.6,2546.66l-898.06,2.36c-2.08,0.01-3.77-1.68-3.78-3.76l-0.13-50.84c-0.01-2.08,1.68-3.77,3.76-3.78
					l898.06-2.36c2.08-0.01,3.77,1.68,3.78,3.76l0.13,50.84C2954.36,2544.96,2952.68,2546.66,2950.6,2546.66z"/>
				<path class="st9" d="M1470.77,2923.04l-18.66,0.05c-0.76,0-1.39-0.62-1.39-1.38l-3.78-1436c0-0.76,0.62-1.39,1.38-1.39
					l18.66-0.05c0.76,0,1.39,0.62,1.39,1.38l3.78,1436C1472.15,2922.42,1471.54,2923.04,1470.77,2923.04z"/>
			</g>
		</g>
		<g>
			<g>
				<linearGradient id="SVGID_6_" gradientUnits="userSpaceOnUse" x1="1445.6588" y1="3049.4431" x2="1440.8716" y2="3123.6438">
					<stop  offset="0" style="stop-color:#2B3582"/>
					<stop  offset="1" style="stop-color:#150E42"/>
				</linearGradient>
				<path class="st10" d="M2080.64,3182.81H790.78c-11.53,0-20.88,9.35-20.88,20.88c0,11.53,9.35,20.88,20.88,20.88h1289.86
					c11.53,0,20.88-9.35,20.88-20.88C2101.51,3192.16,2092.17,3182.81,2080.64,3182.81z"/>
				<linearGradient id="SVGID_7_" gradientUnits="userSpaceOnUse" x1="1447.5347" y1="2844.4895" x2="1430.7793" y2="3208.3137">
					<stop  offset="0" style="stop-color:#2B3582"/>
					<stop  offset="1" style="stop-color:#150E42"/>
				</linearGradient>
				<path class="st11" d="M1897.94,2970.53H973.48c-27.87,0-50.46,22.59-50.46,50.46v161.82H1948.4v-161.82
					C1948.4,2993.12,1925.81,2970.53,1897.94,2970.53z"/>
				<linearGradient id="SVGID_8_" gradientUnits="userSpaceOnUse" x1="1445.3683" y1="2745.5823" x2="1431.0067" y2="3049.5664">
					<stop  offset="0" style="stop-color:#2B3582"/>
					<stop  offset="1" style="stop-color:#150E42"/>
				</linearGradient>
				<path class="st12" d="M1829.54,2880.36h-787.67c-27.87,0-50.46,22.59-50.46,50.46v39.7h888.6v-39.7
					C1880.01,2902.95,1857.41,2880.36,1829.54,2880.36z"/>
				<linearGradient id="SVGID_9_" gradientUnits="userSpaceOnUse" x1="1451.8773" y1="2532.4746" x2="1430.3013" y2="2827.3486">
					<stop  offset="0" style="stop-color:#CB236D"/>
					<stop  offset="1" style="stop-color:#4C246D"/>
				</linearGradient>
				<path class="st13" d="M1672.98,2880.36h-474.54v-253.32c0-6.99,5.67-12.66,12.66-12.66h449.22c6.99,0,12.66,5.67,12.66,12.66
					V2880.36z"/>
			</g>
			<g>
				<g>
					
						<linearGradient id="SVGID_10_" gradientUnits="userSpaceOnUse" x1="-1236.4954" y1="1000.1885" x2="-1132.3281" y2="1000.1885" gradientTransform="matrix(0.7357 -0.6774 0.6774 0.7357 1203.8007 712.3969)">
						<stop  offset="0" style="stop-color:#2B3582"/>
						<stop  offset="1" style="stop-color:#150E42"/>
					</linearGradient>
					<path class="st14" d="M661.86,1853.46c-11.56,10.65-12.57,28.56-2.27,40.43l649.36,758.28c10.74,12.38,29.59,13.44,41.65,2.34
						l55.25-50.87l-715.16-776.72L661.86,1853.46z"/>
					
						<linearGradient id="SVGID_11_" gradientUnits="userSpaceOnUse" x1="-1166.0353" y1="911.9684" x2="-913.4047" y2="911.9684" gradientTransform="matrix(0.7357 -0.6774 0.6774 0.7357 1203.8007 712.3969)">
						<stop  offset="0" style="stop-color:#2B3582"/>
						<stop  offset="1" style="stop-color:#150E42"/>
					</linearGradient>
					<path class="st15" d="M750.79,1609.83c-22.11-23.04-58.58-24.17-82.07-2.54l-58.24,53.62c-23.49,21.63-25.37,58.07-4.23,82
						l774.81,883.55l162.42-149.54c13.17-12.13,13.77-32.72,1.33-45.6L750.79,1609.83z"/>
					
						<linearGradient id="SVGID_12_" gradientUnits="userSpaceOnUse" x1="-860.2051" y1="380.4404" x2="-1093.2568" y2="1060.7643" gradientTransform="matrix(0.7357 -0.6774 0.6774 0.7357 1203.8007 712.3969)">
						<stop  offset="0" style="stop-color:#53D8FF"/>
						<stop  offset="1" style="stop-color:#3840F7"/>
					</linearGradient>
					<path class="st16" d="M806.35,1794.97l-6.09,5.61c-18.86,17.37-20.07,46.73-2.71,65.6l408.87,444.07
						c17.37,18.86,46.73,20.07,65.6,2.71l6.09-5.61c18.86-17.37,20.07-46.73,2.71-65.6l-408.87-444.07
						C854.58,1778.81,825.22,1777.6,806.35,1794.97z"/>
					
						<rect x="1027.52" y="1705.72" transform="matrix(0.7357 -0.6773 0.6773 0.7357 -1116.5375 1246.8043)" class="st17" width="23.34" height="696.48"/>
				</g>
				<g>
					
						<linearGradient id="SVGID_13_" gradientUnits="userSpaceOnUse" x1="-1281.9341" y1="1517.7544" x2="-867.9669" y2="1517.7544" gradientTransform="matrix(0.7357 -0.6774 0.6774 0.7357 1203.8007 712.3969)">
						<stop  offset="0" style="stop-color:#53D8FF"/>
						<stop  offset="1" style="stop-color:#3840F7"/>
					</linearGradient>
					<circle class="st18" cx="1441.09" cy="2557.18" r="207"/>
					
						<ellipse transform="matrix(0.7071 -0.7071 0.7071 0.7071 -1386.1151 1767.9828)" class="st17" cx="1441.09" cy="2557.18" rx="158.12" ry="158.12"/>
				</g>
			</g>
			<g>
				<g>
					
						<linearGradient id="SVGID_14_" gradientUnits="userSpaceOnUse" x1="-1520.4969" y1="116.3147" x2="-1491.7809" y2="-84.6979" gradientTransform="matrix(0.5261 -0.8505 0.8505 0.5261 1835.9585 136.0775)">
						<stop  offset="0" style="stop-color:#2B3582"/>
						<stop  offset="1" style="stop-color:#150E42"/>
					</linearGradient>
					<path class="st19" d="M748.35,1717.4l51.29,31.73c11.19,6.92,25.9,3.23,32.49-8.16l396.97-696.51
						c6.32-10.93,2.81-24.9-7.93-31.54l-26.76-16.55L748.35,1717.4z"/>
					
						<linearGradient id="SVGID_15_" gradientUnits="userSpaceOnUse" x1="-1916.856" y1="-167.4417" x2="-927.3609" y2="-167.4417" gradientTransform="matrix(0.5261 -0.8505 0.8505 0.5261 1835.9585 136.0775)">
						<stop  offset="0" style="stop-color:#2B3582"/>
						<stop  offset="1" style="stop-color:#150E42"/>
					</linearGradient>
					<path class="st20" d="M1178.4,819.84l54.06,33.45c21.81,13.49,28.82,41.94,15.78,64.02l-476.88,814.33l-150.77-93.27
						c-12.23-7.56-15.83-23.71-7.97-35.75l501.45-768.31C1128,812.78,1156.59,806.35,1178.4,819.84z"/>
					
						<linearGradient id="SVGID_16_" gradientUnits="userSpaceOnUse" x1="-1399.562" y1="-369.4185" x2="-1458.9575" y2="-21.5305" gradientTransform="matrix(0.5261 -0.8505 0.8505 0.5261 1835.9585 136.0775)">
						<stop  offset="0" style="stop-color:#53D8FF"/>
						<stop  offset="1" style="stop-color:#3840F7"/>
					</linearGradient>
					<path class="st21" d="M1031.82,1025.4l-266.65,431.03c-11.8,19.07-5.9,44.09,13.17,55.89c19.07,11.8,44.09,5.9,55.89-13.17
						l266.65-431.03c11.8-19.07,5.9-44.09-13.17-55.89C1068.64,1000.44,1043.62,1006.33,1031.82,1025.4z"/>
					
						<rect x="923.66" y="968.26" transform="matrix(-0.8504 -0.5261 0.5261 -0.8504 1062.4196 2826.6204)" class="st17" width="18.74" height="588.05"/>
				</g>
				<g>
					
						<linearGradient id="SVGID_17_" gradientUnits="userSpaceOnUse" x1="-2074.7864" y1="-139.1509" x2="-1742.3586" y2="-139.1509" gradientTransform="matrix(0.5261 -0.8505 0.8505 0.5261 1835.9585 136.0775)">
						<stop  offset="0" style="stop-color:#53D8FF"/>
						<stop  offset="1" style="stop-color:#3840F7"/>
					</linearGradient>
					<circle class="st22" cx="713.51" cy="1686.11" r="166.22"/>
					
						<ellipse transform="matrix(0.7071 -0.7071 0.7071 0.7071 -983.2782 998.3788)" class="st17" cx="713.51" cy="1686.11" rx="126.97" ry="126.97"/>
				</g>
			</g>
			<g>
				
					<linearGradient id="SVGID_18_" gradientUnits="userSpaceOnUse" x1="2940.7361" y1="245.2295" x2="3526.9336" y2="245.2295" gradientTransform="matrix(0.8544 0.5197 -0.5197 0.8544 -1162.999 -912.0317)">
					<stop  offset="0" style="stop-color:#2B3582"/>
					<stop  offset="1" style="stop-color:#150E42"/>
				</linearGradient>
				<path class="st23" d="M1736.06,1108.92l-25.93,42.63c-10.46,17.2-29.38,24.92-42.57,17.38l-486.81-275.11l72.32-118.9
					c5.87-9.64,16.57-13.75,23.71-9.09l455.15,297.29C1744.68,1071.37,1746.52,1091.73,1736.06,1108.92z"/>
			</g>
			<g>
				
					<linearGradient id="SVGID_19_" gradientUnits="userSpaceOnUse" x1="3163.2129" y1="60.7581" x2="2737.176" y2="465.2541" gradientTransform="matrix(0.8544 0.5197 -0.5197 0.8544 -1162.999 -912.0317)">
					<stop  offset="0" style="stop-color:#53D8FF"/>
					<stop  offset="1" style="stop-color:#3840F7"/>
				</linearGradient>
				<circle class="st24" cx="1246.2" cy="840.44" r="130.48"/>
				<circle class="st17" cx="1246.2" cy="840.44" r="99.67"/>
			</g>
			
				<linearGradient id="SVGID_20_" gradientUnits="userSpaceOnUse" x1="4063.4321" y1="146.6797" x2="3711.3435" y2="142.4376" gradientTransform="matrix(0.8544 0.5197 -0.5197 0.8544 -1162.999 -912.0317)">
				<stop  offset="0" style="stop-color:#53D8FF"/>
				<stop  offset="1" style="stop-color:#3840F7"/>
			</linearGradient>
			<polygon class="st25" points="1818.37,1121.06 1927.38,1042.36 2078.44,1226.07 2055.54,1253.11 1918.96,1106.61 1834.6,1168.36 
							"/>
			<g>
				<g class="st26">
					
						<linearGradient id="SVGID_21_" gradientUnits="userSpaceOnUse" x1="1706.8059" y1="-5161.7949" x2="2577.0481" y2="-5161.7949" gradientTransform="matrix(-0.2368 0.9715 -0.9715 -0.2368 -1920.8091 -1989.8759)">
						<stop  offset="0" style="stop-color:#B37CFF"/>
						<stop  offset="1" style="stop-color:#F895E7"/>
					</linearGradient>
					<path class="st27" d="M2351.59,827.08c1.83-7.49,9.06-12.55,16.86-11.49c17.08,2.31,34.31,5.41,51.21,9.19
						c8.22,1.84,13.4,10,11.56,18.22c-0.02,0.1-0.05,0.19-0.07,0.29c-1.96,8.05-10.02,13.09-18.15,11.27
						c-16.06-3.59-32.43-6.53-48.65-8.73c-8.35-1.13-14.2-8.82-13.07-17.17C2351.36,828.12,2351.46,827.6,2351.59,827.08z
						 M2480.48,859.51c0.14-0.58,0.32-1.16,0.53-1.73c2.94-7.89,11.73-11.91,19.62-8.97c16.22,6.05,32.33,12.85,47.9,20.21
						c7.62,3.6,10.86,12.66,7.27,20.32c-3.6,7.62-12.7,10.87-20.31,7.27c-14.8-7-30.11-13.46-45.52-19.2
						C2482.65,874.67,2478.67,866.92,2480.48,859.51z M2599.02,919.52c0.4-1.65,1.09-3.26,2.07-4.76c4.63-7.04,14.09-9,21.13-4.37
						c14.43,9.48,28.64,19.71,42.21,30.41c6.62,5.22,7.74,14.81,2.54,21.43c-5.21,6.62-14.81,7.76-21.43,2.54
						c-12.89-10.16-26.37-19.87-40.08-28.87C2599.93,932.24,2597.54,925.61,2599.02,919.52z M2701.19,1004.54
						c0.66-2.73,2.09-5.3,4.27-7.39c6.08-5.83,15.74-5.62,21.57,0.46c11.95,12.48,23.51,25.63,34.36,39.08
						c5.28,6.56,4.25,16.16-2.3,21.45c-6.56,5.29-16.16,4.25-21.45-2.3c-10.3-12.77-21.27-25.26-32.64-37.12
						C2701.25,1014.81,2700,1009.44,2701.19,1004.54z M2781.83,1110.21c0.93-3.82,3.33-7.29,6.98-9.47
						c7.23-4.34,16.6-1.99,20.93,5.24c8.87,14.78,17.23,30.16,24.84,45.69c3.71,7.56,0.59,16.7-6.98,20.41
						c-7.56,3.71-16.7,0.58-20.42-6.99c-7.23-14.77-15.18-29.38-23.6-43.43C2781.42,1118.08,2780.92,1113.97,2781.83,1110.21z
						 M2837.09,1231.08c1.21-4.95,4.87-9.19,10.07-10.9c8.01-2.63,16.62,1.73,19.25,9.74c5.39,16.41,10.14,33.25,14.11,50.06
						c1.94,8.2-3.14,16.42-11.34,18.36c-8.19,1.94-16.42-3.14-18.36-11.34c-3.78-15.97-8.29-31.97-13.41-47.56
						C2836.5,1236.63,2836.44,1233.75,2837.09,1231.08z M2739.98,1782.81c0.5-2.05,1.44-4.03,2.82-5.8
						c10.12-12.89,19.82-26.4,28.81-40.15c4.61-7.05,14.07-9.03,21.11-4.41c7.05,4.61,9.03,14.07,4.41,21.12
						c-9.47,14.48-19.68,28.71-30.34,42.28c-5.2,6.63-14.8,7.78-21.42,2.58C2740.52,1794.62,2738.61,1788.44,2739.98,1782.81z
						 M2864.17,1361.1c1.5-6.15,6.76-10.96,13.41-11.58c8.39-0.78,15.82,5.39,16.61,13.77c1.6,17.19,2.48,34.67,2.6,51.94
						c0.02,8.42-6.72,15.31-15.15,15.37c-8.42,0.06-15.3-6.72-15.36-15.15c-0.11-16.4-0.94-32.99-2.47-49.32
						C2863.65,1364.4,2863.78,1362.7,2864.17,1361.1z M2809.74,1669.69c0.24-0.98,0.57-1.95,1.02-2.9
						c6.98-14.84,13.42-30.18,19.13-45.59c2.93-7.9,11.71-11.93,19.61-9c7.9,2.93,11.97,11.71,9,19.61
						c-6.01,16.21-12.78,32.35-20.13,47.97c-3.59,7.62-12.68,10.9-20.3,7.31C2811.4,1683.96,2808.06,1676.59,2809.74,1669.69z
						 M2861.52,1493.92c1.82-7.48,9.04-12.53,16.84-11.49c8.35,1.12,14.22,8.79,13.11,17.14c-2.28,17.1-5.34,34.33-9.09,51.21
						c-0.02,0.11-0.05,0.21-0.07,0.32c-1.96,8.04-10,13.07-18.12,11.28c-8.23-1.83-13.42-9.97-11.59-18.2
						c3.55-16.04,6.45-32.4,8.62-48.65C2861.29,1494.98,2861.39,1494.44,2861.52,1493.92z"/>
					
						<linearGradient id="SVGID_22_" gradientUnits="userSpaceOnUse" x1="2619.3511" y1="-5390.9966" x2="2670.175" y2="-5390.9966" gradientTransform="matrix(-0.2368 0.9715 -0.9715 -0.2368 -1920.8091 -1989.8759)">
						<stop  offset="0" style="stop-color:#B37CFF"/>
						<stop  offset="1" style="stop-color:#F895E7"/>
					</linearGradient>
					<path class="st28" d="M2666.47,1860.74c0.71-2.92,2.29-5.66,4.71-7.8c5.89-5.21,11.77-10.63,17.49-16.11
						c6.08-5.83,15.74-5.63,21.57,0.45c5.84,6.08,5.64,15.74-0.45,21.57c-6.01,5.76-12.19,11.46-18.39,16.95
						c-6.31,5.58-15.96,4.99-21.53-1.32C2666.42,1870.58,2665.33,1865.43,2666.47,1860.74z"/>
				</g>
				<g class="st26">
					
						<linearGradient id="SVGID_23_" gradientUnits="userSpaceOnUse" x1="2883.1489" y1="-5002.6294" x2="2918.0249" y2="-5002.6294" gradientTransform="matrix(-0.2368 0.9715 -0.9715 -0.2368 -1920.8091 -1989.8759)">
						<stop  offset="0" style="stop-color:#B37CFF"/>
						<stop  offset="1" style="stop-color:#F895E7"/>
					</linearGradient>
					<path class="st29" d="M2225.39,2008.31c1.74-7.15,8.47-12.19,16.04-11.58c7.84,0.63,15.82,1.11,23.73,1.42
						c8.42,0.33,14.98,7.42,14.65,15.84c-0.33,8.45-7.42,14.98-15.84,14.65c-8.32-0.33-16.73-0.83-24.99-1.49
						c-8.4-0.68-14.66-8.03-13.98-16.43C2225.06,2009.89,2225.2,2009.09,2225.39,2008.31z"/>
					
						<linearGradient id="SVGID_24_" gradientUnits="userSpaceOnUse" x1="2029.1083" y1="-4605.9272" x2="2925.4775" y2="-4605.9272" gradientTransform="matrix(-0.2368 0.9715 -0.9715 -0.2368 -1920.8091 -1989.8759)">
						<stop  offset="0" style="stop-color:#B37CFF"/>
						<stop  offset="1" style="stop-color:#F895E7"/>
					</linearGradient>
					<path class="st30" d="M1695.15,1275.87c1.66-6.82,3.45-13.64,5.35-20.45c2.27-8.11,10.69-12.85,18.8-10.58
						c8.11,2.27,12.87,10.73,10.59,18.8c-4.4,15.73-8.15,31.59-11.18,47.34c-1.61,8.28-9.59,13.69-17.86,12.1
						c-8.28-1.59-13.7-9.59-12.1-17.87C1690.62,1295.47,1692.78,1285.6,1695.15,1275.87z M1727.45,1179.52
						c0.2-0.83,0.48-1.65,0.83-2.46c6.76-15.62,14.26-31.13,22.28-46.09c3.98-7.42,13.23-10.21,20.65-6.23
						c7.43,3.98,10.23,13.25,6.23,20.66c-7.62,14.21-14.74,28.95-21.17,43.79c-3.34,7.73-12.33,11.29-20.05,7.94
						C1729.29,1194.12,1725.72,1186.61,1727.45,1179.52z M1679.08,1384.92c1.7-6.99,8.18-12,15.62-11.61
						c8.42,0.45,14.87,7.63,14.43,16.05c-0.86,16.09-1.03,32.44-0.52,48.6c0.25,8.42-6.35,15.46-14.77,15.73
						c-8.42,0.26-15.47-6.35-15.73-14.77c-0.54-17.01-0.35-34.24,0.55-51.19C1678.72,1386.77,1678.86,1385.83,1679.08,1384.92z
						 M1792.31,1065.91c0.46-1.88,1.29-3.7,2.5-5.36c10.02-13.74,20.74-27.22,31.88-40.06c5.52-6.36,15.15-7.05,21.52-1.53
						c6.37,5.52,7.06,15.15,1.53,21.52c-10.57,12.19-20.76,24.99-30.27,38.05c-4.96,6.81-14.51,8.3-21.31,3.34
						C1793,1078.11,1790.89,1071.73,1792.31,1065.91z M1686.65,1515.41c1.4-5.73,6.07-10.38,12.26-11.43
						c8.31-1.42,16.19,4.17,17.6,12.48c2.7,15.88,6.13,31.87,10.18,47.52c2.11,8.16-2.79,16.48-10.95,18.59
						c-8.16,2.11-16.47-2.79-18.58-10.95c-4.26-16.48-7.87-33.31-10.72-50.04C1686.08,1519.46,1686.18,1517.37,1686.65,1515.41z
						 M1722.67,1641.08c1.12-4.58,4.34-8.58,9.03-10.51c7.8-3.2,16.71,0.53,19.9,8.33c6.13,14.95,12.97,29.82,20.31,44.18
						c3.85,7.5,0.88,16.69-6.64,20.53c-7.5,3.83-16.69,0.86-20.53-6.64c-7.73-15.12-14.92-30.76-21.37-46.5
						C1722.11,1647.37,1721.94,1644.1,1722.67,1641.08z M1785.24,1755.91c0.85-3.49,2.92-6.68,6.1-8.9
						c6.91-4.82,16.42-3.12,21.24,3.79c9.25,13.27,19.15,26.29,29.45,38.71c5.38,6.48,4.49,16.1-2.01,21.48
						c-6.49,5.37-16.1,4.48-21.48-2.01c-10.83-13.07-21.26-26.77-30.99-40.73C1784.94,1764.51,1784.23,1760.01,1785.24,1755.91z
						 M1871.34,1854.35c0.59-2.41,1.78-4.72,3.57-6.68c5.69-6.21,15.34-6.63,21.55-0.94c11.92,10.92,24.43,21.45,37.21,31.31
						c6.67,5.15,7.9,14.74,2.76,21.4c-5.15,6.67-14.73,7.91-21.4,2.76c-13.45-10.38-26.64-21.47-39.18-32.97
						C1871.61,1865.33,1870.07,1859.58,1871.34,1854.35z M1977,1931.52c0.33-1.36,0.86-2.69,1.59-3.97
						c4.18-7.31,13.5-9.85,20.81-5.67c14,8,28.52,15.51,43.17,22.33c7.64,3.55,10.94,12.65,7.4,20.26
						c-3.55,7.64-12.63,10.96-20.27,7.4c-15.43-7.17-30.72-15.08-45.45-23.51C1978.22,1944.92,1975.44,1937.96,1977,1931.52z
						 M2096.96,1983.56c0.07-0.3,0.16-0.61,0.25-0.91c2.49-8.05,11.03-12.56,19.08-10.06c11.36,3.52,22.96,6.72,34.5,9.53
						c4.17,1.02,8.35,1.98,12.53,2.91c8.23,1.82,13.43,9.96,11.61,18.19c-1.68,8.37-9.96,13.42-18.18,11.61
						c-4.4-0.97-8.78-1.99-13.18-3.06c-12.13-2.96-24.34-6.33-36.29-10.03C2099.53,1999.34,2095.06,1991.33,2096.96,1983.56z"/>
					
						<linearGradient id="SVGID_25_" gradientUnits="userSpaceOnUse" x1="1939.7611" y1="-4417.0029" x2="1989.9369" y2="-4417.0029" gradientTransform="matrix(-0.2368 0.9715 -0.9715 -0.2368 -1920.8091 -1989.8759)">
						<stop  offset="0" style="stop-color:#B37CFF"/>
						<stop  offset="1" style="stop-color:#F895E7"/>
					</linearGradient>
					<path class="st31" d="M1880.87,969.14c0.72-2.95,2.32-5.71,4.77-7.85c6.21-5.44,12.66-10.85,19.16-16.08
						c6.56-5.29,16.17-4.25,21.45,2.32c5.28,6.57,4.25,16.16-2.32,21.45c-6.17,4.97-12.3,10.11-18.2,15.28
						c-6.33,5.55-15.97,4.91-21.52-1.43C1880.81,978.92,1879.74,973.8,1880.87,969.14z"/>
				</g>
				<g>
					
						<linearGradient id="SVGID_26_" gradientUnits="userSpaceOnUse" x1="2060.7598" y1="-5351.9487" x2="3460.5869" y2="-2882.3308" gradientTransform="matrix(-0.2368 0.9715 -0.9715 -0.2368 -1920.8091 -1989.8759)">
						<stop  offset="0" style="stop-color:#CB236D"/>
						<stop  offset="1" style="stop-color:#4C246D"/>
					</linearGradient>
					<path class="st32" d="M2047.91,1031.05c-2.74,1.31-4.36,4.22-4.01,7.24l9.81,86.23c-31.63,25.34-59.45,55.9-81.96,91.01
						l-86.72-0.69c-3.04-0.03-5.76,1.88-6.78,4.75l-34.72,98.13c-1.01,2.87-0.1,6.06,2.28,7.96l67.86,54
						c-4.58,41.46-2.17,82.71,6.49,122.31l-61.85,60.87c-2.17,2.13-2.74,5.41-1.43,8.15l44.84,93.94c1.31,2.75,4.22,4.36,7.24,4.01
						l86.23-9.81c25.34,31.63,55.9,59.45,91.01,81.96l-0.69,86.73c-0.02,3.04,1.88,5.76,4.75,6.78l98.14,34.72
						c2.87,1.01,6.06,0.1,7.96-2.28l54-67.86c41.46,4.58,82.71,2.17,122.3-6.49l60.87,61.86c2.13,2.17,5.41,2.74,8.15,1.43
						l93.94-44.84c2.75-1.31,4.36-4.22,4.01-7.24l-9.81-86.23c31.63-25.34,59.45-55.9,81.96-91.01l86.73,0.69
						c3.04,0.02,5.76-1.88,6.78-4.75l34.72-98.14c1.02-2.87,0.1-6.06-2.28-7.96l-67.86-54c4.58-41.46,2.17-82.71-6.49-122.31
						l61.85-60.87c2.17-2.13,2.74-5.41,1.43-8.15l-44.84-93.94c-1.31-2.74-4.22-4.36-7.24-4.01l-86.23,9.81
						c-25.34-31.63-55.9-59.45-91.01-81.96l0.69-86.73c0.03-3.04-1.88-5.76-4.75-6.78l-98.13-34.72c-2.87-1.01-6.06-0.1-7.96,2.28
						l-54,67.86c-41.46-4.58-82.71-2.17-122.3,6.49l-60.87-61.85c-2.13-2.17-5.41-2.74-8.15-1.43L2047.91,1031.05z"/>
					<path class="st33" d="M2190.12,1396.25c12.08-49.55,59.08-84.2,111.34-79.33c57.45,5.35,99.83,56.43,94.49,113.88
						c-2.58,27.83-15.86,52.99-37.37,70.83c-21.51,17.85-48.68,26.25-76.51,23.66c-57.45-5.35-99.83-56.43-94.49-113.88
						C2188.07,1406.22,2188.92,1401.16,2190.12,1396.25z M2369.68,1440.26c0.93-3.83,1.59-7.74,1.97-11.74
						c4.1-44.04-28.41-83.21-72.45-87.31c-44.05-4.1-83.23,28.39-87.32,72.45c-4.1,44.04,28.4,83.21,72.45,87.31
						c21.34,1.98,42.17-4.46,58.66-18.14C2356.4,1471.71,2365.63,1456.88,2369.68,1440.26z"/>
					<path class="st33" d="M2042.78,1362.53c2.07-8.51,4.59-16.97,7.55-25.34l0,0c0.93-2.63,1.91-5.26,2.92-7.86
						c5.01-12.84,11.04-25.26,17.99-37.07c0.09-0.16,0.19-0.32,0.28-0.48c0.27-0.46,0.54-0.91,0.82-1.36
						c0.53-0.89,1.07-1.77,1.61-2.64c1.42-2.31,4.13-3.34,6.63-2.73c0.61,0.15,1.2,0.39,1.76,0.74c2.87,1.77,3.75,5.53,1.99,8.39
						c-9.1,14.76-16.67,30.61-22.5,47.09c-28.98,81.87-11.67,169.06,38.21,232.89c27.74,35.51,65.55,63.78,111.09,79.89
						c7.98,2.83,16.05,5.23,24.17,7.2c54.63,13.31,111.71,7.48,163.14-17.07c59.08-28.2,103.64-77.72,125.47-139.43
						c45.08-127.46-21.91-267.71-149.3-312.78c-7.85-2.78-15.82-5.15-23.86-7.11c-34.85-8.49-71.17-9.26-106.36-2.12
						c-0.91,0.18-1.81,0.16-2.66-0.05c-2.22-0.54-4.05-2.32-4.54-4.72c-0.66-3.31,1.46-6.53,4.77-7.19
						c36.94-7.49,75.08-6.68,111.66,2.23c8.44,2.05,16.8,4.54,25.05,7.46c133.75,47.32,204.04,194.66,156.74,328.36
						c-22.92,64.79-69.7,116.77-131.72,146.37c-53.99,25.78-113.91,31.9-171.26,17.93c-8.52-2.08-16.99-4.6-25.37-7.56
						c-64.79-22.92-116.77-69.7-146.38-131.72C2034.92,1479.83,2028.8,1419.9,2042.78,1362.53z"/>
				</g>
			</g>
			<g>
				
					<linearGradient id="SVGID_27_" gradientUnits="userSpaceOnUse" x1="3311.2117" y1="442.0182" x2="3710.9385" y2="92.6071" gradientTransform="matrix(0.8544 0.5197 -0.5197 0.8544 -1162.999 -912.0317)">
					<stop  offset="0" style="stop-color:#CB236D"/>
					<stop  offset="1" style="stop-color:#4C246D"/>
				</linearGradient>
				<path class="st34" d="M1796.33,1076.78l-47.51-28.65c-1.03-0.62-2.38-0.29-3,0.74l-86.18,142.91c-0.62,1.03-0.29,2.38,0.74,3
					l47.51,28.65c1.03,0.62,2.38,0.29,3-0.74l86.18-142.91C1797.7,1078.75,1797.37,1077.41,1796.33,1076.78z"/>
				
					<linearGradient id="SVGID_28_" gradientUnits="userSpaceOnUse" x1="4102.9214" y1="363.3892" x2="3750.8364" y2="359.147" gradientTransform="matrix(0.8544 0.5197 -0.5197 0.8544 -1162.999 -912.0317)">
					<stop  offset="0" style="stop-color:#53D8FF"/>
					<stop  offset="1" style="stop-color:#3840F7"/>
				</linearGradient>
				<polygon class="st35" points="1789.95,1251.11 1773.15,1384.51 2006.8,1428.98 2019.55,1395.92 1825.5,1346.32 1839.24,1242.67 
									"/>
				
					<linearGradient id="SVGID_29_" gradientUnits="userSpaceOnUse" x1="3614.9858" y1="245.2448" x2="3711.2583" y2="245.2448" gradientTransform="matrix(0.8544 0.5197 -0.5197 0.8544 -1162.999 -912.0317)">
					<stop  offset="0" style="stop-color:#2B3582"/>
					<stop  offset="1" style="stop-color:#150E42"/>
				</linearGradient>
				<path class="st36" d="M1754.75,1247.64c22.42,18.37,53.73,24.7,82.88,13.91c43.72-16.19,66.05-64.75,49.86-108.48
					c-8.19-22.13-24.68-38.78-44.63-47.72L1754.75,1247.64z"/>
				
					<linearGradient id="SVGID_30_" gradientUnits="userSpaceOnUse" x1="3659.406" y1="169.8205" x2="3501.0479" y2="355.9604" gradientTransform="matrix(0.8544 0.5197 -0.5197 0.8544 -1162.999 -912.0317)">
					<stop  offset="0" style="stop-color:#CB236D"/>
					<stop  offset="1" style="stop-color:#4C246D"/>
				</linearGradient>
				<path class="st37" d="M1706.78,1218.02l-13.79,22.87c-2.49,4.13-0.92,9.63,3.49,12.29l42.4,25.57
					c4.41,2.66,10.01,1.48,12.5-2.65l109.96-182.34c2.49-4.12,0.93-9.63-3.49-12.29l-42.4-25.57c-4.41-2.66-10.01-1.48-12.5,2.65
					l-12.64,20.95L1706.78,1218.02z"/>
			</g>
		</g>
		<g>
			<g class="st26">
				
					<linearGradient id="SVGID_31_" gradientUnits="userSpaceOnUse" x1="3460.0422" y1="-4442.1626" x2="3955.4014" y2="-4442.1626" gradientTransform="matrix(0.0118 0.9999 -0.9999 0.0118 -1863.9955 -1551.5245)">
					<stop  offset="0" style="stop-color:#B37CFF"/>
					<stop  offset="1" style="stop-color:#F895E7"/>
				</linearGradient>
				<path class="st38" d="M2423.12,1868.51c-0.05-4.39,3.22-8.2,7.68-8.72c9.74-1.14,19.68-1.87,29.54-2.17
					c4.8-0.15,8.8,3.62,8.95,8.41c0,0.06,0,0.11,0,0.17c0.06,4.72-3.68,8.63-8.41,8.78c-9.36,0.29-18.8,0.98-28.06,2.06
					c-4.76,0.56-9.08-2.85-9.63-7.62C2423.14,1869.12,2423.12,1868.82,2423.12,1868.51z M2498.77,1868.18
					c0-0.34,0.01-0.68,0.05-1.03c0.51-4.77,4.78-8.23,9.55-7.72c9.8,1.04,19.65,2.51,29.27,4.37c4.71,0.91,7.78,5.44,6.88,10.17
					c-0.91,4.71-5.47,7.79-10.17,6.88c-9.15-1.77-18.51-3.16-27.82-4.15C2502.12,1876.23,2498.83,1872.52,2498.77,1868.18z
					 M2572.62,1884.51c-0.01-0.97,0.14-1.95,0.47-2.92c1.56-4.54,6.5-6.95,11.03-5.4c9.3,3.19,18.58,6.82,27.57,10.8
					c4.39,1.94,6.36,7.07,4.43,11.46c-1.94,4.39-7.07,6.37-11.46,4.43c-8.54-3.78-17.35-7.23-26.18-10.26
					C2574.92,1891.4,2572.67,1888.08,2572.62,1884.51z M2640.98,1916.95c-0.02-1.6,0.4-3.22,1.31-4.68
					c2.53-4.07,7.89-5.32,11.96-2.79c8.36,5.19,16.59,10.81,24.47,16.69c3.84,2.87,4.63,8.31,1.76,12.16
					c-2.87,3.84-8.31,4.63-12.16,1.76c-7.48-5.59-15.3-10.92-23.24-15.85C2642.47,1922.61,2641.02,1919.82,2640.98,1916.95z
					 M2700.39,1963.82c-0.03-2.24,0.81-4.49,2.51-6.21c3.37-3.41,8.87-3.44,12.28-0.07c6.98,6.9,13.76,14.2,20.15,21.69
					c3.12,3.65,2.69,9.13-0.96,12.24c-3.65,3.11-9.13,2.68-12.25-0.97c-6.08-7.12-12.52-14.05-19.15-20.61
					C2701.27,1968.22,2700.41,1966.03,2700.39,1963.82z M2747.94,2022.66c-0.03-2.9,1.38-5.76,4.01-7.43
					c4.04-2.58,9.41-1.4,11.99,2.65c5.29,8.29,10.29,16.9,14.86,25.61c2.23,4.25,0.59,9.5-3.66,11.73
					c-4.24,2.23-9.5,0.59-11.72-3.66c-4.34-8.27-9.09-16.46-14.12-24.33C2748.4,2025.8,2747.96,2024.23,2747.94,2022.66z
					 M2772.38,2340.63c-0.01-1.2,0.22-2.42,0.74-3.6c3.76-8.54,7.2-17.36,10.21-26.21c1.55-4.54,6.48-6.97,11.02-5.42
					c4.54,1.55,6.97,6.48,5.42,11.02c-3.18,9.32-6.8,18.61-10.75,27.61c-1.93,4.39-7.06,6.38-11.45,4.45
					C2774.35,2347.06,2772.42,2343.93,2772.38,2340.63z M2781.25,2090.53c-0.04-3.6,2.18-7,5.76-8.28c4.52-1.62,9.49,0.73,11.1,5.25
					c3.32,9.25,6.27,18.77,8.78,28.27c1.2,4.64-1.54,9.39-6.18,10.61c-4.64,1.22-9.39-1.54-10.61-6.18
					c-2.38-9.03-5.18-18.06-8.33-26.85C2781.43,2092.42,2781.26,2091.47,2781.25,2090.53z M2794.86,2268.39
					c-0.01-0.57,0.04-1.16,0.15-1.74c1.75-9.17,3.13-18.54,4.1-27.84c0.5-4.77,4.77-8.23,9.54-7.74c4.77,0.5,8.26,4.77,7.74,9.54
					c-1.02,9.79-2.47,19.65-4.32,29.3c-0.9,4.71-5.45,7.8-10.16,6.9C2797.79,2276.02,2794.91,2272.43,2794.86,2268.39z
					 M2798.57,2164.14c-0.05-4.38,3.21-8.19,7.66-8.72c4.76-0.57,9.08,2.84,9.65,7.6c1.16,9.75,1.91,19.69,2.23,29.52
					c0,0.06,0,0.12,0.01,0.18c0.06,4.71-3.67,8.62-8.4,8.78c-4.8,0.16-8.81-3.6-8.96-8.4c-0.31-9.34-1.02-18.78-2.12-28.05
					C2798.59,2164.76,2798.57,2164.45,2798.57,2164.14z"/>
				
					<linearGradient id="SVGID_32_" gradientUnits="userSpaceOnUse" x1="3979.4834" y1="-4572.6548" x2="4008.4148" y2="-4572.6548" gradientTransform="matrix(0.0118 0.9999 -0.9999 0.0118 -1863.9955 -1551.5245)">
					<stop  offset="0" style="stop-color:#B37CFF"/>
					<stop  offset="1" style="stop-color:#F895E7"/>
				</linearGradient>
				<path class="st39" d="M2742.87,2393.99c-0.02-1.71,0.46-3.44,1.49-4.97c2.51-3.71,4.99-7.53,7.37-11.35
					c2.53-4.08,7.88-5.33,11.96-2.8c4.08,2.53,5.34,7.88,2.8,11.96c-2.5,4.03-5.1,8.04-7.75,11.95c-2.69,3.97-8.09,5.01-12.06,2.32
					C2744.23,2399.42,2742.9,2396.73,2742.87,2393.99z"/>
			</g>
			<g class="st26">
				
					<linearGradient id="SVGID_33_" gradientUnits="userSpaceOnUse" x1="4129.6606" y1="-4351.5889" x2="4149.5142" y2="-4351.5889" gradientTransform="matrix(0.0118 0.9999 -0.9999 0.0118 -1863.9955 -1551.5245)">
					<stop  offset="0" style="stop-color:#B37CFF"/>
					<stop  offset="1" style="stop-color:#F895E7"/>
				</linearGradient>
				<path class="st40" d="M2520.5,2537.71c-0.05-4.19,2.95-7.92,7.21-8.65c4.41-0.76,8.88-1.62,13.29-2.57
					c4.69-1.01,9.31,1.97,10.32,6.66c1.01,4.71-1.98,9.31-6.66,10.32c-4.64,1-9.34,1.91-13.99,2.71c-4.73,0.81-9.22-2.36-10.03-7.08
					C2520.55,2538.63,2520.51,2538.17,2520.5,2537.71z"/>
				
					<linearGradient id="SVGID_34_" gradientUnits="userSpaceOnUse" x1="3643.5271" y1="-4125.7603" x2="4153.7598" y2="-4125.7603" gradientTransform="matrix(0.0118 0.9999 -0.9999 0.0118 -1863.9955 -1551.5245)">
					<stop  offset="0" style="stop-color:#B37CFF"/>
					<stop  offset="1" style="stop-color:#F895E7"/>
				</linearGradient>
				<path class="st41" d="M2124.58,2208.78c-0.05-4-0.03-8.01,0.06-12.03c0.11-4.79,4.08-8.6,8.87-8.49c4.8,0.1,8.62,4.1,8.5,8.87
					c-0.2,9.29-0.03,18.57,0.53,27.69c0.28,4.79-3.35,8.9-8.14,9.2c-4.79,0.29-8.91-3.35-9.2-8.14
					C2124.85,2220.23,2124.65,2214.48,2124.58,2208.78z M2128.77,2151.08c-0.01-0.48,0.03-0.98,0.11-1.48
					c1.52-9.57,3.46-19.18,5.77-28.57c1.15-4.66,5.85-7.5,10.51-6.36c4.66,1.15,7.52,5.86,6.36,10.51
					c-2.19,8.91-4.04,18.05-5.48,27.14c-0.75,4.74-5.2,7.97-9.94,7.21C2131.85,2158.87,2128.82,2155.24,2128.77,2151.08z
					 M2131.13,2271.18c-0.05-4.09,2.82-7.77,6.98-8.61c4.7-0.94,9.28,2.11,10.22,6.81c1.8,9,4.02,18.04,6.58,26.87
					c1.33,4.61-1.31,9.42-5.92,10.76c-4.61,1.34-9.43-1.31-10.76-5.92c-2.7-9.31-5.03-18.83-6.93-28.3
					C2131.19,2272.26,2131.14,2271.72,2131.13,2271.18z M2148.48,2079.27c-0.01-1.1,0.19-2.22,0.62-3.31
					c3.58-8.99,7.59-17.94,11.92-26.6c2.14-4.29,7.36-6.03,11.65-3.89c4.29,2.14,6.03,7.36,3.89,11.65
					c-4.11,8.22-7.91,16.72-11.31,25.26c-1.77,4.46-6.83,6.63-11.28,4.86C2150.58,2085.9,2148.52,2082.68,2148.48,2079.27z
					 M2153.75,2342.07c-0.04-3.36,1.88-6.58,5.15-8.04c4.38-1.96,9.52,0.01,11.47,4.39c3.74,8.37,7.89,16.71,12.33,24.77
					c2.32,4.2,0.79,9.48-3.41,11.8c-4.2,2.31-9.48,0.79-11.8-3.41c-4.68-8.49-9.05-17.26-12.98-26.08
					C2154.01,2344.39,2153.77,2343.22,2153.75,2342.07z M2191.38,2406.27c-0.03-2.68,1.18-5.35,3.5-7.07
					c3.85-2.86,9.29-2.07,12.15,1.78c5.5,7.38,11.37,14.61,17.45,21.49c3.18,3.59,2.84,9.08-0.76,12.26
					c-3.6,3.18-9.08,2.83-12.26-0.76c-6.4-7.25-12.58-14.85-18.36-22.62C2191.96,2409.82,2191.4,2408.05,2191.38,2406.27z
					 M2242.11,2460.75c-0.02-2.04,0.67-4.1,2.11-5.77c3.13-3.63,8.61-4.04,12.25-0.91c6.98,6.01,14.28,11.79,21.71,17.18
					c3.88,2.82,4.75,8.24,1.93,12.13c-2.82,3.88-8.25,4.75-12.13,1.93c-7.82-5.67-15.51-11.76-22.85-18.08
					C2243.16,2465.54,2242.14,2463.16,2242.11,2460.75z M2303.51,2502.86c-0.02-1.41,0.31-2.85,1.03-4.19
					c2.26-4.23,7.52-5.83,11.75-3.57c8.12,4.34,16.51,8.38,24.94,12c4.41,1.9,6.44,7.01,4.55,11.41c-1.9,4.41-7,6.44-11.41,4.55
					c-8.89-3.82-17.72-8.07-26.27-12.64C2305.21,2508.88,2303.55,2505.93,2303.51,2502.86z M2372.68,2530.48
					c-0.01-0.8,0.09-1.61,0.31-2.41c1.27-4.62,6.05-7.34,10.68-6.07c8.85,2.43,17.92,4.52,26.96,6.21
					c4.72,0.88,7.82,5.43,6.95,10.13c-0.88,4.72-5.41,7.83-10.13,6.95c-9.52-1.77-19.07-3.97-28.39-6.54
					C2375.25,2537.7,2372.73,2534.25,2372.68,2530.48z M2446.18,2542.22c0-0.18,0-0.36,0.01-0.54c0.23-4.79,4.31-8.48,9.1-8.25
					c6.76,0.33,13.61,0.46,20.37,0.38c2.45-0.03,4.89-0.09,7.32-0.17c4.79-0.16,8.81,3.6,8.97,8.39c0.26,4.85-3.59,8.81-8.39,8.97
					c-2.56,0.09-5.12,0.15-7.7,0.18c-7.11,0.08-14.32-0.05-21.43-0.4C2449.83,2550.56,2446.24,2546.77,2446.18,2542.22z"/>
				
					<linearGradient id="SVGID_35_" gradientUnits="userSpaceOnUse" x1="3592.6653" y1="-4018.1948" x2="3621.2278" y2="-4018.1948" gradientTransform="matrix(0.0118 0.9999 -0.9999 0.0118 -1863.9955 -1551.5245)">
					<stop  offset="0" style="stop-color:#B37CFF"/>
					<stop  offset="1" style="stop-color:#F895E7"/>
				</linearGradient>
				<path class="st42" d="M2183.63,2013.39c-0.02-1.73,0.47-3.47,1.52-5.01c2.66-3.88,5.45-7.77,8.29-11.58
					c2.87-3.84,8.31-4.63,12.16-1.76c3.84,2.87,4.63,8.31,1.76,12.16c-2.7,3.61-5.35,7.31-7.88,11c-2.71,3.96-8.11,4.97-12.07,2.26
					C2184.98,2018.79,2183.67,2016.12,2183.63,2013.39z"/>
			</g>
			<g>
				
					<linearGradient id="SVGID_36_" gradientUnits="userSpaceOnUse" x1="3661.5271" y1="-4550.4155" x2="4458.3638" y2="-3144.6116" gradientTransform="matrix(0.0118 0.9999 -0.9999 0.0118 -1863.9955 -1551.5245)">
					<stop  offset="0" style="stop-color:#CB236D"/>
					<stop  offset="1" style="stop-color:#4C246D"/>
				</linearGradient>
				<path class="st43" d="M2284.5,2023.91c-1.33,1.11-1.81,2.94-1.19,4.56l17.6,46.16c-13.86,18.44-24.88,39.23-32.33,61.77
					l-47.92,11.88c-1.68,0.42-2.91,1.85-3.07,3.58l-5.27,59.02c-0.15,1.73,0.8,3.36,2.38,4.07l45.06,20.18
					c3.34,23.51,10.49,45.92,20.87,66.53l-25.5,42.31c-0.89,1.48-0.75,3.37,0.36,4.7l38.01,45.46c1.11,1.33,2.94,1.81,4.56,1.19
					l46.16-17.6c18.44,13.86,39.23,24.88,61.77,32.33l11.88,47.92c0.42,1.68,1.85,2.91,3.58,3.07l59.02,5.27
					c1.72,0.15,3.36-0.8,4.06-2.38l20.18-45.06c23.51-3.34,45.92-10.49,66.53-20.86l42.31,25.5c1.48,0.89,3.37,0.75,4.7-0.36
					l45.46-38.01c1.33-1.11,1.81-2.94,1.19-4.56l-17.6-46.16c13.86-18.44,24.88-39.23,32.33-61.77l47.92-11.88
					c1.68-0.42,2.91-1.85,3.07-3.58l5.27-59.02c0.15-1.72-0.8-3.36-2.38-4.07l-45.06-20.18c-3.34-23.51-10.49-45.92-20.87-66.53
					l25.5-42.31c0.89-1.48,0.75-3.37-0.36-4.7l-38.01-45.46c-1.11-1.33-2.94-1.81-4.56-1.19l-46.16,17.6
					c-18.44-13.86-39.23-24.88-61.77-32.33l-11.88-47.92c-0.42-1.68-1.85-2.91-3.58-3.07l-59.02-5.27c-1.72-0.15-3.36,0.8-4.07,2.38
					l-20.18,45.06c-23.51,3.34-45.92,10.49-66.53,20.87l-42.31-25.5c-1.48-0.89-3.37-0.75-4.7,0.36L2284.5,2023.91z"/>
				<path class="st33" d="M2414.53,2205.19c-0.34-29.03,20.67-54.78,50.18-59.49c32.44-5.17,63.03,17.01,68.2,49.44
					c2.51,15.71-1.26,31.46-10.59,44.34c-9.34,12.88-23.13,21.36-38.84,23.86c-32.44,5.17-63.03-17.01-68.2-49.44
					C2414.81,2210.98,2414.57,2208.07,2414.53,2205.19z M2519.77,2204.08c-0.03-2.24-0.22-4.49-0.58-6.75
					c-3.97-24.87-27.43-41.87-52.29-37.91c-24.87,3.97-41.88,27.42-37.91,52.29c3.97,24.87,27.43,41.87,52.29,37.91
					c12.05-1.92,22.62-8.42,29.78-18.3C2516.89,2223.3,2519.89,2213.82,2519.77,2204.08z"/>
				<path class="st33" d="M2328.52,2207.43c-0.06-4.99,0.13-10,0.58-15.04l0,0c0.14-1.58,0.31-3.17,0.5-4.75
					c0.95-7.79,2.52-15.49,4.68-22.98c0.03-0.1,0.06-0.2,0.09-0.31c0.08-0.29,0.17-0.58,0.26-0.87c0.17-0.56,0.34-1.13,0.51-1.69
					c0.46-1.47,1.81-2.43,3.27-2.44c0.36,0,0.72,0.05,1.08,0.16c1.83,0.57,2.85,2.52,2.28,4.35c-2.93,9.43-4.86,19.23-5.75,29.15
					c-4.41,49.24,17.47,94.87,53.99,123.02c20.31,15.66,45.16,25.91,72.55,28.35c4.8,0.43,9.59,0.61,14.35,0.56
					c32.01-0.38,62.66-11.67,87.54-32.48c28.59-23.9,46.16-57.5,49.48-94.62c6.84-76.66-49.92-144.53-126.54-151.37
					c-4.72-0.42-9.45-0.6-14.16-0.55c-20.42,0.25-40.55,4.95-58.95,13.86c-0.48,0.23-0.98,0.34-1.47,0.35
					c-1.3,0.02-2.56-0.71-3.17-1.96c-0.83-1.73-0.12-3.8,1.61-4.64c19.31-9.35,40.45-14.3,61.89-14.56
					c4.95-0.06,9.91,0.13,14.87,0.57c80.44,7.19,140.03,78.5,132.85,158.91c-3.48,38.97-21.93,74.24-51.95,99.33
					c-26.13,21.85-58.3,33.69-91.91,34.09c-4.99,0.06-10.02-0.13-15.06-0.58c-38.97-3.48-74.25-21.93-99.34-51.94
					C2340.77,2273.22,2328.92,2241.04,2328.52,2207.43z"/>
			</g>
		</g>
		<g>
			<g>
				
					<linearGradient id="SVGID_37_" gradientUnits="userSpaceOnUse" x1="865.6813" y1="2952.9607" x2="572.3901" y2="3317.843" gradientTransform="matrix(-0.7257 0.688 0.688 0.7257 947.3353 -369.8229)">
					<stop  offset="0" style="stop-color:#F9B776"/>
					<stop  offset="1" style="stop-color:#F47960"/>
				</linearGradient>
				<path class="st44" d="M2570.15,2441.64l-2.69-23.21c54.38-8.61,92.72-41.15,108.96-50.5c16.86,21.81,28.41,41.59,40.79,67.5
					C2649.75,2464.96,2570.15,2441.64,2570.15,2441.64z"/>
				
					<linearGradient id="SVGID_38_" gradientUnits="userSpaceOnUse" x1="-3363.4866" y1="3185.0266" x2="-3272.9338" y2="3185.0266" gradientTransform="matrix(-1 0 0 1 -146.3213 0)">
					<stop  offset="0" style="stop-color:#2B3582"/>
					<stop  offset="1" style="stop-color:#150E42"/>
				</linearGradient>
				<path class="st45" d="M3204.56,3153.12c0,0,10.06,15.86,12.59,60.27c0.24,4.14-3.04,7.66-7.19,7.66h-78.7
					c-3.17,0-5.43-3.1-4.41-6.1c4.61-13.65,18.56-46.93,49.67-65.94L3204.56,3153.12z"/>
				
					<linearGradient id="SVGID_39_" gradientUnits="userSpaceOnUse" x1="-3354.301" y1="3142.9475" x2="-3317.5757" y2="3142.9475" gradientTransform="matrix(-1 0 0 1 -146.3213 0)">
					<stop  offset="0" style="stop-color:#F9B776"/>
					<stop  offset="1" style="stop-color:#F47960"/>
				</linearGradient>
				<path class="st46" d="M3207.98,3123.03l-4.45,37.32c-0.38,3.22-2.91,5.8-6.13,6.17c-4.3,0.5-10.56,0.85-16.64-0.16
					c-5.53-0.91-9.5-5.83-9.5-11.44v-36.04L3207.98,3123.03z"/>
				
					<linearGradient id="SVGID_40_" gradientUnits="userSpaceOnUse" x1="-3170.9158" y1="3183.5789" x2="-3028.8352" y2="3183.5789" gradientTransform="matrix(-1 0 0 1 -146.3213 0)">
					<stop  offset="0" style="stop-color:#2B3582"/>
					<stop  offset="1" style="stop-color:#150E42"/>
				</linearGradient>
				<path class="st47" d="M3009.85,3149c0,0,15.06,23.41,14.74,55.55c-0.08,7.57-6.41,13.6-13.98,13.6h-122.23
					c-5.72,0-8.05-7.35-3.36-10.64c23.13-16.24,68.59-46.58,101.47-58.51H3009.85z"/>
				
					<linearGradient id="SVGID_41_" gradientUnits="userSpaceOnUse" x1="-3168.7573" y1="3126.6404" x2="-3132.2346" y2="3126.6404" gradientTransform="matrix(-1 0 0 1 -146.3213 0)">
					<stop  offset="0" style="stop-color:#F9B776"/>
					<stop  offset="1" style="stop-color:#F47960"/>
				</linearGradient>
				<path class="st48" d="M3022.44,3108.7l-9.49,46.09c-1.06,5.16-6.11,8.62-11.24,7.48c-3.12-0.7-6.81-2.03-10.75-4.49
					c-3.74-2.34-5.64-6.79-4.87-11.14l9.82-55.84L3022.44,3108.7z"/>
				
					<linearGradient id="SVGID_42_" gradientUnits="userSpaceOnUse" x1="-3377.1194" y1="2802.6738" x2="-3128.1318" y2="2802.6738" gradientTransform="matrix(-1 0 0 1 -146.3213 0)">
					<stop  offset="0" style="stop-color:#CB236D"/>
					<stop  offset="1" style="stop-color:#4C246D"/>
				</linearGradient>
				<path class="st49" d="M3190.54,2467.82c0,0,33.01,29.1,39.22,64.12c6.21,35.02-17.6,604.13-17.6,604.13s-33.01,5.49-50.03-4.82
					c0,0-20.18-369.35-35.52-454.7c0,0-80.45,382.6-102.74,451.73c0,0-31.8,3.87-42.06-2.18c0,0,21.07-495.95,47.56-584.13
					L3190.54,2467.82z"/>
				<linearGradient id="SVGID_43_" gradientUnits="userSpaceOnUse" x1="3193.0867" y1="2144.0989" x2="3127.782" y2="2867.4692">
					<stop  offset="0" style="stop-color:#CB236D"/>
					<stop  offset="1" style="stop-color:#4C246D"/>
				</linearGradient>
				<path class="st50" d="M3127.58,2664.55c1.59,0,3.04-1.07,3.46-2.68l13.67-52.43l29.11-18.68c1.67-1.07,2.15-3.29,1.08-4.95
					c-1.07-1.67-3.28-2.15-4.95-1.08l-30.29,19.43c-0.76,0.49-1.31,1.24-1.53,2.11l-14.02,53.79c-0.5,1.92,0.65,3.87,2.56,4.37
					C3126.97,2664.51,3127.28,2664.55,3127.58,2664.55z"/>
				
					<linearGradient id="SVGID_44_" gradientUnits="userSpaceOnUse" x1="-2964.6543" y1="1776.475" x2="-3038.9561" y2="2187.3201" gradientTransform="matrix(-1 0 0 1 -146.3213 0)">
					<stop  offset="0" style="stop-color:#53D8FF"/>
					<stop  offset="1" style="stop-color:#3840F7"/>
				</linearGradient>
				<path class="st51" d="M2864.78,2138.98c138.97-11.54,175.29,17.22,175.29,17.22l-66.78,105.43c0,0-136.55-2.7-234.39-78.11
					c18.31-19.72,31.03-41.51,39.18-58.48C2803.31,2135.52,2832.36,2141.67,2864.78,2138.98z"/>
				
					<linearGradient id="SVGID_45_" gradientUnits="userSpaceOnUse" x1="-2924.3965" y1="2057.2117" x2="-2788.6606" y2="2057.2117" gradientTransform="matrix(-1 0 0 1 -146.3213 0)">
					<stop  offset="0" style="stop-color:#F9B776"/>
					<stop  offset="1" style="stop-color:#F47960"/>
				</linearGradient>
				<path class="st52" d="M2647.16,1934.99c0.19-4.45,6.22-5.66,8.11-1.63l17.73,37.84c3.43,7.31,4.52,15.5,3.15,23.45l-6.22,22.02
					c-1.86,10.74,0.95,21.74,7.75,30.26c16.29,20.37,50.99,57.57,100.39,78.1c-8.16,16.97-20.87,38.76-39.18,58.48
					c-35.9-27.67-66.6-65.12-83.42-115.83c-8.06-2.47-13.44-10.06-13.12-18.48L2647.16,1934.99z"/>
				
					<linearGradient id="SVGID_46_" gradientUnits="userSpaceOnUse" x1="-3041.3772" y1="2021.5686" x2="-3115.6787" y2="2725.2502" gradientTransform="matrix(-1 0 0 1 -146.3213 0)">
					<stop  offset="0" style="stop-color:#53D8FF"/>
					<stop  offset="1" style="stop-color:#3840F7"/>
				</linearGradient>
				<path class="st53" d="M2819.03,2200.1c48.92-52.72,142.11-76.53,196.06-86.31c23.64-4.29,46.94,8.87,55.31,31.38
					c24.28,65.27,90.31,235.06,103.11,264.25c10.5,23.94,21.46,47.32,28.43,61.94c4.16,8.73,0.53,19.18-8.19,23.38
					c-45.39,21.88-127.07,46.63-160.18,56.29c-7.28,2.12-14.54-3.34-14.54-10.93c0-6.43-1.75-12.75-5.06-18.27l-125.41-208.98
					c-78.16,86.67-126.19,121.47-178.36,126.6c-17.22-17.54-45.51-54.63-36.25-72.25C2740.78,2332.24,2819.03,2200.1,2819.03,2200.1
					z"/>
				
					<linearGradient id="SVGID_47_" gradientUnits="userSpaceOnUse" x1="913.5329" y1="3007.3745" x2="620.2528" y2="3372.2429" gradientTransform="matrix(-0.7257 0.688 0.688 0.7257 947.3353 -369.8229)">
					<stop  offset="0" style="stop-color:#F9B776"/>
					<stop  offset="1" style="stop-color:#F47960"/>
				</linearGradient>
				<path class="st54" d="M2589.62,2438.59l-55.2,56.58l-80.72,20.56c3.07-11.93,55.11-42.84,55.11-42.84s38.36-49.23,50.46-60.74
					c10.05-9.56,22.34,6.28,26.21,11.92c0.79,1.15,1.23,1.88,1.23,1.88L2589.62,2438.59z"/>
				
					<linearGradient id="SVGID_48_" gradientUnits="userSpaceOnUse" x1="-2946.9961" y1="1866.2906" x2="-3231.0466" y2="2388.2058" gradientTransform="matrix(-1 0 0 1 -146.3213 0)">
					<stop  offset="0" style="stop-color:#F9B776"/>
					<stop  offset="1" style="stop-color:#F47960"/>
				</linearGradient>
				<path class="st55" d="M2940.88,2016.97l41.67,101.69c0,0-47.88,33.14-86.4,29.99l-20.8-91.44L2940.88,2016.97z"/>
				<g>
					
						<linearGradient id="SVGID_49_" gradientUnits="userSpaceOnUse" x1="-2783.0503" y1="2185.9939" x2="-2908.585" y2="2352.0662" gradientTransform="matrix(-0.817 -0.5767 -0.5767 0.817 1877.1066 -1428.4956)">
						<stop  offset="0" style="stop-color:#F9B776"/>
						<stop  offset="1" style="stop-color:#F47960"/>
					</linearGradient>
					<path class="st56" d="M2870.49,1947.65c-0.95,1.35-30.15,106.82-30.15,106.82l60.57,15.39l42.52-95.85
						C2943.43,1974,2886.47,1925.01,2870.49,1947.65z"/>
					
						<linearGradient id="SVGID_50_" gradientUnits="userSpaceOnUse" x1="-2878.9226" y1="2226.0547" x2="-2728.9695" y2="2226.0547" gradientTransform="matrix(-0.817 -0.5767 -0.5767 0.817 1877.1066 -1428.4956)">
						<stop  offset="0" style="stop-color:#2B3582"/>
						<stop  offset="1" style="stop-color:#150E42"/>
					</linearGradient>
					<path class="st57" d="M2920.62,1988.57l-18.43,52.21c-0.24,0.67-0.55,1.29-0.96,1.87c-2.5,3.55-12,15.15-23.27,4.7
						c-10.23-9.48-19.7-17.98-28.45-19.52c-3.93-0.69-7.73,1.71-8.8,5.55c-2.65,9.58-8.22,31.29-10.19,50.88
						c-0.4,3.98,2.35,7.57,6.27,8.32c11.83,2.25,36.91,6.29,57.86,4.81c2.84-0.2,5.33-1.9,6.52-4.49
						c5.77-12.61,23.45-50.87,30.03-60.77c6.17-9.29,21.3-9.03,27.65-8.47c2.08,0.18,4.13-0.49,5.7-1.86
						c5.55-4.87,16.12-17.29,1.25-32.16c-3.11-3.11-3.03-8.13,0.18-11.15c6.38-6,13.21-16.65,2.57-29.85
						c-10.81-13.42-25.08-11.28-33.82-8.09c-3.54,1.29-7.39-0.2-9.31-3.44c-1.09-1.84-3-3.24-6.31-2.95
						c-4.46,0.38-8.21-3.34-8.13-7.81c0.15-8.6-2.92-19.46-17.83-24.1c-26.46-8.24-42.96,17.33-44.6,36.4
						c-1.63,19.08,27.56,26.37,44.73,25.09c13.05-0.98,22.74,11.96,26.64,18.22C2921.15,1983.93,2921.4,1986.36,2920.62,1988.57z"/>
					
						<linearGradient id="SVGID_51_" gradientUnits="userSpaceOnUse" x1="-2966.9092" y1="2317.5095" x2="-2866.2202" y2="2214.2056" gradientTransform="matrix(-0.817 -0.5767 -0.5767 0.817 1877.1066 -1428.4956)">
						<stop  offset="0" style="stop-color:#F9B776"/>
						<stop  offset="1" style="stop-color:#F47960"/>
					</linearGradient>
					<path class="st58" d="M2924.29,2051.07c0,0,4.27-33.12,18.05-34.74c13.78-1.62,27.18,9.7,13.49,28.29
						C2938.8,2067.74,2924.29,2051.07,2924.29,2051.07z"/>
				</g>
			</g>
		</g>
	</g>
</g>
</svg>
