<?xml version="1.0" encoding="utf-8"?>
<!-- Generator: Adobe Illustrator 23.0.3, SVG Export Plug-In . SVG Version: 6.00 Build 0)  -->
<svg version="1.1" xmlns="http://www.w3.org/2000/svg" xmlns:xlink="http://www.w3.org/1999/xlink" x="0px" y="0px"
	 viewBox="0 0 500 500" style="enable-background:new 0 0 500 500;" xml:space="preserve">
<style type="text/css">
	.st0{fill:#EBEBEB;}
	.st1{fill:#E0E0E0;}
	.st2{fill:#FAFAFA;}
	.st3{fill:#F5F5F5;}
	.st4{fill:#F0F0F0;}
	.st5{display:none;}
	.st6{display:inline;}
	.st7{fill:#407BFF;}
	.st8{opacity:0.9;fill:#FFFFFF;enable-background:new    ;}
	.st9{opacity:0.7;fill:#FFFFFF;enable-background:new    ;}
	.st10{opacity:0.2;enable-background:new    ;}
	.st11{fill:#FFFFFF;}
	.st12{opacity:0.1;enable-background:new    ;}
	.st13{opacity:0.3;fill:#FFFFFF;enable-background:new    ;}
	.st14{opacity:0.25;fill:#FFFFFF;}
	.st15{opacity:0.8;fill:#FFFFFF;}
	.st16{opacity:0.6;fill:#FFFFFF;}
	.st17{opacity:0.4;fill:#FFFFFF;}
	.st18{opacity:0.3;}
	.st19{opacity:0.35;fill:#FFFFFF;}
	.st20{fill:#E4897B;}
	.st21{fill:#263238;}
	.st22{opacity:0.6;fill:#FFFFFF;enable-background:new    ;}
	.st23{fill:#263238;enable-background:new    ;}
</style>
<g id="Background_Complete">
	<g>
		<rect y="382.4" class="st0" width="500" height="0.25"/>
		<rect x="416.78" y="398.49" class="st0" width="33.12" height="0.25"/>
		<rect x="322.53" y="401.21" class="st0" width="8.69" height="0.25"/>
		<rect x="396.59" y="389.21" class="st0" width="19.19" height="0.25"/>
		<rect x="52.46" y="390.89" class="st0" width="43.19" height="0.25"/>
		<rect x="104.56" y="390.89" class="st0" width="6.33" height="0.25"/>
		<rect x="131.47" y="395.11" class="st0" width="93.68" height="0.25"/>
		<path class="st0" d="M237.01,337.8H43.92c-3.15,0-5.71-2.56-5.71-5.71V60.66c0-3.15,2.56-5.71,5.71-5.71h193.1
			c3.15,0,5.71,2.56,5.71,5.71v271.43C242.72,335.24,240.16,337.8,237.01,337.8z M43.92,55.2c-3.01,0-5.46,2.45-5.46,5.46v271.43
			c0,3.01,2.45,5.46,5.46,5.46h193.1c3.01,0,5.46-2.45,5.46-5.46V60.66c0-3.01-2.45-5.46-5.46-5.46H43.92z"/>
		<path class="st0" d="M453.31,337.8h-193.1c-3.15,0-5.71-2.56-5.71-5.71V60.66c0-3.15,2.56-5.71,5.71-5.71h193.1
			c3.15,0,5.71,2.56,5.71,5.71v271.43C459.02,335.24,456.46,337.8,453.31,337.8z M260.21,55.2c-3.01,0-5.46,2.45-5.46,5.46v271.43
			c0,3.01,2.45,5.46,5.46,5.46h193.1c3.01,0,5.46-2.45,5.46-5.46V60.66c0-3.01-2.45-5.46-5.46-5.46H260.21z"/>
	</g>
	<g>
		<g>
			<rect x="142.41" y="264.17" class="st0" width="145.07" height="92.28"/>
			<rect x="142.41" y="264.17" class="st1" width="145.07" height="6.25"/>
			<circle class="st2" cx="283.44" cy="267.3" r="1.88"/>
			<circle class="st2" cx="277.18" cy="267.3" r="1.88"/>
			<circle class="st2" cx="270.92" cy="267.3" r="1.88"/>
		</g>
		<g>
			<rect x="223.44" y="289.96" class="st3" width="145.07" height="92.28"/>
			<rect x="223.44" y="289.96" class="st1" width="145.07" height="6.25"/>
			<path class="st2" d="M366.35,293.08c0,1.04-0.84,1.88-1.88,1.88c-1.04,0-1.88-0.84-1.88-1.88c0-1.04,0.84-1.88,1.88-1.88
				C365.51,291.2,366.35,292.04,366.35,293.08z"/>
			<path class="st2" d="M360.09,293.08c0,1.04-0.84,1.88-1.88,1.88c-1.04,0-1.88-0.84-1.88-1.88c0-1.04,0.84-1.88,1.88-1.88
				C359.25,291.2,360.09,292.04,360.09,293.08z"/>
			<path class="st2" d="M353.83,293.08c0,1.04-0.84,1.88-1.88,1.88c-1.04,0-1.88-0.84-1.88-1.88c0-1.04,0.84-1.88,1.88-1.88
				C352.99,291.2,353.83,292.04,353.83,293.08z"/>
		</g>
		<path class="st0" d="M265.22,86.89c-0.12,0-0.24,0.01-0.37,0.02c0.16-0.85,0.25-1.72,0.25-2.61c0-7.95-6.44-14.39-14.39-14.39
			c-0.04,0-0.07,0.01-0.11,0.01c-1.9-3.29-5.44-5.5-9.51-5.5c-4.23,0-7.9,2.4-9.74,5.91c-0.98-0.26-2.01-0.41-3.07-0.41
			c-6.53,0-11.84,5.18-12.08,11.65c-2.69,2-4.44,5.19-4.44,8.8c0,6.06,4.92,10.98,10.98,10.98c0.91,0,1.79-0.12,2.63-0.33h37.69
			c0.68,0.21,1.41,0.33,2.16,0.33c3.99,0,7.22-3.23,7.22-7.22C272.45,90.12,269.21,86.89,265.22,86.89z"/>
		<path class="st0" d="M380.69,115.27c-0.09,0-0.19,0.01-0.28,0.01c0.12-0.65,0.19-1.32,0.19-2c0-6.09-4.93-11.02-11.02-11.02
			c-0.03,0-0.06,0-0.08,0c-1.45-2.52-4.17-4.21-7.28-4.21c-3.24,0-6.05,1.84-7.46,4.52c-0.75-0.2-1.54-0.31-2.35-0.31
			c-5,0-9.07,3.96-9.25,8.92c-2.06,1.53-3.4,3.98-3.4,6.74c0,4.64,3.76,8.41,8.41,8.41c0.8,0,1.58-0.12,2.32-0.33h28.35
			c0.58,0.21,1.21,0.33,1.87,0.33c3.05,0,5.53-2.48,5.53-5.53C386.22,117.75,383.75,115.27,380.69,115.27z"/>
		<path class="st0" d="M152.69,123.27c-0.09,0-0.19,0.01-0.28,0.01c0.12-0.65,0.19-1.32,0.19-2c0-6.09-4.93-11.02-11.02-11.02
			c-0.03,0-0.06,0-0.08,0c-1.45-2.52-4.17-4.21-7.28-4.21c-3.24,0-6.05,1.84-7.46,4.52c-0.75-0.2-1.54-0.31-2.35-0.31
			c-5,0-9.07,3.96-9.25,8.92c-2.06,1.53-3.4,3.98-3.4,6.74c0,4.64,3.76,8.41,8.41,8.41c0.8,0,1.58-0.12,2.32-0.33h28.35
			c0.58,0.21,1.21,0.33,1.87,0.33c3.05,0,5.53-2.48,5.53-5.53S155.75,123.27,152.69,123.27z"/>
		<g>
			<path class="st1" d="M78.78,346.78l-1.26-1.75c-0.46-0.64-1.2-1.02-1.96-1.02H66.7c-0.76,0-1.45,0.38-1.84,1.02l-1.06,1.75
				c-0.39,0.64-1.08,1.02-1.84,1.02h-5.29c-1.26,0-2.22,1.03-2.15,2.3l1.71,29.59c0.07,1.27,1.16,2.3,2.42,2.3h41.91
				c1.26,0,2.22-1.03,2.15-2.3L101,350.11c-0.07-1.27-1.16-2.3-2.42-2.3H80.74C79.98,347.81,79.24,347.42,78.78,346.78z"/>
			<path class="st4" d="M102.78,350.63H64.38c-1.6,0-3.01,1.29-3.16,2.88l-2.31,25.62c-0.14,1.59,1.04,2.88,2.64,2.88h38.39
				c1.6,0,3.01-1.29,3.16-2.88l2.31-25.62C105.56,351.91,104.38,350.63,102.78,350.63z"/>
		</g>
		<g>
			<path class="st1" d="M417.71,347.2l-1.26-1.75c-0.46-0.64-1.2-1.02-1.96-1.02h-8.86c-0.76,0-1.45,0.38-1.84,1.02l-1.06,1.75
				c-0.39,0.64-1.08,1.02-1.84,1.02h-5.29c-1.26,0-2.22,1.03-2.15,2.3l1.71,29.59c0.07,1.27,1.16,2.3,2.42,2.3h41.91
				c1.26,0,2.22-1.03,2.15-2.3l-1.71-29.59c-0.07-1.27-1.16-2.3-2.42-2.3h-17.85C418.91,348.23,418.17,347.84,417.71,347.2z"/>
			<path class="st4" d="M441.71,351.05h-38.39c-1.6,0-3.01,1.29-3.16,2.88l-2.31,25.62c-0.14,1.59,1.04,2.87,2.64,2.87h38.39
				c1.6,0,3.01-1.29,3.16-2.87l2.31-25.62C444.49,352.33,443.31,351.05,441.71,351.05z"/>
		</g>
		<g>
			<path class="st1" d="M296.97,323.29l-1.26-1.75c-0.46-0.64-1.2-1.02-1.96-1.02h-8.86c-0.76,0-1.45,0.38-1.84,1.02l-1.06,1.75
				c-0.39,0.64-1.08,1.02-1.84,1.02h-5.29c-1.26,0-2.22,1.03-2.15,2.3l1.71,29.59c0.07,1.27,1.16,2.3,2.42,2.3h41.91
				c1.26,0,2.22-1.03,2.15-2.3l-1.71-29.59c-0.07-1.27-1.16-2.3-2.42-2.3h-17.85C298.17,324.32,297.43,323.93,296.97,323.29z"/>
			<path class="st4" d="M320.96,327.14h-38.39c-1.6,0-3.01,1.29-3.16,2.88l-2.31,25.62c-0.14,1.59,1.04,2.87,2.64,2.87h38.39
				c1.6,0,3.01-1.29,3.16-2.87l2.31-25.62C323.75,328.43,322.57,327.14,320.96,327.14z"/>
		</g>
	</g>
</g>
<g id="Background_Simple" class="st5">
	<g class="st6">
		<path class="st7" d="M122.88,95.32c19-12.33,44.96-14.71,65.22-3.97c61.64,32.68,31.57,124.88,89.97,160.28
			c25.71,15.59,60.6,5.63,88.86,11.11c15.55,3.02,30.4,13.27,35.51,28.77c11.61,35.21-16.9,65.85-44.32,83.42
			c-74.39,47.7-177.77,19.55-232.19-45.37c-6.57-7.84-12.51-16.21-17.69-25.02c-19.38-32.97-27.31-71.95-25.68-109.96
			C84.07,159.41,91.04,115.98,122.88,95.32z"/>
		<path class="st8" d="M122.88,95.32c19-12.33,44.96-14.71,65.22-3.97c61.64,32.68,31.57,124.88,89.97,160.28
			c25.71,15.59,60.6,5.63,88.86,11.11c15.55,3.02,30.4,13.27,35.51,28.77c11.61,35.21-16.9,65.85-44.32,83.42
			c-74.39,47.7-177.77,19.55-232.19-45.37c-6.57-7.84-12.51-16.21-17.69-25.02c-19.38-32.97-27.31-71.95-25.68-109.96
			C84.07,159.41,91.04,115.98,122.88,95.32z"/>
	</g>
</g>
<g id="Shadow_1_">
	<ellipse id="_x3C_Path_x3E__359_" class="st3" cx="250" cy="416.24" rx="193.89" ry="11.32"/>
</g>
<g id="Script">
	<g>
		<g>
			<path class="st7" d="M161.63,305.91H61.95c-1.31,0-2.37-1.06-2.37-2.37V129.39c0-1.31,1.06-2.37,2.37-2.37h99.68
				c1.31,0,2.37,1.06,2.37,2.37v174.15C164,304.85,162.94,305.91,161.63,305.91z"/>
			<path class="st9" d="M161.63,305.91H61.95c-1.31,0-2.37-1.06-2.37-2.37V129.39c0-1.31,1.06-2.37,2.37-2.37h99.68
				c1.31,0,2.37,1.06,2.37,2.37v174.15C164,304.85,162.94,305.91,161.63,305.91z"/>
		</g>
		<g>
			<rect x="66.67" y="149.68" class="st7" width="19.67" height="2.67"/>
			<rect x="66.67" y="155.68" class="st7" width="19.67" height="2.67"/>
			<rect x="136.71" y="149.68" class="st7" width="19.67" height="2.67"/>
			<rect x="100.04" y="137.33" class="st7" width="19.67" height="2.67"/>
			<rect x="66.67" y="132.67" class="st7" width="89.71" height="2.67"/>
			<rect x="76.67" y="164" class="st7" width="79.7" height="2.67"/>
			<rect x="66.67" y="169.33" class="st7" width="89.71" height="2.67"/>
			<rect x="66.67" y="174.67" class="st7" width="89.71" height="2.67"/>
			<rect x="66.67" y="180" class="st7" width="89.71" height="2.67"/>
			<rect x="66.67" y="185.33" class="st7" width="79.7" height="2.67"/>
			<rect x="76.67" y="195.02" class="st7" width="79.7" height="2.67"/>
			<rect x="66.67" y="200.35" class="st7" width="89.71" height="2.67"/>
			<rect x="66.67" y="205.69" class="st7" width="89.71" height="2.67"/>
			<rect x="66.67" y="211.02" class="st7" width="89.71" height="2.67"/>
			<rect x="66.67" y="216.35" class="st7" width="79.7" height="2.67"/>
			<rect x="76.67" y="226.04" class="st7" width="79.7" height="2.67"/>
			<rect x="66.67" y="231.37" class="st7" width="89.71" height="2.67"/>
			<rect x="66.67" y="236.71" class="st7" width="89.71" height="2.67"/>
			<rect x="66.67" y="242.04" class="st7" width="89.71" height="2.67"/>
			<rect x="66.67" y="247.37" class="st7" width="79.7" height="2.67"/>
			<rect x="76.67" y="258.06" class="st7" width="79.7" height="2.67"/>
			<rect x="66.67" y="263.39" class="st7" width="89.71" height="2.67"/>
			<rect x="66.67" y="268.73" class="st7" width="89.71" height="2.67"/>
			<rect x="66.67" y="274.06" class="st7" width="89.71" height="2.67"/>
			<rect x="66.67" y="279.39" class="st7" width="79.7" height="2.67"/>
			<rect x="136.71" y="294.77" class="st7" width="19.67" height="2.67"/>
		</g>
		<g class="st10">
			<rect x="66.67" y="149.68" class="st11" width="19.67" height="2.67"/>
			<rect x="66.67" y="155.68" class="st11" width="19.67" height="2.67"/>
			<rect x="136.71" y="149.68" class="st11" width="19.67" height="2.67"/>
			<rect x="100.04" y="137.33" class="st11" width="19.67" height="2.67"/>
			<rect x="66.67" y="132.67" class="st11" width="89.71" height="2.67"/>
			<rect x="76.67" y="164" class="st11" width="79.7" height="2.67"/>
			<rect x="66.67" y="169.33" class="st11" width="89.71" height="2.67"/>
			<rect x="66.67" y="174.67" class="st11" width="89.71" height="2.67"/>
			<rect x="66.67" y="180" class="st11" width="89.71" height="2.67"/>
			<rect x="66.67" y="185.33" class="st11" width="79.7" height="2.67"/>
			<rect x="76.67" y="195.02" class="st11" width="79.7" height="2.67"/>
			<rect x="66.67" y="200.35" class="st11" width="89.71" height="2.67"/>
			<rect x="66.67" y="205.69" class="st11" width="89.71" height="2.67"/>
			<rect x="66.67" y="211.02" class="st11" width="89.71" height="2.67"/>
			<rect x="66.67" y="216.35" class="st11" width="79.7" height="2.67"/>
			<rect x="76.67" y="226.04" class="st11" width="79.7" height="2.67"/>
			<rect x="66.67" y="231.37" class="st11" width="89.71" height="2.67"/>
			<rect x="66.67" y="236.71" class="st11" width="89.71" height="2.67"/>
			<rect x="66.67" y="242.04" class="st11" width="89.71" height="2.67"/>
			<rect x="66.67" y="247.37" class="st11" width="79.7" height="2.67"/>
			<rect x="76.67" y="258.06" class="st11" width="79.7" height="2.67"/>
			<rect x="66.67" y="263.39" class="st11" width="89.71" height="2.67"/>
			<rect x="66.67" y="268.73" class="st11" width="89.71" height="2.67"/>
			<rect x="66.67" y="274.06" class="st11" width="89.71" height="2.67"/>
			<rect x="66.67" y="279.39" class="st11" width="79.7" height="2.67"/>
			<rect x="136.71" y="294.77" class="st11" width="19.67" height="2.67"/>
		</g>
	</g>
</g>
<g id="Data4">
	<g>
		<path class="st12" d="M166.63,315.43h-55.61c-1.31,0-2.37-1.06-2.37-2.37v-45.39c0-1.31,1.06-2.37,2.37-2.37h55.61
			c1.31,0,2.37,1.06,2.37,2.37v45.39C169,314.37,167.94,315.43,166.63,315.43z"/>
		<g>
			<path class="st7" d="M174.07,324.92h-55.61c-1.31,0-2.37-1.06-2.37-2.37v-45.39c0-1.31,1.06-2.37,2.37-2.37h55.61
				c1.31,0,2.37,1.06,2.37,2.37v45.39C176.44,323.86,175.38,324.92,174.07,324.92z"/>
			<path class="st13" d="M174.07,324.92h-55.61c-1.31,0-2.37-1.06-2.37-2.37v-45.39c0-1.31,1.06-2.37,2.37-2.37h55.61
				c1.31,0,2.37,1.06,2.37,2.37v45.39C176.44,323.86,175.38,324.92,174.07,324.92z"/>
		</g>
		<g>
			<rect x="122" y="304" class="st7" width="12" height="6"/>
			<rect x="135" y="304" class="st7" width="34" height="6"/>
			<rect x="122" y="296" class="st7" width="12" height="7"/>
			<rect x="122" y="289" class="st7" width="12" height="6"/>
			<rect x="135" y="296" class="st7" width="34" height="7"/>
			<rect x="135" y="311" class="st7" width="34" height="7"/>
			<rect x="135" y="289" class="st7" width="34" height="6"/>
			<rect x="122" y="311" class="st7" width="12" height="7"/>
			<rect x="122" y="281" class="st7" width="12" height="7"/>
			<rect x="135" y="281" class="st7" width="34" height="7"/>
		</g>
	</g>
</g>
<g id="Data3">
	<g>
		<path class="st12" d="M183.9,228.75h-55.61c-1.31,0-2.37-1.06-2.37-2.37v-45.4c0-1.31,1.06-2.37,2.37-2.37h55.61
			c1.31,0,2.37,1.06,2.37,2.37v45.4C186.27,227.69,185.21,228.75,183.9,228.75z"/>
		<g>
			<path class="st7" d="M195.07,226.38h-55.61c-1.31,0-2.37-1.06-2.37-2.37v-45.39c0-1.31,1.06-2.37,2.37-2.37h55.61
				c1.31,0,2.37,1.06,2.37,2.37v45.39C197.44,225.32,196.38,226.38,195.07,226.38z"/>
			<path class="st13" d="M195.07,226.38h-55.61c-1.31,0-2.37-1.06-2.37-2.37v-45.39c0-1.31,1.06-2.37,2.37-2.37h55.61
				c1.31,0,2.37,1.06,2.37,2.37v45.39C197.44,225.32,196.38,226.38,195.07,226.38z"/>
		</g>
		<g>
			<rect x="176" y="183" class="st7" width="15" height="7"/>
			<rect x="160" y="183" class="st7" width="15" height="7"/>
			<rect x="160" y="190" class="st7" width="15" height="30"/>
			<rect x="176" y="190" class="st7" width="15" height="30"/>
			<rect x="144" y="183" class="st7" width="15" height="7"/>
			<rect x="144" y="190" class="st7" width="15" height="30"/>
		</g>
	</g>
</g>
<g id="Data2">
	<g>
		<path class="st12" d="M202.8,281.37H147.2c-1.31,0-2.37-1.06-2.37-2.37v-45.4c0-1.31,1.06-2.37,2.37-2.37h55.61
			c1.31,0,2.37,1.06,2.37,2.37V279C205.17,280.31,204.11,281.37,202.8,281.37z"/>
		<g>
			<path class="st7" d="M223.07,278.15h-55.61c-1.31,0-2.37-1.06-2.37-2.37v-45.39c0-1.31,1.06-2.37,2.37-2.37h55.61
				c1.31,0,2.37,1.06,2.37,2.37v45.39C225.44,277.09,224.38,278.15,223.07,278.15z"/>
			<path class="st13" d="M223.07,278.15h-55.61c-1.31,0-2.37-1.06-2.37-2.37v-45.39c0-1.31,1.06-2.37,2.37-2.37h55.61
				c1.31,0,2.37,1.06,2.37,2.37v45.39C225.44,277.09,224.38,278.15,223.07,278.15z"/>
		</g>
		<g>
			<rect x="196" y="235" class="st7" width="23" height="17"/>
			<rect x="172" y="235" class="st7" width="23" height="17"/>
			<rect x="172" y="253" class="st7" width="23" height="19"/>
			<rect x="196" y="253" class="st7" width="23" height="19"/>
		</g>
		<path class="st10" d="M225,230.39V264h-20.73c-2.6,0-4.27-1.86-4.27-4.46V228h23.07C224.38,228,225,229.08,225,230.39z"/>
	</g>
</g>
<g id="Data1">
	<g>
		<path class="st12" d="M204.07,181.62h-55.61c-1.31,0-2.37-1.06-2.37-2.37v-45.39c0-1.31,1.06-2.37,2.37-2.37h55.61
			c1.31,0,2.37,1.06,2.37,2.37v45.39C206.44,180.56,205.38,181.62,204.07,181.62z"/>
		<g>
			<path class="st7" d="M214.07,172.61h-55.61c-1.31,0-2.37-1.06-2.37-2.37v-45.39c0-1.31,1.06-2.37,2.37-2.37h55.61
				c1.31,0,2.37,1.06,2.37,2.37v45.39C216.44,171.55,215.38,172.61,214.07,172.61z"/>
			<path class="st13" d="M214.07,172.61h-55.61c-1.31,0-2.37-1.06-2.37-2.37v-45.39c0-1.31,1.06-2.37,2.37-2.37h55.61
				c1.31,0,2.37,1.06,2.37,2.37v45.39C216.44,171.55,215.38,172.61,214.07,172.61z"/>
		</g>
		<g>
			<rect x="180" y="129" class="st7" width="19" height="5"/>
			<rect x="180" y="135" class="st7" width="9" height="31"/>
			<rect x="200" y="129" class="st7" width="10" height="5"/>
			<rect x="200" y="135" class="st7" width="10" height="31"/>
			<rect x="190" y="135" class="st7" width="9" height="31"/>
			<rect x="163" y="135" class="st7" width="16" height="31"/>
			<rect x="163" y="129" class="st7" width="16" height="5"/>
		</g>
	</g>
</g>
<g id="Visual4">
	<g>
		<g>
			<path class="st7" d="M380.09,317.19H312c-2.6,0-4.71-2.11-4.71-4.71V244.4c0-2.6,2.11-4.71,4.71-4.71h68.09
				c2.6,0,4.71,2.11,4.71,4.71v68.09C384.8,315.09,382.69,317.19,380.09,317.19z"/>
			<g>
				<rect x="317.42" y="249.82" class="st14" width="57.58" height="57.25"/>
				<polygon class="st14" points="317.42,307 332.08,294.95 336.87,298.81 352.05,285.99 359.51,293.33 375,280.33 375,307 				"/>
				<polygon class="st14" points="317.42,307 329.83,283.72 344.33,285.98 355.17,271.82 366.33,273.83 375,265.17 375,307 				"/>
				<polygon class="st14" points="317.42,307 346.05,303.47 355.33,298.82 365.33,299.82 375,295 375,307 				"/>
			</g>
		</g>
		<path class="st10" d="M377,240v8.04c0,2.6-2.44,4.96-5.04,4.96H316v23.48c0,2.6-2.36,4.52-4.96,4.52H307v-36.6
			c0-2.6,2.4-4.4,5-4.4H377z"/>
	</g>
</g>
<g id="Visual3">
	<g>
		<g>
			<path class="st7" d="M285.71,251.38h-68.09c-2.6,0-4.71-2.11-4.71-4.71v-68.09c0-2.6,2.11-4.71,4.71-4.71h68.09
				c2.6,0,4.71,2.11,4.71,4.71v68.09C290.41,249.28,288.3,251.38,285.71,251.38z"/>
			<g>
				<path class="st15" d="M261.5,195H241.5c-0.48,0-0.87-0.39-0.87-0.87v-11.29c0-0.48,0.39-0.87,0.87-0.87h20.01
					c0.48,0,0.87,0.39,0.87,0.87v11.29C262.38,194.61,261.98,195,261.5,195z"/>
				<path class="st16" d="M246.24,219.95h-15.85c-0.48,0-0.87-0.39-0.87-0.87v-8.21c0-0.48,0.39-0.87,0.87-0.87h15.85
					c0.48,0,0.87,0.39,0.87,0.87v8.21C247.11,219.56,246.72,219.95,246.24,219.95z"/>
				<path class="st16" d="M272.93,219.95h-15.85c-0.48,0-0.87-0.39-0.87-0.87v-8.21c0-0.48,0.39-0.87,0.87-0.87h15.85
					c0.48,0,0.87,0.39,0.87,0.87v8.21C273.8,219.56,273.41,219.95,272.93,219.95z"/>
				<g>
					<path class="st17" d="M256.52,239.55h-7.49c-0.48,0-0.87-0.39-0.87-0.87v-6.76c0-0.48,0.39-0.87,0.87-0.87h7.49
						c0.48,0,0.87,0.39,0.87,0.87v6.76C257.39,239.16,257,239.55,256.52,239.55z"/>
					<path class="st17" d="M268.25,239.55h-7.49c-0.48,0-0.87-0.39-0.87-0.87v-6.76c0-0.48,0.39-0.87,0.87-0.87h7.49
						c0.48,0,0.87,0.39,0.87,0.87v6.76C269.12,239.16,268.73,239.55,268.25,239.55z"/>
					<path class="st17" d="M279.97,239.55h-7.49c-0.48,0-0.87-0.39-0.87-0.87v-6.76c0-0.48,0.39-0.87,0.87-0.87h7.49
						c0.48,0,0.87,0.39,0.87,0.87v6.76C280.84,239.16,280.45,239.55,279.97,239.55z"/>
				</g>
				<path class="st17" d="M229.39,239.55h-7.49c-0.48,0-0.87-0.39-0.87-0.87v-6.76c0-0.48,0.39-0.87,0.87-0.87h7.49
					c0.48,0,0.87,0.39,0.87,0.87v6.76C230.26,239.16,229.87,239.55,229.39,239.55z"/>
				<path class="st17" d="M242.11,239.55h-7.49c-0.48,0-0.87-0.39-0.87-0.87v-6.76c0-0.48,0.39-0.87,0.87-0.87h7.49
					c0.48,0,0.87,0.39,0.87,0.87v6.76C242.99,239.16,242.6,239.55,242.11,239.55z"/>
				<g class="st18">
					<polygon class="st11" points="264,210 265,210 265,203 252,203 252,195 251,195 251,203 238,203 238,210 239,210 239,204 
						264,204 					"/>
					<polygon class="st11" points="238,226 225,226 225,231 226,231 226,227 238,227 238,231 239,231 239,220 238,220 					"/>
					<polygon class="st11" points="265,227 265,220 264,220 264,227 252,227 252,231 253,231 253,228 264,228 264,231 265,231 
						265,228 276,228 276,231 277,231 277,227 					"/>
				</g>
			</g>
		</g>
		<path class="st10" d="M290,178.59V201h-54.93c-2.6,0-5.07-2.36-5.07-4.96V174h55.71C288.3,174,290,175.99,290,178.59z"/>
	</g>
</g>
<g id="Visual2">
	<g>
		<g>
			<path class="st7" d="M391.97,217.69h-68.09c-2.6,0-4.71-2.11-4.71-4.71v-68.09c0-2.6,2.11-4.71,4.71-4.71h68.09
				c2.6,0,4.71,2.11,4.71,4.71v68.09C396.68,215.58,394.57,217.69,391.97,217.69z"/>
			<g>
				<rect x="329.14" y="150.31" class="st14" width="57.58" height="57.25"/>
				<g>
					<g>
						<rect x="335.02" y="185.5" class="st19" width="5.8" height="14.87"/>
						<rect x="335.02" y="185.5" class="st19" width="5.8" height="22.06"/>
					</g>
					<g>
						<rect x="345.02" y="175.08" class="st19" width="5.8" height="21.89"/>
						<rect x="345.02" y="175.08" class="st19" width="5.8" height="32.48"/>
					</g>
					<g>
						<rect x="355.03" y="181.49" class="st19" width="5.8" height="17.57"/>
						<rect x="355.03" y="181.49" class="st19" width="5.8" height="26.07"/>
					</g>
					<g>
						<rect x="365.04" y="172.49" class="st19" width="5.8" height="23.64"/>
						<rect x="365.04" y="172.49" class="st19" width="5.8" height="35.07"/>
					</g>
					<g>
						<rect x="375.04" y="158.74" class="st19" width="5.8" height="32.9"/>
						<rect x="375.04" y="158.74" class="st19" width="5.8" height="48.82"/>
					</g>
				</g>
			</g>
		</g>
		<path class="st10" d="M340,140v42.4c0,2.6-2.23,4.6-4.83,4.6H319v-42.11c0-2.6,2.29-4.89,4.88-4.89H340z"/>
	</g>
</g>
<g id="Visual1">
	<g>
		<path class="st7" d="M328.07,164.54h-68.09c-2.6,0-4.71-2.11-4.71-4.71V91.74c0-2.6,2.11-4.71,4.71-4.71h68.09
			c2.6,0,4.71,2.11,4.71,4.71v68.09C332.77,162.43,330.67,164.54,328.07,164.54z"/>
		<g>
			
				<ellipse transform="matrix(0.1602 -0.9871 0.9871 0.1602 122.7642 395.8625)" class="st14" cx="294.02" cy="125.79" rx="25.41" ry="25.41"/>
			<path class="st14" d="M294.02,125.79l24.97,4.75c-2.27,11.94-12.81,20.67-24.97,20.67c-13.94,0-25.41-11.47-25.41-25.41
				c0-13.94,11.47-25.41,25.41-25.41V125.79z"/>
			<path class="st14" d="M294.02,125.79l-0.07,25.41c-13.91-0.04-25.34-11.5-25.34-25.41c0-13.94,11.47-25.41,25.41-25.41V125.79z"
				/>
			<path class="st14" d="M294.02,125.79l-13.4-21.6c1.99-1.23,4.14-2.19,6.39-2.83c2.25-0.65,4.58-0.98,6.92-0.98L294.02,125.79z"/>
		</g>
	</g>
</g>
<g id="Character">
	<g id="_x3C_Group_x3E__22_">
		<path class="st20" d="M428.25,176c0,0,13.5,23.66,14.5,29.33s-11.5,41.92-11.5,41.92s2.75,9.54-0.25,11.15c-3,1.6-8.24,4.85-9,2.1
			s0-11.82,0-11.82l2.25-1.93c0,0,7.97-37.88,7.98-39.19c0.01-1.31-14.51-23.65-14.51-23.65L428.25,176z"/>
		<polygon class="st20" points="378.48,407.03 370.37,407.88 369.96,403.18 368.85,390.39 376.96,389.53 378.19,403.66 		"/>
		<polygon class="st20" points="418.96,406 411.1,406 411.03,404.22 411.02,404 410.62,392.6 410.61,392.37 410.45,388 418.32,388 
					"/>
		<polygon class="st10" points="376.96,389.53 378.19,403.66 369.96,403.18 368.85,390.39 		"/>
		<polygon class="st10" points="418.91,405 418.9,405 411.03,404 411.02,404 410.61,393 410.62,393 418.5,393.63 418.9,404.65 		"/>
		<path class="st21" d="M437.28,187.33l-13.53,9.2l-0.26-0.33l-8.21-10.7l-5.03-6.56l7.43-20.2
			C426.25,162,437.28,187.33,437.28,187.33z"/>
		<path class="st10" d="M423.49,196.2l-8.21-10.7l6.59-10.11C421.87,175.39,425.9,185.83,423.49,196.2z"/>
		<path class="st21" d="M410.01,405.53h9.55c0.32,0,0.6,0.23,0.67,0.54l1.55,7c0.13,0.63-0.27,1.24-0.89,1.37
			c-0.08,0.02-0.17,0.03-0.26,0.03c-3.09-0.05-5.34-0.24-9.22-0.24c-2.39,0-9.6,0.25-12.9,0.25c-3.3,0-3.73-3.26-2.38-3.56
			c6.06-1.32,10.62-3.15,12.56-4.89C409.05,405.7,409.52,405.52,410.01,405.53z"/>
		<path class="st21" d="M369.51,405.28h9.55c0.32,0,0.6,0.23,0.67,0.54l1.55,7c0.13,0.63-0.27,1.24-0.89,1.37
			c-0.08,0.02-0.17,0.03-0.26,0.03c-3.09-0.05-5.34-0.24-9.22-0.24c-2.39,0-9.6,0.25-12.9,0.25c-3.3,0-3.73-3.26-2.38-3.56
			c6.06-1.32,10.62-3.15,12.56-4.89C368.55,405.45,369.02,405.27,369.51,405.28z"/>
		<path class="st7" d="M368.11,402h11.53c0,0-0.94-99.26,11.53-132.77c0.88,11.08,1.87,22.58,2.84,32.16
			c0.61,5.93,1.21,11.02,1.78,14.9c3.63,25,12.79,86.71,12.79,86.71h11.39c0,0-1.35-59.14-2.7-83.7c-1.49-26.67-2.13-85.3-2.19-90.3
			h-41.72C369.39,250,359.21,334,368.11,402z"/>
		<path class="st22" d="M368.11,402h11.53c0,0-0.94-99.26,11.53-132.77c0.88,11.08,1.87,22.58,2.84,32.16
			c0.61,5.93,1.21,11.02,1.78,14.9c3.63,25,12.79,86.71,12.79,86.71h11.39c0,0-1.35-59.14-2.7-83.7c-1.49-26.67-2.13-85.3-2.19-90.3
			h-41.72C369.39,250,359.21,334,368.11,402z"/>
		<g>
			<path class="st20" d="M388.5,140.87c0.1,0.38,0.21,0.75,0.34,1.11c0.77,2.16,2.16,3.94,3.89,5.18c0.45,0.33,0.93,0.62,1.42,0.88
				c2.61,1.34,5.71,1.6,8.52,0.38c1.15-0.49,2.26-1.23,3.25-2.25c3.94-3.98,3.83-8.57,4.28-16.35c0.12-1.67-0.14-3.35-0.79-4.89
				c-2.26-5.43-8.49-8-13.92-5.74C387.86,122.3,386.82,133.87,388.5,140.87z"/>
			<path class="st10" d="M392.73,147.17c0.45,0.33,0.93,0.62,1.42,0.88c2.61,1.34,5.71,1.6,8.52,0.38c-0.55-1.5-1.39-2.64-1.39-2.64
				S396.64,145.07,392.73,147.17z"/>
			<path class="st20" d="M408.38,157.25c-3.83,3.48-13.21,2.19-13.21,2.19s-5.86-1.6-4.63-3.43c3.45-0.57,5.12-2.18,5.81-4.24
				c0.4-1.2,0.46-2.55,0.35-3.94c-0.05-0.73-0.16-1.47-0.29-2.2l11.6-8.59C406.49,142.71,404.63,153.14,408.38,157.25z"/>
			<path class="st21" d="M392.23,124.39c0.08,0.22-0.12,0.67-0.26,1.18c-0.28,1-0.42,2.03-0.42,3.07c-0.01,3.45,1.6,6.59,4.02,8.98
				c0.87,3.14,2.04,6.21,3.5,9.1c0.15,0.29,0.31,0.6,0.58,0.77c0.32,0.21,0.73,0.21,1.12,0.19c2.26-0.08,4.52-0.16,6.78-0.24
				c0.4-0.01,0.86-0.06,1.09-0.38c0.13-0.18,0.16-0.4,0.25-0.61c0.61-1.46,3.2-0.77,4.08-2.08c0.36-0.54,0.31-1.24,0.52-1.85
				c0.56-1.62,2.86-2.47,2.77-4.18c-0.05-1-0.96-1.9-0.68-2.86c0.27-0.94,1.5-1.26,1.96-2.12c0.47-0.88-0.02-1.95-0.55-2.8
				c-0.53-0.85-1.13-1.81-0.86-2.77c0.11-0.38,0.34-0.71,0.52-1.06c0.66-1.33,0.38-3.08-0.67-4.13c-0.42-0.42-0.96-0.75-1.24-1.29
				c-0.46-0.88-0.07-2.05-0.63-2.87c-0.55-0.81-1.71-0.85-2.69-0.79c-0.98,0.06-2.13,0.05-2.72-0.74c-0.42-0.56-0.4-1.38-0.86-1.9
				c-0.65-0.75-1.86-0.54-2.78-0.17c-0.92,0.37-1.96,0.84-2.86,0.42c-0.62-0.29-1-0.93-1.57-1.31c-0.79-0.54-1.94-0.47-2.66,0.15
				c-0.5,0.43-0.81,1.08-1.37,1.42c-0.8,0.48-1.81,0.2-2.71-0.01c-0.9-0.22-2.02-0.29-2.61,0.43c-0.84,1.02,0.07,2.79-0.79,3.8
				c-0.49,0.58-1.39,0.65-1.92,1.19c-0.74,0.74-0.28,2.25,0.74,2.46c0.3,0.06,0.69,0.08,0.8,0.37c0.05,0.12,0.02,0.25,0.06,0.38
				c0.11,0.39,0.66,0.41,1.03,0.28C391.88,124.19,392.16,124.21,392.23,124.39z"/>
			<path class="st20" d="M397.15,134.35c-0.46,1.69-1.4,2.93-2.59,3.45c-1.58,0.67-2.62-1.56-2.39-3.9c0.22-2.07,1.29-4.99,2.98-4.6
				C396.85,129.69,397.7,132.26,397.15,134.35z"/>
		</g>
		<path class="st10" d="M391.17,269.18c0.88,11.08,1.87,22.6,2.84,32.18c1.42-13.83,3.16-23.69,3.16-23.69s1.63-1.34,6.11-8.49
			c4.48-7.16,0-20.5,0-20.5C403.42,261.08,391.17,269.18,391.17,269.18z"/>
		<path class="st21" d="M417,237.33L369.33,235c0,0,1.37-26.27,6.34-51.75c1.38-7.04,3.02-14.01,5-20.36
			c1.1-3.57,2.31-6.94,3.63-10.01c0,0,29.63,2.45,35.67,7.12C426,164.67,416.67,213,417,237.33z"/>
		<path class="st21" d="M392.14,153.68c0,0,4.53-3.56,13.03-3.37s9.33,3.37,9.33,3.37s9.33,4.66,2,12.32s-21.77-11.76-21.77-11.76
			L392.14,153.68z"/>
		<path class="st14" d="M392.14,153.68c0,0,4.53-3.56,13.03-3.37s9.33,3.37,9.33,3.37s9.33,4.66,2,12.32s-21.77-11.76-21.77-11.76
			L392.14,153.68z"/>
		<path class="st10" d="M385.05,163.5c0,0-2.07,13.53-9.38,19.75c1.38-7.04,3.02-14.01,5-20.36L385.05,163.5z"/>
		<path class="st20" d="M378.94,153.06c0,0-29.61-6.05-33.77-7.64C341,143.83,319,122.79,319,122.79l-4.82,3.64
			c0,0,16.49,21.41,24.74,27.57c8.25,6.17,37.13,15.49,37.13,15.49L378.94,153.06z"/>
		<path class="st23" d="M385.12,153.06l-25.79-4.71l-0.67,17.82l19.27,7.83C377.94,174,390.09,161.81,385.12,153.06z"/>
		<path class="st20" d="M319,122.79c-2.38-2.7-11.02-8.56-12.27-9.06s-3.11,7.15-2.74,8.15s4.61,3.12,6.75,3.38s4.43,2.44,4.43,2.44
			L319,122.79z"/>
		<g>
			<polygon class="st21" points="357.93,147.7 360.76,148.35 359.47,166.49 356.76,165.5 			"/>
			<polygon class="st14" points="357.93,147.7 360.76,148.35 359.47,166.49 356.76,165.5 			"/>
		</g>
		<g>
			<polygon class="st21" points="422,196.38 437.28,186.03 438.33,188.67 423.77,197.83 			"/>
			<polygon class="st14" points="422,196.38 437.28,186.03 438.33,188.67 423.77,197.83 			"/>
		</g>
		<polygon class="st7" points="366.81,398.75 367.38,402 381,402 381,399 		"/>
		<polygon class="st7" points="407.27,400 408.58,403 420,403 420.75,400 		"/>
	</g>
</g>
</svg>
